<svg xmlns="http://www.w3.org/2000/svg" width="367.07" height="288.201" viewBox="0 0 367.07 288.201">
  <g id="Group_383" data-name="Group 383" transform="translate(-327.52 -16.569)">
    <g id="Group_355" data-name="Group 355">
      <path id="Path_598" data-name="Path 598" d="M694.59,302.19,667.97,280.6H363.55l-36.03,21.38Z" fill="#b5a555"/>
      <path id="Path_599" data-name="Path 599" d="M455.89,284.4h-1.32c-15.47-.1-30.96-.19-46.42.43-7.86.31-15.7.81-23.53,1.58-4.92.49-14.96-.27-18.33,4.06-4.03,5.18,4.64,8.7,8.21,9.16,12.2,1.58,24.57,1.18,36.86.79,37.55-1.22,75.16-2.94,112.68-3.05q44.865-.135,89.74-.28c11.41-.04,22.82-.07,34.22-.47,5.93-.21,12.09-.58,17.28-3.46,4.96-2.76-5.54-5.42-7.45-5.68-12.43-1.68-24.58-1.97-37.09-2.05q-82.425-.51-164.84-1.03Z" fill="#b5a555" opacity="0.29"/>
      <line id="Line_13" data-name="Line 13" x1="367.07" transform="translate(327.52 303.34)" fill="none" stroke="#cdceaa" stroke-miterlimit="10" stroke-width="2.86"/>
    </g>
    <g id="Group_360" data-name="Group 360">
      <g id="Group_357" data-name="Group 357">
        <path id="Path_600" data-name="Path 600" d="M531.03,179.45a3.614,3.614,0,0,1,.7-2.05c3.11-3.58,12.21-4.43,16.65-5.17a6.792,6.792,0,0,0,1.94-.52,6.537,6.537,0,0,0,1.31-.97,107.879,107.879,0,0,1,20.4-14.37q2.19-1.185,4.43-2.29c6.31-3.14,14.01-5.75,14.66-13.87a25.045,25.045,0,0,0-.63-6.38c-2.06-11.52-2.74-23.22-3.41-34.89-.17-2.87-.33-5.74-.32-8.62.02-3.06.24-6.11.46-9.16q.765-10.665,1.54-21.32c.45-6.2.56-12.4,2.79-18.3,1.64-4.34,4.87-7.62,6.82-11.82a32.841,32.841,0,0,0,2.24-6.52c.14-.6.73-6.58.8-6.6.8-.22,1.32.79,1.48,1.58a25.031,25.031,0,0,1,.75,6.49,16.586,16.586,0,0,1-1.39,6,10.976,10.976,0,0,1,3.25-1.16,1.074,1.074,0,0,1,.47-.02,1.085,1.085,0,0,1,.37.19c1.93,1.34,3.31,3.09,5.39,4.28-.98,1.91-1.2,3.88-1.86,5.87-.44,1.33-.48,3.34-1.25,4.46a3.791,3.791,0,0,1-1.04.91,28.331,28.331,0,0,1-10.26,4.49,1.492,1.492,0,0,0-1.08.56,1.356,1.356,0,0,0-.11.66,189.16,189.16,0,0,0,1.51,20.59c.73,6.67.71,13.06.95,19.74a69.069,69.069,0,0,0,.96,8.24q1.755,11.205,3.52,22.4c.46,2.91.7,5.97,1.96,8.64,1.28,2.71,2.85,5.25,3.71,8.17.95,3.21.78,6.76.95,10.07.15,2.89-.22,6.39.5,9.2.59,2.3,2.09,4.69,3.09,6.87,2.57,5.63,5.35,11.17,7.44,16.99,2.15,5.98,4.18,13.28,4.41,19.62a75.84,75.84,0,0,1-.69,9.98,69.086,69.086,0,0,0,.22,18c.5,2.94,1.41,5.8,2.1,8.71.87,3.65,4.44,47.12,4.39,47.12a103.216,103.216,0,0,1,22.34,2.68c.68.15,7.03,1.76,6.96,2.63-.07.77-1.12.99-1.92.99-4.79,0-9.59-.18-14.37-.54.28.73,1.37.97,1.53,1.73.14.67-.62,1.25-1.32,1.26a5.194,5.194,0,0,1-2-.63c-5-2.17-12.48-.57-17.97-1.5.84-10.82-4.07-21-6.31-31.42-1.96-9.13-3.19-18.39-4.48-27.63-.84-6.03-2.47-12.28-2.81-18.34-.3-5.3,0-9.7-3.62-14.28-1.16-1.46-5.18.1-6.65.34-3.02.5-6.06.93-9.1,1.31-7.71.96-15.53,1.01-23.16,2.35a3.651,3.651,0,0,0-1.46.48,3.5,3.5,0,0,0-1.06,1.52c-3.14,7.04-8.25,14.37-15.04,18.54-5.4-6.37-11.91-12.6-15.53-20.2a46.72,46.72,0,0,1-4.15-25.1ZM600.25,38.06a6.454,6.454,0,0,0,.94,3.32.67.67,0,0,0,.81.36c2.3-.29,3.48-1.83,4.25-3.79.02-.06.05-.13.07-.19.7-1.87,2.03-3.8,4.36-3.57-1.05-.53-2.22.46-3.33.15a3.592,3.592,0,0,1-2.07-1.99,16.088,16.088,0,0,1-3.03,2.4,4.735,4.735,0,0,0-1.65,1.34,3.408,3.408,0,0,0-.37,1.97Z" fill="#ffcfcf"/>
        <path id="Path_601" data-name="Path 601" d="M608.29,151.03c-3.12.37-7.03,3.13-10.09,4.18a87.7,87.7,0,0,1-10.53,2.88c-2.9.6-6.06,1.53-8.93,1.88-3.27.4-6.62-1.13-9.8-1.65,7.1-5.32,21.32-7.26,22.19-18.1a25.045,25.045,0,0,0-.63-6.38c-2.06-11.52-2.74-23.22-3.41-34.89-.17-2.87-.33-5.74-.32-8.62.02-3.06.24-6.11.46-9.16q.765-10.665,1.54-21.32c.45-6.2.56-12.4,2.79-18.3a29.718,29.718,0,0,1,5.11-8.66c-1.34,6.41-3.86,12.15-4.49,18.87a174.743,174.743,0,0,0-.28,20.85c.33,11.99,1.15,23.81,2.23,35.78a63.856,63.856,0,0,0,1.76,11.53c.91,3.26,2.33,6.37,3.11,9.66a26.326,26.326,0,0,1-4.35,21.39,54.932,54.932,0,0,0,13.62.06Z" fill="#ffcfcf" opacity="0.53"/>
        <path id="Path_602" data-name="Path 602" d="M608.42,195.29a14,14,0,0,0-1.35,2.61c1.86-.14,3.84-.26,5.47.63,1.77.97,2.75,2.91,3.42,4.81,2.45,7,1.96,14.52,2.41,21.8.21,3.36.4,7.29,1.61,10.46,1.33,3.5,2.96,6.3,3.39,10.16.4,3.59.26,7.22.35,10.83.29,10.89,2.67,21.67,4.86,32.29a1.639,1.639,0,0,0,.18.54,1.2,1.2,0,0,0,.37.34c1.76,1.16,4.79.58,6.85.97a57.067,57.067,0,0,1,8.78,2.41c.32-1.22-1.05-2.17-2.22-2.63a31.24,31.24,0,0,0-6.58-1.78c7.34-1.25,14.77.91,22.09,2.31a2.374,2.374,0,0,0,2.14-.3,47.315,47.315,0,0,0-14.39-3.78,48.071,48.071,0,0,1,14.14,3.19c1.64.64-.64,1.49-1.36,1.49-4.79,0-9.59-.18-14.37-.54.28.73,1.37.97,1.53,1.73.14.67-.62,1.25-1.32,1.26a5.029,5.029,0,0,1-2-.63c-5-2.17-12.48-.57-17.97-1.5.84-10.82-4.07-21-6.31-31.42-1.96-9.13-3.19-18.39-4.48-27.63-.84-6.03-2.47-12.28-2.81-18.34-.3-5.3,0-9.7-3.62-14.28-1.16-1.46-5.18.1-6.65.34-3.02.5-6.06.93-9.1,1.31-7.71.96-15.53,1.01-23.16,2.35a3.651,3.651,0,0,0-1.46.48,3.5,3.5,0,0,0-1.06,1.52c-3.08,6.9-8.1,14.88-15.02,18.46-6.47-7.2-12.17-13.81-14.77-23.56-2.24-8.41-1.79-17.68,2.13-25.45,1.13,6.15,3.28,12.64,8.41,16.24,1.67,1.17,4.01,1.95,5.69.78,1.14-.79,1.59-2.22,2.17-3.48a13.864,13.864,0,0,1,6.98-6.83,25.874,25.874,0,0,1,.51-18.14c1.68,8.32,4.08,17.34,11,22.24,11.5,8.15,28.42-.53,39.54-5.08.32-.13.68-.3.79-.63a1.243,1.243,0,0,0-.11-.84c-.77-1.99-1.53-3.97-2.3-5.96,2.73.56,4.56,3.06,6.11,5.37,1.66,2.47,3.35,5.01,4.01,7.91-1.09-1.28-3.17-.44-4.53.54-2.94,2.12-5.99,4.39-7.99,7.42ZM611.58,32.4c-2.53.16-4.24-2.27-5.06-4.38a19.6,19.6,0,0,1-5.44,3.89c-.52.25-1.11.54-1.3,1.09a2.013,2.013,0,0,0-.07.6c-.02,1.99.04,3.86,1.52,5.35-.52-1.4-.97-3.41.24-4.57a5.285,5.285,0,0,1,1.13-.75,21.071,21.071,0,0,0,3.06-2.07,5.338,5.338,0,0,0,2.56,1.4,3.923,3.923,0,0,0-1.56,1.78c-.28.69-.33,1.46-.64,2.13a5.514,5.514,0,0,1-1.57,1.83c-.5.43-1.6,1.58-2.36,1.22a2.009,2.009,0,0,1-.69-.67c1.25,1.69,1.55,1.85,3.68,1.28,1.9-.51,2.82-2.01,3.63-3.67.41-.85,1.77-4.39,2.87-4.45Z" fill="#ffcfcf" opacity="0.61"/>
        <g id="Group_356" data-name="Group 356">
          <path id="Path_603" data-name="Path 603" d="M611.36,33.99a12.582,12.582,0,0,1-1.73.59,5.407,5.407,0,0,1-1.89.14,4.633,4.633,0,0,1-.49-.09,2.7,2.7,0,0,1-.48-.16,3.578,3.578,0,0,1-.88-.52,2.654,2.654,0,0,1-1.04-1.85l.96.17a4.934,4.934,0,0,1-1.42,1.76,12.9,12.9,0,0,1-1.79,1.15,16.749,16.749,0,0,0-1.73,1.01,2.346,2.346,0,0,0-.64.69,1.627,1.627,0,0,0-.21.95,1.486,1.486,0,0,1-.05-1.06,2.542,2.542,0,0,1,.55-.97,10.127,10.127,0,0,1,1.65-1.33,18.287,18.287,0,0,0,1.59-1.19,4.463,4.463,0,0,0,1.13-1.42l.87-1.73.09,1.9a1.876,1.876,0,0,0,.65,1.22,2.9,2.9,0,0,0,.64.44c.12.06.24.12.36.17a3.4,3.4,0,0,0,.38.12,6.265,6.265,0,0,0,1.69.15c.59,0,1.18-.09,1.79-.13Z" fill="#e8a6a6"/>
          <path id="Path_604" data-name="Path 604" d="M609.83,34.29l-.5.25a5.5,5.5,0,0,0-1.19.75c-.1.1-.21.21-.31.32-.08.12-.17.22-.25.35a5.811,5.811,0,0,0-.45.9c-.26.67-.47,1.44-.77,2.23a6.4,6.4,0,0,1-.6,1.16,3.962,3.962,0,0,1-.91.96c-.11.08-.17.11-.25.17a2.644,2.644,0,0,1-.29.15c-.18.08-.36.15-.53.21-.34.12-.66.21-.95.29a6.33,6.33,0,0,0-1.34.49,3.023,3.023,0,0,0-.46.31,1.933,1.933,0,0,1,.33-.47,4.146,4.146,0,0,1,1.25-.87c.27-.14.56-.28.87-.44.15-.08.29-.16.43-.25l.19-.13a1.991,1.991,0,0,0,.2-.16,4.461,4.461,0,0,0,1.12-1.79c.3-.71.53-1.51.91-2.22a4.5,4.5,0,0,1,.66-.99,3.971,3.971,0,0,1,.41-.41c.14-.1.28-.19.42-.28a4.188,4.188,0,0,1,1.47-.47c.36-.05.56-.06.56-.06Z" fill="#e8a6a6"/>
          <path id="Path_605" data-name="Path 605" d="M602.09,16.79a1.476,1.476,0,0,1,.22.15,1.877,1.877,0,0,1,.48.58,8.357,8.357,0,0,1,.77,2.53q.12.81.24,1.74c.04.31.08.64.12.97s.05.66.06,1a16.653,16.653,0,0,1,0,2.12c-.05.75-.16,1.44-.25,2.16a12.83,12.83,0,0,1-.47,2.19,1.471,1.471,0,0,1-.43.67,1.941,1.941,0,0,1-.62.26c-.33.1-.62.21-.93.33a35.6,35.6,0,0,0-3.26,1.59,4.387,4.387,0,0,0-1.16.75,1.56,1.56,0,0,0-.33.97,1.281,1.281,0,0,1-.24.71.581.581,0,0,1-.21.16.555.555,0,0,0,.16-.19,1.432,1.432,0,0,0,.09-.69,1.891,1.891,0,0,1,.23-1.18,4.1,4.1,0,0,1,1.16-1.02,22.488,22.488,0,0,1,3.21-1.91c.31-.14.65-.29.98-.41a2.131,2.131,0,0,0,.34-.14c-.03.03.06-.09.1-.23a12.663,12.663,0,0,0,.39-2c.09-.71.22-1.43.28-2.09.05-.68.08-1.36.08-2.03V22.8c-.01-.32-.03-.62-.04-.93-.02-.61-.05-1.19-.07-1.72a9.587,9.587,0,0,0-.38-2.53,1.8,1.8,0,0,0-.52-.81Z" fill="#e8a6a6"/>
        </g>
      </g>
      <g id="Group_359" data-name="Group 359">
        <path id="Path_606" data-name="Path 606" d="M615.27,204.91s-.15-.25-.4-.69a3.654,3.654,0,0,0-.51-.74c-.1-.13-.22-.27-.33-.42-.14-.13-.28-.27-.43-.42a6.886,6.886,0,0,0-1.04-.83,12.246,12.246,0,0,0-1.3-.72c-.24-.1-.48-.2-.73-.31-.25-.09-.51-.16-.77-.25a12.218,12.218,0,0,0-1.61-.4,25.284,25.284,0,0,0-3.28-.4c-1.06-.05-2.06-.07-2.92-.05s-1.58.03-2.09.07-.8.04-.8.04.27-.09.77-.24a20.282,20.282,0,0,1,2.07-.46,19.94,19.94,0,0,1,2.99-.26c.55.01,1.12,0,1.7.06.58.04,1.17.14,1.75.23a14.06,14.06,0,0,1,1.72.47,9.087,9.087,0,0,1,1.59.69,8.476,8.476,0,0,1,1.36.91,5.914,5.914,0,0,1,1.02,1.05c.14.18.28.34.39.51s.19.36.27.52a3.4,3.4,0,0,1,.36.85c.15.49.22.77.22.77Z" fill="#e8a6a6"/>
        <path id="Path_607" data-name="Path 607" d="M585.44,149.36s.23-.24.64-.65,1-.97,1.71-1.66,1.54-1.47,2.41-2.32c.85-.87,1.76-1.79,2.57-2.78a18.492,18.492,0,0,0,1.16-1.52c.37-.51.69-1.04,1.01-1.55.26-.53.58-1.03.78-1.54a13.562,13.562,0,0,0,.58-1.44,12.784,12.784,0,0,0,.4-1.26,8.064,8.064,0,0,0,.25-1c.12-.56.2-.88.2-.88v.91a7.07,7.07,0,0,1-.07,1.05,8.271,8.271,0,0,1-.21,1.35c-.06.25-.11.5-.17.77-.09.26-.18.52-.27.8a14.648,14.648,0,0,1-.7,1.68,17.135,17.135,0,0,1-.99,1.68c-.36.56-.78,1.08-1.19,1.61-.44.5-.88,1.01-1.35,1.47-.45.48-.94.89-1.4,1.32-.94.81-1.84,1.53-2.65,2.11-.79.59-1.49,1.04-1.96,1.36s-.76.49-.76.49Z" fill="#e8a6a6"/>
        <path id="Path_608" data-name="Path 608" d="M620.95,237.98s.31.61.74,1.51a20.97,20.97,0,0,1,1.32,3.47,9.533,9.533,0,0,1,.28,2.02,6.1,6.1,0,0,1-.2,1.78,4.3,4.3,0,0,1-.48,1.17,2.914,2.914,0,0,1-.26.39s.03-.17.07-.46a7.172,7.172,0,0,0,.09-1.18,12.273,12.273,0,0,0-.11-1.63,16.659,16.659,0,0,0-.37-1.84c-.31-1.25-.7-2.53-.88-3.53a8.3,8.3,0,0,1-.18-1.69Z" fill="#e8a6a6"/>
        <path id="Path_609" data-name="Path 609" d="M591.77,50.2a4.953,4.953,0,0,1-.64-.96,7.291,7.291,0,0,1-.75-2.4,6.77,6.77,0,0,1,.16-2.52,4.257,4.257,0,0,1,.44-1.08s.08.47.14,1.12.16,1.5.27,2.35.22,1.7.3,2.36.09,1.13.09,1.13Z" fill="#e8a6a6"/>
        <g id="Group_358" data-name="Group 358">
          <path id="Path_610" data-name="Path 610" d="M579.04,203.02s-.3.07-.82.16-1.26.23-2.16.39a60.02,60.02,0,0,1-6.61.78c-.61.02-1.22.04-1.82.03-.6.01-1.19-.04-1.76-.07a19.713,19.713,0,0,1-3.1-.47,9.954,9.954,0,0,1-1.21-.33c-.36-.1-.66-.21-.91-.3-.5-.19-.78-.31-.78-.31s.3.03.83.11c.52.1,1.27.16,2.16.24.45.04.93.07,1.44.1s1.05.02,1.61.05c1.12,0,2.31-.02,3.5-.08s2.39-.14,3.51-.2,2.18-.12,3.09-.14c1.82-.04,3.03.03,3.03.03Z" fill="#e8a6a6"/>
          <path id="Path_611" data-name="Path 611" d="M555.19,167.56s-.43.59-1.09,1.42-1.51,1.93-2.28,3.07a29.349,29.349,0,0,0-1.95,3.26c-.24.47-.43.87-.56,1.15s-.22.45-.22.45,0-.18.02-.5a7.587,7.587,0,0,1,.21-1.3,9.834,9.834,0,0,1,.61-1.77,13.423,13.423,0,0,1,1.05-1.87,15.905,15.905,0,0,1,1.34-1.66,12.542,12.542,0,0,1,1.37-1.25,9.759,9.759,0,0,1,1.5-1.01Z" fill="#e8a6a6"/>
        </g>
        <path id="Path_612" data-name="Path 612" d="M546.41,191.78a2.578,2.578,0,0,1-.17.26,2.249,2.249,0,0,0-.29.53,2.6,2.6,0,0,1-.5.84,2.54,2.54,0,0,1-.89.34,5.084,5.084,0,0,0-.56.21c-.18.08-.28.13-.28.13a1.068,1.068,0,0,1-.24-.2,1.473,1.473,0,0,1-.35-.65,1.668,1.668,0,0,1,.04-.96,2.1,2.1,0,0,1,.6-.88,1.989,1.989,0,0,1,.96-.43,1.754,1.754,0,0,1,.95.12,1.374,1.374,0,0,1,.59.44c.1.15.16.26.16.26Z" fill="#d37575"/>
      </g>
    </g>
    <g id="Group_366" data-name="Group 366">
      <g id="Group_362" data-name="Group 362">
        <path id="Path_613" data-name="Path 613" d="M612.35,158.13a8.5,8.5,0,0,1-2.12-3.54c-.17-.5-1.56-5.65-1.31-5.83-7.03,5.24-10.36,15.76-8.4,23.97a16.677,16.677,0,0,0,9.53,11.15c3.59,1.67,7.5,2.54,11.25,3.85q-1.185-5.655-2.72-11.22c-.75-2.7-2.55-5.91.51-7.84a32.991,32.991,0,0,1,6.44-2.74,1.193,1.193,0,0,1,.61-.1,1.072,1.072,0,0,1,.51.34c2.72,2.6,7.03,5.86,10.89,6.53a42,42,0,0,0,7.45.37c8.41-.13,16.76-2.44,20.36-10.67,3.04-6.96.65-15.16-4.11-20.81-6.24-7.4-16.29-8.02-24.53-3.87a3.387,3.387,0,0,1-1.19.42,3.227,3.227,0,0,1-1.62-.41,20.28,20.28,0,0,1-4.17-2.64c-.28,1.14-.57,2.27-.85,3.41a1.571,1.571,0,0,1-.34.74,1.628,1.628,0,0,1-.64.33c-1.95.64-6.93.49-7.97,2.38a3.718,3.718,0,0,0-.35,1.62,45.306,45.306,0,0,0,.67,6.96c.19,1.82.29,3.74.56,5.52a15.259,15.259,0,0,1-6.89,2.82,1.753,1.753,0,0,1-.56,0,1.579,1.579,0,0,1-.62-.34c-.14-.12-.28-.24-.41-.36Z" fill="#ffcfcf"/>
        <path id="Path_614" data-name="Path 614" d="M637.06,168.86a14.01,14.01,0,0,0,4.9,2.77,21.651,21.651,0,0,1-5.78.46c-3.68-.38-6.97-3.54-9.53-5.99a1.24,1.24,0,0,0-.51-.34,1.16,1.16,0,0,0-.61.1,32.732,32.732,0,0,0-6.44,2.74c-3.06,1.94-1.26,5.14-.51,7.84,1.02,3.71,1.93,7.46,2.72,11.22-.07-.36-2.15-.59-2.52-.81a10.248,10.248,0,0,1-2.55-2.66,20.077,20.077,0,0,1-3.39-6.91,9.95,9.95,0,0,0-1.18-3.26c-1.37-1.96-4.11-2.29-6.5-2.31-1.85-.01-4.26-.37-4.58-2.19-.5-2.86,4.47-4.66,5.27-7.3a12.869,12.869,0,0,0,.35-3.16,31.515,31.515,0,0,1,2.32-10.62,54.267,54.267,0,0,0-.9,11.8,17.753,17.753,0,0,1-.02,2.63,5.512,5.512,0,0,1-.4,1.61c-.26.61-.67,1.17-.89,1.8-.95,2.67,2.62,2.14,4.07,1.59,2.63-1.01,4.94-1.61,7.18-3.42.32-.25.66-.6.58-1a1.163,1.163,0,0,0-.52-.64c-1.39-1.04-2.79-2.08-4.18-3.12a31.956,31.956,0,0,0,7.46-3.9c.38-.27-1.1-7-1.18-7.84a15.651,15.651,0,0,1-.09-4.99c1.72,6.21,3.75,12.61,7.55,17.81s9.76,9.22,16.19,9.12a7.537,7.537,0,0,1-6.26,2.39" fill="#ffcfcf" opacity="0.52"/>
        <g id="Group_361" data-name="Group 361">
          <path id="Path_615" data-name="Path 615" d="M618.18,157.55s-.61.4-1.55.89-2.18,1.12-3.41,1.76-2.44,1.3-3.35,1.83-1.55.87-1.55.87a9.1,9.1,0,0,1,1.2-1.34,12.133,12.133,0,0,1,1.43-1.16,19.564,19.564,0,0,1,1.8-1.1,17.813,17.813,0,0,1,3.67-1.4,11.958,11.958,0,0,1,1.76-.35Z" fill="#e8a6a6"/>
          <path id="Path_616" data-name="Path 616" d="M621.77,188.68s-.18-.23-.46-.65-.69-1-1.18-1.71c-.95-1.42-2.22-3.31-3.48-5.21s-2.53-3.79-3.48-5.21c-.47-.72-.86-1.32-1.13-1.74s-.42-.67-.42-.67.85.78,2.01,2.06a46.952,46.952,0,0,1,3.87,5,44.988,44.988,0,0,1,3.14,5.48c.74,1.56,1.13,2.65,1.13,2.65Z" fill="#e8a6a6"/>
          <path id="Path_617" data-name="Path 617" d="M606.87,160.03s-.02-.24-.02-.67,0-1.04.06-1.77a46.147,46.147,0,0,1,.8-5.26c.37-1.88.73-3.75.92-5.17.1-.71.18-1.31.21-1.73s.07-.67.07-.67.06.24.13.66a14.381,14.381,0,0,1,.18,1.77,24.177,24.177,0,0,1-.51,5.34c-.38,1.9-.87,3.76-1.22,5.16-.18.7-.35,1.28-.44,1.69s-.17.65-.17.65Z" fill="#e8a6a6"/>
          <path id="Path_618" data-name="Path 618" d="M620.79,167.68s-.19.15-.54.38a15.113,15.113,0,0,1-1.5.88,18.176,18.176,0,0,1-2.26.98,22.229,22.229,0,0,1-2.73.74c-.48.08-.95.16-1.42.21-.47.07-.94.08-1.39.11a17.466,17.466,0,0,1-2.46-.07,14.654,14.654,0,0,1-1.72-.27c-.41-.09-.64-.15-.64-.15s.24-.02.66-.04c.41,0,1.01-.07,1.71-.12s1.52-.14,2.38-.24c.86-.12,1.78-.25,2.69-.43s1.82-.39,2.66-.6c.84-.23,1.63-.45,2.3-.66s1.24-.38,1.63-.52.63-.2.63-.2Z" fill="#e8a6a6"/>
        </g>
      </g>
      <g id="Group_363" data-name="Group 363">
        <path id="Path_619" data-name="Path 619" d="M646.4,227.1c.63-1.22,1.2-1.93,1.51-1.47-3.02-4.47-1.11-12.76,5.09-13.46-3.06-2.24-5.31-5.75-5.26-9.47s2.77-7.45,6.55-8.1c-4.95-3.77-10.35-8.37-10.47-14.48-.08-4.25,2.63-8.23,6.24-10.63a17.95,17.95,0,0,1,19.21-.19c5.64,3.7,8.44,11.11,6.38,17.4-1.82,5.56-7.14,8.17-12.66,9.44,6.39,6.68,2.24,18.64-8.07,17.33a9.126,9.126,0,0,1,.99,8.42,6.759,6.759,0,0,1-7.3,3.95c1.53.34-1.09,11.83-1.36,13.04a22.817,22.817,0,0,1-4.68,10.41c.39-4.7.2-9.41.79-14.1a47.945,47.945,0,0,1,3.04-8.09Z" fill="#63354f"/>
        <path id="Path_620" data-name="Path 620" d="M638.02,174.33c-.16-.05-.31-.11-.47-.16-.4-.19-8.65-4.08-7.89-4.93a7.925,7.925,0,0,1,5.23-2.57c-2.31-6.03,4.23-1.95,5.84-1.91a5.252,5.252,0,0,0,4.47-3.28c.51-1.45-.21-3.46-2.04-3.4a5.812,5.812,0,0,0-1.29.27c-2.37.62-5.61.13-6.24-2.51a1.481,1.481,0,0,0,1.27.79,3.758,3.758,0,0,1-.52-2.97,4.577,4.577,0,0,0,2.6,2.73c2.84,1.16,8.53-.83,9.52-3.85a2.558,2.558,0,0,0,.11-.46,8.631,8.631,0,0,0,.07-1.44,20.931,20.931,0,0,1,.79-5.45,10.343,10.343,0,0,1,2.43-4.54,5.7,5.7,0,0,1,4.7-1.7,5.126,5.126,0,0,1-2.07-2.61,3.442,3.442,0,0,1,2.63.3c9.42,4.15,12.57,16.52,10.26,25.49a18.712,18.712,0,0,1-11.04,12.3c-6.03,2.55-12.3,1.92-18.36-.08Z" fill="#63354f"/>
      </g>
      <path id="Path_621" data-name="Path 621" d="M663.55,174a5.366,5.366,0,0,0-2.04-1.51c-3.39-1.39-6.92,1.22-9.78,2.78a22.453,22.453,0,0,1,13.28-8.05c-4.86-.46-9.46,2.04-13.71,4.45,3.19-2.78,6.44-5.64,8.48-9.35a11.385,11.385,0,0,0,1.54-5.11,6.8,6.8,0,0,0-1.17-4.08c-.18-.26-2.54-2.51-2.74-1.66a30.729,30.729,0,0,0,.79-8.11c-2.41.5-3.85,3-4.51,5.37s-.89,4.94-2.25,6.99-4.46,3.26-6.3,1.62c.73,3.01-.86,7.49-4.52,7.43-1.61-.04-8.15-4.13-5.84,1.91a7.925,7.925,0,0,0-5.23,2.57c-.76.85,7.49,4.74,7.89,4.93.16.06.31.11.47.16a34.923,34.923,0,0,0,6.66,1.55,10.49,10.49,0,0,0-.84,4.24c.11,6.11,5.51,10.71,10.47,14.48-3.78.65-6.5,4.38-6.55,8.1s2.19,7.23,5.26,9.47c-6.2.7-8.1,8.99-5.09,13.46-.31-.47-.88.25-1.51,1.47a21.927,21.927,0,0,0-2.94,11.5,30.637,30.637,0,0,1-.5,8.56c2.03-7.52,3.29-15.19,5.62-22.61a3.571,3.571,0,0,1,.64-1.33,5.963,5.963,0,0,1,1.56-.98,4.733,4.733,0,0,0,.91-7.16,3.355,3.355,0,0,0,.93-5.61c2.92-1.3,5.79-3.25,6.96-6.22s-.17-7.04-3.27-7.79a7.619,7.619,0,0,1,3.07-1.41c-.99-.61-1.97-1.22-2.96-1.83a.72.72,0,0,1-.36-.37c-.07-.25.13-.48.32-.65a77.848,77.848,0,0,0,5.68-5.36,11.846,11.846,0,0,0,3.19-6.97,7.153,7.153,0,0,0-1.59-4.85Z" fill="#63354f" opacity="0.35"/>
      <g id="Group_365" data-name="Group 365">
        <path id="Path_622" data-name="Path 622" d="M626.85,139.48a2.808,2.808,0,0,1-.03.34c0,.1-.02.21-.03.34s-.03.25-.03.41a5.551,5.551,0,0,0,.32,2.22,6.064,6.064,0,0,0,1.38,2.05,10.769,10.769,0,0,0,.91.82,9.718,9.718,0,0,1-1.22-.31,7.181,7.181,0,0,1-2.58-1.43,8.07,8.07,0,0,1-1.88-2.57,5.385,5.385,0,0,1-.25-.56c-.06-.16-.12-.29-.17-.4-.08-.2-.13-.31-.13-.31l3.7-.6Z" fill="#915757"/>
        <path id="Path_623" data-name="Path 623" d="M637.52,143.16c-1.96-1.09,2.19-3.43,3.23-2.17a.87.87,0,0,1,.11.77,2.464,2.464,0,0,1-2.27,1.57,1.979,1.979,0,0,1-1.08-.17Z"/>
        <path id="Path_624" data-name="Path 624" d="M642.19,137.26a4.02,4.02,0,0,1,2.22,1.77,4.814,4.814,0,0,1,.58,1.4c.03.14.05.22.08.41l.04.33a6.749,6.749,0,0,1,0,.78,9.482,9.482,0,0,1-2.01,5.08l-.62-.28.12-.19.06-.09.03-.05.02-.02h0v-.01h0c.99.44.27.12.49.22h0l-.25.37c-.16.25-.35.49-.53.73.06-.29.11-.59.18-.88l.1-.44h0c.22.1-.49-.22.49.22h0v.09l-.04.11-.06.22-.62-.28c.12-.88.25-1.72.4-2.55s.29-1.64.38-2.41l.05-.53v-.57a6.326,6.326,0,0,0-.16-1.11,8.3,8.3,0,0,0-.95-2.33Z" fill="#63354f"/>
        <g id="Group_364" data-name="Group 364">
          <path id="Path_625" data-name="Path 625" d="M643.09,157.85c1.83.17,3.16-.16,4.27,1.65,1.01,1.66.04,3.29-1.21,4.49a8.744,8.744,0,0,1-7.18,2.09c-2.91-.52-4.77-2.86-2.56-5.47" fill="#ffcfcf"/>
          <path id="Path_626" data-name="Path 626" d="M643.09,157.85s.4,0,1.09-.03a8.351,8.351,0,0,1,1.27.05,2.647,2.647,0,0,1,1.55.75,3.835,3.835,0,0,1,.63.78,3.676,3.676,0,0,1,.43,1,3.335,3.335,0,0,1-.38,2.32,6.935,6.935,0,0,1-1.54,1.87,8.376,8.376,0,0,1-2.13,1.31,9.06,9.06,0,0,1-4.79.64c-.18-.03-.41-.07-.58-.11a2.981,2.981,0,0,1-.54-.16,5.3,5.3,0,0,1-1.02-.47,4.127,4.127,0,0,1-1.48-1.42,2.543,2.543,0,0,1-.34-1.69,3.114,3.114,0,0,1,.44-1.22,3.8,3.8,0,0,1,.5-.65c.13-.14.19-.21.19-.21l-.15.24a5.031,5.031,0,0,0-.38.7,2.84,2.84,0,0,0-.25,1.16,2.448,2.448,0,0,0,.44,1.39,3.515,3.515,0,0,0,1.36,1.1,4.7,4.7,0,0,0,.91.33,3.507,3.507,0,0,0,.51.11c.19.04.32.05.51.08a8.781,8.781,0,0,0,4.31-.68,7.352,7.352,0,0,0,1.9-1.13,6.462,6.462,0,0,0,1.42-1.6,2.762,2.762,0,0,0,.43-1.79,2.549,2.549,0,0,0-.29-.84,3.4,3.4,0,0,0-.48-.69,3.546,3.546,0,0,0-2.46-.98c-.69-.08-1.08-.16-1.08-.16Z" fill="#d37575"/>
        </g>
        <path id="Path_627" data-name="Path 627" d="M643.98,163.22s.2-.21.51-.6a2.945,2.945,0,0,0,.45-.73,1.514,1.514,0,0,0,.08-.99.9.9,0,0,0-.73-.67,5.358,5.358,0,0,0-1.41-.06,6.793,6.793,0,0,0-2.96.9c-.45.26-.95.59-1.05.88a.911.911,0,0,0,.3.99,1.2,1.2,0,0,0,.48.26,1.235,1.235,0,0,0,.31.03,1.526,1.526,0,0,0,.3-.03,2.029,2.029,0,0,0,1-.59,2.913,2.913,0,0,0,.67-1.77c.02-.49,0-.78,0-.78a3.859,3.859,0,0,1,.19.77,2.985,2.985,0,0,1-.43,2.11,2.441,2.441,0,0,1-1.24.93,2.055,2.055,0,0,1-.43.09,3.363,3.363,0,0,1-.45,0,1.785,1.785,0,0,1-.92-.4,2.068,2.068,0,0,1-.61-.83,1.545,1.545,0,0,1,0-1.12,2.065,2.065,0,0,1,.67-.84,6.387,6.387,0,0,1,.76-.52,7.019,7.019,0,0,1,3.4-.91,5.038,5.038,0,0,1,1.64.22,1.491,1.491,0,0,1,1.05,1.24,1.807,1.807,0,0,1-.31,1.26,3.353,3.353,0,0,1-.63.69,6.012,6.012,0,0,1-.64.47Z" fill="#915757"/>
      </g>
    </g>
    <g id="Group_368" data-name="Group 368">
      <path id="Path_628" data-name="Path 628" d="M561.84,163.86c-.08-1.03-.13-2.06-.17-3.08.02.57,14.47-8.55,14.4-8.59,3.52,2.45,7.77,1.78,11.85,1.8a94.519,94.519,0,0,0,11.27-.99c1.24-.14,11.47-2.73,11.5-2.4a9.722,9.722,0,0,0,.99,3.61c-5.06.76-10.15,1.8-14.71,4.07-6.51,3.23-11.28,8.58-10.04,15.93a15.875,15.875,0,0,0,12.5,12.66c8.42,1.49,14.47-3.42,20.84-7.75l1.93,4.08q-5.37,2.985-10.73,5.97a75.467,75.467,0,0,0-11.59,8.27c-1.36,1.13-2.97,1.7-4.45,2.73a32.7,32.7,0,0,1-4.58,3.16c-4.21,1.98-8.41-1.47-12.27,1.03-1,.64-8.71-11.83-9.36-13.05-4.46-8.43-6.68-17.98-7.38-27.44Z" fill="#627f7e"/>
      <path id="Path_629" data-name="Path 629" d="M564.63,164.26a11.257,11.257,0,0,1,5.73-6.53c-3.42,3.09-5.33,8.93-4.14,13.42.66,2.49,2.17,3.71,4.25,5.03a13.689,13.689,0,0,1,5.77,7.19c1.99,5.68-.72,14.84,6.59,17.48a13.718,13.718,0,0,0,5.45.59c4.63-.27,9.06-3.97,10.98-8.04a1.816,1.816,0,0,1,.33-.53,1.665,1.665,0,0,1,.66-.34A67.844,67.844,0,0,0,620.95,181l1.11,1.95s-12.69,7.45-13.96,8.27a37.044,37.044,0,0,0-6.29,4.72c-1.82,1.79-4.4,2.77-6.41,4.33a23.911,23.911,0,0,1-4.71,3.09,8.058,8.058,0,0,1-5.49.6c-1.13-.33-2.22-1-3.38-.85-.86.11-1.61.67-2.46.86-2.11.46-3.7-3.39-4.66-4.78a37.265,37.265,0,0,1-3.31-4.9,81.091,81.091,0,0,1-5.22-13.54c-1.23-4.51-2.95-8.79-2.27-13.58a14.947,14.947,0,0,1,.73-2.91Z" fill="#627f7e" opacity="0.3"/>
      <g id="Group_367" data-name="Group 367">
        <path id="Path_630" data-name="Path 630" d="M577.21,188.3s-.05.42-.13,1.16a20.106,20.106,0,0,0-.06,3.03,14.75,14.75,0,0,0,.81,4.14,11.175,11.175,0,0,0,.43,1.06c.2.35.37.75.59,1.07a7.718,7.718,0,0,0,.69.96,8.663,8.663,0,0,0,.81.9,11.035,11.035,0,0,0,1.88,1.53c.34.21.69.4,1.03.59.36.15.71.33,1.07.46a8.638,8.638,0,0,0,4.1.53c.3-.06.59-.09.87-.16s.53-.16.77-.23c.47-.17.86-.39,1.2-.54.62-.4.97-.63.97-.63s-.32.28-.88.78c-.32.19-.69.47-1.16.7-.24.11-.5.22-.77.34-.28.1-.59.15-.91.24a8.862,8.862,0,0,1-4.43-.28c-.39-.12-.77-.3-1.17-.45-.38-.19-.76-.39-1.13-.61a12.171,12.171,0,0,1-2.05-1.62,6.854,6.854,0,0,1-.87-.99,10.583,10.583,0,0,1-.76-1.09,9.732,9.732,0,0,1-.57-1.11,11.541,11.541,0,0,1-.43-1.19,14.457,14.457,0,0,1-.57-4.38,15.764,15.764,0,0,1,.39-3.07,10.751,10.751,0,0,1,.3-1.13Z" fill="#405150"/>
        <path id="Path_631" data-name="Path 631" d="M572.79,177.19s-.1-.02-.28-.04-.45-.08-.79-.17a8.618,8.618,0,0,1-4.75-3.43c-.23-.34-.37-.64-.56-.97a10.853,10.853,0,0,1-.82-2.24c-.1-.39-.14-.8-.21-1.2-.05-.4-.05-.81-.08-1.22,0-.41.04-.82.06-1.22.06-.4.12-.8.17-1.2.1-.39.19-.77.29-1.16.13-.37.26-.74.38-1.1.16-.35.31-.69.47-1.02.18-.32.36-.62.54-.93a12.679,12.679,0,0,1,1.17-1.56,10.442,10.442,0,0,1,1.17-1.15c.39-.3.73-.55,1.02-.74l.95-.53s-.31.24-.85.67c-.26.23-.56.51-.9.85-.3.37-.68.74-1.01,1.22a11.769,11.769,0,0,0-1,1.57c-.14.3-.29.6-.44.91-.13.32-.26.65-.39.98-.1.34-.21.69-.32,1.04-.08.36-.16.72-.24,1.09-.05.37-.1.75-.15,1.12l-.04,1.14c.02.38.02.76.06,1.13.06.37.09.75.18,1.11a11.043,11.043,0,0,0,.67,2.06,9.258,9.258,0,0,0,1.04,1.78,8.165,8.165,0,0,0,1.27,1.34,9.378,9.378,0,0,0,2.37,1.48,9.739,9.739,0,0,0,1.01.38Z" fill="#405150"/>
      </g>
    </g>
    <g id="Group_382" data-name="Group 382">
      <g id="Group_371" data-name="Group 371">
        <g id="Group_369" data-name="Group 369">
          <path id="Path_632" data-name="Path 632" d="M396.89,279a10.716,10.716,0,0,0,.79,3.21c.37,1.18.06,2.69.75,3.77a11.758,11.758,0,0,1,3.17-1.83c3.32-1.39,6.74-2.42,9.87-4.19.52-.25-1.86-4.87-2.07-5.24a.527.527,0,0,0-.26-.27.486.486,0,0,0-.29.03c-3.78,1.2-7.55,2.58-11.39,3.58a.884.884,0,0,0-.47.24.691.691,0,0,0-.1.42v.27Z" fill="#ffcfcf"/>
          <path id="Path_633" data-name="Path 633" d="M387.91,300.03a3.206,3.206,0,0,1-2.51-1.26,18.426,18.426,0,0,1-3.6-5.43c-.85-2.23-1.15-5.35.9-6.98,2.49-1.99,3.33-5.57,6.07-7.23,2.61-1.58,6.28-1.35,9.22-1.61a.923.923,0,0,1,.43-1.05.77.77,0,0,1,1.04.36,1.307,1.307,0,0,1,.03.52,9.589,9.589,0,0,0,.45,3.83,8.235,8.235,0,0,0,1.6,2.56.668.668,0,0,0,.39.29,1.091,1.091,0,0,1,.26.03c.23.09.14.43,0,.62a1.424,1.424,0,0,1-.56.53.59.59,0,0,1-.71-.17c-.07-.13-.08-.32-.21-.4-.61-.37-2.41,1.67-2.82,2a17.247,17.247,0,0,0-2.95,3.09,29.067,29.067,0,0,0-3.82,7.38c-.62,1.69-1.84,2.85-3.2,2.91Z" fill="#4c587a"/>
          <path id="Path_634" data-name="Path 634" d="M386.04,295.53c-.32.53-1.39,1.6-2.15,1.25-1.35-.61-2.19-3.49-2.5-4.8-.46-1.9-.36-4.28,1.31-5.61,2.49-1.99,3.33-5.57,6.07-7.23,2.61-1.58,6.28-1.35,9.22-1.61a.923.923,0,0,1,.43-1.05c1.86-.96.5,2.26.42,2.65a6.329,6.329,0,0,0,.64,4.37,8.607,8.607,0,0,1-2.39-3.37c-1.17.16-.85,2.07-1.77,2.79a2.621,2.621,0,0,1-.98.39c-2.46.65-4.32,1.68-5.3,3.97-1.13,2.64-1.48,5.56-2.88,8.1a1.4,1.4,0,0,1-.1.16Z" fill="#4c587a" opacity="0.37"/>
        </g>
        <g id="Group_370" data-name="Group 370">
          <path id="Path_635" data-name="Path 635" d="M391.68,266.93a1.3,1.3,0,0,1-.17.08c-1.98.95-3.92,1.85-5.85,2.9-.68.37-1.43.83-1.57,1.57-.17.9.62,1.67,1.36,2.23,1.45,1.09,3.01,2.45,4.92,2.39,1.56-.05,2.23-.86,3.37-1.82,2.86-2.4,6.25-4.08,9.16-6.4a.571.571,0,0,0,.27-.38.662.662,0,0,0-.12-.33,58.656,58.656,0,0,0-3.54-5.05,11.788,11.788,0,0,1-3.5,2.4c-1.44.83-2.84,1.69-4.33,2.43Z" fill="#ffcfcf"/>
          <path id="Path_636" data-name="Path 636" d="M373.16,286.88a9.942,9.942,0,0,1-.76-1.49,7.1,7.1,0,0,1,.1-6.01c1.23-2.3,3.77-3.47,5.86-4.9,1.98-1.35,3.53-4.1,5.83-4.83.47-.15,5.45-2.02,5.45-2.02a.844.844,0,0,1,.23-1.15.9.9,0,0,1,1.19.21,2.193,2.193,0,0,0-.26,1.74c.35,1.93,2.41,5.25,4.82,4.6.29-.08.63-.18.87,0a.506.506,0,0,1-.02.74.893.893,0,0,1-.81.15,2.134,2.134,0,0,0-.42-.1,1.1,1.1,0,0,0-.74.43c-3.51,3.54-7.34,5.86-9.17,10.73-1.09,2.9-.85,8.74-5.93,7.33a8.2,8.2,0,0,1-3.21-1.98,15.97,15.97,0,0,1-3.01-3.46Z" fill="#4c587a"/>
        </g>
      </g>
      <path id="Path_637" data-name="Path 637" d="M537.87,173.64a15.817,15.817,0,0,0-1.83.03,45,45,0,0,0-5.63,1.17,88.713,88.713,0,0,0-10.96,3.44,109.12,109.12,0,0,0-23.64,13.28c-8.79,6.25-16.34,13.71-23.97,21.22-6.72,6.62-13.04,12.72-21.85,16.82-9.59,4.46-19.41,8.08-27.84,14.51-4.5,3.43-8.76,7.13-13.25,10.55-4.24,3.23-8.26,6.69-12.83,9.49a.788.788,0,0,0-.29.25.758.758,0,0,0-.07.47,7.74,7.74,0,0,0,2.87,5.45,2.47,2.47,0,0,0,1.97.6,2.8,2.8,0,0,0,.64-.27,169.163,169.163,0,0,1,17.94-8.25,178.147,178.147,0,0,0,19.32-8.7c13.47-7.11,25.54-15.8,39.64-21.85a192.022,192.022,0,0,0,37.15-21.36,4.115,4.115,0,0,0,1.75,4.28c-1.64-1.07-11.53,5.88-13.04,6.83-6.29,3.97-12.35,9.02-18.96,12.4-6.33,3.24-12.82,6.42-19.24,9.58-13.49,6.65-27.14,13.04-40.2,20.47q-3.825,2.175-7.59,4.44c-2.44,1.48-4.9,2.94-7.47,4.21a45.648,45.648,0,0,1-5.56,2.65c-.96.32-1.41.19-1.65,1.32a4.984,4.984,0,0,0,.4,2.63,7.565,7.565,0,0,0,2.13,3.25,1.543,1.543,0,0,0,1.13.44,2,2,0,0,0,.7-.31,23.973,23.973,0,0,1,5.82-1.93c7.04-1.95,14.15-3.66,21.15-5.71,11.06-3.25,22.86-7.44,31.55-15.05a10.608,10.608,0,0,1,1.73-1.33,10.022,10.022,0,0,1,2.41-.86c9.58-2.52,19.11-5.34,28.64-7.83a202.259,202.259,0,0,0,36.68-13.49,79.084,79.084,0,0,0,15.27-9.59,67.164,67.164,0,0,0,11.13-12.1c-7.3-1.43-14.87-10.58-18.42-16.43a43.1,43.1,0,0,1-4.62-11.31,22.821,22.821,0,0,1-.85-7.16c.06-1.09.38-6.03,1.59-6.51a5.084,5.084,0,0,1-1.86.25Z" fill="#82a3a3"/>
      <path id="Path_638" data-name="Path 638" d="M537.87,173.73a32.817,32.817,0,0,0-10.73,1.64,1.58,1.58,0,0,0-.83.48,1.644,1.644,0,0,0-.18,1.22c.53,6.39,1.73,12.67,2.35,19.03.2,2.09.39,4.29-.47,6.21a10.528,10.528,0,0,1-3.08,3.63,8.176,8.176,0,0,1-4.53,2.25c-2.54.14-6.11-4.62-3.54-6.54a352.573,352.573,0,0,1-57.35,34.92c-2.27,1.1-5.24,2.1-7.1.39-1.35,2.75-4.22,4.34-6.93,5.77q-19.29,10.17-38.59,20.34c-2.27,1.2-7.26,2.29-8.95,3.99-1.67,1.68.84,4.87,3.25,3.6a167.352,167.352,0,0,1,17.94-8.25,178.147,178.147,0,0,0,19.32-8.7c13.47-7.11,25.54-15.8,39.64-21.85a192.022,192.022,0,0,0,37.15-21.36c-2.08,1.51,2.32,5.33,3.23,6.31,2.69,2.86,4.84,4.06,1.25,7.34-14.92,13.58-33.95,22.53-52.57,29.82a5.921,5.921,0,0,1-2.75.6,2.073,2.073,0,0,1-1.93-1.75c-7.94,7.07-18.02,11.19-27.94,15.04-7.49,2.9-15.01,5.72-22.54,8.53a30.512,30.512,0,0,1-8.34,2.25c.15,1.26,1.47,4.64,3.28,4.39a2,2,0,0,0,.7-.31,23.973,23.973,0,0,1,5.82-1.93c7.04-1.95,14.15-3.66,21.15-5.71,11.06-3.25,22.86-7.44,31.55-15.05a10.608,10.608,0,0,1,1.73-1.33,10.022,10.022,0,0,1,2.41-.86c9.58-2.52,19.11-5.34,28.64-7.83a202.259,202.259,0,0,0,36.68-13.49,79.084,79.084,0,0,0,15.27-9.59,67.164,67.164,0,0,0,11.13-12.1c-7.3-1.43-14.87-10.58-18.42-16.43a43.1,43.1,0,0,1-4.62-11.31,22.821,22.821,0,0,1-.85-7.16c.06-1.09.38-6.03,1.59-6.51a4.944,4.944,0,0,1-1.86.33Z" fill="#82a3a3" opacity="0.3"/>
      <g id="Group_372" data-name="Group 372">
        <path id="Path_639" data-name="Path 639" d="M520.47,178.05c-8.94,3.11-17.03,8.08-24.67,13.51a134.629,134.629,0,0,0-12.95,10.62c-2.05,1.88-4.07,3.8-6.06,5.74-1.65,1.6-3.36,4.03-5.37,5.2a217.315,217.315,0,0,0,26.74-14.71c8.45-5.65,16.25-12.33,22.31-20.36Z" fill="#627f7e"/>
        <path id="Path_640" data-name="Path 640" d="M547.13,224.24a90.041,90.041,0,0,0-24.87,8.45c-10.01,5.02-19.16,11.52-27.84,18.49a42.823,42.823,0,0,0,4.51-1.19,202.261,202.261,0,0,0,36.68-13.49,79.084,79.084,0,0,0,15.27-9.59,28.868,28.868,0,0,0,3.53-3.55,71.106,71.106,0,0,0-7.29.89Z" fill="#627f7e" opacity="0.34"/>
      </g>
      <g id="Group_375" data-name="Group 375">
        <path id="Path_641" data-name="Path 641" d="M527.59,175s-.76,1.21-2.13,3.31c-.67,1.05-1.55,2.3-2.61,3.69-.52.7-1.08,1.45-1.66,2.24-.61.77-1.28,1.56-1.96,2.39s-1.39,1.71-2.16,2.58-1.6,1.75-2.43,2.66-1.72,1.82-2.64,2.74-1.85,1.86-2.84,2.78c-2.01,1.8-4.03,3.74-6.26,5.49-2.17,1.83-4.51,3.52-6.8,5.26-2.39,1.62-4.75,3.27-7.18,4.74-2.37,1.56-4.87,2.82-7.21,4.16-1.2.62-2.38,1.23-3.55,1.79-.58.29-1.16.57-1.73.85-.58.26-1.15.51-1.72.77-1.13.5-2.23.98-3.29,1.45-1.07.44-2.13.83-3.14,1.22s-1.96.77-2.89,1.09c-.93.3-1.82.59-2.65.86s-1.61.52-2.33.75c-.73.21-1.4.38-2.01.55-2.43.64-3.81.98-3.81.98s1.3-.61,3.58-1.63c1.15-.48,2.51-1.14,4.08-1.89,1.57-.73,3.33-1.57,5.22-2.54.95-.48,1.94-.96,2.95-1.5s2.05-1.1,3.12-1.67c.54-.29,1.08-.58,1.63-.87.54-.31,1.08-.63,1.63-.95,1.1-.65,2.24-1.26,3.39-1.93,2.26-1.39,4.59-2.8,6.91-4.32,2.36-1.47,4.64-3.12,6.95-4.73,2.27-1.67,4.58-3.29,6.72-5.05,2.19-1.7,4.29-3.45,6.32-5.15,1.01-.85,1.95-1.75,2.92-2.58s1.91-1.65,2.78-2.5c1.76-1.67,3.46-3.22,4.95-4.74.76-.75,1.48-1.47,2.17-2.15.67-.7,1.31-1.36,1.9-1.99,1.2-1.25,2.26-2.33,3.09-3.27,1.69-1.85,2.68-2.88,2.68-2.88Z" fill="#627f7e"/>
        <g id="Group_373" data-name="Group 373" opacity="0.34">
          <path id="Path_642" data-name="Path 642" d="M556.69,221.35s-.35.05-1,.15-1.61.23-2.82.44c-1.21.18-2.66.48-4.33.79-1.66.34-3.53.77-5.55,1.25-2.02.52-4.19,1.11-6.47,1.8-2.28.67-4.65,1.52-7.1,2.36-2.45.87-4.92,1.89-7.45,2.91-2.51,1.05-5.05,2.18-7.55,3.37-2.53,1.18-5,2.39-7.43,3.65-2.41,1.28-4.82,2.49-7.11,3.76s-4.5,2.48-6.6,3.64-4.08,2.28-5.91,3.31c-3.66,2.06-6.73,3.75-8.9,4.92s-3.42,1.8-3.42,1.8,1.09-.89,3.04-2.39,4.75-3.62,8.2-6.04c1.72-1.21,3.6-2.52,5.62-3.84,2.02-1.34,4.16-2.72,6.43-4.08s4.61-2.77,7.07-4.07,4.99-2.61,7.52-3.83c2.57-1.18,5.18-2.3,7.77-3.34s5.21-1.9,7.74-2.7,5.03-1.44,7.41-1.97c2.37-.56,4.65-.93,6.75-1.25,1.06-.13,2.06-.28,3.02-.38.96-.08,1.88-.16,2.74-.23,1.72-.11,3.22-.16,4.46-.16,1.24-.04,2.2.05,2.86.06.66.03,1.01.04,1.01.04Z" fill="#627f7e"/>
        </g>
        <g id="Group_374" data-name="Group 374" opacity="0.34">
          <path id="Path_643" data-name="Path 643" d="M461.44,263.01s-.5.21-1.38.52c-.45.14-.97.35-1.56.57s-1.25.47-1.97.76c-.72.26-1.49.6-2.3.93s-1.65.72-2.52,1.09c-.86.4-1.75.82-2.66,1.24s-1.81.88-2.73,1.33c-3.64,1.82-7.3,3.74-10.17,5.05-1.43.65-2.66,1.17-3.53,1.51s-1.39.5-1.39.5.35-.42,1.01-1.08,1.61-1.6,2.81-2.63a49.952,49.952,0,0,1,4.31-3.31c.83-.55,1.68-1.13,2.6-1.65.89-.55,1.85-1.03,2.8-1.53.97-.45,1.93-.93,2.93-1.3.98-.41,1.97-.73,2.94-1.04.98-.27,1.92-.53,2.84-.7a21.915,21.915,0,0,1,2.59-.38,17.6,17.6,0,0,1,2.22-.11,10.886,10.886,0,0,1,1.69.06c.93.08,1.47.17,1.47.17Z" fill="#627f7e"/>
        </g>
        <path id="Path_644" data-name="Path 644" d="M446.05,231.71s-.27.55-.8,1.46a14.287,14.287,0,0,1-1.05,1.61c-.22.31-.45.63-.7.97s-.55.65-.84,1.01a27.935,27.935,0,0,1-2.01,2.17c-.75.74-1.58,1.47-2.47,2.2-.9.71-1.84,1.44-2.84,2.09-.98.7-2.04,1.29-3.09,1.92-1.07.57-2.13,1.16-3.22,1.65-1.07.53-2.16.96-3.2,1.39-1.06.4-2.08.79-3.07,1.09-.98.32-1.92.59-2.8.82-.87.25-1.68.43-2.4.58-.71.17-1.35.27-1.87.36-1.04.18-1.65.24-1.65.24s.5-.35,1.41-.89,2.2-1.3,3.76-2.16c.78-.43,1.62-.89,2.51-1.38.89-.47,1.83-.97,2.8-1.49,1.93-1.04,3.99-2.13,6-3.27,1-.58,2.02-1.14,2.99-1.73.98-.57,1.92-1.17,2.85-1.74.9-.59,1.8-1.15,2.61-1.72s1.62-1.08,2.31-1.61c.71-.51,1.37-.98,1.93-1.42s1.09-.8,1.49-1.15c.82-.66,1.33-1.01,1.33-1.01Z" fill="#627f7e"/>
      </g>
      <g id="Group_381" data-name="Group 381">
        <g id="Group_376" data-name="Group 376" opacity="0.34">
          <path id="Path_645" data-name="Path 645" d="M558.4,216.73s-.16-.05-.46-.13a8.757,8.757,0,0,1-1.27-.52,17.018,17.018,0,0,1-3.91-2.93c-1.46-1.39-3.16-3.02-4.84-4.91a68.329,68.329,0,0,1-4.91-6.22,49.8,49.8,0,0,1-3.88-6.92,38.419,38.419,0,0,1-2.26-6.54,31.639,31.639,0,0,1-.78-4.82c-.06-.59-.07-1.05-.08-1.36s-.02-.48-.02-.48.07.67.26,1.82a40.548,40.548,0,0,0,1.09,4.71,45.079,45.079,0,0,0,2.47,6.35,47.934,47.934,0,0,0,3.92,6.75,66.464,66.464,0,0,0,4.75,6.22c1.64,1.89,3.21,3.63,4.61,5.06a18.752,18.752,0,0,0,3.65,3.13,9.368,9.368,0,0,0,1.2.62c.29.11.45.18.45.18Z" fill="#627f7e"/>
        </g>
        <g id="Group_377" data-name="Group 377" opacity="0.34">
          <path id="Path_646" data-name="Path 646" d="M533.96,174.13s-.18.55-.38,1.51a14.075,14.075,0,0,0-.23,1.76,19.124,19.124,0,0,0-.02,2.29,30.09,30.09,0,0,0,.92,5.67c.25,1.02.54,2.09.86,3.14s.67,2.13,1.05,3.19a64.741,64.741,0,0,0,2.44,6.16c.88,1.92,1.74,3.71,2.56,5.19s1.52,2.72,2.03,3.57.81,1.34.81,1.34-.35-.45-.95-1.24c-.57-.81-1.43-1.95-2.31-3.42a55.335,55.335,0,0,1-2.82-5.12,64.558,64.558,0,0,1-2.58-6.19c-.36-1.08-.71-2.17-1.01-3.26s-.58-2.15-.81-3.2a26.418,26.418,0,0,1-.67-5.83,15.126,15.126,0,0,1,.58-4.11,10.11,10.11,0,0,1,.39-1.09c.1-.25.16-.38.16-.38Z" fill="#627f7e"/>
        </g>
        <g id="Group_378" data-name="Group 378" opacity="0.34">
          <path id="Path_647" data-name="Path 647" d="M547.54,217.36a11.355,11.355,0,0,1-1.18-.77,18.143,18.143,0,0,1-2.74-2.53c-.51-.58-1.04-1.23-1.58-1.93s-1.09-1.44-1.63-2.25a58.182,58.182,0,0,1-5.75-10.6c-.75-1.78-1.32-3.48-1.79-4.95s-.76-2.72-.98-3.59c-.19-.88-.3-1.38-.3-1.38s.17.48.46,1.33.74,2.04,1.28,3.47,1.24,3.07,2.03,4.8,1.69,3.56,2.67,5.34c.96,1.79,2.01,3.53,3.02,5.14,1.03,1.61,2,3.1,2.94,4.29a21.794,21.794,0,0,0,2.47,2.72c.66.6,1.07.9,1.07.9Z" fill="#627f7e"/>
        </g>
        <g id="Group_379" data-name="Group 379" opacity="0.34">
          <path id="Path_648" data-name="Path 648" d="M526.56,183.63s.27,1.31.68,3.26,1.02,4.53,1.74,7.07,1.56,5.06,2.24,6.93,1.14,3.13,1.14,3.13-.17-.29-.47-.79c-.28-.51-.7-1.24-1.13-2.15-.45-.9-.91-1.98-1.37-3.15s-.87-2.45-1.25-3.74c-.35-1.29-.67-2.6-.9-3.84s-.4-2.4-.49-3.4c-.11-1-.14-1.84-.16-2.42s-.02-.92-.02-.92Z" fill="#627f7e"/>
        </g>
        <path id="Path_649" data-name="Path 649" d="M455.45,231.66s-.06.09-.17.25a6.686,6.686,0,0,0-.39.63,7.431,7.431,0,0,0-.79,1.97,7.259,7.259,0,0,0-.19,2.11,5.825,5.825,0,0,0,.07.74c.02.19.04.3.04.3s-.08-.08-.2-.23a2.613,2.613,0,0,1-.4-.69,3.544,3.544,0,0,1-.27-1.11,4.254,4.254,0,0,1,.1-1.32,4.755,4.755,0,0,1,.51-1.22,3.838,3.838,0,0,1,.74-.87,2.594,2.594,0,0,1,.67-.44c.17-.08.28-.12.28-.12Z" fill="#627f7e"/>
        <g id="Group_380" data-name="Group 380" opacity="0.34">
          <path id="Path_650" data-name="Path 650" d="M465.3,250.59s-.05.08-.14.21a3.571,3.571,0,0,0-.31.51,4.976,4.976,0,0,0-.52,1.58,4.805,4.805,0,0,0,.03,1.66,3.68,3.68,0,0,0,.15.58c.05.15.07.24.07.24a1.909,1.909,0,0,1-.68-.61,2.452,2.452,0,0,1-.39-.88,3.171,3.171,0,0,1-.05-1.11,3.276,3.276,0,0,1,.37-1.05,2.565,2.565,0,0,1,.64-.73,1.658,1.658,0,0,1,.59-.32c.15-.05.24-.07.24-.07Z" fill="#627f7e"/>
        </g>
      </g>
    </g>
  </g>
</svg>
