<svg xmlns="http://www.w3.org/2000/svg" width="343.68" height="288.075" viewBox="0 0 343.68 288.075">
  <g id="Group_425" data-name="Group 425" transform="translate(-62.74 -170)">
    <g id="Group_384" data-name="Group 384">
      <path id="Path_651" data-name="Path 651" d="M406.42,455.57l-24.91-17.75H96.47L62.74,455.74Z" fill="#363c51"/>
      <path id="Path_652" data-name="Path 652" d="M380.17,444.25c-1.75-2.51-5.3-2.74-8.36-2.73l-213.22.72c-15.44.05-30.89.1-46.31.96-4.69.26-12.29.29-15.97,3.77-4.54,4.29,4.31,6.29,7.69,6.66,6.4.7,13.67-.24,20.15-.37l25.7-.54q25.7-.54,51.4-1.07c55.19-1.15,110.49-3.46,165.68-3.46,4.74-.1,10.04-.44,13.24-3.94Z" fill="#363c51" opacity="0.29"/>
      <line id="Line_14" data-name="Line 14" x1="343.68" transform="translate(62.74 456.81)" fill="none" stroke="#4c587a" stroke-miterlimit="10" stroke-width="2.53"/>
    </g>
    <g id="Group_393" data-name="Group 393">
      <g id="Group_386" data-name="Group 386">
        <path id="Path_653" data-name="Path 653" d="M342.65,438.08a16.735,16.735,0,0,1-3.67.51,22.018,22.018,0,0,1-8.79-1.22c-.61-.23-1.26-.58-1.38-1.14a1.655,1.655,0,0,1,.09-.79,178.61,178.61,0,0,0,4.57-19.78c.73-4.53,1.47-9.06,2.59-13.53.94-3.76,1.53-8.18,5.89-10.13,1.98-.88,4.32-.8,6.55-.7l11.13.51c-3.07,6.9-6.82,13.56-9.84,20.48-2.97,6.79-6.16,14.4-3.62,21.66a2.692,2.692,0,0,1,.25,1.38,2.052,2.052,0,0,1-.56.96A6.609,6.609,0,0,1,342.65,438.08Z" fill="#ffcfcf"/>
        <path id="Path_654" data-name="Path 654" d="M341.33,438.48c-3.88.24-7.4.65-11.13-.79-.61-.23-1.26-.58-1.38-1.14a1.655,1.655,0,0,1,.09-.79,178.61,178.61,0,0,0,4.57-19.78c.73-4.53,1.47-9.06,2.59-13.53.94-3.76,1.53-8.18,5.89-10.13,1.98-.88,4.32-.8,6.55-.7l11.13.51c-.91,2.06-1.89,4.09-2.88,6.11-.72,1.47-1.43,4.05-2.57,5.19-2.43,2.43-8.37.22-10.39,2.53a4.283,4.283,0,0,0-.8,1.76,88.258,88.258,0,0,0-2.81,13.92c-.17,1.45-.91,4.07.08,5.12.75.79,4.88.52,5.07.9.45,1.02-.57,2.08-1.55,2.61a12.03,12.03,0,0,1-5.72,1.48,8.75,8.75,0,0,0,3.26,6.72Z" fill="#ffcfcf"/>
        <g id="Group_385" data-name="Group 385">
          <path id="Path_655" data-name="Path 655" d="M354.55,444.48c-1.54-.27-3.04-.69-4.59-.9-4.75-.64-9.52.76-14.32,1.05a23.315,23.315,0,0,1-7.22-.59c-2-.51-2.31-2.2-2.26-3.8.1-3.1.72-4.6,2.33-7.33a19,19,0,0,0,1.59-3.43,1.2,1.2,0,0,1-.75-1.06c0-.6,1.02-.68,1.49-.84-.19,1.03.74,1.58,1.75,1.78a32.417,32.417,0,0,0,11.2.22,2.3,2.3,0,0,0,1.25-.51c.06-.06.53-.93.28-.92.95-.05,1.99.35,1.8,1.36a1.182,1.182,0,0,1-1.02.88,15.883,15.883,0,0,0,6.5,4.47c1.98.87,3.98,1.69,6.06,2.37,4.28,1.41,8.9,2.24,12.67,4.49a1.754,1.754,0,0,1,.65.55,1.1,1.1,0,0,1-.36,1.39,3.656,3.656,0,0,1-1.58.65,31.28,31.28,0,0,1-5.57.52,48.407,48.407,0,0,1-9.93-.36Z" fill="#f0f2d3"/>
          <path id="Path_656" data-name="Path 656" d="M361.89,442.93c1.13.18,10.06,1.16,10.2-.77a2.19,2.19,0,0,1-2.04,2.16,31.28,31.28,0,0,1-5.57.52,48.407,48.407,0,0,1-9.93-.36c-1.54-.27-3.04-.69-4.59-.9-4.75-.64-9.52.76-14.32,1.05a23.315,23.315,0,0,1-7.22-.59c-2-.51-2.31-2.2-2.26-3.8.1-3.1.72-4.6,2.33-7.33a14.261,14.261,0,0,0,1.57-3.3,27.088,27.088,0,0,0,15.11.69c-3.81,2.03-8.36,1.95-12.68,1.82-.86,2.53-1.73,5.17-1.36,7.81a.641.641,0,0,0,.22.48.715.715,0,0,0,.46.06c6.84-.76,13.84-1.68,20.54-.12,3.21.75,6.29,2.06,9.55,2.58Z" fill="#f0f2d3"/>
          <path id="Path_657" data-name="Path 657" d="M340.49,431.24a9.279,9.279,0,0,1-1.3.27,21.222,21.222,0,0,1-2.86.21c-.28,0-.53-.02-.8-.04a6.48,6.48,0,0,1-.77-.1,4.905,4.905,0,0,1-1.34-.43,2.561,2.561,0,0,1-.81-.58,1.622,1.622,0,0,1-.24-.29,4.815,4.815,0,0,0,1.22.36,11.022,11.022,0,0,0,1.26.12c.24,0,.48.01.73.02h.75a19.933,19.933,0,0,1,2.86.19,10.425,10.425,0,0,1,1.3.26Z" fill="#cdceaa"/>
        </g>
      </g>
      <g id="Group_392" data-name="Group 392">
        <path id="Path_658" data-name="Path 658" d="M270.16,377.09a30.431,30.431,0,0,1,9.65-8.58,28.294,28.294,0,0,1,6.33-2.71c2.07-.57,4.4-.47,6.58-.75,9.56-1.21,19.19-2.31,28.66-3.71,6-.89,12.06-1.49,18.14-1.8,5.53-.28,11.65-.69,17.12.27,4.35.76,9.57,3.04,10.97,6.95,1.34,3.73.06,7.89-.97,11.55a77.526,77.526,0,0,1-5.03,12.79c-1.91,3.96-4.49,7.8-5.7,11.98-6.73.12-14.08-.04-19.25-3.77a60.894,60.894,0,0,1,7.17-17.9,48.831,48.831,0,0,0-8.94,3.05,182.383,182.383,0,0,1-45.41,11.84c-4.62.59-9.27,1.05-13.76-.42-3.98-1.3-7.44-4.11-8.5-7.68-1.13-3.8.54-7.82,2.93-11.15Z" fill="#ad538b"/>
        <path id="Path_659" data-name="Path 659" d="M270.09,376.98a17.268,17.268,0,0,1,6.88-5.23c4.86-1.92,10.29-1.39,15.48-1.99a12.373,12.373,0,0,0,5-1.46,5.415,5.415,0,0,0,2.75-4.22l4.82-.9a27.473,27.473,0,0,1,.49,10.57c-.12.82-.23,1.81.41,2.35a2.263,2.263,0,0,0,1.03.41c5.51,1.18,11.22.92,16.83.46a149.469,149.469,0,0,0,17.76-2.41,67.627,67.627,0,0,0,15.98-5.08c-.1,2.02-1.6,3.65-3.02,5.09,1.89-1.15,3.77-2.3,5.66-3.45.57-.34,1.45-.62,1.76-.04a1.173,1.173,0,0,1-.1,1.01,10.285,10.285,0,0,1-3.21,4.06,7.762,7.762,0,0,0,2.44-1c-.07,2.16-1.89,3.78-3.45,5.28a37.661,37.661,0,0,0-11.23,22.25,17.5,17.5,0,0,1-5.96-1.39,16.437,16.437,0,0,1-3.75-1.99,60.894,60.894,0,0,1,7.17-17.9,48.831,48.831,0,0,0-8.94,3.05,182.383,182.383,0,0,1-45.41,11.84c-4.62.59-9.27,1.05-13.76-.42-3.98-1.3-7.44-4.11-8.5-7.68-1.15-3.88.29-7.98,2.87-11.2Z" fill="#ad538b" opacity="0.34"/>
        <g id="Group_391" data-name="Group 391">
          <g id="Group_387" data-name="Group 387" opacity="0.4">
            <path id="Path_660" data-name="Path 660" d="M355.68,375.81s-.25.22-.69.58-1.08.88-1.9,1.45a22.77,22.77,0,0,1-2.91,1.76,27.106,27.106,0,0,1-3.63,1.42c-2.51.78-5.03,1.48-6.94,1.95-.95.24-1.76.4-2.32.54-.56.12-.89.18-.89.18s.3-.14.83-.35,1.29-.53,2.21-.87c1.84-.7,4.32-1.54,6.82-2.33,1.24-.39,2.46-.8,3.57-1.27s2.11-1,2.97-1.46c.86-.48,1.57-.87,2.08-1.15s.79-.43.79-.43Z" fill="#63354f"/>
          </g>
          <g id="Group_388" data-name="Group 388" opacity="0.4">
            <path id="Path_661" data-name="Path 661" d="M356.05,371.76a11.044,11.044,0,0,1-.61,1.49,9.105,9.105,0,0,1-2.15,2.88,9.268,9.268,0,0,1-.8.6,5.422,5.422,0,0,1-.85.46,5.712,5.712,0,0,1-1.64.47,4.737,4.737,0,0,1-1.2,0,3.1,3.1,0,0,1-.44-.09,8.135,8.135,0,0,0,1.51-.43,9.547,9.547,0,0,0,2.82-1.71,20.585,20.585,0,0,0,2.31-2.47c.6-.73,1.06-1.2,1.06-1.2Z" fill="#63354f"/>
          </g>
          <g id="Group_389" data-name="Group 389" opacity="0.4">
            <path id="Path_662" data-name="Path 662" d="M360.14,376a6,6,0,0,1-.89.89,9.029,9.029,0,0,1-2.36,1.4,9.826,9.826,0,0,1-2.66.68,5.743,5.743,0,0,1-1.26.01s.45-.24,1.12-.53,1.56-.65,2.43-1.02c.89-.36,1.77-.73,2.44-1s1.16-.43,1.16-.43Z" fill="#63354f"/>
          </g>
          <g id="Group_390" data-name="Group 390" opacity="0.4">
            <path id="Path_663" data-name="Path 663" d="M360.33,373.24a1.616,1.616,0,0,1-.14.63,2.95,2.95,0,0,1-.81,1.08,3.721,3.721,0,0,1-1.13.66,2.751,2.751,0,0,1-.62.16,2.351,2.351,0,0,1,.28-.57,4.927,4.927,0,0,1,.85-.95,7.1,7.1,0,0,1,1.01-.72,4.48,4.48,0,0,1,.55-.29Z" fill="#63354f"/>
          </g>
        </g>
      </g>
    </g>
    <g id="Group_407" data-name="Group 407">
      <path id="Path_664" data-name="Path 664" d="M280.23,298.94a4,4,0,0,1-.74.22,11.15,11.15,0,0,1-5.59-.84c-1.94-.66-4.08-1.57-4.66-3.31a5.286,5.286,0,0,1,.03-2.62,289.024,289.024,0,0,1,12.2-45.5,13.607,13.607,0,0,0,.98-3.82,14.268,14.268,0,0,0-.63-4.18c-3.42-14-3.92-28.58-5.15-42.83a1.609,1.609,0,0,1,.38-1.48,2.232,2.232,0,0,1,.85-.36c1.24-.33,2.47-.67,3.71-1a391.253,391.253,0,0,1,10.02,42.61,30.291,30.291,0,0,1,.65,6.06,31.933,31.933,0,0,1-.6,4.76c-1.18,6.66-2.28,13.32-3.49,19.98q-2.055,11.295-4.58,22.52c-.6,2.66,0,8.42-3.38,9.81Z" fill="#e8a6a6"/>
      <g id="Group_404" data-name="Group 404">
        <g id="Group_395" data-name="Group 395">
          <path id="Path_665" data-name="Path 665" d="M245.79,276.29a17.814,17.814,0,0,1-5.42-11.98,18.744,18.744,0,0,1,4.94-12.74c6.82-7.76,23.38-12.21,30.92-2.75,1,1.25,1.72,2.65,2.77,3.87a6.471,6.471,0,0,0,4.28,2.4c1.22.09,2.76-.16,3.41.73.7.97-.44,2.16-.49,3.3-.06,1.58,1.18,2.04,2.56,2.73a7.1,7.1,0,0,0,1.27,3.05c3.79,5.25,1.13,6.52-3.22,10.51-2.14,1.97-2.56,4.06-2.66,6.75q-.21,6.18-.43,12.37a4.192,4.192,0,0,1-1.04,3.17,5.525,5.525,0,0,1-2.91,1.01,75.122,75.122,0,0,1-10.5.75,2.029,2.029,0,0,1-1.42-.36,1.456,1.456,0,0,1-.27-1.2,18.957,18.957,0,0,0-2.42-10.35,5.659,5.659,0,0,0-1.78-2.12,8.643,8.643,0,0,0-2.65-.96,32.133,32.133,0,0,1-14.95-8.18Z" fill="#ffb8b8"/>
          <path id="Path_666" data-name="Path 666" d="M250.71,353.86c-4.95-12.67-5.23-26-4.32-39.24a69.752,69.752,0,0,0,.07,28.2c1.3,6.2,3.44,12.53,1.86,18.68,1.13-4.39-1.01-10.21-2.16-14.47a76.845,76.845,0,0,1-2.63-23.8c.42-8.1,3.3-15.63,4.46-23.56a42.931,42.931,0,0,0-.15-15.04c-1.09-5.2-3.98-9.02-6.72-13.6-4.21-7.03-3.23-13.7,2.15-19.98,4.54-5.31,11.74-9.67,19.61-9.64a21.458,21.458,0,0,1,7.88,1.48c2.33.92,4.09,2.7,6.8,2.73-.69,3.33-1.45,6.8-3.84,9.48a22.763,22.763,0,0,1-3.35,2.88,17.962,17.962,0,0,1-3.7,2.38c.68,1.24,1.03,2.85,2,3.95a4.8,4.8,0,0,0-6.42-1.03,4.476,4.476,0,0,0-1.39,5.33,8.789,8.789,0,0,0,4.43,4.2,6.5,6.5,0,0,0,3.08.79,2.71,2.71,0,0,0,2.5-1.52c-.39,1.17.97,4.59,1.23,5.89a33.713,33.713,0,0,1,.55,7.57c-.16,5.15-1.22,10.23-1.91,15.33a106.794,106.794,0,0,0-.4,25.33c.64,6.16,1.81,12.29,1.68,18.47s-1.69,12.54-5.98,17.49a9.146,9.146,0,0,0,.76-3.77,65.469,65.469,0,0,0-7.45,9.18,19,19,0,0,0,.24-10.09c-.51,3.21-1.02,6.43-1.54,9.64a82.1,82.1,0,0,0-2.82-9.63,18.334,18.334,0,0,0,.18,6.18,70.286,70.286,0,0,1-4.73-9.82Z" fill="#b5a555"/>
          <path id="Path_667" data-name="Path 667" d="M270.31,326.15c1.08,10.4,3.31,21.07-.66,31.17a10.028,10.028,0,0,1-2.6,4.1,23.368,23.368,0,0,0-.32-5.6q-2.565,4.9-5.3,9.73c-.33-2.36.54-5.14.78-7.5a65.086,65.086,0,0,0,.36-7.9,44.291,44.291,0,0,0-2.79-15.33,147.122,147.122,0,0,1,1.92,16.74,170.1,170.1,0,0,0-6.06-19.64,187.435,187.435,0,0,1,2.93,31.27c-3.99-11.69-2.21-24.73-6.05-36.48,2.09,9.7,2.14,19.71,2.17,29.63-.39-7.08-1.41-14.1-2.44-21.1-.89-6-2.45-12.03-2.48-18.11-.06-11.73,3.53-23.43,2.2-35.14-.39-3.47-1.28-6.87-1.56-10.35-.48-5.83,1.71-13.52,8.85-12.68,2.61.31,5.32,1.04,7.13,2.94-.54-2.02-1.68-3.03-2.85-4.69a.744.744,0,0,1-.18-.44c.01-.28.31-.45.58-.52a5.815,5.815,0,0,1,2.59.05c2.68.48,6.67-1.1,3.11-3.36-1.89-1.21-5.63-3.74-7.95-3.66a19.257,19.257,0,0,1,6.34,1.01c.64.2,4.66,2.01,4.63,2.06a.587.587,0,0,0,.08-.32c.03-1.18-1.03-2.06-1.98-2.75-.75-.54-1.49-1.08-2.24-1.62,1.53.61,3.05,1.21,4.58,1.82.47.19,1.08.35,1.43-.01a.887.887,0,0,0,.08-1.01,2.5,2.5,0,0,0-.75-.77,35.958,35.958,0,0,0-5.45-3.44c.73.27,8.57,3.47,8.77,2.99.13-.31.26-.63.39-.94-.41,1.85-1.09,8.76-3.88,8.76a22.763,22.763,0,0,1-3.35,2.88,17.962,17.962,0,0,1-3.7,2.38c.68,1.24,1.03,2.85,2,3.95a4.8,4.8,0,0,0-6.42-1.03,4.476,4.476,0,0,0-1.39,5.33,8.789,8.789,0,0,0,4.43,4.2,6.5,6.5,0,0,0,3.08.79,2.7,2.7,0,0,0,2.5-1.52c-.39,1.17.97,4.59,1.23,5.89a33.713,33.713,0,0,1,.55,7.57c-.16,5.15-1.22,10.23-1.91,15.33a106.794,106.794,0,0,0-.4,25.33Z" fill="#b5a555" opacity="0.46"/>
          <g id="Group_394" data-name="Group 394">
            <path id="Path_668" data-name="Path 668" d="M289.37,262.58l-1.14.38a12.737,12.737,0,0,1-2.64.57,6.3,6.3,0,0,1-2.66-.28,5.4,5.4,0,0,1-.79-.34l-.28-.15s.11.03.31.08a5.441,5.441,0,0,0,.82.13,5.947,5.947,0,0,0,2.41-.35,12.754,12.754,0,0,0,2.19-1.09c.58-.37.96-.62.96-.62l.82,1.67Z" fill="#d37575"/>
            <path id="Path_669" data-name="Path 669" d="M262.65,266.33a.971.971,0,0,1,.27-.7,2.239,2.239,0,0,1,1.88-.74,3.919,3.919,0,0,1,2.54,1.37,6.1,6.1,0,0,1,1.52,2.95,2.928,2.928,0,0,1,.04.95,1.316,1.316,0,0,1-.65.97,1.511,1.511,0,0,1-1.05.12,2.491,2.491,0,0,1-.83-.36,2.981,2.981,0,0,1-1.08-1.21,2.092,2.092,0,0,1-.15-1.46,1.887,1.887,0,0,1,.72-.98,2.247,2.247,0,0,1,.81-.36,1.837,1.837,0,0,1,.56-.02c.12.02.19.03.19.03a2.1,2.1,0,0,0-.69.16,1.929,1.929,0,0,0-.64.45,1.645,1.645,0,0,0-.42.83,1.952,1.952,0,0,0,1.13,1.86,1.153,1.153,0,0,0,1.03.15c.16-.07.24-.47.12-.95a5.919,5.919,0,0,0-1.21-2.58,3.682,3.682,0,0,0-2.01-1.39,2.055,2.055,0,0,0-1.68.34,1.192,1.192,0,0,0-.33.39,1.446,1.446,0,0,0-.07.18Z" fill="#d37575"/>
          </g>
        </g>
        <path id="Path_670" data-name="Path 670" d="M273.02,344.07a36.9,36.9,0,0,0-2.07-8.58,168.507,168.507,0,0,0-8.65-21.2c-3.19-6.55-5.63-14.5-3.8-21.76,1.16-4.58,3.27-10.37,9.4-11.34a15.448,15.448,0,0,1,10.11,2.32,26.242,26.242,0,0,1,3.84,2.89c1.04.93,2.21,1.44,3.06,2.58s1.46,2.4,2.25,3.57a40.841,40.841,0,0,0,4.44,5.13,57.564,57.564,0,0,0,7.35,5.93c3.93,2.95,7.79,6.72,7.77,11.22-.02,4.35-2.73,7.46-2.23,11.89.9,8.01-.22,15.97-1.44,23.85-.64,4.19-.9,8.45-1.97,12.55a63.911,63.911,0,0,1-4.68,11.53c-1.9,3.93-3.77,4.99-7.97,3.84a60.7,60.7,0,0,1-11.8-4.05c-.19-.1-.38-.19-.57-.28-2.78-1.31-5.67-2.35-8.32-3.91-2.29-1.35-4.89-3.43-4.27-6.41.71-3.47,2.68-5.99,4.93-8.59,1.81-2.09,3.86-4.37,4.43-7.17a14.356,14.356,0,0,0,.21-4.03Z" fill="#ffcfcf"/>
        <path id="Path_671" data-name="Path 671" d="M273.12,344.07c-.04-1.92-.24-3.92-1.24-5.14.48.59,1.42.29,2.09-.08a58.4,58.4,0,0,0,8.68-6.09,10.366,10.366,0,0,0,3.56-4.23,7.028,7.028,0,0,0-1.65-6.79,15.754,15.754,0,0,0-6.13-3.89,57.265,57.265,0,0,1-6.76-2.81,28.839,28.839,0,0,1-8.19-7.58,25.158,25.158,0,0,0,5.81,4.27,8.521,8.521,0,0,0,7.01.4,40.505,40.505,0,0,1-10.56-7.46c2.26,1.64,5.57,1.19,7.82-.46a13.774,13.774,0,0,0,4.49-6.92,29.279,29.279,0,0,0,1.32-12.74,30.166,30.166,0,0,0,3,1.84,7.038,7.038,0,0,1,2.43,2.27c1.01,1.4,1.61,3.01,2.72,4.34,1.31,1.57,2.66,3.18,4.07,4.66a57.564,57.564,0,0,0,7.35,5.93c3.93,2.95,7.79,6.72,7.77,11.22-.02,4.35-2.73,7.46-2.23,11.89.9,8.01-.22,15.97-1.44,23.85-.64,4.19-.9,8.45-1.97,12.55a63.911,63.911,0,0,1-4.68,11.53c-1.9,3.93-3.77,4.99-7.97,3.84a60.7,60.7,0,0,1-11.8-4.05c-3.17-1.61-6.6-2.68-9.61-4.63-2.29-1.49-4.16-3.34-3.8-6.33.25-2.04,2.07-5.54,4.06-6.29a5.247,5.247,0,0,1,2.05-.22c4.78.2,9.38,1.84,14.11,2.59a11.485,11.485,0,0,0,5.12-.08c5.46-1.64,5.83-9.79,5.41-14.39-1.83.23-20.93.24-20.78,2.36-.07-.95-.03-2.16-.06-3.4Z" fill="#ffcfcf" opacity="0.5"/>
        <g id="Group_403" data-name="Group 403">
          <path id="Path_672" data-name="Path 672" d="M258.87,294.63a14.292,14.292,0,0,0,.49,4.75c1.31,4.48,4.31,8.44,7.92,11.8a18.278,18.278,0,0,0,5.11,3.62c4.18,1.8,9.15.31,12.31-2.37,3.01-2.55,3.82-5.56,3.89-9.12a28.777,28.777,0,0,0-3.93-14.75c3.85,6.66,10.44,12.06,16.93,16.83a22.85,22.85,0,0,1,3.76,3.2c1.48,1.7,1.59,3.23,1.77,5.24.37,4.15-2.41,7.48-2.13,11.53a113.887,113.887,0,0,1,.3,13.7c.04-.72-10.86-.99-11.88-.96a56.75,56.75,0,0,0-11.82,1.56,59.672,59.672,0,0,0-5.72,1.71c-.32.11-3.15,1.03-3.14,1.05-1.87-4.43-3.31-8.95-4.75-13.53a100.9,100.9,0,0,0-5.17-12c-4.88-10.58-9.07-24.59.38-33.94-2.11,3.58-4.09,7.66-4.3,11.7Z" fill="#82a3a3"/>
          <path id="Path_673" data-name="Path 673" d="M258.87,294.63a14.292,14.292,0,0,0,.49,4.75c1.31,4.48,4.31,8.44,7.92,11.8a18.278,18.278,0,0,0,5.11,3.62c4.18,1.8,9.15.31,12.31-2.37,3.01-2.55,3.82-5.56,3.89-9.12a32.869,32.869,0,0,0-1.36-9.19,20.291,20.291,0,0,1,.83,19.66c1.68-1.57,3.38-2.49,4.46-4.7a18.006,18.006,0,0,1,5.34,2.69,7.061,7.061,0,0,1,2.83,5.09c.07,2.39-1.44,4.51-2.88,6.43-.37.49,3.06.66,3.37.61,1.34-.2,3.42-.81,3.93-2.2.03.45-.24,4.21-.13,4.17-5.15,1.84-9.75,4.23-15.27,5.12,3.62.25,7.5-1.1,10.76.5a114.761,114.761,0,0,0-16.75,3.07,99.588,99.588,0,0,1,11.44-.88c2.46,0,7.73-.4,9.67,1.47.94.91.52,2.7.46,3.93.04-.72-10.86-.99-11.88-.96a56.75,56.75,0,0,0-11.82,1.56,59.672,59.672,0,0,0-5.72,1.71c-.32.11-3.15,1.03-3.14,1.05-1.87-4.43-3.31-8.95-4.75-13.53a100.9,100.9,0,0,0-5.17-12c-4.88-10.58-9.07-24.59.38-33.94-2.11,3.58-4.09,7.66-4.3,11.7Z" fill="#82a3a3" opacity="0.39"/>
          <g id="Group_402" data-name="Group 402">
            <g id="Group_396" data-name="Group 396" opacity="0.39">
              <path id="Path_674" data-name="Path 674" d="M307.48,335.55s-2.2-.03-5.5-.07c-1.65-.03-3.57,0-5.62.02s-4.24.12-6.42.33a59.936,59.936,0,0,0-6.36.83,52.655,52.655,0,0,0-5.45,1.28c-1.57.47-2.87.92-3.76,1.28s-1.4.57-1.4.57l.34-.2c.23-.12.55-.33.98-.54s.96-.48,1.57-.76,1.32-.58,2.1-.86a40.379,40.379,0,0,1,5.45-1.58,58.245,58.245,0,0,1,6.44-.97c2.21-.17,4.42-.22,6.49-.21s4,.16,5.65.27,3.02.29,3.98.39,1.5.19,1.5.19Z" fill="#627f7e"/>
            </g>
            <g id="Group_397" data-name="Group 397" opacity="0.39">
              <path id="Path_675" data-name="Path 675" d="M298.1,331.69s-.28.04-.76.09-1.17.12-2,.21c-1.65.17-3.83.41-6.01.7s-4.35.63-5.98.91c-.82.13-1.5.24-1.98.32s-.76.12-.76.12,1.02-.45,2.62-.96a36.867,36.867,0,0,1,5.98-1.31c1.11-.14,2.22-.25,3.26-.29s2.02-.06,2.86-.02c.83.02,1.53.1,2.02.14s.76.09.76.09Z" fill="#627f7e"/>
            </g>
            <g id="Group_398" data-name="Group 398" opacity="0.39">
              <path id="Path_676" data-name="Path 676" d="M306.7,317.84a9.155,9.155,0,0,1-.32,1.91,7.93,7.93,0,0,1-.75,1.87,6.565,6.565,0,0,1-.66.96,4.768,4.768,0,0,1-.94.83,5.81,5.81,0,0,1-2.25.8,6.507,6.507,0,0,1-2.03-.02,5.158,5.158,0,0,1-1.36-.41,3.939,3.939,0,0,1-.47-.26s.19.04.52.08a8.619,8.619,0,0,0,1.35.06,9.177,9.177,0,0,0,1.84-.25,6.96,6.96,0,0,0,.98-.31,4.7,4.7,0,0,0,.92-.47,3.55,3.55,0,0,0,.77-.65,8.009,8.009,0,0,0,.64-.8,13.605,13.605,0,0,0,.95-1.63c.49-1.03.82-1.72.82-1.72Z" fill="#627f7e"/>
            </g>
            <g id="Group_399" data-name="Group 399" opacity="0.39">
              <path id="Path_677" data-name="Path 677" d="M290.19,299.07s.12.36.26,1a19.576,19.576,0,0,1,.43,2.71,15.967,15.967,0,0,1-.14,3.91,13.4,13.4,0,0,1-.52,2.17c-.11.37-.26.72-.4,1.08-.15.34-.29.69-.47,1.04a15.728,15.728,0,0,1-1.17,1.99,11.023,11.023,0,0,1-1.47,1.7,9.393,9.393,0,0,1-1.69,1.26,9.5,9.5,0,0,1-1.69.8,10.922,10.922,0,0,1-1.51.42c-.45.11-.86.14-1.18.19-.66.06-1.04.07-1.04.07l1-.25c.31-.1.7-.19,1.12-.35s.9-.35,1.4-.57a12.194,12.194,0,0,0,1.52-.89,11.451,11.451,0,0,0,1.49-1.26,13.73,13.73,0,0,0,2.38-3.51c.17-.32.32-.67.47-1.01.13-.32.28-.66.39-1a15.85,15.85,0,0,0,.57-2.03,20.308,20.308,0,0,0,.41-3.75,25.591,25.591,0,0,0-.08-2.7c-.05-.66-.09-1.03-.09-1.03Z" fill="#627f7e"/>
            </g>
            <g id="Group_400" data-name="Group 400" opacity="0.39">
              <path id="Path_678" data-name="Path 678" d="M274.92,317.31a9.959,9.959,0,0,1-1.8-.27,14.012,14.012,0,0,1-3.73-1.47,13.339,13.339,0,0,1-3.16-2.49,9.1,9.1,0,0,1-1.12-1.45s.59.42,1.47,1.04a38.731,38.731,0,0,0,3.27,2.08c1.22.7,2.48,1.32,3.45,1.78s1.63.77,1.63.77Z" fill="#627f7e"/>
            </g>
            <g id="Group_401" data-name="Group 401" opacity="0.39">
              <path id="Path_679" data-name="Path 679" d="M289.9,315.21s-.28.34-.82.89a15.59,15.59,0,0,1-2.5,2.01,14.157,14.157,0,0,1-6.74,2.3,17.267,17.267,0,0,1-2.69-.02,17.985,17.985,0,0,1-5.09-1.33,23.229,23.229,0,0,1-3.98-2.21,24.013,24.013,0,0,1-2.49-2.01c-.56-.53-.86-.85-.86-.85l.98.71c.62.44,1.54,1.05,2.66,1.71a26.28,26.28,0,0,0,4,1.89,21.137,21.137,0,0,0,2.37.73,19.09,19.09,0,0,0,2.51.44,15.32,15.32,0,0,0,2.53.05,17.692,17.692,0,0,0,2.44-.33,15.714,15.714,0,0,0,4.11-1.53,20.363,20.363,0,0,0,2.65-1.7c.61-.47.94-.75.94-.75Z" fill="#627f7e"/>
            </g>
          </g>
        </g>
      </g>
      <g id="Group_406" data-name="Group 406">
        <path id="Path_680" data-name="Path 680" d="M275.56,199.31c.4.1.7.14.69.06a66.041,66.041,0,0,1-.76,8.4c-.29,2.88-.66,5.76-.86,8.64-.42,6.26.8,12.25,1.25,18.39.47,6.39-1.22,12.75-2.84,18.94-1.64,4.98-2.16,10.27-3.98,15.21-1.62,4.4-3.19,8.83-4.59,13.35a46.183,46.183,0,0,0-2.33,10.28,15.471,15.471,0,0,0,2.51,10.1,6.85,6.85,0,0,0,2.51,2.29,9.234,9.234,0,0,0,3.48.75c4.49.28,10.05.29,12.25-3.77a16.387,16.387,0,0,0,1.48-6.93q.915-14.445,1.82-28.9c.2-3.24.41-6.49.46-9.74.05-3.14-.03-6.29-.12-9.43-.23-8.41.32-17.16-.63-25.49-.82-7.22-2.4-14.14-3.75-21.25a7.442,7.442,0,0,1-.16-2.89,21.59,21.59,0,0,1,.97-2.53,10.644,10.644,0,0,0,.32-4.28,50.509,50.509,0,0,0-1.27-8.62,31.779,31.779,0,0,0-1.35-4.18c-.35-.87-.83-2.51-2.15-2.65a.423.423,0,0,0-.2.03.26.26,0,0,0-.08.25c.06.8.11,1.59.17,2.39-.27-1.06-2.26-6.98-4.25-6.22-.52.2-.54.81-.48,1.3a6.729,6.729,0,0,0-1.35-2.37,1.415,1.415,0,0,0-1.27-.41,1.5,1.5,0,0,0-.98,1.34,5.379,5.379,0,0,0,.15,2.39c-.24-.84-1.08-1.9-2.02-.84a2.59,2.59,0,0,0-.38,2.07q.585,5.535,1.63,11.01a8.017,8.017,0,0,1,.17,3.3,30.361,30.361,0,0,0-3.01-2.99,2.37,2.37,0,0,0-1.66-.67,1.133,1.133,0,0,0-.98.82c-.09.59,1.03,2.02,1.32,2.59a17.3,17.3,0,0,0,1.5,2.61c1.16,1.57,1.98,3.41,3.38,4.86a9.343,9.343,0,0,0,3.01,2.05c.12.05,1.49.53,2.35.75Z" fill="#ffcfcf"/>
        <path id="Path_681" data-name="Path 681" d="M275.36,198.56a.665.665,0,0,0,.07.03c.95.44,2.25.71,2.92-.09a208.4,208.4,0,0,1,2.09,25.09c.33,8.77.33,17.55.19,26.32a203.541,203.541,0,0,1-2.02,28.88c-.64,4.05-1.69,7.94-2.62,11.92a67.513,67.513,0,0,1-2.08,8.44c-.83,2.2-1.49,4.85-3.14,6.6,4.1.37,9.89.37,12.16-3.81a16.387,16.387,0,0,0,1.48-6.93q.915-14.445,1.82-28.9c.2-3.24.41-6.49.46-9.74.05-3.14-.03-6.29-.12-9.43-.23-8.41.32-17.16-.63-25.49-.82-7.22-2.4-14.14-3.75-21.25a7.442,7.442,0,0,1-.16-2.89,21.59,21.59,0,0,1,.97-2.53c.89-2.56.2-5.55-.14-8.14-.23.49-.45.98-.68,1.47-2.33-3.15-1.45-7.7-3.22-11.2-.61.57-.27,1.57,0,2.37a7.933,7.933,0,0,1-.15,5.33,2.743,2.743,0,0,1-.71-1.28q-1.83-5.475-3.65-10.94a16.051,16.051,0,0,0,.38,6.21c.52,1.95,1.41,3.93,1,5.91-.39.32-.88-.24-1.06-.71q-2.025-5.145-4.05-10.3c.05,4.41,1.37,8.64,2.22,12.93.4,2.03,2.09,10.09-2.47,7.06a3.091,3.091,0,0,0,1.44,2.87,16.112,16.112,0,0,0,3.47,2.19Z" fill="#ffcfcf" opacity="0.54"/>
        <g id="Group_405" data-name="Group 405">
          <path id="Path_682" data-name="Path 682" d="M272.36,170.44a3.354,3.354,0,0,1,.45.39,5.058,5.058,0,0,1,.9,1.31,8.809,8.809,0,0,1,.43.97c.14.37.26.72.39,1.1.26.76.5,1.58.75,2.39.47,1.64.87,3.3,1.11,4.57s.34,2.12.34,2.12-.39-.78-.85-1.98-1.02-2.82-1.49-4.46c-.23-.82-.46-1.64-.64-2.42-.09-.39-.18-.76-.26-1.11s-.18-.68-.26-.98a6.5,6.5,0,0,0-.86-1.91Z" fill="#d37575"/>
          <path id="Path_683" data-name="Path 683" d="M270.4,170.51a4.181,4.181,0,0,0-.1.6,5.529,5.529,0,0,0,.05,1.54,14.833,14.833,0,0,0,.55,2.12c.13.39.26.79.4,1.2s.26.87.36,1.29c.39,1.72.71,3.45.89,4.76s.23,2.2.23,2.2-.35-.82-.75-2.08-.88-2.96-1.27-4.67c-.09-.44-.19-.82-.31-1.25-.12-.41-.22-.83-.32-1.24a8.867,8.867,0,0,1-.3-2.3,4.319,4.319,0,0,1,.3-1.62,1.948,1.948,0,0,1,.2-.41c.05-.09.08-.14.08-.14Z" fill="#d37575"/>
          <path id="Path_684" data-name="Path 684" d="M276.69,173.4a8.066,8.066,0,0,1,.93,1.3,13.566,13.566,0,0,1,1.38,3.23,13.822,13.822,0,0,1,.49,3.48,9.579,9.579,0,0,1-.12,1.6s-.19-.62-.42-1.53-.52-2.11-.85-3.29-.69-2.36-.96-3.26-.45-1.52-.45-1.52Z" fill="#d37575"/>
        </g>
      </g>
    </g>
    <g id="Group_424" data-name="Group 424">
      <g id="Group_408" data-name="Group 408">
        <path id="Path_685" data-name="Path 685" d="M176.44,410.08c-.23-1.18-.95-2.1-2.88-2.32-10.82-1.23-21.72,1.28-32.06,4.29s-20.61,6.58-31.45,7.6q2.025,6.795,4.05,13.58a131.384,131.384,0,0,1,31.35-6.62c2.77-.22,31.14-1.78,31.1-2.11a93.158,93.158,0,0,1-.16-10.7,16.6,16.6,0,0,0,.06-3.72Z" fill="#ffcfcf"/>
        <path id="Path_686" data-name="Path 686" d="M176.44,410.08c-.23-1.18-.95-2.1-2.88-2.32-10.82-1.23-21.72,1.28-32.06,4.29-4.39,1.28-8.76,2.66-13.17,3.9-2.33.66-4.68,1.28-7.04,1.82-1.47.34-4.31.07-4.89,1.8a5.133,5.133,0,0,0,.09,2.69,19.068,19.068,0,0,0,1.88,5.74,6.532,6.532,0,0,0,4.74,3.41,1.594,1.594,0,0,1,2.01-1.47c-2.09-.72-1.62-4.93-.28-5.99,1.17-.93,3.7-1.25,5.13-1.68,1.88-.58,3.78-1.12,5.68-1.62a150.261,150.261,0,0,1,22.45-4.12c.42-.04.59,8.88,1.74,9,1.11.12,16.7-.82,16.68-1.02a93.158,93.158,0,0,1-.16-10.7,16.6,16.6,0,0,0,.06-3.72Z" fill="#ffcfcf"/>
        <path id="Path_687" data-name="Path 687" d="M104.04,444.46c-.7-4.53.23-9.22-1.08-13.65-.56-1.88-1.51-3.67-1.95-5.58-1.13-4.85,2.06-7.39,7.45-6.88,3.43.33,6.39-.3,9.73-.44a.787.787,0,0,1,.54-1.08.968.968,0,0,1,1.17.6,1.15,1.15,0,0,1,.01.37c-.22,3.51-.85,8.64,1.64,11.72a2.644,2.644,0,0,0,2.27,1.01,1.045,1.045,0,0,1-.4,1.33,1.476,1.476,0,0,1-1.59-.04c-1.82-1.33-3.87,2.85-4.64,4.1-1.41,2.27-2.53,4.99-1.91,7.59.71,2.85,4.82,2.65,7.11,4.04.89.54,2.23,1.44,1.47,2.5-.9,1.25-4.03.91-5.44.97a66.105,66.105,0,0,1-7.96-.17,10.991,10.991,0,0,1-2.93-.53c-2.62-.97-3.17-3.69-3.5-5.86Z" fill="#f0f2d3"/>
        <path id="Path_688" data-name="Path 688" d="M104.04,444.46c-.7-4.53.23-9.22-1.08-13.65-.56-1.88-1.51-3.67-1.95-5.58-1.13-4.85,2.06-7.39,7.45-6.88,3.36.32,6.63-.45,9.96-.5a14.8,14.8,0,0,0,2.43,13.35,8.016,8.016,0,0,1-3.87-4.36,18.916,18.916,0,0,1-1.13-5.84c-1.73-.03-3.41-.54-5.14-.66s-3.64.27-4.7,1.64a5.251,5.251,0,0,0-.75,4.09c.23,1.41.77,2.75,1.04,4.15.51,2.6.11,5.29,0,7.94s.11,5.48,1.66,7.63a4.6,4.6,0,0,0,1.63,1.47,19.531,19.531,0,0,0,6.34,1.6l5.82.72a1.322,1.322,0,0,0,1.09-.18c.28-.26.1-.89-.27-.8.31.08.62.15.93.23a.685.685,0,0,0-.13-.57c.45.58,1.02,1.09.49,1.83-.9,1.25-4.03.91-5.44.97a66.105,66.105,0,0,1-7.96-.17,10.991,10.991,0,0,1-2.93-.53c-2.62-.97-3.17-3.69-3.5-5.86Z" fill="#f0f2d3"/>
      </g>
      <g id="Group_423" data-name="Group 423">
        <path id="Path_689" data-name="Path 689" d="M178.12,406.62a109.333,109.333,0,0,0-12.46.35c-1.24.1-1.58,8.91-1.57,9.93a84.5,84.5,0,0,0,1.07,9.37,97.727,97.727,0,0,1,15.97-1.25,102.954,102.954,0,0,1,13.38.26,69.631,69.631,0,0,0,9.32.88,41.342,41.342,0,0,0,9.04-1.56c20.26-5.06,40.96-10.3,58.07-20.96,4.02-2.5,8.02-5.04,12.06-7.47a24.094,24.094,0,0,0,8.52-8.73,66.667,66.667,0,0,0,7.82-19.13c-4.68.39-10-1.46-14.31-3.18-6.16-2.45-12.19-5.55-18.94-6.2-.51-.05-.26-.13-.78-.17-1.04,2.35-2.47,5.01-5.29,5.62a15.1,15.1,0,0,0-10.05,7.13c-2.24,4.12-1.07,7.32.26,11.33.2.61-8.71,3.55-9.8,4.1-4.09,2.04-8.04,4.3-12.09,6.4-10.35,5.35-22.13,12.42-34,14.81a7.979,7.979,0,0,1-1.62.2,10.235,10.235,0,0,1-2.13-.31,71.918,71.918,0,0,0-12.48-1.42Z" fill="#ad538b"/>
        <path id="Path_690" data-name="Path 690" d="M178.12,406.62a109.333,109.333,0,0,0-12.46.35c-2.26.19-1.77,7.9-1.6,9.41a114.267,114.267,0,0,1,35.17-.22,11.977,11.977,0,0,0,3.91.17,11.2,11.2,0,0,0,3.16-1.27Q225.5,405,244.7,394.94c2.63-1.38,5.49-3.55,8.35-4.31,2.8-.75,4.82.88,7.61,1a5.3,5.3,0,0,0,5.26-5.63c-.18-1.6-1.1-3.29-.36-4.72.89-1.72,3.35-1.61,5.25-1.25-5.12-1.89,4.33-7.6,6.19-7.87,3.9-.56,7.66,1.42,11.49,2.35a21.765,21.765,0,0,0,5.02.62c1.25,0,2.83-.62,3.95-.41a22.433,22.433,0,0,0,1.24-3.5c.22-.91.29-2.45,1.13-3.06-1.06.77-2.28.16-3.44.02a45.771,45.771,0,0,1-11.37-3.06c-6.16-2.45-12.19-5.55-18.94-6.2-.51-.05-.26-.13-.78-.17-1.04,2.35-2.47,5.01-5.29,5.62a15.1,15.1,0,0,0-10.05,7.13c-2.24,4.12-1.07,7.32.26,11.33.2.61-8.71,3.55-9.8,4.1-4.09,2.04-8.04,4.3-12.09,6.4-10.35,5.35-22.13,12.42-34,14.81a7.979,7.979,0,0,1-1.62.2,10.235,10.235,0,0,1-2.13-.31,71.918,71.918,0,0,0-12.48-1.42Z" fill="#ad538b" opacity="0.32"/>
        <g id="Group_422" data-name="Group 422">
          <g id="Group_417" data-name="Group 417">
            <g id="Group_409" data-name="Group 409" opacity="0.4">
              <path id="Path_691" data-name="Path 691" d="M285.9,387.21s-.13.02-.37.05a7.893,7.893,0,0,1-1.05.08,11.6,11.6,0,0,1-3.72-.58,19.632,19.632,0,0,1-4.78-2.37c-1.63-1.07-3.25-2.35-4.95-3.44a25.892,25.892,0,0,0-5.3-2.63,29.419,29.419,0,0,0-5.02-1.33,31.483,31.483,0,0,0-3.68-.4c-.9-.04-1.41-.05-1.41-.05s.13-.01.37-.04.59-.08,1.04-.09a22.034,22.034,0,0,1,3.75.06,24.994,24.994,0,0,1,5.22,1.07,21.275,21.275,0,0,1,2.81,1.11,24.312,24.312,0,0,1,2.73,1.52c1.75,1.15,3.35,2.44,4.91,3.54.78.54,1.54,1.07,2.3,1.49a17.652,17.652,0,0,0,2.2,1.07,12.659,12.659,0,0,0,3.55.89,10.639,10.639,0,0,0,1.41.05Z" fill="#63354f"/>
            </g>
            <g id="Group_410" data-name="Group 410" opacity="0.4">
              <path id="Path_692" data-name="Path 692" d="M271.58,383.23s-.28-.16-.75-.46-1.16-.67-2.02-1.09a27.026,27.026,0,0,0-2.97-1.23c-.55-.19-1.13-.37-1.73-.54-.59-.19-1.2-.3-1.81-.44a29.642,29.642,0,0,0-3.63-.52c-.59-.02-1.15-.08-1.69-.07s-1.05,0-1.52.02a20.268,20.268,0,0,0-2.28.2c-.55.08-.87.12-.87.12s.3-.11.83-.3c.27-.1.59-.18.98-.28a8.334,8.334,0,0,1,1.29-.27,13.878,13.878,0,0,1,1.56-.19,16.644,16.644,0,0,1,1.75-.05c.61.04,1.24.03,1.87.13.64.06,1.27.19,1.91.3.63.16,1.27.29,1.87.49a17.321,17.321,0,0,1,1.76.63,18.629,18.629,0,0,1,2.94,1.53,11.756,11.756,0,0,1,1.08.76c.31.24.58.45.79.64.42.38.64.6.64.6Z" fill="#63354f"/>
            </g>
            <g id="Group_411" data-name="Group 411" opacity="0.4">
              <path id="Path_693" data-name="Path 693" d="M260.59,386.9l-.46-.3c-.29-.19-.7-.44-1.2-.73s-1.1-.59-1.75-.88c-.32-.15-.67-.28-1.01-.41s-.71-.25-1.07-.36a14.7,14.7,0,0,0-2.15-.49c-.35-.02-.69-.09-1.01-.09a6.9,6.9,0,0,0-.91,0,7.4,7.4,0,0,0-1.38.15c-.34.06-.53.1-.53.1s.17-.1.47-.28a3.206,3.206,0,0,1,.58-.26,3.877,3.877,0,0,1,.79-.24,5.612,5.612,0,0,1,.97-.16,7.954,7.954,0,0,1,1.1-.03,10.5,10.5,0,0,1,2.35.42c.38.13.77.26,1.13.42a9.317,9.317,0,0,1,1.05.52,10.346,10.346,0,0,1,1.69,1.17,8.014,8.014,0,0,1,1.02,1.03c.21.28.33.43.33.43Z" fill="#63354f"/>
            </g>
            <g id="Group_412" data-name="Group 412" opacity="0.4">
              <path id="Path_694" data-name="Path 694" d="M252.59,384.75a4.074,4.074,0,0,1,1.21.04,6.279,6.279,0,0,1,2.48.99,5.886,5.886,0,0,1,1.84,1.95,3.5,3.5,0,0,1,.44,1.13s-.34-.32-.86-.8a17.1,17.1,0,0,0-1.94-1.51,21.457,21.457,0,0,0-2.13-1.25c-.31-.16-.57-.3-.75-.39s-.29-.16-.29-.16Z" fill="#63354f"/>
            </g>
            <g id="Group_413" data-name="Group 413" opacity="0.4">
              <path id="Path_695" data-name="Path 695" d="M252.35,386.88a1.62,1.62,0,0,1-.5.08,2.355,2.355,0,0,1-.94-.19,2.317,2.317,0,0,1-.78-.55,1.779,1.779,0,0,1-.29-.41,1.62,1.62,0,0,1,.5-.08,2.581,2.581,0,0,1,.94.19,2.422,2.422,0,0,1,.78.55A1.779,1.779,0,0,1,252.35,386.88Z" fill="#63354f"/>
            </g>
            <g id="Group_414" data-name="Group 414" opacity="0.4">
              <path id="Path_696" data-name="Path 696" d="M295.79,379.53s-.02.06-.07.17a4.778,4.778,0,0,1-.21.47,4.113,4.113,0,0,1-1.24,1.41,5.649,5.649,0,0,1-2.53.89,12.024,12.024,0,0,1-1.49.1,11.809,11.809,0,0,1-1.54-.1,14.38,14.38,0,0,1-5.22-2.01c-1.29-.8-2.08-1.42-2.08-1.42s.24.09.64.25.98.4,1.68.69a22.165,22.165,0,0,0,5.11,1.57,11.018,11.018,0,0,0,1.43.13c.46,0,.95.01,1.39-.02a6.2,6.2,0,0,0,2.34-.54,5.264,5.264,0,0,0,.82-.52,4.03,4.03,0,0,0,.55-.53,6.35,6.35,0,0,0,.43-.54Z" fill="#63354f"/>
            </g>
            <g id="Group_415" data-name="Group 415" opacity="0.4">
              <path id="Path_697" data-name="Path 697" d="M294.14,382.64s-.04.12-.12.32a2.194,2.194,0,0,1-.17.35,2.5,2.5,0,0,1-.29.43,3.673,3.673,0,0,1-.97.89,3.6,3.6,0,0,1-.68.34,4.729,4.729,0,0,1-.76.21,5.06,5.06,0,0,1-.77.05,5.675,5.675,0,0,1-.73-.06,6.045,6.045,0,0,1-2.33-.91s.5,0,1.21.04a11.5,11.5,0,0,0,2.47-.05,5.309,5.309,0,0,0,2.19-.91c.28-.2.52-.37.68-.51s.27-.21.27-.21Z" fill="#63354f"/>
            </g>
            <g id="Group_416" data-name="Group 416" opacity="0.4">
              <path id="Path_698" data-name="Path 698" d="M291.42,387.29s-.03.12-.1.33a3.765,3.765,0,0,1-.4.83,4.506,4.506,0,0,1-.86,1,6.18,6.18,0,0,1-1.27.83,6.974,6.974,0,0,1-2.7.61,5.7,5.7,0,0,1-1.25-.09s.47-.2,1.15-.44a24.575,24.575,0,0,0,2.39-.93,9.287,9.287,0,0,0,1.17-.64,11.761,11.761,0,0,0,.95-.7c.27-.23.49-.42.65-.58s.25-.23.25-.23Z" fill="#63354f"/>
            </g>
          </g>
          <g id="Group_421" data-name="Group 421">
            <g id="Group_418" data-name="Group 418" opacity="0.4">
              <path id="Path_699" data-name="Path 699" d="M297.8,373.49s-.14.04-.41.11a7.272,7.272,0,0,1-1.17.25,12.207,12.207,0,0,1-1.86.13,15.23,15.23,0,0,1-2.41-.19,32.624,32.624,0,0,1-5.82-1.59c-2.06-.76-4.25-1.57-6.44-2.38-8.72-3.37-17.43-6.74-17.43-6.74s.57.14,1.56.41,2.4.66,4.07,1.2,3.62,1.16,5.68,1.91,4.25,1.56,6.45,2.36c2.18.85,4.35,1.7,6.39,2.5a39.3,39.3,0,0,0,5.64,1.83,21.546,21.546,0,0,0,2.33.36,11.5,11.5,0,0,0,1.82.04,8.659,8.659,0,0,0,1.18-.12c.27-.04.42-.06.42-.06Z" fill="#63354f"/>
            </g>
            <g id="Group_419" data-name="Group 419" opacity="0.4">
              <path id="Path_700" data-name="Path 700" d="M291.35,374.61s-.5-.03-1.36-.15a33.373,33.373,0,0,1-3.55-.66c-1.45-.36-3.14-.82-4.91-1.43s-3.63-1.34-5.46-2.07c-1.84-.75-3.67-1.5-5.38-2.24-.86-.36-1.67-.74-2.46-1.03s-1.55-.55-2.26-.79c-1.41-.46-2.58-.92-3.38-1.27a13.329,13.329,0,0,1-1.23-.6s.47.17,1.3.43,2.03.55,3.47.94c.72.19,1.5.4,2.33.65s1.68.58,2.54.91c1.74.66,3.58,1.4,5.42,2.14,1.84.76,3.67,1.5,5.4,2.17s3.35,1.26,4.77,1.69,2.6.79,3.45.98c.84.21,1.33.33,1.33.33Z" fill="#63354f"/>
            </g>
            <g id="Group_420" data-name="Group 420" opacity="0.4">
              <path id="Path_701" data-name="Path 701" d="M280.87,367.59s-.78-.08-1.92-.32-2.63-.61-4.1-1.07-2.92-.99-3.98-1.45-1.76-.83-1.76-.83.78.08,1.92.32,2.63.61,4.1,1.07,2.92.99,3.98,1.45S280.87,367.59,280.87,367.59Z" fill="#63354f"/>
            </g>
          </g>
        </g>
      </g>
    </g>
  </g>
</svg>
