<svg xmlns="http://www.w3.org/2000/svg" width="260.98" height="138.666" viewBox="0 0 260.98 138.666">
  <g id="Group_446" data-name="Group 446" transform="translate(-434.9 -322.499)">
    <g id="Group_426" data-name="Group 426">
      <path id="Path_702" data-name="Path 702" d="M434.9,458.25,472,437.98l187.76,1.01,36.12,19.14Z" fill="#ad538b"/>
      <path id="Path_703" data-name="Path 703" d="M481.77,442.41c19.85-2.32,39.74-1.56,59.74-2.36q31.065-1.245,62.17-.52c16.62.39,32.81.96,49.13,4.44,2.08.44,4.75,2.19,3.62,3.99a3.2,3.2,0,0,1-1.34,1.03c-7.27,3.63-15.32,3.64-23.23,4.04q-13.26.675-26.52,1.25c-41.03,1.73-82.31,2.19-123.13-3.01a51.03,51.03,0,0,1-11.7-2.49,3.2,3.2,0,0,1-2.05-1.6c-.65-1.8,1.8-3.06,3.69-3.38,3.21-.56,6.41-1.01,9.62-1.39Z" fill="#ad538b" opacity="0.32"/>
      <line id="Line_15" data-name="Line 15" x2="260.98" transform="translate(434.9 459.52)" fill="none" stroke="#63354f" stroke-miterlimit="10" stroke-width="3.29"/>
    </g>
    <path id="Path_704" data-name="Path 704" d="M599.25,367.22l.59.12,28.21,5.7c3.63.73,7.36,1.51,10.46,3.54a13.7,13.7,0,0,1,5.64,7.46c.8,2.7.94,6.94-1.14,9.14-2.25,2.37-5.55,2.37-8.52,1.8-14.25-2.77-26.82-10.8-39.41-18.02-9.72-5.58-19.66-10.76-29.68-15.76-6.01-3-12.14-5.98-17.18-10.42s-8.97-10.6-9.17-17.32a5.14,5.14,0,0,1,.66-3.09c3.81-5.54,10.35,11.71,10.91,14.12a2.31,2.31,0,0,0,.45,1.08,2.253,2.253,0,0,0,.74.46c2.6,1.17,5.21,2.34,7.81,3.51,6.03,2.71,12.29,4.66,18.3,7.52a49.3,49.3,0,0,1,7.92,4.39c1.99,1.44,3.73,2.97,6.06,3.85a47.863,47.863,0,0,0,7.37,1.94Z" fill="#915757"/>
    <path id="Path_705" data-name="Path 705" d="M599.19,368.82c10.35,1.95,20.72,3.74,31.05,5.9,2.41.5,4.81,1.01,7.21,1.55a7.463,7.463,0,0,1,3.19,1.28,7.225,7.225,0,0,1,1.63,2.26c1.98,3.77,4.28,9.63.73,13.36-2.25,2.37-5.55,2.37-8.52,1.8-14.25-2.77-26.82-10.8-39.41-18.02-9.72-5.58-19.66-10.76-29.68-15.76-6.01-3-12.14-5.98-17.18-10.42s-8.97-10.6-9.17-17.32c-.04-1.51.62-5.01,2.68-3.59,1.55,1.07,2.48,3.58,3.25,5.21q2.31,4.89,4.63,9.77a8.079,8.079,0,0,0,1.17,1.96,7.628,7.628,0,0,0,2.37,1.56c7.39,3.55,15.2,6.1,22.62,9.56a74.164,74.164,0,0,1,14.12,8.29,8.1,8.1,0,0,0,1.25.85,7.82,7.82,0,0,0,2.18.64c1.96.38,3.91.76,5.87,1.12Z" fill="#915757" opacity="0.12"/>
    <g id="Group_430" data-name="Group 430">
      <path id="Path_706" data-name="Path 706" d="M647.07,380.45a5.417,5.417,0,0,1-3.83,1.88c1.44,2.82,2.94,5.64,4.15,8.58a24.043,24.043,0,0,1,2.19,11.65c5.33-5.94,10.63-11.54,14.37-18.68a17.632,17.632,0,0,1,3.21-4.92,15.292,15.292,0,0,1,3.31-2.18c2.36-1.28,10.77-4.67,7.54-8.66-.27-.34-.67-.55-.95-.87-.67-.76-.6-1.89-.74-2.89a6.392,6.392,0,0,0-1.53-3.32,1.187,1.187,0,0,1-.43-.8,1.162,1.162,0,0,1,.39-.66,6.612,6.612,0,0,0,1.49-2.8c.24-.95-5.51-2.6-6.36-3.5a9.664,9.664,0,0,1-1.78-3.24c-.97-2.48-1.93-5.04-3.71-7.03a20.76,20.76,0,0,0-2.77-2.44,19.185,19.185,0,0,0-15.38-3.31c-9.36,1.92-17.15,8.4-18.78,17.99-1.36,8.01,1.94,16.44,9.09,20.6a52.6,52.6,0,0,0,11.64,4.48" fill="#996b6b"/>
      <path id="Path_707" data-name="Path 707" d="M647.09,375.11c.5,3.19.14,6.7-3.85,7.22,1.44,2.82,2.94,5.64,4.15,8.58a24.043,24.043,0,0,1,2.19,11.65c5.33-5.94,10.63-11.54,14.37-18.68a17.632,17.632,0,0,1,3.21-4.92,15.292,15.292,0,0,1,3.31-2.18c1.42-.77,2.91-1.43,4.29-2.28,1.33-.82,2.95-1.6,3.5-3.19-1.41,1.32-3.11,1.74-4.88,2.33a32.816,32.816,0,0,1-6.34,1.41,14.131,14.131,0,0,1-4.45-.02c-.61-.12-5.36-2-4.23-3.31a2.694,2.694,0,0,1-1.02.85c-1.7.66-3.64-3.72-4.07-4.88a5.528,5.528,0,0,1-.38-3.1,2.547,2.547,0,0,1,2.12-2.05c1.48-.1,2.52,1.43,3.03,2.82a16.022,16.022,0,0,1,.93,4.54,9.441,9.441,0,0,0,.84-3.13c.73.1.9.79,1.24,1.44a13.322,13.322,0,0,0-2.17-9.3,12.955,12.955,0,0,1,2.56,2.4q-2.775-5.31-5.05-10.84a12.533,12.533,0,0,0,6.62,4.1c-1.99-1.66-4.2-4.18-4.84-6.75,1.24-.26,3.11.89,4.57.88a7.154,7.154,0,0,1,3.8.57c1.27.75,1.9,2.3,3.17,3.05-1.93-1.15-2.4-5.31-3.47-7.11a9.125,9.125,0,0,0-10.08-3.93,9.368,9.368,0,0,0-6.54,8.68,15.243,15.243,0,0,0,.93,4.89,44.752,44.752,0,0,0,2.97,7.03c-1.15-1.77-3.91-1.93-5.61-.68a6.849,6.849,0,0,0-2.42,5.6,24.529,24.529,0,0,0,1.18,6.2c.17.66.33,1.37.45,2.1Z" fill="#996b6b" opacity="0.38"/>
      <path id="Path_708" data-name="Path 708" d="M659.57,358.48a23.444,23.444,0,0,1-4.36-5.95,8.785,8.785,0,0,0,1.56,3.82,33.916,33.916,0,0,1,3.52,8.62,22.835,22.835,0,0,0-2.64-6.08c-1.32-2.07-3.08-3.97-3.61-6.37a13.4,13.4,0,0,0,1.4,4.12c.61,1.11,1.41,2.1,1.92,3.27.51,1.19.89,2.44,1.29,3.67.7,2.15.42,4.54.26,6.79a21.348,21.348,0,0,0-3.19-11.5,13.95,13.95,0,0,1,.57,8.65c.19-.87-1.25-2.38-1.85-2.82a2.07,2.07,0,0,0-3.02.45,2.714,2.714,0,0,0-.43,1.3c-.25,2.29,1.04,3.77,1.56,5.84a11.266,11.266,0,0,1-.23,7.1,9.294,9.294,0,0,0-.63-4.27,15.986,15.986,0,0,1-.64,4.78,10.589,10.589,0,0,0-1.25-5.14c.48.9-.16,2.9-.36,3.85a8.284,8.284,0,0,1-1.46,3.67,7.807,7.807,0,0,0-.34-2.88,5.529,5.529,0,0,1-1.21,3.42,2.185,2.185,0,0,0-.73-1.8,5.592,5.592,0,0,0-1.74-1.01c-3.69-1.53-7.87-2.44-10.55-5.4a14.421,14.421,0,0,1,.1,3.77,13.924,13.924,0,0,0-3.6-6.64,8.114,8.114,0,0,1,.65,5.09,18.155,18.155,0,0,0-1.3-4.31c-.64-1.44-1.47-2.79-2.14-4.21a21.331,21.331,0,0,1-1.92-10.99,12.78,12.78,0,0,1,2.03-6.2c-1.24,1.02-4.7,2.45-5.14,4.1a9.079,9.079,0,0,1,4.44-5.61c-1.67.43-3.33.85-5,1.28a7.687,7.687,0,0,1,6.38-2.32,9.7,9.7,0,0,0-6.43-1.24,11.311,11.311,0,0,1,7.65-.45c.14.04,2.19-2.95,2.42-3.22a20.763,20.763,0,0,1,4.78-4.04,29.491,29.491,0,0,1,12.42-3.96,7.24,7.24,0,0,1,2.99-2.99,12.919,12.919,0,0,1,16.13,2.5c1.66,1.84,2.76,4.14,4.44,5.96-1.51-1.49-2.51-3.42-3.95-4.98-3.28-3.54-8.67-4.7-13.35-3.5,2.28-.59,5.62.6,7.69,1.47a15.033,15.033,0,0,1,8.8,11.11,6.864,6.864,0,0,0-3.35-2.57c1.94.92,3.82,4.57,4.45,6.48-2.04-1.87-4.47-3.67-7.24-3.68-1.7,0-3.33.67-5.01.95s-3.66.06-4.68-1.31c1.22,3.66,3.55,6.65,5.99,9.58a15.311,15.311,0,0,1-6.24-5.91c.59,3.37,2.01,7.34,4.38,9.92-.08-.08-.15-.16-.23-.25Z" fill="#405150"/>
      <path id="Path_709" data-name="Path 709" d="M659.57,358.48a23.444,23.444,0,0,1-4.36-5.95,8.785,8.785,0,0,0,1.56,3.82,33.916,33.916,0,0,1,3.52,8.62,22.835,22.835,0,0,0-2.64-6.08c-1.32-2.07-3.08-3.97-3.61-6.37a13.4,13.4,0,0,0,1.4,4.12c.61,1.11,1.41,2.1,1.92,3.27.51,1.19.89,2.44,1.29,3.67.7,2.15.42,4.54.26,6.79a21.348,21.348,0,0,0-3.19-11.5,13.95,13.95,0,0,1,.57,8.65c.19-.87-1.25-2.38-1.85-2.82a2.07,2.07,0,0,0-3.02.45,2.714,2.714,0,0,0-.43,1.3c-.25,2.29,1.04,3.77,1.56,5.84a11.266,11.266,0,0,1-.23,7.1,9.294,9.294,0,0,0-.63-4.27,15.986,15.986,0,0,1-.64,4.78,10.589,10.589,0,0,0-1.25-5.14c.48.9-.16,2.9-.36,3.85a8.284,8.284,0,0,1-1.46,3.67,7.807,7.807,0,0,0-.34-2.88,5.529,5.529,0,0,1-1.21,3.42c1.07-1.35-2.94-3.25-3.74-3.6a13.523,13.523,0,0,1-5.38-4.09,22.675,22.675,0,0,1-3.25-5.88,40.094,40.094,0,0,0,.93,5.12,19.529,19.529,0,0,1-3.31-9.56,18.128,18.128,0,0,0-.07,5.88,24.484,24.484,0,0,1-3.16-10.51,20.529,20.529,0,0,1,2.64-11.39,9.3,9.3,0,0,0-2.84,1.07,10.824,10.824,0,0,1,4.7-3.33,3.773,3.773,0,0,0-1.67-.12c.62-.69,1.76-.49,2.57-.93a3.886,3.886,0,0,0,.96-.85,16.09,16.09,0,0,1,16.42-4.17,2.557,2.557,0,0,1,.72-2.58,5.464,5.464,0,0,1,2.49-1.26,9.462,9.462,0,0,1,5.72.05c.99.35,4.47,1.55,4.79,2.67-.66-2.24-2.5-2.58-4.26-3.67a10.51,10.51,0,0,1,6.65,2.73c1.46,1.35,3.57,3.95,3.68,6.02-1-.35-1.84-1.28-2.85-1.73,2.21,1.18,3.64,4.17,4.39,6.45-2.04-1.87-4.47-3.67-7.24-3.68-1.7,0-3.33.67-5.01.95s-3.66.06-4.68-1.31c1.22,3.66,3.55,6.65,5.99,9.58a15.311,15.311,0,0,1-6.24-5.91c.59,3.37,2.01,7.34,4.38,9.92-.08-.08-.15-.16-.23-.25Z" fill="#405150" opacity="0.3"/>
      <g id="Group_429" data-name="Group 429">
        <path id="Path_710" data-name="Path 710" d="M676.83,364.43s-.1.02-.28.06-.42.09-.71.15a9.694,9.694,0,0,1-2.47.35,11.849,11.849,0,0,1-2.36-.33c-.61-.14-1.01-.26-1.01-.26s.42-.05,1.03-.15a10.155,10.155,0,0,0,2.13-.55,7.928,7.928,0,0,0,1.79-1.07c.27-.18.49-.34.65-.44l.24-.16Z" fill="#63354f"/>
        <path id="Path_711" data-name="Path 711" d="M665.6,356.42s.39-.05.97-.13a2.143,2.143,0,0,0,1.53-.78,2.273,2.273,0,0,0,.32-1.71,5.283,5.283,0,0,0-.24-.93,2.06,2.06,0,0,1,.71.76,2.293,2.293,0,0,1,.31,1.08,2.268,2.268,0,0,1-.39,1.3,3.155,3.155,0,0,1-.25.28l-.12.11-.15.11a2.089,2.089,0,0,1-.62.27,2.435,2.435,0,0,1-1.11,0,3.045,3.045,0,0,1-.96-.36Z"/>
        <path id="Path_712" data-name="Path 712" d="M667.22,349.08a2.41,2.41,0,0,1-.29-.31,3.292,3.292,0,0,0-.68-.74,1.567,1.567,0,0,0-1.15-.13,2.08,2.08,0,0,0-.63.32,2.487,2.487,0,0,0-.48.49,3.271,3.271,0,0,0-.4.64,6.31,6.31,0,0,0-.28.72,8.058,8.058,0,0,0-.28,1.4,10.6,10.6,0,0,0-.06,1.47s-.08-.13-.2-.37a4.723,4.723,0,0,1-.32-1.08,4.438,4.438,0,0,1,.75-3.4,3.5,3.5,0,0,1,.8-.72,2.444,2.444,0,0,1,.94-.34,1.923,1.923,0,0,1,1.7.58,1.717,1.717,0,0,1,.33.6c.06.18.1.34.13.46a3.19,3.19,0,0,0,.12.4Z" fill="#405150"/>
        <g id="Group_428" data-name="Group 428">
          <g id="Group_427" data-name="Group 427">
            <path id="Path_713" data-name="Path 713" d="M656.31,365.17c-.57-.35-1.1-.77-1.64-1.15a7.772,7.772,0,0,0-3.13-1.44,3.638,3.638,0,0,0-3.21.93,4.337,4.337,0,0,0-.74,3.9,8.766,8.766,0,0,0,4.35,5.77,5.7,5.7,0,0,0,3.51.75,3.464,3.464,0,0,0,2.77-2.09" fill="#996b6b"/>
            <path id="Path_714" data-name="Path 714" d="M656.31,365.17s-.37-.22-1.03-.62a14.316,14.316,0,0,0-2.74-1.45,4.644,4.644,0,0,0-1.95-.26,3.168,3.168,0,0,0-1.89.83,3.111,3.111,0,0,0-.83,2.01,6.229,6.229,0,0,0,.35,2.39,8.658,8.658,0,0,0,2.7,3.97,6.779,6.779,0,0,0,3.83,1.69,3.716,3.716,0,0,0,2.78-.95,3.053,3.053,0,0,0,.55-.67c.1-.17.15-.28.15-.28s-.03.11-.1.3a2.768,2.768,0,0,1-.47.77,3.549,3.549,0,0,1-1.11.87,3.891,3.891,0,0,1-1.8.44,7.127,7.127,0,0,1-4.3-1.58,9.042,9.042,0,0,1-3.05-4.3,7.111,7.111,0,0,1-.36-2.72,3.8,3.8,0,0,1,1.13-2.49,3.658,3.658,0,0,1,2.37-.91,5.126,5.126,0,0,1,2.17.43,11.779,11.779,0,0,1,2.66,1.76c.59.48.93.76.93.76Z" fill="#63354f"/>
          </g>
          <path id="Path_715" data-name="Path 715" d="M650.83,367.85a.856.856,0,0,1-.14-.12.89.89,0,0,1-.24-.47,1.348,1.348,0,0,1,.09-.84,1.525,1.525,0,0,1,.84-.77,2.164,2.164,0,0,1,1.34-.08,3.848,3.848,0,0,1,1.31.62,7.934,7.934,0,0,1,2.12,2.16,3.544,3.544,0,0,1,.64,1.53,1.436,1.436,0,0,1-.96,1.56,1.173,1.173,0,0,1-.27.04,1.25,1.25,0,0,1-.24-.02,1.316,1.316,0,0,1-.45-.2,1.939,1.939,0,0,1-.51-.62,4.017,4.017,0,0,1-.36-1.23,9.281,9.281,0,0,1-.1-2.5s.05.24.13.67a15.392,15.392,0,0,0,.45,1.71,4.008,4.008,0,0,0,.43,1.02c.21.32.47.48.69.4a.7.7,0,0,0,.34-.74,2.8,2.8,0,0,0-.54-1.14,8.536,8.536,0,0,0-1.85-2.02,2.458,2.458,0,0,0-2.05-.68,1.238,1.238,0,0,0-.71.45,1.1,1.1,0,0,0-.2.66.866.866,0,0,0,.21.61Z" fill="#63354f"/>
        </g>
      </g>
    </g>
    <g id="Group_445" data-name="Group 445">
      <g id="Group_436" data-name="Group 436">
        <g id="Group_431" data-name="Group 431">
          <path id="Path_716" data-name="Path 716" d="M515.42,412.39a18.645,18.645,0,0,0,5.88-8.48c1.17-3.62,1.55-7.43,2.33-11.14a159.382,159.382,0,0,1,5.13-17.93c.92-2.77,2.07-5.81,4.67-7.14.36-.18-5.88-4.58-6.72-4.84a2.086,2.086,0,0,0-1.37-.08,2.211,2.211,0,0,0-.89.8c-6.06,7.89-9.08,17.47-13.33,26.38q-6.66,13.95-14.58,27.24a200.507,200.507,0,0,0,32.78,3.52,53.181,53.181,0,0,0,12.35-.79,10.717,10.717,0,0,0,4.22-1.67A13.143,13.143,0,0,0,548.7,415c.49-.72,2.75-3.04,1.8-3.92-.64-.59-4.62.49-5.59.56-4.01.29-8.03.11-12.04.11a144.979,144.979,0,0,0-18.03,1.12c.2-.16.39-.33.58-.49Z" fill="#915757"/>
          <path id="Path_717" data-name="Path 717" d="M515.72,412.58l-5.69.24c-.64.03-1.28-.04-1.92.02,13.94-9.76,11.71-27.52,17.51-41.57.48-1.16,2.96,3.43,3.02,3.6,1.58-2.53,1.97-5.64,4.9-7.14.36-.18-5.88-4.58-6.72-4.84a2.086,2.086,0,0,0-1.37-.08,2.211,2.211,0,0,0-.89.8c-6.06,7.89-9.08,17.47-13.33,26.38q-6.66,13.95-14.58,27.24a200.507,200.507,0,0,0,32.78,3.52,53.181,53.181,0,0,0,12.35-.79,10.717,10.717,0,0,0,4.22-1.67,13.143,13.143,0,0,0,2.81-3.26c.49-.72,2.75-3.04,1.8-3.92-.64-.59-4.62.49-5.59.56-4.01.29-8.03.11-12.04.11-5.03,0-10.01.47-15.03.69l-2.23.09Z" fill="#915757" opacity="0.19"/>
          <path id="Path_718" data-name="Path 718" d="M542.11,328.59a3.23,3.23,0,0,1,2.64-.9c1.29.33,1.75,1.93,1.78,3.26.15,6.67-4.54,12.42-6.23,18.88a21.446,21.446,0,0,0-.2,9.98c.71,3.25,2.47,7.83-2.28,9.11a9.141,9.141,0,0,1-1.81.22c-1.23.07-2.45.2-3.67.38-.56.08-1.24.28-1.38.83a2.5,2.5,0,0,0,.19,1.13c.08.38-.06.89-.44.92-.3.02-.52-.27-.68-.53a21.7,21.7,0,0,0-7.85-8.26c1.16.71,5.61-7.03,6.02-8,1.53-3.61,2.66-7.38,3.96-11.08,2.12-5.99,4.91-12.07,9.95-15.93Z" fill="#627f7e"/>
          <path id="Path_719" data-name="Path 719" d="M516.7,421.54a12.548,12.548,0,0,1,1.63-8.57,2.276,2.276,0,0,1,.86-.93,2.541,2.541,0,0,1,1.06-.21q10.86-.615,21.75-.39a15.85,15.85,0,0,0,4.72-.37c2.04-.59,3.76-1.99,5.8-2.56a.92.92,0,0,1,.59-.02.851.851,0,0,1,.4.62c1.14,4.06-.92,8.52-4.16,11.23s-7.46,3.94-11.61,4.68c-6.66,1.2-13.85,1.24-19.85-1.89a2.234,2.234,0,0,1-.89-.68,2.4,2.4,0,0,1-.31-.91Z" fill="#cdceaa"/>
        </g>
        <g id="Group_435" data-name="Group 435">
          <g id="Group_433" data-name="Group 433">
            <path id="Path_720" data-name="Path 720" d="M517.99,352.92c.52-.72,1.05-1.44,1.58-2.15a6.9,6.9,0,0,1,2.46-2.29c2.7-1.21,5.28,1.64,6.45,3.76a15.479,15.479,0,0,1,1.51,9.11,2.412,2.412,0,0,1-.31,1.09,2.864,2.864,0,0,1-1.04.84c-6.74,4.07-9.77,13.16-11.64,20.34-3,11.52-5.81,26.11-16.82,32.8,1.91-1.16,4.62-1.28,6.79-1.44a45.563,45.563,0,0,1,8.34.17.369.369,0,0,1,.27.11.356.356,0,0,1,.03.27c-.61,4.64-.99,9.34-1.8,13.99-.44,2.53-.92,5.05-1.3,7.58-.11.73-1.24,7.15-.71,7.38a23.85,23.85,0,0,0-3.77-1.09c-.98-.26-1.86-.79-2.84-1.12a200.739,200.739,0,0,1-21.67-8.7,23.656,23.656,0,0,1-7.02-4.56c-3.73-3.84-3.37-8.1-1.28-12.71,4.38-9.62,10.25-18.46,16.5-26.96,8.82-11.97,17.56-24.31,26.26-36.43Z" fill="#996b6b"/>
            <path id="Path_721" data-name="Path 721" d="M523.15,357.27a28.282,28.282,0,0,1,5.45-5.15c1.8,2.04,1.67,6.72,1.39,9.23a2.412,2.412,0,0,1-.31,1.09,2.864,2.864,0,0,1-1.04.84c-6.74,4.07-9.77,13.16-11.64,20.34-3,11.52-5.81,26.11-16.82,32.8,1.91-1.16,4.62-1.28,6.79-1.44a45.563,45.563,0,0,1,8.34.17.369.369,0,0,1,.27.11.356.356,0,0,1,.03.27c-.61,4.64-.99,9.34-1.8,13.99-.44,2.53-.92,5.05-1.3,7.58-.11.73-1.24,7.15-.71,7.38a41.087,41.087,0,0,0-6.23-1.63,40.715,40.715,0,0,1-7.11-2.95,1.633,1.633,0,0,1-1.22-1.87,69.523,69.523,0,0,1,1.36-14.17,26.6,26.6,0,0,1-16.7-4.14,32.637,32.637,0,0,0,19.12-15.57c4.57-8.34,5.37-18.07,9.26-26.69a79.479,79.479,0,0,1,7.99-13.78c1.46-2.02,3.09-4.3,4.88-6.42Z" fill="#996b6b" opacity="0.31"/>
            <g id="Group_432" data-name="Group 432" opacity="0.34">
              <path id="Path_722" data-name="Path 722" d="M503.41,413.88s-.12.19-.35.5a8.2,8.2,0,0,1-1.12,1.17,10.845,10.845,0,0,1-1.9,1.3,13.947,13.947,0,0,1-2.43,1.02,18.655,18.655,0,0,1-2.55.58,20.442,20.442,0,0,1-2.25.23,20.982,20.982,0,0,1-2.21.03s.85-.24,2.14-.52c.64-.14,1.38-.31,2.18-.49s1.62-.39,2.45-.66a18.893,18.893,0,0,0,4.29-1.89,15.669,15.669,0,0,0,1.29-.89c.3-.24.48-.38.48-.38Z" fill="#915757"/>
            </g>
          </g>
          <g id="Group_434" data-name="Group 434">
            <path id="Path_723" data-name="Path 723" d="M525.48,342.39c.13-.12.26-.25.39-.37a79.37,79.37,0,0,0,10.45-12.34c1.43-2,2.68-4.11,4.03-6.15.37-.56.95-1.2,1.59-.99a1.5,1.5,0,0,1,.8,1.1c1.22,4.08-.44,7.81-1.76,11.62-1.35,3.91-2.8,7.84-3.23,11.98a28.227,28.227,0,0,0-.07,7.46c.38,2.48,1,5.01.53,7.52a4.179,4.179,0,0,1-1.82,2.99,4.221,4.221,0,0,1-1.79.44c-.47.03-8.85-1.1-8.63-.47a2.217,2.217,0,0,1,.16,1.59c-.21.51-1.03.73-1.3.25a1.294,1.294,0,0,1-.11-.44,29.336,29.336,0,0,0-1.64-8.04c-.74-1.86-3.62-6.58-6.11-4.4-.18.16-1.39-1.59-.55-2.34a1.3,1.3,0,0,1,1.82.19c-.74-1,6.18-8.62,7.2-9.6Z" fill="#82a3a3"/>
            <path id="Path_724" data-name="Path 724" d="M520.62,352.3s.2.15.55.42c.17.13.37.31.6.52a6.276,6.276,0,0,1,.73.73,9.749,9.749,0,0,1,.79.94c.27.34.52.73.78,1.12.23.41.5.83.71,1.28.23.44.41.92.61,1.39.16.48.33.96.46,1.44.15.48.23.96.33,1.42a15.55,15.55,0,0,1,.25,2.57,14.8,14.8,0,0,1-.08,1.82c-.05.44-.09.68-.09.68s-.04-.25-.08-.68-.13-1.05-.25-1.77c-.05-.36-.13-.75-.21-1.17s-.2-.84-.29-1.29a28.2,28.2,0,0,0-.85-2.72,23.794,23.794,0,0,0-1.17-2.6c-.23-.39-.42-.79-.65-1.14s-.43-.69-.64-.99c-.42-.61-.77-1.1-1.06-1.44s-.43-.54-.43-.54Z" fill="#627f7e"/>
          </g>
        </g>
      </g>
      <g id="Group_442" data-name="Group 442">
        <g id="Group_439" data-name="Group 439">
          <path id="Path_725" data-name="Path 725" d="M595,451.3c-9.16.48-18.44.74-27.42-1.12.38-7.33.19-14.7,1.35-21.97.25-1.55,3.72-18.25,5.85-17.03a26.6,26.6,0,0,0,9,3.22,19.4,19.4,0,0,0,7.85-.17,57.1,57.1,0,0,0,9.25,27.84,31.19,31.19,0,0,0,3.81,4.76c.56.57,2.17,2.86,3.22,2.38-4.09,1.88-8.51,1.86-12.91,2.09Z" fill="#996b6b"/>
          <path id="Path_726" data-name="Path 726" d="M595.09,451.36c-9.16.48-18.44.74-27.42-1.12-.28-.06-.32-8.71-.3-9.52a43.647,43.647,0,0,1,1.46-10.17,35.511,35.511,0,0,1,8.85-15.76,4.411,4.411,0,0,1,1.68-1.2,1.67,1.67,0,0,1,1.88.5c.18.18-2.12,6.3-2.3,7.01a65.747,65.747,0,0,0-1.4,7.74c-.58,4.75-.33,9.47-.37,14.23a1.27,1.27,0,0,0,.08.55,1.039,1.039,0,0,0,.53.46c2.75,1.41,7.9.75,10.77.06a51.3,51.3,0,0,1-4.09-29.91c.53.1,7.3.85,7.25.05a57.1,57.1,0,0,0,9.25,27.84,31.811,31.811,0,0,0,3.81,4.76c.56.57,2.17,2.86,3.22,2.38-4.09,1.88-8.51,1.86-12.91,2.09Z" fill="#915757" opacity="0.17"/>
          <g id="Group_438" data-name="Group 438">
            <path id="Path_727" data-name="Path 727" d="M615.75,447.71c-.57.2-1.15.39-1.74.55-1.1,0-2.29.78-3.33,1.07-1.6.45-3.32.66-4.95.98a4.552,4.552,0,0,1-1.51.13,3.859,3.859,0,0,1-1.38-.52c-6.16-3.35-9.39-10.41-11.78-16.67-2.32-6.08-4.71-12.01-4.04-18.67a1.373,1.373,0,0,1,.33-.91c.79-.71,2.02.89,2.99.45a2.729,2.729,0,0,0,.72-.68c.8-.82,2.1-.79,3.25-.83a9.2,9.2,0,0,0,6.57-2.53c1.08-1.18,1.76-2.81,3.17-3.56,1.12-.59,2.65-.62,3.28-1.71a7.144,7.144,0,0,0,.45-1.72c.41-1.5,1.82-2.46,3.05-3.41,5.63-4.32,8.55-11.11,13.61-16.02,5.01-4.87,11.3-6.94,18.01-4.31,15.07,5.92,8.47,24.66,8.21,36.74-.11,4.98-.11,10.4-3.23,14.29-2.76,3.44-7.42,4.84-11.84,4.91a6.321,6.321,0,0,0-2.38.31,5.83,5.83,0,0,0-1.85,1.55,42.542,42.542,0,0,1-15.62,10.56Z" fill="#b5a555"/>
            <path id="Path_728" data-name="Path 728" d="M615.75,447.71c-.57.2-1.15.39-1.74.55-1.1,0-2.29.78-3.33,1.07-1.6.45-3.32.66-4.95.98a4.552,4.552,0,0,1-1.51.13,3.859,3.859,0,0,1-1.38-.52c-6.55-3.56-11.46-12.54-12.35-19.8l2.43,3.36c-2.19-6.35-4.3-12.89-4.36-19.67a3.411,3.411,0,0,0,2.98-.33c1.06,5.58,2.14,11.2,4.25,16.48s5.36,10.24,10.01,13.5c-1.8-4.77-4.79-8.98-7.27-13.44s-4.49-9.43-4.05-14.51c1.22-.03,1.94,1.31,2.38,2.45,2.06,5.32,4.24,10.65,7.44,15.38,1.75,2.59,3.93,5.08,6.85,6.18a1.593,1.593,0,0,0,1.13.11c1-.38.56-1.87.02-2.79a19.307,19.307,0,0,1-2.43-6.98.89.89,0,0,1,1.17-1.17c1.79.21,3.48.92,5.26,1.25a5.847,5.847,0,0,0,5.1-1.05c-.75.45-1.61-.7-1.29-1.51a3.379,3.379,0,0,1,2.03-1.54c4.17-1.77,7.3-4.99,11.27-6.97a8.406,8.406,0,0,1-5.11.25c-3.5-.79-6.45-4.33-7.32-7.75a22.145,22.145,0,0,1-.39-6.25c.08-2.74.17-5.48.25-8.22-.04,1.53,3.52,3.62,4.69,4.22,3.29,1.68,6.89,2,10.54,1.97,2.44-.02,5.13-.13,6.95-1.76,1.77-1.59,2.21-4.16,2.53-6.52.23-1.65.45-3.29.68-4.94a15.162,15.162,0,0,1,.81,8.77,45.86,45.86,0,0,1-2.66,8.51,20.663,20.663,0,0,0,4.93-13.82c-.13-5.4-2.3-8.92-6.05-12.63a5.333,5.333,0,0,0-3.18-1.85,12.215,12.215,0,0,1,7.76,3.68,17.54,17.54,0,0,1,2.54,3.67,22.729,22.729,0,0,1,1.95,9.66c.12,6.79-1.51,13.44-1.65,20.21-.11,4.98-.11,10.4-3.23,14.29-2.76,3.44-7.42,4.84-11.84,4.91a6.321,6.321,0,0,0-2.38.31,5.83,5.83,0,0,0-1.85,1.55,42.542,42.542,0,0,1-15.62,10.56Z" fill="#b5a555" opacity="0.35"/>
            <g id="Group_437" data-name="Group 437">
              <path id="Path_729" data-name="Path 729" d="M589.73,414.21s.06.49.15,1.36.26,2.09.5,3.55c.11.73.27,1.52.45,2.35.16.83.41,1.69.62,2.59.25.89.5,1.81.8,2.73.27.93.62,1.85.95,2.78.36.91.7,1.84,1.11,2.72.38.89.79,1.75,1.19,2.58.43.81.81,1.62,1.24,2.36.41.74.81,1.44,1.2,2.06.77,1.26,1.45,2.3,1.95,3.01s.78,1.12.78,1.12l-.91-1.02c-.29-.32-.62-.73-1-1.21s-.81-1.01-1.23-1.63c-.44-.61-.88-1.29-1.34-2.01s-.91-1.51-1.37-2.33c-.42-.84-.89-1.69-1.28-2.59-.42-.89-.78-1.83-1.15-2.75-.32-.95-.67-1.89-.94-2.83-.3-.94-.51-1.89-.74-2.79-.19-.92-.38-1.8-.5-2.65s-.24-1.65-.31-2.4c-.09-.74-.13-1.43-.15-2.04s-.05-1.13-.04-1.57c.01-.87.02-1.37.02-1.37Z" fill="#b5a555" opacity="0.6"/>
              <path id="Path_730" data-name="Path 730" d="M594.66,414.81s.14.52.37,1.44.6,2.21,1.1,3.75c.23.77.53,1.59.85,2.46s.71,1.76,1.07,2.69c.41.92.82,1.87,1.29,2.82.44.96.97,1.89,1.46,2.84.54.93,1.05,1.87,1.63,2.75.55.9,1.14,1.76,1.7,2.59.6.81,1.14,1.62,1.71,2.34s1.1,1.42,1.63,2.03c1.04,1.24,1.93,2.25,2.59,2.93s1.02,1.08,1.02,1.08-.41-.35-1.13-.96c-.36-.3-.78-.7-1.26-1.15s-1.02-.97-1.57-1.57c-.57-.58-1.15-1.25-1.76-1.96s-1.22-1.49-1.84-2.3c-.59-.83-1.22-1.68-1.78-2.59-.59-.89-1.12-1.84-1.68-2.78-.5-.97-1.02-1.92-1.46-2.9-.48-.96-.85-1.95-1.24-2.89-.35-.96-.7-1.88-.96-2.78-.28-.89-.53-1.74-.72-2.53-.22-.78-.37-1.52-.49-2.17s-.24-1.21-.3-1.68c-.13-.94-.21-1.47-.21-1.47Z" fill="#b5a555" opacity="0.6"/>
              <path id="Path_731" data-name="Path 731" d="M606.2,423.87s.21.26.58.73.89,1.12,1.53,1.89c1.27,1.56,3.01,3.58,4.88,5.49.92.96,1.88,1.89,2.79,2.75a27.2,27.2,0,0,0,2.58,2.21,10.406,10.406,0,0,0,2.07,1.2,8.5,8.5,0,0,0,.87.31,4.993,4.993,0,0,1-.92-.15,8.632,8.632,0,0,1-2.29-.94,19.437,19.437,0,0,1-2.82-2.06c-.97-.82-1.96-1.75-2.9-2.72a39.413,39.413,0,0,1-4.65-5.8,29.913,29.913,0,0,1-1.7-2.91Z" fill="#b5a555" opacity="0.6"/>
              <path id="Path_732" data-name="Path 732" d="M616.39,417.75s.27.33.73.91a11.159,11.159,0,0,0,.87,1.01c.34.38.73.8,1.19,1.24a17,17,0,0,0,1.5,1.37c.53.48,1.17.9,1.78,1.39.65.44,1.31.9,2.03,1.3.69.44,1.45.79,2.19,1.18.76.33,1.52.7,2.3.96.77.3,1.54.52,2.29.75.76.17,1.49.4,2.2.51.71.13,1.38.25,2.01.3.63.08,1.2.12,1.72.14a12.53,12.53,0,0,0,1.33.03h1.17s-.42.06-1.16.17a11.27,11.27,0,0,1-1.34.12,12.427,12.427,0,0,1-1.75.03,17.349,17.349,0,0,1-2.07-.16,19.951,19.951,0,0,1-2.29-.39,22.206,22.206,0,0,1-2.39-.7c-.81-.26-1.59-.63-2.38-.96-.76-.41-1.54-.78-2.25-1.24a23.86,23.86,0,0,1-2.05-1.41,22.283,22.283,0,0,1-1.75-1.53,19.624,19.624,0,0,1-1.43-1.51,12.109,12.109,0,0,1-1.09-1.38,11.489,11.489,0,0,1-.75-1.11c-.38-.64-.59-1.01-.59-1.01Z" fill="#b5a555" opacity="0.6"/>
              <path id="Path_733" data-name="Path 733" d="M637.05,422.9s.18.02.48.02a6.812,6.812,0,0,0,1.23-.1,19.184,19.184,0,0,0,3.55-1.12c1.27-.49,2.52-1.07,3.45-1.52s1.57-.76,1.57-.76a9.581,9.581,0,0,1-1.31,1.18,14.46,14.46,0,0,1-3.39,1.9,10.223,10.223,0,0,1-3.83.81,4.27,4.27,0,0,1-1.29-.23,2.488,2.488,0,0,1-.45-.19Z" fill="#b5a555" opacity="0.6"/>
              <path id="Path_734" data-name="Path 734" d="M637.49,379.55s.14.02.4.05a7.966,7.966,0,0,1,1.12.24,9.926,9.926,0,0,1,3.62,1.95,13.183,13.183,0,0,1,3.49,4.69,22.769,22.769,0,0,1,1.78,6.46,20.185,20.185,0,0,1-.35,6.7,14.638,14.638,0,0,1-1,2.93,15.684,15.684,0,0,1-1.37,2.41,13.562,13.562,0,0,1-2.82,2.99,9.127,9.127,0,0,1-.94.66c-.22.14-.34.21-.34.21a13.512,13.512,0,0,0,1.18-1,14.786,14.786,0,0,0,2.52-3.13,16.2,16.2,0,0,0,2.04-5.24,19.471,19.471,0,0,0,.23-6.44,22,22,0,0,0-1.61-6.26,13.512,13.512,0,0,0-3.13-4.63,10.666,10.666,0,0,0-3.35-2.16,9.782,9.782,0,0,0-1.08-.35l-.39-.09Z" fill="#b5a555" opacity="0.6"/>
              <path id="Path_735" data-name="Path 735" d="M647.06,384.99s.17.24.44.68c.14.21.29.49.46.8a9.279,9.279,0,0,1,.53,1.09,11.915,11.915,0,0,1,.52,1.33c.18.48.31,1,.45,1.53.11.54.26,1.1.32,1.68.09.58.13,1.17.18,1.76,0,.59.03,1.19,0,1.77,0,.58-.1,1.15-.15,1.71-.09.55-.17,1.08-.3,1.57a11.369,11.369,0,0,1-.39,1.38,11.886,11.886,0,0,1-.42,1.13c-.14.33-.26.62-.38.85-.23.46-.37.72-.37.72s.07-.29.21-.77.31-1.19.48-2.04c.09-.42.16-.88.23-1.37s.11-1.01.18-1.54a28.532,28.532,0,0,0,.06-3.35,29.2,29.2,0,0,0-.38-3.33c-.12-.52-.19-1.04-.33-1.51-.12-.48-.23-.93-.37-1.34-.25-.83-.48-1.51-.67-1.98s-.29-.75-.29-.75Z" fill="#b5a555" opacity="0.6"/>
              <path id="Path_736" data-name="Path 736" d="M607.5,403.1a4.55,4.55,0,0,0-.03.83,8.579,8.579,0,0,0,.38,2.12c.5,1.74,1.24,4.02,2.13,6.25.87,2.24,1.9,4.41,2.72,6.02.42.8.75,1.48,1.01,1.95s.39.74.39.74a25.805,25.805,0,0,1-1.83-2.44,29.529,29.529,0,0,1-1.59-2.69,32.291,32.291,0,0,1-2.63-6.67,28.739,28.739,0,0,1-.67-3.06,7.817,7.817,0,0,1-.06-2.23,3.063,3.063,0,0,1,.2-.82Z" fill="#b5a555" opacity="0.6"/>
              <path id="Path_737" data-name="Path 737" d="M603.81,412.17s.3.5.68,1.25.86,1.75,1.34,2.75.94,2.01,1.29,2.78.54,1.31.54,1.31a7.7,7.7,0,0,1-.96-1.06,14.043,14.043,0,0,1-1.64-2.66,14.33,14.33,0,0,1-1.03-2.95,8.45,8.45,0,0,1-.21-1.42Z" fill="#b5a555" opacity="0.6"/>
              <path id="Path_738" data-name="Path 738" d="M613.4,401.57s.07.18.19.51.32.81.58,1.41a22.2,22.2,0,0,0,1.07,2.11,28.956,28.956,0,0,0,1.67,2.56,24.571,24.571,0,0,0,5.43,5.32,23.472,23.472,0,0,0,3.68,2.18,22.093,22.093,0,0,0,4.17,1.44,23.093,23.093,0,0,0,8.64.52,19.25,19.25,0,0,0,3.89-.9,13.116,13.116,0,0,0,3.17-1.63,12.805,12.805,0,0,0,3.61-3.95c.33-.57.58-1.02.73-1.34s.24-.49.24-.49-.07.18-.19.51a13.771,13.771,0,0,1-.62,1.41,12.457,12.457,0,0,1-3.47,4.26,15.274,15.274,0,0,1-7.24,2.88,24.049,24.049,0,0,1-8.95-.42,23.517,23.517,0,0,1-4.31-1.55,23.368,23.368,0,0,1-9.16-7.94,21.83,21.83,0,0,1-1.56-2.69,23.214,23.214,0,0,1-.95-2.2,13.444,13.444,0,0,1-.47-1.46c-.1-.34-.15-.52-.15-.52Z" fill="#b5a555" opacity="0.6"/>
            </g>
          </g>
        </g>
        <g id="Group_441" data-name="Group 441">
          <path id="Path_739" data-name="Path 739" d="M529.91,339.22a8.789,8.789,0,0,0,.06,1.78c.34,1.98,3.11,3.67,4.58,4.88a40.151,40.151,0,0,1,5.46,4.96,13.952,13.952,0,0,0,1.94,2.12c1.36,1.06,3.11,1.33,4.58,2.18,1.44.83,2.79,2.01,4.22,2.92,3.2,2.04,6.42,4.07,9.71,5.96,5.91,3.4,10.92,8.03,17.12,11.09,3.3,1.62,6.59,2.83,9.68,4.78a108.611,108.611,0,0,0,10.45,5.67c5.84,2.83,11.83,5.35,17.59,8.35,3.45,1.8,6.41,2.52,7.42,6.74.53,2.22.82,4.69,2.48,6.26,3.55,3.35,10.47,2.31,14.2-.06,4.52-2.87,6.7-8.21,6.38-13.45a12.453,12.453,0,0,0-1.05-4.01c-2.83-6.83-8.11-9.53-14.97-11.24Q613.14,374,596.21,371.2a16.751,16.751,0,0,1-3.71-.9,19.72,19.72,0,0,1-4.1-2.63c-11.89-8.9-26.19-12.68-39.15-19.49a48.246,48.246,0,0,0-4.84-10.27,29.456,29.456,0,0,1-2.07-3.15c-.66-1.28-1.01-2.69-1.67-3.97-.4-.78-1.21-2.13-2.14-2.38s-1.57.37-1.37,1.41a3.168,3.168,0,0,1,.16,1.76c-.32.07-.49-.34-.69-.6a1.288,1.288,0,0,0-1.9.17,3.667,3.667,0,0,0-.64,2.06c-.26-.61-1.22-.39-1.69.09a3.092,3.092,0,0,0-.8,1.5c-.36-.33-.98-.11-1.29.27-.67.82-.44,2-.4,3.06C529.92,338.49,529.91,338.86,529.91,339.22Z" fill="#996b6b"/>
          <path id="Path_740" data-name="Path 740" d="M537.63,329.02c-.53,1.26,1.3,4.57,1.85,5.68.9,1.83,2,3.56,3.05,5.31,2.11,3.52,3.52,7.78,6.38,10.78,2.22,2.33,5.48,3.38,8.31,4.75,3.59,1.74,7.71,3.16,10.99,5.39,4.01,2.73,7.94,5.59,11.91,8.39a46.612,46.612,0,0,0,6.98,4.33,50.414,50.414,0,0,0,10.69,3.17c10.45,2.35,20.86,5.21,30.44,9.99a21.47,21.47,0,0,1,5.5,3.59c3.12,3.03,4.4,7.44,5.56,11.64,2.38-.63,6.42-4.32,6.3-7.03.22,4.9-2.94,10.62-7.44,12.74-3.84,1.81-9.61,2.31-12.93-.83-1.66-1.57-1.95-4.04-2.48-6.26-1.01-4.21-3.97-4.94-7.42-6.74-5.76-3-11.75-5.52-17.59-8.35a108.6,108.6,0,0,1-10.45-5.67c-3.09-1.95-6.39-3.15-9.68-4.78-6.2-3.05-11.21-7.68-17.12-11.09-3.29-1.9-6.51-3.92-9.71-5.96-1.43-.91-2.78-2.09-4.22-2.92-1.47-.85-3.22-1.12-4.58-2.18a13.954,13.954,0,0,1-1.94-2.12,40.149,40.149,0,0,0-5.46-4.96c-1.47-1.21-4.25-2.9-4.58-4.88a8.839,8.839,0,0,1-.06-1.78c.01-.36.02-.73,0-1.09-.04-1.05-.27-2.24.4-3.06a1.105,1.105,0,0,1,.25-.23c.63.17.34.9.19,1.53a6.675,6.675,0,0,0,5.21,7.82c-.67-1.46-2.15-2.37-3.12-3.66a6.333,6.333,0,0,1-.41-6.84,9.267,9.267,0,0,0,2.32,6.97,3.688,3.688,0,0,0,1.76,1.21,1.748,1.748,0,0,0,1.92-.64,13.992,13.992,0,0,1-3.96-4.58c-.83-1.86-.67-4.32.91-5.6a7.81,7.81,0,0,0,2.78,7.87c.67.51,1.91.73,2.12-.08a20,20,0,0,1-2.62-4.63,7.311,7.311,0,0,1-.05-5.21Z" fill="#996b6b" opacity="0.28"/>
          <g id="Group_440" data-name="Group 440">
            <path id="Path_741" data-name="Path 741" d="M531.79,334.42a10.2,10.2,0,0,1,.38,1.59,8.653,8.653,0,0,1,.12,1.69c0,.31-.05.66-.05.88a.91.91,0,0,0,.29.6c.2.24.41.48.61.72s.39.49.58.72c.37.47.71.93.98,1.33a14.286,14.286,0,0,1,.87,1.37,15.706,15.706,0,0,1-1.24-1.05c-.36-.33-.76-.72-1.18-1.15-.21-.22-.43-.44-.64-.67s-.43-.48-.65-.72a1.811,1.811,0,0,1-.46-1.12,9.136,9.136,0,0,1,.12-.97c.08-.57.11-1.12.14-1.6.04-.96.11-1.61.11-1.61Z" fill="#915757"/>
            <path id="Path_742" data-name="Path 742" d="M534.28,331.82s.16.68.3,1.7c.07.51.13,1.11.18,1.75.02.32.05.65.07.99a2.807,2.807,0,0,0,.03.45.433.433,0,0,0,.13.26c.16.2.45.48.66.72.23.24.44.5.66.74.42.48.8.95,1.12,1.35.64.81,1.01,1.4,1.01,1.4a17.215,17.215,0,0,1-1.37-1.06c-.4-.33-.84-.73-1.31-1.17-.23-.22-.48-.44-.71-.69-.25-.26-.46-.44-.74-.77a1.342,1.342,0,0,1-.28-.66c-.03-.22-.02-.4-.03-.56v-.99c.01-.64.04-1.24.08-1.76a16.2,16.2,0,0,1,.2-1.72Z" fill="#915757"/>
            <path id="Path_743" data-name="Path 743" d="M536.96,329.33a11.77,11.77,0,0,1,.41,1.37c.22.82.38,1.95.63,2.99a9.043,9.043,0,0,0,.48,1.47,9.7,9.7,0,0,0,.69,1.2,5.492,5.492,0,0,1,.5.92,3,3,0,0,1,.12.38s-.09-.11-.27-.29-.43-.41-.74-.7a5.08,5.08,0,0,1-.97-1.16,5.978,5.978,0,0,1-.65-1.63,13.637,13.637,0,0,1-.28-3.14,11.568,11.568,0,0,1,.08-1.43Z" fill="#915757"/>
          </g>
        </g>
      </g>
      <g id="Group_444" data-name="Group 444">
        <path id="Path_744" data-name="Path 744" d="M517.5,414.84c.95,0,1.9.02,2.85.03l13.48.18a31.764,31.764,0,0,0,7.1-.44c3.06-.67,5.51-2.69,8.06-4.37,2.92-1.92,5.84-3.94,9.37-4.48a20.423,20.423,0,0,1,14.81,3.45c.99.7,2,1.36,3.04,1.98.45.27,4.15,2.3,4.49,2.15a4.94,4.94,0,0,0-2.03,2.29c-3.57,6.45-5.1,14.1-5.52,21.42-.07,1.3-.38,14.2.85,14.28-5.26-.34-10.68-.71-15.96-.52a123.681,123.681,0,0,1-12.77.15,132.346,132.346,0,0,1-13.91-1.54,140.2,140.2,0,0,1-18.24-4.57c-3.52-1.1-7.09-1.99-10.62-3.06-.55-.17-.17-6.33-.14-7.04a49.292,49.292,0,0,1,.87-7.16,35.846,35.846,0,0,1,4.84-12.36.7.7,0,0,1,.22-.26.881.881,0,0,1,.46-.08c2.95.11,5.8-.06,8.73-.06Z" fill="#f0f2d3"/>
        <path id="Path_745" data-name="Path 745" d="M514.04,419.78c-2.68,6.25-.72,14.88,6.03,17.33a26.677,26.677,0,0,0,9.3,1.12q9.615-.045,19.19-1.04c3.28-.34,6.65-.79,9.48-2.47,5.67-3.36,6.14-12.48,9.16-17.88,1.57-2.8,3.43-5.41,4.74-8.36a50.894,50.894,0,0,0,8.58,4.81c-.52.81-1.35,1.45-1.84,2.33-3.57,6.45-5.1,14.1-5.52,21.42-.07,1.3-.38,14.2.85,14.28-5.26-.34-10.68-.71-15.96-.52a123.681,123.681,0,0,1-12.77.15,132.346,132.346,0,0,1-13.91-1.54,140.2,140.2,0,0,1-18.24-4.57c-3.52-1.1-7.09-1.99-10.62-3.06-.78-.24-.23-4.93-.21-5.59.19-7.34,2.39-14,5.39-20.64a1.61,1.61,0,0,1,.56-.77,1.586,1.586,0,0,1,.78-.16,67.054,67.054,0,0,1,8.85.26,11.4,11.4,0,0,0-3.84,4.89Z" fill="#f0f2d3"/>
        <g id="Group_443" data-name="Group 443">
          <path id="Path_746" data-name="Path 746" d="M566.03,450.53s-.11-.59-.3-1.62c-.1-.51-.19-1.14-.27-1.87-.1-.73-.2-1.55-.24-2.45-.08-.9-.1-1.87-.12-2.91-.04-1.03.01-2.12.06-3.25.09-1.12.17-2.29.33-3.46.12-1.18.35-2.36.55-3.55.27-1.17.52-2.35.86-3.49.3-1.15.68-2.25,1.02-3.32.39-1.06.76-2.09,1.19-3.02.41-.95.81-1.84,1.23-2.64.38-.81.79-1.53,1.16-2.16s.68-1.18.97-1.62c.57-.88.9-1.38.9-1.38s-.27.53-.75,1.46c-.25.46-.53,1.03-.83,1.69-.32.65-.66,1.4-1.01,2.22-.37.81-.72,1.71-1.08,2.67-.38.95-.68,1.98-1.06,3.03-.32,1.07-.68,2.16-.95,3.29-.32,1.12-.53,2.29-.79,3.45-.21,1.17-.46,2.33-.6,3.49-.19,1.15-.27,2.3-.39,3.41-.05,1.11-.17,2.18-.18,3.2-.03,1.02-.06,1.99-.02,2.88,0,.89.04,1.71.08,2.43s.06,1.36.12,1.88c.09,1.04.13,1.64.13,1.64Z" fill="#cdceaa"/>
          <path id="Path_747" data-name="Path 747" d="M562.48,450.12s-.06-.67-.17-1.84c-.05-.58-.1-1.29-.14-2.11-.06-.82-.11-1.74-.11-2.75-.03-1.01-.03-2.1-.02-3.25s.06-2.37.14-3.63c.11-1.26.2-2.56.38-3.87.14-1.32.39-2.65.6-3.98.3-1.31.57-2.64.95-3.91.33-1.29.78-2.52,1.18-3.72.47-1.17.9-2.32,1.44-3.35.26-.52.51-1.02.75-1.51s.53-.93.78-1.37.49-.86.74-1.24c.27-.38.52-.73.75-1.07a20.288,20.288,0,0,1,1.27-1.7c.75-.9,1.18-1.41,1.18-1.41s-.38.55-1.05,1.51a19.841,19.841,0,0,0-1.14,1.77c-.43.69-.89,1.48-1.34,2.37-.23.44-.49.9-.71,1.38s-.44,1-.68,1.52-.46,1.06-.66,1.63-.43,1.13-.65,1.71c-.38,1.19-.8,2.4-1.11,3.67-.36,1.26-.6,2.57-.88,3.86-.23,1.31-.5,2.61-.65,3.92-.2,1.3-.3,2.58-.43,3.82-.08,1.25-.21,2.45-.25,3.6-.06,1.15-.12,2.23-.13,3.23-.05,2-.07,3.67-.06,4.85v1.84Z" fill="#cdceaa"/>
          <path id="Path_748" data-name="Path 748" d="M570.62,428.5a16.307,16.307,0,0,1,.37-2.3,22.918,22.918,0,0,1,.66-2.31c.28-.83.65-1.69,1.04-2.55a27.421,27.421,0,0,1,1.33-2.41,19.11,19.11,0,0,1,1.39-1.95,15.948,15.948,0,0,1,1.56-1.73s-.46.8-1.15,2.01-1.56,2.81-2.35,4.46-1.5,3.33-2,4.62l-.84,2.16Z" fill="#cdceaa"/>
          <path id="Path_749" data-name="Path 749" d="M569.23,450.97a19.92,19.92,0,0,1-.58-2.22,30.7,30.7,0,0,1-.57-5,30.218,30.218,0,0,1,.3-5.02,17.918,17.918,0,0,1,.46-2.24s.03.92.03,2.28.02,3.16.07,4.97.13,3.6.19,4.96.09,2.28.09,2.28Z" fill="#cdceaa"/>
          <path id="Path_750" data-name="Path 750" d="M540.46,415.28s.12.87.31,2.18.47,3.02.85,4.71.84,3.37,1.22,4.63.64,2.11.64,2.11a14.567,14.567,0,0,1-1.1-1.93,19.607,19.607,0,0,1-.88-2.1,23.147,23.147,0,0,1-.72-2.52,24.367,24.367,0,0,1-.41-2.59,18.508,18.508,0,0,1-.09-2.28A14.7,14.7,0,0,1,540.46,415.28Z" fill="#cdceaa"/>
          <path id="Path_751" data-name="Path 751" d="M537.23,418.1s.16.42.44,1.15c.26.74.66,1.8,1.02,3.1s.76,2.83,1.1,4.48.58,3.45.77,5.24c.07.9.15,1.8.19,2.68.06.89.05,1.76.07,2.6,0,1.69-.09,3.27-.21,4.61-.1,1.35-.28,2.46-.4,3.24s-.21,1.22-.21,1.22.02-.45.04-1.23c.04-.78.06-1.9.08-3.24.02-.67.01-1.4,0-2.16s-.05-1.57-.06-2.41c-.07-1.67-.18-3.45-.36-5.22s-.41-3.54-.66-5.19c-.15-.82-.26-1.62-.4-2.38s-.27-1.47-.42-2.12c-.28-1.31-.51-2.4-.71-3.17-.18-.77-.28-1.2-.28-1.2Z" fill="#cdceaa"/>
          <path id="Path_752" data-name="Path 752" d="M505.81,442.98s-.09-.25-.22-.7a18.344,18.344,0,0,1-.44-1.89,20.382,20.382,0,0,1-.31-2.74,25.955,25.955,0,0,1,.08-3.16,25.048,25.048,0,0,1,.53-3.12,20.908,20.908,0,0,1,.83-2.62c.28-.75.6-1.35.8-1.77.22-.41.35-.65.35-.65s-.06.26-.2.71-.3,1.09-.49,1.86a39.169,39.169,0,0,0-.98,5.67,39.721,39.721,0,0,0-.14,5.76c.04.79.07,1.45.12,1.91s.06.73.06.73Z" fill="#cdceaa"/>
          <path id="Path_753" data-name="Path 753" d="M509.7,435.39a27.652,27.652,0,0,1-.04-3.29,33.161,33.161,0,0,1,2.4-10.84,13.773,13.773,0,0,1,1.67-2.99,8.081,8.081,0,0,1,1.73-1.69,5.251,5.251,0,0,1,.57-.35c.14-.07.21-.11.21-.11a8.13,8.13,0,0,0-.68.59,8.918,8.918,0,0,0-1.43,1.84,27.474,27.474,0,0,0-2.5,6.62,62.145,62.145,0,0,0-1.49,6.98c-.15.97-.27,1.78-.33,2.35s-.12.9-.12.9Z" fill="#cdceaa"/>
          <path id="Path_754" data-name="Path 754" d="M523.47,448.14s-.03-1.03.01-2.56.18-3.56.38-5.59.49-4.04.75-5.55.51-2.51.51-2.51.03,1.03-.01,2.56-.18,3.56-.39,5.59-.49,4.04-.75,5.55S523.47,448.14,523.47,448.14Z" fill="#cdceaa"/>
        </g>
      </g>
    </g>
  </g>
</svg>
