<svg xmlns="http://www.w3.org/2000/svg" width="231.618" height="198.071" viewBox="0 0 231.618 198.071">
  <g id="Group_472" data-name="Group 472" transform="translate(-36.755 -37.694)">
    <g id="Group_447" data-name="Group 447">
      <path id="Path_755" data-name="Path 755" d="M240.53,233.54l-26.76-13.91-135.44.7L52.28,233.71Z" fill="#f0f2d3"/>
      <path id="Path_756" data-name="Path 756" d="M209.92,223.93c-12.78-2.1-26-2.44-38.88-2.99-14.86-.64-29.73-.84-44.6-.72-11.59.09-23.36.39-34.4,3.91-1.08.34-2.36,1-2.33,2.13a2.287,2.287,0,0,0,1.05,1.63c1.87,1.41,4.32,1.69,6.65,1.9a455.788,455.788,0,0,0,52,1.3c16.74-.38,33.54.03,50.32-.69,6.21-.27,12.52-.62,18.37-2.71-.29-1.92-2.58-2.73-4.49-3.11-1.23-.24-2.47-.46-3.71-.66Z" fill="#f0f2d3"/>
      <line id="Line_16" data-name="Line 16" x1="188.25" transform="translate(52.28 234.6)" fill="none" stroke="#cdceaa" stroke-miterlimit="10" stroke-width="2.33"/>
    </g>
    <g id="Group_449" data-name="Group 449">
      <path id="Path_757" data-name="Path 757" d="M62.16,54.95a31.306,31.306,0,0,1,7.24,0,60.272,60.272,0,0,1,15.46,4.43c3.55,1.43,8.41,2.31,8.89,6.78.37,3.37-2.7,6.15-5.75,7.85A34.481,34.481,0,0,1,77.35,77.8c-4.38.79-9.17.82-12.77,3.35a10.044,10.044,0,0,0-4.18,9.33c.49,3.74,3.11,6.91,4.01,10.57,1.52,6.12-2.54,12.95-8.69,15.06-8.76,3.01-18.2-3.26-18.92-12.04a15.219,15.219,0,0,1,5.26-12.46,7.3,7.3,0,0,1,3.93-1.97c-2.42-4.56-4.25-9.52-4.36-14.65a18.846,18.846,0,0,1,3.6-11.78c2.28-3.01,7.02-5.18,10.52-6.63a24.13,24.13,0,0,1,6.39-1.64Z" fill="#8c3e1c"/>
      <path id="Path_758" data-name="Path 758" d="M78,58.15A18.317,18.317,0,0,1,89.47,75.22a7.2,7.2,0,0,0,.16,1.73c.47,1.76,2.99,2.49,4.12,3.77,2.09,2.36-.87,2.1-1.54,3.73-.51,1.23.4,3.04.62,4.28a40.779,40.779,0,0,1,.59,6.14,5.213,5.213,0,0,1-.47,2.74,4.541,4.541,0,0,1-1.7,1.58c-4.46,2.68-9.58.98-14.33,2.3,1.02,5.41,2.17,10.64,4.87,15.61a3.358,3.358,0,0,1,.62,2.5,2.986,2.986,0,0,1-.84,1.16,20.557,20.557,0,0,1-14.85,5.63c-.48,0-2.66-16.86-3.03-18.32-.93-3.59-1.89-7.12-4.58-9.89-1.78-1.85-3.9-3.36-5.78-5.12a28.007,28.007,0,0,1-8.82-20.77c.12-5.56,4.51-10.51,9.02-13.57,7.22-4.89,16.7-3.85,24.48-.54Z" fill="#e8a6a6"/>
      <path id="Path_759" data-name="Path 759" d="M80.57,97.78c3.57.99,7.88.87,11.03,1.13-2.28.75-4,1.72-6.55,1.88-.66.04-8.23.24-8.15.68,1.02,5.41,2.17,10.64,4.87,15.61a3.358,3.358,0,0,1,.62,2.5,6.927,6.927,0,0,1-7.9,4.27c-2.71-.75-8.22-3.73-9.3-6.51a16.619,16.619,0,0,1-.71-4.45,22.682,22.682,0,0,0-1.55-6.23,2.36,2.36,0,0,1-.25-.96,3.187,3.187,0,0,1,.42-1.16c1.03-2.27-.13-5.17,1.16-7.31a7.149,7.149,0,0,1,1.41-1.55L73.2,88.9a11.687,11.687,0,0,0,2.69,6.24,9.5,9.5,0,0,0,4.67,2.64Z" fill="#e8a6a6" opacity="0.32"/>
      <path id="Path_760" data-name="Path 760" d="M78.03,70.91a9.985,9.985,0,0,0-2.51,4.05c-.51,2.22.57,4.48.77,6.75a8.689,8.689,0,0,1-.48,3.71,9,9,0,0,0-.52-5.4,13.114,13.114,0,0,1-.95-5.34c-.1.99-.92,1.64-.69,2.78s.69,2.26.96,3.4a5.432,5.432,0,0,1-.03,3.36,14.088,14.088,0,0,0-2.02-3.62,1.225,1.225,0,0,0-1.24-.65c-1.64.02-2.57.86-3.85,1.66-1.16.72-2.01,1.14-1.17,2.61,1.13,1.99,2.47,2.18,4.58,2.56a8.758,8.758,0,0,1-3.1,8.31c-.99.81-2.57,1.16-2.87,2.47-.39,1.7.52,3.73.13,5.56a6.03,6.03,0,0,1-3.74,4.59,25.457,25.457,0,0,1-1.13,4.88c-.85,1.56-2.52,2.53-3.52,3.98a10.727,10.727,0,0,0-.96,10.5,10.875,10.875,0,0,1-.14-10.59c1.09-1.98,2.84-3.7,3.2-5.91a22.993,22.993,0,0,0-8.68,3.63,9.187,9.187,0,0,0-2.87,2.85,8.59,8.59,0,0,0-.91,4.24,20.454,20.454,0,0,0,1.6,7.98,25.486,25.486,0,0,1,1.61,4.05,7.74,7.74,0,0,1-.43,4.75c1.13-2.6-.61-5.43-1.86-7.98a24.448,24.448,0,0,1-2.18-14.64,6.788,6.788,0,0,0-1.46,5.89,49.57,49.57,0,0,0,1.82,6.02,9.153,9.153,0,0,1,.09,6.15,14.347,14.347,0,0,0-1.02-6.94,36.534,36.534,0,0,1-2.07-6.78,8.093,8.093,0,0,1,1.7-6.66c1.7-1.83,4.36-2.44,6.61-3.59a3.124,3.124,0,0,0,1.53-1.35,3.268,3.268,0,0,0,.15-1.49c-.15-2.87-.59-5.74.48-8.49a6.939,6.939,0,0,0,.67-2.19c.08-1.86-3.19-4.19-4.27-5.59a34.682,34.682,0,0,1-4.1-6.7C41.09,75,42.22,64.56,50.78,58.74c6.24-4.24,14.17-5.05,21.4-3.48,6.22,1.35,14.18,4.06,11.37,11.7-.98,2.67-2.8,5-3.77,7.68a17.962,17.962,0,0,0-.23,10.12,14.673,14.673,0,0,1,.8,4.14,7.526,7.526,0,0,1-1.52,4.16,9.875,9.875,0,0,0,.18-6.04,59.094,59.094,0,0,1-1.4-5.99,16.4,16.4,0,0,1,1.49-8.41c1.17-2.67,3-4.78,3.54-7.73-.8,2.35-2.94,4.09-4.57,5.95l-.05.05Z" fill="#8c3e1c"/>
      <path id="Path_761" data-name="Path 761" d="M77.99,70.91a9.985,9.985,0,0,0-2.51,4.05c-.51,2.22.57,4.48.77,6.75a8.689,8.689,0,0,1-.48,3.71,9,9,0,0,0-.52-5.4,13.114,13.114,0,0,1-.95-5.34c-.1.99-.92,1.64-.69,2.78s.69,2.26.96,3.4a5.432,5.432,0,0,1-.03,3.36,14.088,14.088,0,0,0-2.02-3.62,1.225,1.225,0,0,0-1.24-.65c-1.64.02-2.57.86-3.85,1.66-1.16.72-2.01,1.14-1.17,2.61,1.13,1.99,2.47,2.18,4.58,2.56a8.758,8.758,0,0,1-3.1,8.31c-.99.81-2.57,1.16-2.87,2.47-.39,1.7.52,3.73.13,5.56-.29,1.36-1.29,2.29-1.66,3.55-.5,1.73-.22,3.09-1.36,4.73-1.48,2.12-3.96,3.12-5.38,5.18a10.727,10.727,0,0,0-.96,10.5,10.675,10.675,0,0,1-1.44-5.76c.06-1.8,1.28-3.61,1.23-5.23a10.576,10.576,0,0,1-4.07.94c-.32,0-3.95-.62-3.79-.94a11.292,11.292,0,0,0-1.32,5.22,20.454,20.454,0,0,0,1.6,7.98,25.486,25.486,0,0,1,1.61,4.05,7.74,7.74,0,0,1-.43,4.75c1.13-2.6-.61-5.43-1.86-7.98a24.448,24.448,0,0,1-2.18-14.64,6.788,6.788,0,0,0-1.46,5.89,49.57,49.57,0,0,0,1.82,6.02,9.153,9.153,0,0,1,.09,6.15,14.347,14.347,0,0,0-1.02-6.94,36.534,36.534,0,0,1-2.07-6.78,7.425,7.425,0,0,1,1.19-5.65,7.193,7.193,0,0,1-1.98-9.86c1.53.94,3.7,1.8,4.91.48a6.221,6.221,0,0,1,3.78-11.19,15.373,15.373,0,0,1-5.49-10.31c-.05-.48.03-1.11.5-1.24a1.082,1.082,0,0,1,.61.08c1.43.46,2.86.93,4.28,1.39A18.7,18.7,0,0,1,57.22,64.6a10.8,10.8,0,0,1,7.55-2.35c2.68.34,5.23,2.47,5.41,5.17a6.293,6.293,0,0,1,6.1-2.79,3.527,3.527,0,0,0,1.37.08,2.791,2.791,0,0,0,1.16-.73c1.64-1.45,2.88-3.06,2.5-5.35a22.317,22.317,0,0,1,6.53,3.39,8.63,8.63,0,0,1,2.83,3.18c1.12,2.47.21,5.42-1.25,7.7A16.046,16.046,0,0,0,83.6,61.56a7.724,7.724,0,0,1-.08,5.42c-.98,2.67-2.8,5-3.77,7.68a17.962,17.962,0,0,0-.23,10.12,14.673,14.673,0,0,1,.8,4.14,7.526,7.526,0,0,1-1.52,4.16,9.875,9.875,0,0,0,.18-6.04,59.094,59.094,0,0,1-1.4-5.99,16.4,16.4,0,0,1,1.49-8.41c1.17-2.67,3-4.78,3.54-7.73-.8,2.35-2.94,4.09-4.57,5.95l-.05.05Z" fill="#8c3e1c" opacity="0.27"/>
      <g id="Group_448" data-name="Group 448">
        <path id="Path_762" data-name="Path 762" d="M72.74,81.24a9.429,9.429,0,0,0-1.49-3.46c-1.82-2.65-6.4-1.92-7.6.96a5.767,5.767,0,0,0-.01,3.76c.79,2.85,3.78,8.31,7.66,7.52A2.09,2.09,0,0,0,73,88.38" fill="#e8a6a6"/>
        <path id="Path_763" data-name="Path 763" d="M93.4,89.37l-.37.13a9,9,0,0,1-1.14.31,8.864,8.864,0,0,1-3.41,0,8.618,8.618,0,0,1-3.04-1.21,6.953,6.953,0,0,1-.84-.63c-.19-.17-.3-.26-.3-.26l.35.19a6.443,6.443,0,0,0,.94.41,8.022,8.022,0,0,0,2.98.45,7.637,7.637,0,0,0,2.8-.66,5.992,5.992,0,0,0,.79-.43c.21-.13.33-.21.33-.21l.92,1.9Z" fill="#d37575"/>
        <path id="Path_764" data-name="Path 764" d="M85.35,78.09c-.38-.69-.84-2.33-.21-3.03.75-.83,1.56.19,1.71.95.1.49.41,2.27,0,2.66C86.32,79.17,85.62,78.58,85.35,78.09Z"/>
        <path id="Path_765" data-name="Path 765" d="M88.7,72.07a3.423,3.423,0,0,0-.28-.37,2.888,2.888,0,0,0-.78-.63,3.354,3.354,0,0,0-1.15-.35,3.205,3.205,0,0,0-1.29.11,4.122,4.122,0,0,0-.59.22c-.21.11-.43.21-.64.34-.43.25-.83.55-1.19.81s-.67.52-.89.7-.37.29-.37.29a2.006,2.006,0,0,1,0-.48,4.173,4.173,0,0,1,.28-1.23,4.494,4.494,0,0,1,.97-1.53,4.061,4.061,0,0,1,.83-.69,3.61,3.61,0,0,1,1.12-.49,3.54,3.54,0,0,1,1.18-.11,3.59,3.59,0,0,1,1.14.27,3.045,3.045,0,0,1,1.51,1.34,2.211,2.211,0,0,1,.28,1.34,1.131,1.131,0,0,1-.08.35,1.256,1.256,0,0,0-.04.12Z" fill="#8c3e1c"/>
        <path id="Path_766" data-name="Path 766" d="M66.38,79.74a.923.923,0,0,1,.1-.2,1.857,1.857,0,0,1,.4-.49,2.215,2.215,0,0,1,.91-.46,2.575,2.575,0,0,1,.33-.05h.3a1.975,1.975,0,0,1,.74.22,2.75,2.75,0,0,1,1.1,1.21,8.744,8.744,0,0,1,.59,1.6c.14.55.33,1.07.47,1.69a6.4,6.4,0,0,1,.19,1.93,3.971,3.971,0,0,1-.22,1.01,2.962,2.962,0,0,1-.22.48,1.692,1.692,0,0,1-.4.49,1.183,1.183,0,0,1-.71.29,1.145,1.145,0,0,1-.74-.27,3.554,3.554,0,0,1-.59-.8,6.257,6.257,0,0,1-.74-1.57,2.826,2.826,0,0,1,0-1.63,1.81,1.81,0,0,1,1.83-1.35,1.241,1.241,0,0,1,.79.32,1.082,1.082,0,0,0-.2-.08,1.306,1.306,0,0,0-.58-.03,1.659,1.659,0,0,0-.78.36,1.538,1.538,0,0,0-.47.92,2.372,2.372,0,0,0,.17,1.24,6.831,6.831,0,0,0,.76,1.3,3.626,3.626,0,0,0,.44.56c.11.04.02.04.16-.03a.826.826,0,0,0,.16-.2,2.025,2.025,0,0,0,.14-.34,3.119,3.119,0,0,0,.15-.75,5.7,5.7,0,0,0-.13-1.63c-.13-.57-.25-1.14-.38-1.68a4.2,4.2,0,0,0-1.11-2.52,2.039,2.039,0,0,0-.47-.23c-.1-.02-.2-.04-.3-.05-.05,0-.16-.01-.24-.01a1.734,1.734,0,0,0-.84.24,1.91,1.91,0,0,0-.62.52Z" fill="#d37575"/>
      </g>
    </g>
    <g id="Group_456" data-name="Group 456">
      <path id="Path_767" data-name="Path 767" d="M82.4,181.65c-5.85-8.45-12.12-16.4-16.79-25.5a57.433,57.433,0,0,1-6.36-27.52,13.736,13.736,0,0,1,7.01-12.04,25.586,25.586,0,0,1,5.82-2.1c3.06-.76,6.33-1.23,9.36-.35a20.876,20.876,0,0,1,5.68,2.99q6.45,4.32,12.7,8.87a75.081,75.081,0,0,1,9.34,7.68,8.63,8.63,0,0,1,1.82,2.36,10.665,10.665,0,0,1,.58,4.84,53.669,53.669,0,0,0,2.94,18.53,30.488,30.488,0,0,0,3.61,7.33c1.82,2.71,2.85,6.12,4.14,9.11a1.861,1.861,0,0,1,.23,1.07,2.026,2.026,0,0,1-.69,1.01c-7.1,6.74-15.37,12.2-23.59,17.62a7.729,7.729,0,0,1-3.66,1.58c-2.44.15-3.68-2.85-4.77-4.52q-3.45-5.265-7.02-10.45c-.12-.17-.24-.35-.36-.52Z" fill="#e8a6a6"/>
      <path id="Path_768" data-name="Path 768" d="M59.54,129c.27-2.25.88-5.12,2.35-6.88.94,2.66-.22,4.98,2.25,7.32a12.753,12.753,0,0,0,6.22,2.88c8.14,1.73,16.55-.21,24.75-1.65a3.183,3.183,0,0,1,1.65,0c1.58.56,2.6,3.52,3.43,4.9,1.7,2.83,3.54,5.57,5.35,8.33q2.445,3.735,4.73,7.57c.52.88,4.62,6.7,4.19,7.41-2.13,3.49-4.96,5.72-8.02,8.32a13.031,13.031,0,0,0-3.45,3.66c-.76,1.49-.63,3.56.79,4.51,1.52,1.02,3.6.3,5.28-.45,1.66-.74,3.32-1.47,4.98-2.21a5.032,5.032,0,0,0-1.84,4.91,7.014,7.014,0,0,0,3.12,4.43c.3.2.64.43.65.78a1.062,1.062,0,0,1-.34.66c-4.56,5.1-11.56,8.63-17.29,12.41a7.729,7.729,0,0,1-3.66,1.58c-2.44.15-3.68-2.85-4.77-4.52q-3.45-5.265-7.02-10.45c-.12-.17-.24-.35-.36-.52-5.85-8.45-12.12-16.4-16.79-25.5a58.01,58.01,0,0,1-5.76-17.86,36.061,36.061,0,0,1-.44-9.63Z" fill="#e8a6a6" opacity="0.38"/>
      <path id="Path_769" data-name="Path 769" d="M58.68,128.77A21.1,21.1,0,0,1,60,123.5a13.367,13.367,0,0,1,4.19-5.56,16.368,16.368,0,0,1,3.05-1.93c.96-.47,2.17-.64,3.08-1.14A19.8,19.8,0,0,0,60.19,132.1a17.506,17.506,0,0,0,7.17,13.81,20.506,20.506,0,0,0,9.08,3.97,14.4,14.4,0,0,0,9.68-1.8,14.083,14.083,0,0,0,5.42-6.68,23.136,23.136,0,0,0,1.52-8.44,24.675,24.675,0,0,0-1.16-8.27,19.216,19.216,0,0,0-5.17-7.84c4.63,2.64,8.82,6.04,13.1,9.16a75.082,75.082,0,0,1,9.34,7.68,8.63,8.63,0,0,1,1.82,2.36,10.665,10.665,0,0,1,.58,4.84,52.272,52.272,0,0,0,2.16,14.77c.17.61.48,1.33,1.13,1.43-4.27,5.46-11.61,9.68-17.78,12.87a51.924,51.924,0,0,1-10.32,4.08,39.977,39.977,0,0,1-5.29,1.07c-1.63.22-3.21.34-4.86.41.46-.74-.07-1.66-.57-2.37a142.186,142.186,0,0,1-10.43-16.99A66.4,66.4,0,0,1,59.35,140a34.149,34.149,0,0,1-.66-11.22Z" fill="#687eaf"/>
      <path id="Path_770" data-name="Path 770" d="M58.68,128.77A21.1,21.1,0,0,1,60,123.5a13.367,13.367,0,0,1,4.19-5.56,16.368,16.368,0,0,1,3.05-1.93c.96-.47,2.17-.64,3.08-1.14A19.8,19.8,0,0,0,60.19,132.1a17.506,17.506,0,0,0,7.17,13.81,20.506,20.506,0,0,0,9.08,3.97,14.4,14.4,0,0,0,9.68-1.8,14.083,14.083,0,0,0,5.42-6.68,23.136,23.136,0,0,0,1.52-8.44,11.2,11.2,0,0,0,0-2.39,17.181,17.181,0,0,0,8.96-2.37,16.015,16.015,0,0,1,5.47,12.6c-.16,3.5-1.49,6.83-2.81,10.09a5.037,5.037,0,0,1,1.87-.85c3.84-.57.16,3.57-.68,4.58-1.59,1.91-3.31,3.72-4.91,5.62-2.23,2.66-4.21,4.66-7.71,5.96a92.776,92.776,0,0,0,17.5-8.72A47.884,47.884,0,0,1,96.1,168.44a23.881,23.881,0,0,0,4.46-.57,45.833,45.833,0,0,1-13.81,6.16,39.977,39.977,0,0,1-5.29,1.07c-1.63.22-3.21.34-4.86.41.46-.74-.07-1.66-.57-2.37A142.186,142.186,0,0,1,65.6,156.15a66.4,66.4,0,0,1-6.26-16.16,34.149,34.149,0,0,1-.66-11.22Z" fill="#687eaf" opacity="0.37"/>
      <g id="Group_455" data-name="Group 455">
        <g id="Group_450" data-name="Group 450" opacity="0.25">
          <path id="Path_771" data-name="Path 771" d="M111.63,157.11s-.42.44-1.15,1.22c-.36.39-.83.84-1.37,1.34-.54.52-1.15,1.09-1.87,1.66-.7.6-1.48,1.2-2.33,1.83-.83.64-1.76,1.25-2.72,1.88-.98.59-1.98,1.24-3.05,1.79-1.05.59-2.16,1.1-3.26,1.64-1.13.48-2.24.98-3.38,1.39-1.12.45-2.26.78-3.35,1.14-1.1.31-2.17.63-3.19.84-1.02.24-1.99.45-2.89.6-.9.18-1.73.29-2.47.38s-1.38.17-1.91.21c-1.06.08-1.67.12-1.67.12l1.64-.33c1.04-.19,2.52-.53,4.28-.97.88-.2,1.83-.47,2.82-.76,1-.27,2.03-.66,3.11-.98,1.06-.38,2.17-.76,3.26-1.21,1.11-.41,2.2-.92,3.31-1.4,1.08-.52,2.18-1.01,3.22-1.58,1.06-.54,2.06-1.12,3.05-1.68.95-.6,1.91-1.14,2.76-1.72.87-.57,1.68-1.12,2.4-1.66.74-.53,1.4-1.03,1.98-1.48s1.09-.84,1.49-1.2l1.29-1.07Z" fill="#4c587a"/>
        </g>
        <g id="Group_451" data-name="Group 451" opacity="0.25">
          <path id="Path_772" data-name="Path 772" d="M97.21,134.51s-.01.16-.04.46-.06.74-.15,1.3a23.549,23.549,0,0,1-1.16,4.54,24.74,24.74,0,0,1-3.11,5.88,21.061,21.061,0,0,1-5.46,5.39,12.052,12.052,0,0,1-3.66,1.55,16.049,16.049,0,0,1-3.79.41,22.863,22.863,0,0,1-6.59-.97,10.28,10.28,0,0,1-4.08-2.33,6.555,6.555,0,0,1-.85-1c-.17-.25-.26-.38-.26-.38s.1.12.3.35a7.788,7.788,0,0,0,.94.88,8.249,8.249,0,0,0,1.69,1.05,13.867,13.867,0,0,0,2.42.86,24.369,24.369,0,0,0,6.41.61,16.106,16.106,0,0,0,3.56-.47,11.371,11.371,0,0,0,3.34-1.45,16.146,16.146,0,0,0,2.88-2.33,29.076,29.076,0,0,0,2.41-2.73,26.162,26.162,0,0,0,3.3-5.55,27.213,27.213,0,0,0,1.51-4.35c.13-.54.24-.97.29-1.27s.1-.45.1-.45Z" fill="#4c587a"/>
        </g>
        <g id="Group_452" data-name="Group 452" opacity="0.25">
          <path id="Path_773" data-name="Path 773" d="M75.52,156.45s-.2-.01-.56-.05a10.232,10.232,0,0,1-1.46-.28,13.708,13.708,0,0,1-1.99-.67c-.35-.16-.72-.31-1.07-.51s-.71-.4-1.06-.61a16.978,16.978,0,0,1-1.92-1.46,13.365,13.365,0,0,1-1.45-1.52,9.433,9.433,0,0,1-1.14-1.7s.63.51,1.56,1.27a40.189,40.189,0,0,0,3.51,2.52c.66.43,1.34.81,1.97,1.18.65.35,1.26.68,1.79.94,1.08.54,1.8.89,1.8.89Z" fill="#4c587a"/>
        </g>
        <g id="Group_453" data-name="Group 453" opacity="0.25">
          <path id="Path_774" data-name="Path 774" d="M80.24,168.67a4.171,4.171,0,0,1-1.14.43,6.112,6.112,0,0,1-1.23.19,7.716,7.716,0,0,1-1.43-.06,7.044,7.044,0,0,1-2.52-.86,4.281,4.281,0,0,1-.98-.73s.5.05,1.18.16,1.57.26,2.46.38,1.78.23,2.47.31,1.18.17,1.18.17Z" fill="#4c587a"/>
        </g>
        <g id="Group_454" data-name="Group 454" opacity="0.25">
          <path id="Path_775" data-name="Path 775" d="M108.42,150.68a3.314,3.314,0,0,1-.38.87,5.469,5.469,0,0,1-3.18,2.42,3.269,3.269,0,0,1-.94.13,6.5,6.5,0,0,1,.65-.67c.4-.37.93-.8,1.47-1.22s1.11-.8,1.57-1.09a8.917,8.917,0,0,1,.81-.45Z" fill="#4c587a"/>
        </g>
      </g>
    </g>
    <g id="Group_469" data-name="Group 469">
      <g id="Group_457" data-name="Group 457">
        <path id="Path_776" data-name="Path 776" d="M246.94,71.19c-.05.08-.11.16-.16.24-3.74,5.7-7.71,11.14-11.94,16.53-.72.92-1.36,1.93-.92,3.11a5.419,5.419,0,0,0,1.37,1.87,24.618,24.618,0,0,0,5.71,4.2,6.8,6.8,0,0,0,3.29,1,145.538,145.538,0,0,1,11.32-15.5,10.459,10.459,0,0,0,1.49-2.21,7.459,7.459,0,0,0,.47-3.6c-.23-3.26-1.77-6.71-4.85-8.07a4.261,4.261,0,0,0-2.43-.38c-1.5.27-2.52,1.56-3.36,2.82Z" fill="#e8a6a6"/>
        <path id="Path_777" data-name="Path 777" d="M252.92,86.08a3.541,3.541,0,0,0-.16.34.842.842,0,0,0-.02.84.746.746,0,0,0,.61.25,2.617,2.617,0,0,0,2.19-1.53c.13-.52-.62-1.06-.06-1.73,1.02-1.21,3.59.09,4.93-.3a6.888,6.888,0,0,0,4.26-3.98,11.4,11.4,0,0,0,.64-5.82c-.28-2.38-1.03-4.73-.83-7.11.21-2.51,1.46-4.82,2.4-7.17,1.52-3.83,2.21-8.25.42-11.97a20.131,20.131,0,0,0-3.09-4.29c-1.38-1.59-2.78-3.17-4.18-4.74-.54-.6-1.26-1.26-2.07-1.08a2.079,2.079,0,0,0-1.26,1.31c-1.57,3.47-1.11,7.45-.37,11.17a5.254,5.254,0,0,1,.14,2.12,5.18,5.18,0,0,1-1.1,1.98,50.742,50.742,0,0,0-6.23,9.51c-.54,1.18-1.58,6.41-3.17,6.57-.29.03-.59-.06-.88-.03a1.287,1.287,0,0,0-.95,1.63,2.759,2.759,0,0,0,1.44,1.53,1.772,1.772,0,0,1,1.35-1.04c2.68-.4,4.92,5.08,5.44,6.94.48,1.71.74,3.46,1.18,5.18a.906.906,0,0,1,.04.46,1.107,1.107,0,0,1-.21.32,4.417,4.417,0,0,0-.46.67Z" fill="#4c587a"/>
        <path id="Path_778" data-name="Path 778" d="M255.16,84.85c.68-2.4,3.63-.5,5.24-.97a6.888,6.888,0,0,0,4.26-3.98,11.4,11.4,0,0,0,.64-5.82c-.28-2.38-1.03-4.73-.83-7.11.21-2.51,1.46-4.82,2.4-7.17,1.54-3.87,2.4-8.82.05-12.55-.42-.67-.8-1.38-1.28-2-1.33-1.7-2.91-3.16-4.22-4.87a13.312,13.312,0,0,0-1.48-1.78c-.69-.63-1.81-1.41-2.6-.47.26-.3,4.11,4.79,4.46,5.24a28.443,28.443,0,0,1,2.58,3.79,7.191,7.191,0,0,1,.85,2.36c.4,2.89-.91,6.3-1.87,8.97-1.03,2.88-2.2,5.77-2.44,8.85a64.085,64.085,0,0,0,.34,7.58c.08,1.87.3,4.42-2,5a3.855,3.855,0,0,1-1.69.04,2.762,2.762,0,0,1-1.31-.6c-.83-.72-.88-2.27-1.31-3.26a10.589,10.589,0,0,0-2.01-3.14,7.061,7.061,0,0,0-5.81-2.34,11.258,11.258,0,0,1,6.2,6.02,20.786,20.786,0,0,1,1.84,8.2Z" fill="#4c587a" opacity="0.34"/>
      </g>
      <path id="Path_779" data-name="Path 779" d="M125.72,176.52c.53.46,6.02,6.45,6.22,6.26,5.29-5.16,11.22-9.8,16.66-14.93,7.44-7.01,14.95-13.95,22.31-21.04a183.1,183.1,0,0,1,14.19-12.49c4.23-3.24,8.75-6.11,13.04-9.29,15.62-11.57,27.8-26.82,39.78-41.88a34.2,34.2,0,0,1,11.32,7.99c-8.24,12.47-12.39,27.23-21.39,39.21-6.16,8.2-14.58,14.01-23.7,18.89a19.207,19.207,0,0,0-4.57,2.97,17.245,17.245,0,0,0-2.91,4.35q-10.17,19.11-21.93,37.38c-3.92,6.09-8.11,11.99-12.12,18.01-3.82,5.72-7.75,12.65-15.04,14.68-9.03,2.51-20.42,1.72-29.64.72-9.95-1.08-14.12-14.21-19.23-21.32-3.13-4.36-5.76-9.01-9.6-12.89a54.484,54.484,0,0,1,6.17-6.45c1.75-1.55,3.59-2.99,5.44-4.43,6.19-4.83,12.45-9.7,19.63-13a20.435,20.435,0,0,0,5.37,7.25Z" fill="#63354f"/>
      <path id="Path_780" data-name="Path 780" d="M125.35,189.7a21.6,21.6,0,0,0-5.94,13.36c-.42,5.95,2.21,9.61,8.31,11.4,8.24,2.41,15.99-1.24,21.87-6.72A78.956,78.956,0,0,0,159.36,196c11.92-16.4,23.94-33.25,32.67-51.45a5.567,5.567,0,0,1,1.72-2.38,6.377,6.377,0,0,1,2.56-.78c8.12-1.42,14.4-5.94,19.5-11.92.7-.82,9.46-11.38,8.21-11.9a31.055,31.055,0,0,0-14.67-1.96,26.665,26.665,0,0,0,5.15-4.63c4.56-4.76,8.12-11.03,13.15-15.24a3.786,3.786,0,0,1,4.12-.73,4.894,4.894,0,0,1,.81.63c-.24.45-.49.89-.73,1.34a6.631,6.631,0,0,0,7.16-1.74c.66-.71,4.09-9.46,2.7-9.35,1.24-.1,8.17,4.29,7.53,5.27-8.24,12.47-12.39,27.23-21.39,39.21-6.16,8.2-14.58,14.01-23.7,18.89a19.207,19.207,0,0,0-4.57,2.97,17.245,17.245,0,0,0-2.91,4.35q-10.17,19.11-21.93,37.38c-3.92,6.09-8.11,11.99-12.12,18.01-3.82,5.72-7.75,12.65-15.04,14.68-9.03,2.51-20.42,1.72-29.64.72-9.95-1.08-14.12-14.21-19.23-21.32-3.13-4.36-5.76-9.01-9.6-12.89a54.484,54.484,0,0,1,6.17-6.45c1.75-1.55,3.59-2.99,5.44-4.43,3.29-2.57,6.87-4.81,10.07-7.46a5.081,5.081,0,0,0-1.88,2.35,1.752,1.752,0,0,0,1.39,2.25,2.662,2.662,0,0,0,1.7-.84l3.54-3c-1.93,2.45-3.96,5.61-2.61,8.4.57,1.18,2.67,3.19,4.08,3.42a16.674,16.674,0,0,0,5.22-.25q3.465-.525,6.93-1.06a37.512,37.512,0,0,0-3.81,3.6Z" fill="#63354f" opacity="0.22"/>
      <g id="Group_468" data-name="Group 468">
        <g id="Group_458" data-name="Group 458" opacity="0.31">
          <path id="Path_781" data-name="Path 781" d="M142.83,173.12a30.6,30.6,0,0,1-3.31,3.64c-1.06,1.03-2.35,2.17-3.69,3.41s-2.65,2.65-4.04,4.07c-.7.7-1.42,1.38-2.17,2.02s-1.54,1.17-2.23,1.75c-1.41,1.15-2.65,2.32-3.7,3.34s-1.93,1.89-2.54,2.48-.98.94-.98.94.3-.39.82-1.07c.54-.67,1.28-1.65,2.25-2.76a38.164,38.164,0,0,1,3.54-3.63c.7-.63,1.46-1.21,2.17-1.82s1.41-1.29,2.09-1.99c1.37-1.37,2.74-2.83,4.17-4.02,1.41-1.2,2.76-2.25,3.91-3.17s2.09-1.69,2.72-2.27l.99-.91Z" fill="#63354f"/>
        </g>
        <g id="Group_459" data-name="Group 459" opacity="0.31">
          <path id="Path_782" data-name="Path 782" d="M120.05,173s-.42.3-1.16.82c-.75.5-1.79,1.26-3.05,2.15-.63.45-1.3.94-2.02,1.46s-1.46,1.08-2.23,1.65c-1.53,1.17-3.16,2.42-4.75,3.72s-3.16,2.62-4.62,3.88-2.79,2.47-3.92,3.51-2.09,1.91-2.74,2.54-1.04.97-1.04.97l.89-1.11c.58-.69,1.4-1.7,2.46-2.83,1.04-1.15,2.32-2.44,3.73-3.77.72-.66,1.44-1.35,2.22-2.01.76-.68,1.57-1.33,2.36-2,.82-.64,1.62-1.29,2.44-1.89.81-.62,1.64-1.19,2.43-1.75,1.6-1.1,3.12-2.08,4.47-2.86,1.33-.8,2.48-1.4,3.28-1.82s1.27-.64,1.27-.64Z" fill="#63354f"/>
        </g>
        <g id="Group_460" data-name="Group 460" opacity="0.31">
          <path id="Path_783" data-name="Path 783" d="M109.82,183.74s-.21.23-.59.6-.92.9-1.57,1.54c-1.31,1.25-3.06,2.91-4.8,4.57-1.76,1.65-3.51,3.3-4.83,4.54-.67.61-1.23,1.12-1.63,1.48s-.63.55-.63.55.67-1.02,1.81-2.44a51.769,51.769,0,0,1,9.69-9.17c.73-.54,1.39-.94,1.83-1.24s.71-.44.71-.44Z" fill="#63354f"/>
        </g>
        <g id="Group_461" data-name="Group 461" opacity="0.31">
          <path id="Path_784" data-name="Path 784" d="M105.37,199.69a2.233,2.233,0,0,1-.04.62,4,4,0,0,1-.4,1.14,3.93,3.93,0,0,1-.74.96,2.427,2.427,0,0,1-.5.37,2.078,2.078,0,0,1-.04-.63,3.038,3.038,0,0,1,1.17-2.15A2.038,2.038,0,0,1,105.37,199.69Z" fill="#63354f"/>
        </g>
        <g id="Group_462" data-name="Group 462" opacity="0.31">
          <path id="Path_785" data-name="Path 785" d="M191.04,159.36s-.12-.21-.3-.59-.46-.9-.82-1.51c-.17-.31-.38-.63-.59-.97s-.47-.68-.71-1.04c-.26-.35-.53-.71-.82-1.06-.27-.36-.59-.7-.9-1.05a26.553,26.553,0,0,0-1.94-1.9c-.34-.27-.65-.56-.97-.8s-.62-.48-.9-.68c-.57-.41-1.06-.76-1.42-.97s-.55-.36-.55-.36.23.05.64.18a11.07,11.07,0,0,1,1.64.64,13.306,13.306,0,0,1,2.15,1.28c.36.29.75.56,1.1.9.36.32.7.67,1.05,1.02.32.38.64.74.93,1.13s.54.79.79,1.18a12.616,12.616,0,0,1,1.07,2.26,11.11,11.11,0,0,1,.47,1.7c.08.41.11.65.11.65Z" fill="#63354f"/>
        </g>
        <g id="Group_463" data-name="Group 463" opacity="0.31">
          <path id="Path_786" data-name="Path 786" d="M191.31,150.57a2.229,2.229,0,0,1-.49-.13,2.19,2.19,0,0,1-.74-.51,2.133,2.133,0,0,1-.46-.77,1.854,1.854,0,0,1-.1-.49,1.514,1.514,0,0,1,.51.04,1.72,1.72,0,0,1,.82.49,1.788,1.788,0,0,1,.44.85,1.481,1.481,0,0,1,.02.51Z" fill="#63354f"/>
        </g>
        <g id="Group_464" data-name="Group 464" opacity="0.31">
          <path id="Path_787" data-name="Path 787" d="M221.35,137.81s.09-.26.26-.71a15.411,15.411,0,0,0,.59-1.88c.11-.39.2-.82.29-1.27s.14-.93.22-1.42c.04-.5.09-1.01.1-1.53.04-.52,0-1.05,0-1.58a20.361,20.361,0,0,0-.42-3.09c-.14-.48-.22-.96-.37-1.39s-.27-.86-.42-1.23a16.3,16.3,0,0,0-.77-1.81c-.22-.43-.33-.68-.33-.68s.19.2.5.57a7.008,7.008,0,0,1,.53.7,8.01,8.01,0,0,1,.62.96,9.245,9.245,0,0,1,.61,1.22,12.509,12.509,0,0,1,.9,3.02c.11.55.14,1.11.2,1.68,0,.57.02,1.13-.03,1.69a16.3,16.3,0,0,1-.2,1.62,12.29,12.29,0,0,1-.38,1.48,9.355,9.355,0,0,1-.48,1.27,6.589,6.589,0,0,1-.52,1.03c-.17.3-.32.55-.46.75-.27.4-.44.62-.44.62Z" fill="#63354f"/>
        </g>
        <g id="Group_465" data-name="Group 465" opacity="0.31">
          <path id="Path_788" data-name="Path 788" d="M226.85,122.56a6.085,6.085,0,0,1-.43-.57c-.22-.33-.48-.75-.71-1.17a12.479,12.479,0,0,1-.6-1.23,4.794,4.794,0,0,1-.24-.67,1.977,1.977,0,0,1,.69.26,2.951,2.951,0,0,1,1.08,1.13,3.088,3.088,0,0,1,.37,1.52,1.732,1.732,0,0,1-.16.72Z" fill="#63354f"/>
        </g>
        <g id="Group_466" data-name="Group 466" opacity="0.31">
          <path id="Path_789" data-name="Path 789" d="M164.99,201.42s.01-.29.04-.8a16.725,16.725,0,0,0-.04-2.06,21.049,21.049,0,0,0-.43-2.85,24.486,24.486,0,0,0-.93-3.16c-.38-1.08-.84-2.09-1.29-3.07-.46-.96-.91-1.85-1.3-2.62s-.73-1.41-.96-1.86-.36-.71-.36-.71a28.416,28.416,0,0,1,1.83,2.26,25.034,25.034,0,0,1,1.61,2.51,22.334,22.334,0,0,1,1.45,3.12,17.66,17.66,0,0,1,.86,3.36,14.418,14.418,0,0,1,.12,3.02,11.2,11.2,0,0,1-.36,2.1,6.944,6.944,0,0,1-.24.76Z" fill="#63354f"/>
        </g>
        <g id="Group_467" data-name="Group 467" opacity="0.31">
          <path id="Path_790" data-name="Path 790" d="M157.06,192.23a7.592,7.592,0,0,1-.71-.77c-.39-.47-.87-1.11-1.31-1.76s-.85-1.33-1.14-1.87a8.165,8.165,0,0,1-.44-.95,4.386,4.386,0,0,1,.91.56,7.429,7.429,0,0,1,1.55,1.67,7.342,7.342,0,0,1,.97,2.07,4.1,4.1,0,0,1,.18,1.05Z" fill="#63354f"/>
        </g>
      </g>
    </g>
    <g id="Group_471" data-name="Group 471">
      <path id="Path_791" data-name="Path 791" d="M62.08,123.76a10.227,10.227,0,0,1,5.25-6.97,24.442,24.442,0,0,1,8.76-2.65c8.24-1.2,16.47-.74,24.73-.16a160.749,160.749,0,0,0,25.49-.74,48.624,48.624,0,0,0,8.16-1.27c2.03-.55,3.98-1.33,5.99-1.91,4.73-1.36,9.72-1.59,14.66-1.82.36-.02.72-.03,1.09-.05q9.2-.42,18.39-.83a97.816,97.816,0,0,0,12.58-1.11,4.56,4.56,0,0,0,2.83-1.25,5.248,5.248,0,0,0,.83-2.11,14.048,14.048,0,0,1,3.02-5.67c1.16-1.33,2.81-2.18,3.78-3.64a12.661,12.661,0,0,0,2.1-6.96,5.533,5.533,0,0,1,2.6,5.36,16.168,16.168,0,0,1-2.05,5.9c4.72-.67,9.39-1.25,14.11-1.9,2.51-.35,5.04-.63,7.57-.84.82-.07,6.58-.97,6.94-.43a1.364,1.364,0,0,1-.46,1.76c-1.8,1.39-5.57,1.42-7.78,1.81q-4.5.795-9.02,1.4c0,.28,0,.57-.01.85,2.9-.23,5.8-.47,8.7-.7,3.75-.3,7.51-.6,11.28-.66a3.748,3.748,0,0,1,1.83.3,1.172,1.172,0,0,1,.56,1.54,1.88,1.88,0,0,1-1.39.61c-6.39.82-12.65,2.15-19.1,2.59a3.053,3.053,0,0,0-1.31.28.94.94,0,0,0-.5,1.09,183.4,183.4,0,0,1,20.01-1.37,1.56,1.56,0,0,1-.53,2.1,4.876,4.876,0,0,1-2.36.68c-5.48.62-10.91,1.45-16.37,2.27a.482.482,0,0,0,.28.57,1.546,1.546,0,0,0,.71.08c4.18-.19,8.29-.25,12.48-.21,0,.51-.02,1.02-.02,1.53-6.85,1.62-13.61,2.65-20.58,3.68-5.04.75-10.71,1.32-14.85-2.22-1.14-.97-9.95,2.68-11.61,3.06-4.42,1.03-8.74,2.45-13.19,3.42a175.934,175.934,0,0,1-27.45,3.75,44.474,44.474,0,0,0-6,.57,52.648,52.648,0,0,0-6.73,2.03,164.025,164.025,0,0,1-16.13,4.23c-6.19,1.4-12.38,2.81-18.65,3.79-6.09.95-12.91,2.08-19.07,1.21-5.57-.78-10.46-5.12-9.58-11.02Z" fill="#e8a6a6"/>
      <path id="Path_792" data-name="Path 792" d="M209.17,98.84q5.28-.885,10.56-1.76c.84-.14,9.1-1.04,9.16-1.26-.7,2.41-6.58,2.18-8.49,2.52q-4.5.795-9.02,1.4c0,.28,0,.57-.01.85,2.9-.23,5.8-.47,8.7-.7,3.75-.3,7.51-.6,11.28-.66a3.748,3.748,0,0,1,1.83.3,1.172,1.172,0,0,1,.56,1.54,1.88,1.88,0,0,1-1.39.61c-6.39.82-12.65,2.15-19.1,2.59a3.053,3.053,0,0,0-1.31.28.94.94,0,0,0-.5,1.09,183.4,183.4,0,0,1,20.01-1.37,1.56,1.56,0,0,1-.53,2.1,4.876,4.876,0,0,1-2.36.68c-5.48.62-10.91,1.45-16.37,2.27a.482.482,0,0,0,.28.57,1.546,1.546,0,0,0,.71.08c4.18-.19,8.29-.25,12.48-.21,0,.51-.02,1.02-.02,1.53-6.85,1.62-13.61,2.65-20.58,3.68-5.04.75-10.71,1.32-14.85-2.22-1.14-.97-9.95,2.68-11.61,3.06-4.42,1.03-8.74,2.45-13.19,3.42a175.934,175.934,0,0,1-27.45,3.75,44.474,44.474,0,0,0-6,.57,52.648,52.648,0,0,0-6.73,2.03,164.025,164.025,0,0,1-16.13,4.23c-6.19,1.4-12.38,2.81-18.65,3.79-5.76.9-17.77,4.31-22.42-.61,2.55,2.7,14.83-.08,17.94-.47,11.59-1.46,23.09-4.5,34.26-7.88,3.46-1.05,6.97-2.23,9.82-4.45,1.01-.79,5.05-.36,6.68-1.25,2.52-1.37,2.97-2.87,6.1-2.59,8.02.72,16.7-.5,24.61-1.95,4.22-.77,8.41-1.73,12.57-2.77,2.08-.52,4.16-1.07,6.24-1.62.93-.25,5.5-2.14,6.21-1.69a16.973,16.973,0,0,0,18.17-.23c-1.04.7-2.5-.61-2.37-1.86a4.345,4.345,0,0,1,2.24-2.88,5.527,5.527,0,0,1-2.64-1.36,1.947,1.947,0,0,1-.06-2.69,2.782,2.782,0,0,1,1.36-.48Z" fill="#e8a6a6" opacity="0.34"/>
      <path id="Path_793" data-name="Path 793" d="M134.99,118.91s-.04.12-.12.31a2.31,2.31,0,0,1-.52.75,3.459,3.459,0,0,1-1.06.75,3.211,3.211,0,0,1-.7.24,6.183,6.183,0,0,1-.75.13,6.355,6.355,0,0,1-.76-.03,3.409,3.409,0,0,1-.72-.15,3.372,3.372,0,0,1-1.15-.6,2.391,2.391,0,0,1-.61-.67c-.11-.19-.16-.3-.16-.3s.12.05.3.14a4.709,4.709,0,0,0,.76.29,3.651,3.651,0,0,0,.5.13c.18.05.37.06.56.1a7.031,7.031,0,0,0,1.22.03,7.7,7.7,0,0,0,1.2-.19,6.05,6.05,0,0,0,1.02-.37,4.427,4.427,0,0,0,.71-.39,3.2,3.2,0,0,1,.28-.18Z" fill="#d37575"/>
      <g id="Group_470" data-name="Group 470">
        <path id="Path_794" data-name="Path 794" d="M100.52,131.74s-.52.15-1.43.39-2.22.56-3.78.96-3.38.87-5.29,1.47c-.95.29-1.92.66-2.91,1.02-.99.38-1.99.77-2.99,1.16a40.833,40.833,0,0,1-6.1,1.91c-.51.1-1.01.2-1.49.25-.51.06-.99.09-1.47.1a14.317,14.317,0,0,1-6.42-1.39,10.527,10.527,0,0,1-.97-.52c-.22-.13-.33-.2-.33-.2a14.445,14.445,0,0,0,1.38.53,15.728,15.728,0,0,0,3.76.78,15.33,15.33,0,0,0,2.54.01,12.629,12.629,0,0,0,1.36-.17c.48-.09.95-.19,1.43-.3a50.388,50.388,0,0,0,5.93-1.99c1.01-.38,2.02-.76,3.02-1.13s2.01-.68,2.99-.95a55.153,55.153,0,0,1,5.43-1.17c1.6-.27,2.94-.43,3.87-.57.94-.12,1.47-.19,1.47-.19Z" fill="#d37575"/>
        <path id="Path_795" data-name="Path 795" d="M68.63,115.84s-.25.21-.71.55a7.641,7.641,0,0,0-.79.65,12.629,12.629,0,0,0-.95.9,14.67,14.67,0,0,0-1.03,1.14c-.36.41-.68.89-1.03,1.36-.32.5-.66,1.01-.94,1.55a18.725,18.725,0,0,0-.83,1.68,16.827,16.827,0,0,0-.63,1.76c-.19.59-.32,1.18-.45,1.76-.08.58-.21,1.14-.24,1.69a13.774,13.774,0,0,0-.07,1.53,9.027,9.027,0,0,0,.05,1.31,6.628,6.628,0,0,0,.11,1.01c.09.56.13.89.13.89s-.13-.3-.33-.84a6.582,6.582,0,0,1-.3-.99,6.815,6.815,0,0,1-.26-1.33,9.054,9.054,0,0,1-.11-1.61,14.122,14.122,0,0,1,.11-1.8,14.429,14.429,0,0,1,.39-1.89,19.107,19.107,0,0,1,.64-1.89,19.621,19.621,0,0,1,.91-1.77,15.423,15.423,0,0,1,1.08-1.6,14.4,14.4,0,0,1,1.2-1.34,11.326,11.326,0,0,1,1.21-1.06c.2-.15.38-.3.57-.43s.38-.23.55-.33a6.631,6.631,0,0,1,.91-.5c.52-.24.82-.37.82-.37Z" fill="#d37575"/>
        <path id="Path_796" data-name="Path 796" d="M82.2,140.53s-.05.14-.15.38a4.2,4.2,0,0,1-.56.93,5.682,5.682,0,0,1-1.1,1.09,6.8,6.8,0,0,1-3.29,1.28,5.871,5.871,0,0,1-1.54-.06,4.113,4.113,0,0,1-1.04-.3c-.24-.1-.37-.17-.37-.17s.15-.02.4-.03.61-.05,1.02-.1c.21-.02.43-.07.66-.1s.47-.11.72-.15a13.065,13.065,0,0,0,1.51-.47,11.731,11.731,0,0,0,1.43-.66c.44-.25.85-.5,1.19-.74s.61-.45.82-.62a3.886,3.886,0,0,1,.32-.25Z" fill="#d37575"/>
      </g>
    </g>
  </g>
</svg>
