<svg xmlns="http://www.w3.org/2000/svg" width="403.04" height="217.426" viewBox="0 0 403.04 217.426">
  <g id="Group_675" data-name="Group 675" transform="translate(-10.47 -237.799)">
    <g id="Group_665" data-name="Group 665">
      <path id="Path_1199" data-name="Path 1199" d="M10.47,452.05l29.22-27.51H356.72l56.79,27.51Z" fill="#b5a555"/>
      <path id="Path_1200" data-name="Path 1200" d="M59.03,439.03l1.05-.24a1.085,1.085,0,0,0,.4-.16c1.66-1.27.71-3.47,3.43-3.99a3.968,3.968,0,0,0-1.62-.64,2.3,2.3,0,0,1-1.48-.87c-.31-.5-.07-1.33.51-1.38a2.488,2.488,0,0,1-1.82-4.27c2.01-1.75,8.06-2.22,10.52-2.23,11.71-.05,23.73,1.51,35.56,1.78,17.29.4,34.64,1.04,51.88.78,24.37-.35,48.74-1.17,73.11-1.57,12.85-.21,25.7-.54,38.55-.25,5.49.12,10.99.48,16.45,1.08,4.96.54,9.97,2.31,14.88,3.44,1.22.28,8.44,1.5,6.95,3.76a2.9,2.9,0,0,1-1.57.99c-4,1.35-8.13.96-12.26,1.08a190.216,190.216,0,0,1-20.12-.46c-8.3-.65-16.64-1.8-24.93-.98-6.76.67-13.31,2.63-19.95,4.09-14.68,3.22-29.75,3.96-44.74,4.04-13.36.07-26.71-.36-40.07-.02-13.17.34-26.13,2.08-39.23,3.31a28.586,28.586,0,0,0-7.18,1.3c-1.5.55-2.91,1.34-4.43,1.86a26.111,26.111,0,0,1-8.6.92c-10.78-.06-21.57.49-32.29-.55a2.766,2.766,0,0,1-1.27-.34.973.973,0,0,1-.42-1.15c.28-.57,1.13-.53,1.59-.97-1.87-.14-7.44-2.33-3.35-4.38a14.561,14.561,0,0,1,3.57-1.25.487.487,0,0,1-.17-.72,1.3,1.3,0,0,1,.71-.45,48.824,48.824,0,0,1,6.34-1.54Z" fill="#b5a555" opacity="0.43"/>
      <line id="Line_29" data-name="Line 29" x2="403.04" transform="translate(10.47 453.57)" fill="none" stroke="#d8c161" stroke-miterlimit="10" stroke-width="3.31"/>
    </g>
    <g id="Group_674" data-name="Group 674">
      <g id="Group_669" data-name="Group 669">
        <path id="Path_1201" data-name="Path 1201" d="M99.95,308.51q.555.09,1.08.15c-1.66-.17-4.76,5.83-5.67,6.96-1.98,2.47-3.01,5.2-4.36,8.08a.708.708,0,0,1-.38.43.725.725,0,0,1-.45-.08c-6.46-2.81-11.05-8.46-15.74-13.48a9.7,9.7,0,0,0-2.87-2.36,7.278,7.278,0,0,0-5.94.37c-1.87.83-3.52,2.07-5.35,2.99-1.51.76-3.47,1.25-4.78.19a4.721,4.721,0,0,1-1.05-1.37,47.259,47.259,0,0,1-4.53-10.42,4.686,4.686,0,0,1-3.64-1.77,16.279,16.279,0,0,0,2.46-6.5c.17-2.28-.6-4.51-1.02-6.75a22.5,22.5,0,0,1,25.74-26.37c7.84,1.28,15.63,4.44,16.82,13.14.58,4.21-.26,8.48-1.09,12.65-.52,2.6-1.03,5.2-1.55,7.79-.51,2.54-1,5.24-.09,7.67,1.78,4.75,7.48,7.85,12.41,8.68Z" fill="#ffb8b8"/>
        <path id="Path_1202" data-name="Path 1202" d="M90.95,323.7a.708.708,0,0,1-.38.43.725.725,0,0,1-.45-.08c-6.46-2.81-11.05-8.46-15.74-13.48a9.7,9.7,0,0,0-2.87-2.36,7.278,7.278,0,0,0-5.94.37c-1.87.83-3.52,2.07-5.35,2.99-1.51.76-3.47,1.25-4.78.19a4.721,4.721,0,0,1-1.05-1.37,47.259,47.259,0,0,1-4.53-10.42,4.7,4.7,0,0,1-3.61-1.73,6.084,6.084,0,0,0,5.14-.21,2.938,2.938,0,0,0-1.2,2.92,8.323,8.323,0,0,0,1.26,3.07c.9,1.58,1.84,4.65,3.39,5.65,1.57,1.01,3.62.14,5.23-.8a23.079,23.079,0,0,0,6.54-5.22,10.164,10.164,0,0,0,2.37-7.81,11.99,11.99,0,0,0,6-5.39c1.41.09,3.16.46,3.46,1.83a2.759,2.759,0,0,1-.07,1.21,8.176,8.176,0,0,1-1.84,3.52,9.05,9.05,0,0,0,5.12,3.72,21.207,21.207,0,0,0,6.4.73,11.307,11.307,0,0,1-12.28-1.2c-.63,1.47.44,3.07,1.44,4.31l4.24,5.23c1.32,1.63,2.77,3.34,4.78,3.92a9.323,9.323,0,0,0,5.21-.44,44.3,44.3,0,0,0,7.36-2.98c-1.39,2.15-2.75,4.3-4.07,6.49-.42.71-3.36,6.91-3.78,6.91Z" fill="#ffb8b8" opacity="0.47"/>
        <g id="Group_667" data-name="Group 667">
          <path id="Path_1203" data-name="Path 1203" d="M50.08,286.76c-.56.28-.06,1.96,0,2.45a1.814,1.814,0,0,0,.15.65.644.644,0,0,0,.52.38c.79.03.68-1.76.63-2.2a1.932,1.932,0,0,0-.34-1,.824.824,0,0,0-.96-.28Z"/>
          <g id="Group_666" data-name="Group 666">
            <path id="Path_1204" data-name="Path 1204" d="M47.49,284.41a1.832,1.832,0,0,1,.02-.35,2.174,2.174,0,0,1,.36-.88,2.9,2.9,0,0,1,1.03-.91,3.056,3.056,0,0,1,.75-.28,3.894,3.894,0,0,1,.86-.07,4.255,4.255,0,0,1,.79.16,3.184,3.184,0,0,1,1.67,1.3,2.511,2.511,0,0,1,.36.86,1.756,1.756,0,0,1,.05.35,7.012,7.012,0,0,0-.9-.75,6.516,6.516,0,0,0-.95-.51c-.18-.08-.37-.11-.55-.17a2.474,2.474,0,0,0-.59-.08,3.41,3.41,0,0,0-.54.02,4.442,4.442,0,0,0-.55.12,4.241,4.241,0,0,0-.96.44,3.281,3.281,0,0,0-.63.51c-.15.15-.23.25-.23.25Z" fill="#63354f"/>
            <path id="Path_1205" data-name="Path 1205" d="M50.62,302.77s.1-.02.27-.05c.1-.02.15-.02.25-.04a1.973,1.973,0,0,0,.33-.07,7.845,7.845,0,0,0,1.84-.72,9.31,9.31,0,0,0,1.74-1.21,7.935,7.935,0,0,0,.72-.7,8.574,8.574,0,0,1-.26,1,10.4,10.4,0,0,1-.96,2.14,10.053,10.053,0,0,1-1.5,1.98c-.13.13-.24.24-.36.35s-.21.19-.29.26c-.13.12-.21.19-.21.19l-1.56-3.12Z" fill="#63354f"/>
            <path id="Path_1206" data-name="Path 1206" d="M72.96,284.85a.793.793,0,0,0-.04-.21,1.2,1.2,0,0,0-.28-.49,1.454,1.454,0,0,0-.72-.42,1.035,1.035,0,0,0-.46-.02,2.769,2.769,0,0,0-.6.14,1.864,1.864,0,0,0-.84.75,3.791,3.791,0,0,0-.44,1.33,9.231,9.231,0,0,0-.1,1.6,12.164,12.164,0,0,0,.14,1.69,12.5,12.5,0,0,0,.31,1.66c.07.27.16.52.24.75.02.07.09.13.02.09a.372.372,0,0,0-.18-.02c-.1.03-.09.06-.09.05a4.477,4.477,0,0,0,.6-1.22,3.089,3.089,0,0,0,.12-1.26,2.575,2.575,0,0,0-.93-1.69,1.951,1.951,0,0,0-.7-.38s.08,0,.22.01a1.919,1.919,0,0,1,.6.17,2.507,2.507,0,0,1,.81.59,2.773,2.773,0,0,1,.65,1.16,3.513,3.513,0,0,1,.07,1.59,4.244,4.244,0,0,1-.67,1.7.889.889,0,0,1-.43.29.783.783,0,0,1-.58-.06,1.2,1.2,0,0,1-.51-.57,5.347,5.347,0,0,1-.33-.89,14.244,14.244,0,0,1-.39-1.81,10.154,10.154,0,0,1,.12-3.65,3.993,3.993,0,0,1,.74-1.62,2.429,2.429,0,0,1,1.44-.91,5.294,5.294,0,0,1,.66-.04,1.436,1.436,0,0,1,.67.17,1.77,1.77,0,0,1,.75.7,1.163,1.163,0,0,1,.14.83Z" fill="#d37575"/>
          </g>
          <path id="Path_1207" data-name="Path 1207" d="M68.39,295.14a1.546,1.546,0,0,0,.42,0,2.793,2.793,0,0,0,.97-.29,4.277,4.277,0,0,0,.57-.34c.18-.13.4-.31.61-.47a7.253,7.253,0,0,0,1.13-1.15,16.31,16.31,0,0,0,1.66-2.68c.42-.8.76-1.34.76-1.34a6.987,6.987,0,0,1-.13,1.55,7.225,7.225,0,0,1-.44,1.55,6.576,6.576,0,0,1-.95,1.65,5.752,5.752,0,0,1-2.25,1.65,2.926,2.926,0,0,1-.78.21,2.178,2.178,0,0,1-1.2-.12,1.348,1.348,0,0,1-.38-.23Z" fill="#d37575"/>
        </g>
        <path id="Path_1208" data-name="Path 1208" d="M87.99,293.86c.05-.61.11-1.05.14-1.19.86-3.14,2.96-5.75,3.93-8.87,1.99-6.39,1.03-14.89-4.08-19.65a26.03,26.03,0,0,0-36.94,2.25c-.31.36-3.34,5.79-2.14,5.49.7-.17,1.38-.51,2.07-.62-.17,3.05-.34,5.71,1.83,8.22,1.2,1.39,2.83,2.39,3.95,3.84,3.12,4.04,1.2,10.32-2.13,13.68a11.312,11.312,0,0,0,4.58-7.69,10.106,10.106,0,0,0-3.3-8.94,10.014,10.014,0,0,1-3.39-7.44c.21,4.45,6.1,3.31,8.75,2.77-1.85.37-.47,3.38-.02,4.34.95,2.06,2.85,5.13,1.86,7.47a2.045,2.045,0,0,1-2.47,1.26,2.471,2.471,0,0,0,4.5.41,4.562,4.562,0,0,1-.71,2.27,1.619,1.619,0,0,0,1.34-.96,4.611,4.611,0,0,0,.37-1.68c.08-1.01.09-2.02.18-3.03.2-2.25,2.17-5.09,4.41-5.69a2.859,2.859,0,0,1,2.15.19c3.41,2,1.65,9.04.46,11.82.72.4,1.69-.49,2.39-.06.58.36.42,1.22.31,1.89-.47,2.91,1.72,5.72,4.41,6.92a11.742,11.742,0,0,0,8.33.44c-1.15.36-.98-4.98-.77-7.46Z" fill="#ad538b"/>
        <path id="Path_1209" data-name="Path 1209" d="M103.83,242.54a5.283,5.283,0,0,1,.88,2.9,7.748,7.748,0,0,1,5.29-2.65c-1.29,1-2.59,2-3.88,3.01,2.25-.35,4.87-.59,6.48,1.01a7.43,7.43,0,0,0-5.5.33c1.71.12,3.59.32,4.75,1.58a5.251,5.251,0,0,1,.82,1.26,14.214,14.214,0,0,1,1.18,9.44,12.254,12.254,0,0,0-.66-7.3c-.81-1.94-2.43-3.81-4.53-3.84,1.2,1.49,2.64,2.87,3.28,4.7a14.112,14.112,0,0,1,.4,7.86,18.523,18.523,0,0,1-34.09,5.2c-4.13-7.12-4.06-15.31,1.51-21.72a19.212,19.212,0,0,1,14.07-6.52,13.065,13.065,0,0,1,7.07,1.74,8.822,8.822,0,0,1,2.93,2.99Z" fill="#ad538b"/>
        <g id="Group_668" data-name="Group 668">
          <path id="Path_1210" data-name="Path 1210" d="M114.07,258.5c-.05.31-.1.61-.16.92A9.3,9.3,0,0,0,114.07,258.5Z" fill="#ad538b"/>
          <path id="Path_1211" data-name="Path 1211" d="M112.73,249.97a5.572,5.572,0,0,0-.82-1.26c-1.16-1.26-3.04-1.46-4.75-1.58a7.43,7.43,0,0,1,5.5-.33c-1.62-1.6-4.24-1.36-6.48-1.01,1.29-1,2.59-2,3.88-3.01a7.708,7.708,0,0,0-5.29,2.65c.13-1.96-2-5.11-4.05-2.98a5.277,5.277,0,0,0-1.03,3.76,3.8,3.8,0,0,0-3.18-2.83,6.628,6.628,0,0,0-4.32,1.01A12.223,12.223,0,0,0,86.5,255.3c.08,1.99,4.59,14.7,7.77,13.68a10.792,10.792,0,0,1-9.31-1.75c-3.53-2.48-6.35-6.79-9.36-9.92.77,2.62,2.74,7.11,5.16,8.58-1.73-1.05-5.58-3.98-6.45-.12a4.153,4.153,0,0,0,1.2,3.31,24.669,24.669,0,0,0-19.92.1c.51,2,2.73,3.05,4.76,3.45s4.22.46,5.95,1.6c-.8-.53-1.44,3.64-1.47,4.05a21.522,21.522,0,0,0,.44,6.14,13.311,13.311,0,0,1-.33,6.84c1.06-.95,1.2-2.53,1.24-3.95.08-2.94,1.51-6.35,4.61-7.19a2.859,2.859,0,0,1,2.15.19c3.41,2,1.65,9.04.46,11.82.72.4,1.69-.49,2.39-.06.58.36.42,1.22.31,1.89-.47,2.91,1.72,5.72,4.41,6.92a11.742,11.742,0,0,0,8.33.44c-1.15.36-.98-4.98-.77-7.46.05-.61.11-1.05.14-1.19.86-3.14,2.96-5.75,3.93-8.87a22.577,22.577,0,0,0,.86-8.61,17.384,17.384,0,0,0,4.14-.13,18.988,18.988,0,0,0,15.27-14.22,14.022,14.022,0,0,0-.4-7.86c-.64-1.83-2.08-3.21-3.28-4.7,2.1.03,3.72,1.91,4.53,3.84a12.211,12.211,0,0,1,.82,6.38,14.2,14.2,0,0,0-1.34-8.53Z" fill="#ad538b" opacity="0.34"/>
        </g>
      </g>
      <g id="Group_670" data-name="Group 670">
        <path id="Path_1212" data-name="Path 1212" d="M69.61,427.28c-2.22,1.51-4.43,3.01-6.65,4.52,1.96,1.41,4.57-.17,6.71-1.29a16.825,16.825,0,0,1,10.15-1.73c-1.23,1.23-2.46,2.45-3.69,3.68a3.949,3.949,0,0,0,3.89.4c1.29-.46,2.44-1.25,3.74-1.69,3.1-1.05,6.55.03,9.75-.67a2.991,2.991,0,0,0,1.66-.83c1.54-1.79.74-6.29,1.07-8.47.59-3.93,1.69-7.76,2.64-11.61,2.65-10.81,4.16-21.86,5.67-32.89.78-5.67,1.86-11.64,1.21-17.37a4.119,4.119,0,0,0-1.98-3.41,5.324,5.324,0,0,0-2.14-.35,15.014,15.014,0,0,0-6.3.75c-5.01,2.15-5.21,10.83-5.62,15.37-.59,6.57-.43,13.18-.49,19.77-.05,5.3.05,10.6.05,15.91,0,1.69.72,15.39-.5,15.86-4.69,1.82-9.5,1.51-14.4,2.04a74.3,74.3,0,0,0-15.18,3.27c.62.91,1.93.96,3.03.84a23.49,23.49,0,0,0,7.39-2.08Z" fill="#e8a6a6"/>
        <path id="Path_1213" data-name="Path 1213" d="M69.6,427.23a13.613,13.613,0,0,1,1.54-.33,31.044,31.044,0,0,1,9.95.1c-4.11.16-8.39.4-11.98,2.42-1.8,1.01-3.54,2.49-5.6,2.35,2.16,1.19,4.15-.21,6.16-1.25a16.712,16.712,0,0,1,5.85-1.79c.57-.07,6.58.19,6.63.1a10.052,10.052,0,0,1-2.11,2.53c-.39.35-1.86,1.99-2.22,1.98,2.23.07,3.92-1.47,5.94-2.16,3.1-1.05,6.55.03,9.75-.67a2.991,2.991,0,0,0,1.66-.83c1.54-1.79.74-6.29,1.07-8.47.59-3.93,1.69-7.76,2.64-11.61,2.65-10.81,4.16-21.86,5.67-32.89.78-5.67,1.86-11.64,1.21-17.37a4.119,4.119,0,0,0-1.98-3.41c-.72-.34-3.96-.99-4.45-.45-.65.73-.1,5.59-.2,6.75-.38,4.48-1.19,8.91-1.71,13.37-1.77,15.3.53,31.61-3.58,46.49-.38,1.38-.88,2.91-2.15,3.59a4.863,4.863,0,0,1-1.81.44c-6.53.65-13.21-.96-19.64.34-3.6.73-7.04,2.36-10.72,2.46,2.82,1.81,7.28-.91,10.07-1.67Z" fill="#e8a6a6" opacity="0.44"/>
        <path id="Path_1214" data-name="Path 1214" d="M100.41,388.4l-.55,3.31q-3.54,21.285-8.14,42.36-1.26,5.85-2.53,11.7a4.933,4.933,0,0,1-.62,1.76c-1.5,2.27-4.82.94-7.02,1.08a83.81,83.81,0,0,1-9.64-.12c-5.33-.28-11.78.73-16.78-.88l7.83-2.28c-2.21.64-5.06.16-7.36.46-.98.13-3.94.75-4.53-.5-.37-.78.98-1.17,1.65-1.21-.45.03-1.83-.13-1.21-.97a1.457,1.457,0,0,1,.92-.44l5.49-1.13a3.272,3.272,0,0,1-2.95-.24c.43.43,5.1-1.29,5.93-1.48a58.177,58.177,0,0,1,7.53-1.22,62.067,62.067,0,0,1,14.35.38c-.42-.06-.6-15.92-.58-17.57a140,140,0,0,1,1.91-21.34c.92-5.5,2.18-10.95,2.81-16.49,1.91-16.7-.81-33.65-2.66-50.2-.96-8.59-2.62-22.57,6.9-27.05a13.65,13.65,0,0,1,5.93-1.11c8.93.1,16.9,5.44,23.74,11.18s13.4,12.21,21.74,15.41c8.44,3.28,16.43.96,25.09,1a2.913,2.913,0,0,1,1.8.4,2.982,2.982,0,0,1,.88,1.53q2.76,8.4,4.75,17.03c1.11,4.8,1.84,8.82-3.64,11.21-6.05,2.64-12.98.75-19.57.51-5.32-.19-10.62.73-15.95.66a25.061,25.061,0,0,1-10.26-2.06c-2.44-1.14-4.67-3.74-7.52-3.86a5.776,5.776,0,0,0-1.54.21c-2.03.46-5.06,1.78-7.12,1.43-.69-.12-4.11-1.99-3.93-2.87-1.8,8.87-2.93,17.93-4.42,26.86-.25,1.52-.51,3.04-.76,4.56Z" fill="#ffb8b8"/>
        <path id="Path_1215" data-name="Path 1215" d="M100.41,388.36l-.55,3.31q-3.54,21.285-8.14,42.36-1.26,5.85-2.53,11.7a4.933,4.933,0,0,1-.62,1.76c-1.5,2.27-4.82.94-7.02,1.08a83.81,83.81,0,0,1-9.64-.12c-5.33-.28-11.78.73-16.78-.88l7.83-2.28c-2.21.64-5.06.16-7.36.46-.98.13-3.94.75-4.53-.5-.37-.78.98-1.17,1.65-1.21-.45.03-1.83-.13-1.21-.97a1.457,1.457,0,0,1,.92-.44l5.49-1.13a3.272,3.272,0,0,1-2.95-.24c.51.31,1.61-.16,2.12-.3a12.085,12.085,0,0,1,3-.37q3.465-.15,6.92-.17l-5.69.69a40.8,40.8,0,0,0-8.72,1.71c5.66-.46,11.35-.66,17.03-.59-2.33.65-4.83.58-7.24.83-2.66.27-5.33.55-7.99.82a7.148,7.148,0,0,0-3.17.83,134.308,134.308,0,0,1,17.25-.63,2.584,2.584,0,0,1,1.62.45q-3.285.27-6.55.72a42.641,42.641,0,0,0-5.59,1.57c.16.28.54.31.86.32,1.37,0,2.65-.18,4.01-.18,1.17-.07,2.34-.14,3.51-.22,2.41-.17,4.81-.37,7.22-.6,1.95-.19,3.79-.52,5.76-.65a17.3,17.3,0,0,0,6.31-1.36c1.88-12.1,1.96-24.44,4.38-36.47,1.36-6.72,2.5-13.52,3.53-20.31,1.39-9.19,2.35-18.45,3.31-27.7.9-8.66,1.79-17.36,1.35-26.05A45.445,45.445,0,0,0,95.73,320c-1.02-2.73-2.85-5.63-5.74-5.99-3.67-.46-6.47,3.64-6.57,7.34.15-6.04,1.7-12.21,7.72-15.04a13.65,13.65,0,0,1,5.93-1.11,29.717,29.717,0,0,1,14.39,4.43c2.2,1.27,6.09,2.82,5.9,5.72a38.207,38.207,0,0,0,1.17,11.36,5.761,5.761,0,0,0,1.43,3.01,4.858,4.858,0,0,0,3.44,1.04c3.73-.05,6.26-2.18,8.74-4.69.19-.18,4.81,2.6,5.39,3.11a3.335,3.335,0,0,1,1.2,3,32.826,32.826,0,0,1-1.37,8.33,15.893,15.893,0,0,1-4.1,7.72,19.145,19.145,0,0,0,10.06,3.5,30.169,30.169,0,0,0,6.78-.35c.76-.12,3.02-.18,3.56-.71.57-.55.39-1.53.43-2.42.22-5,.86-10.03,1.55-14.99,1.26-.13,2.52-.26,3.79-.4a.755.755,0,0,1,.61.12.77.77,0,0,1,.13.54c-.29,8.72,1.66,17.95,4.52,26.17.57,1.64,1.54,3.54,3.27,3.67-.45-.04-2.19.88-2.92.93a29.85,29.85,0,0,1-4.23-.09c-2.99-.21-5.96-.65-8.95-.76-5.32-.19-10.62.73-15.95.66a25.061,25.061,0,0,1-10.26-2.06c-2.44-1.14-4.67-3.74-7.52-3.86a5.776,5.776,0,0,0-1.54.21c-2.03.46-5.06,1.78-7.12,1.42-.69-.12-4.11-1.99-3.93-2.87-1.8,8.87-2.93,17.93-4.42,26.86-.25,1.52-.51,3.04-.76,4.56Z" fill="#ffb8b8" opacity="0.44"/>
        <path id="Path_1216" data-name="Path 1216" d="M108.9,359.71a6.355,6.355,0,0,1-.65-.23c-.8-.34-3.28-1.82-3.13-2.94a129.181,129.181,0,0,0,1.08-14.16,1.588,1.588,0,0,1,.15-.81c.68-1.22,2.31-2.18,3.11-3.51a17.9,17.9,0,0,0,1.96-5.09,24.819,24.819,0,0,0,.23-10.61c-1.13-5.42-4.38-10.54-9.28-13.11-3.58-1.87-8.88-2.54-12.48-.3-3.95,2.46-7.01,7.6-6.52,12.44-.42-4.2-.1-7.87,2.6-11.26,8.42-10.57,23.21-2.55,31.83,3.43a1.825,1.825,0,0,1,.96,1.99c-.05,3.59-.35,7.3.92,10.65a3.492,3.492,0,0,0,1.47,1.98,3.343,3.343,0,0,0,1.63.3c3.05-.03,5.88-1.46,8.59-2.86a2.02,2.02,0,0,1,.31-1.07c-.81,1.34,5.91,3.83,6.45,3.95a40.783,40.783,0,0,1-6.16,17.57,79.125,79.125,0,0,1-6.08,8.15c-.48.58-5.06,6.33-5.2,6.09a3.662,3.662,0,0,0-4.05-1.86c-2.65.61-5.03,2.07-7.73,1.27Z" fill="#687eaf"/>
        <path id="Path_1217" data-name="Path 1217" d="M108.9,359.71a6.355,6.355,0,0,1-.65-.23c-.8-.34-3.28-1.82-3.13-2.94a129.181,129.181,0,0,0,1.08-14.16,1.588,1.588,0,0,1,.15-.81c.68-1.22,2.31-2.18,3.11-3.51a17.9,17.9,0,0,0,1.96-5.09,24.819,24.819,0,0,0,.23-10.61c-1.13-5.42-4.38-10.54-9.28-13.11-3.58-1.87-8.88-2.54-12.48-.3-3.02,1.88-4.89,4.86-6.23,8.06a13.325,13.325,0,0,1,5.33-8.22,14.615,14.615,0,0,1,9.49-2.59,15.183,15.183,0,0,1,5.53,1.51c4.55,2.24,7.73,6.7,9.3,11.52s1.68,9.99,1.33,15.05c-.17,2.44-.45,4.87-.71,7.3-.21,1.93-1,3.98-.23,5.87a2.911,2.911,0,0,0,2.25,1.88c1.25.12,2.33-.8,3.2-1.71a39.213,39.213,0,0,0,7.22-10.5,59.02,59.02,0,0,1-4.52,12.46,21.3,21.3,0,0,0,2.97-3.52c-.24.95-.48,1.91-.72,2.86-.4,1.56,3.01-1.63,3.48-2.12a36.932,36.932,0,0,0,4.3-5.59,41.2,41.2,0,0,0,5.45-12.93c.1-.43.69,1.06.69,1.09a6.064,6.064,0,0,1-.33,1.96,44.912,44.912,0,0,1-1.24,5.12,40.416,40.416,0,0,1-4.49,9.63,79.125,79.125,0,0,1-6.08,8.15c-.48.58-5.06,6.33-5.2,6.09a3.662,3.662,0,0,0-4.05-1.86c-2.65.61-5.03,2.07-7.73,1.27Z" fill="#687eaf" opacity="0.3"/>
        <path id="Path_1218" data-name="Path 1218" d="M106.49,323.81s.1.84.22,2.3.29,3.57.37,6.09.14,5.48.04,8.64-.3,6.53-.59,9.89c-.32,3.35-.76,6.71-1.25,9.82s-1.03,6.01-1.47,8.5c-.47,2.48-.86,4.54-1.13,5.99s-.44,2.27-.44,2.27.07-.84.23-2.3.38-3.56.73-6.06c.33-2.5.71-5.41,1.12-8.54s.82-6.44,1.12-9.79c.34-3.33.58-6.68.73-9.82s.28-6.07.3-8.59.06-4.62.04-6.09c0-1.47-.01-2.31-.01-2.31Z" fill="#d37575"/>
      </g>
      <g id="Group_673" data-name="Group 673">
        <g id="Group_671" data-name="Group 671">
          <path id="Path_1219" data-name="Path 1219" d="M247.74,418.54a28.14,28.14,0,0,1,1.49,7.76c.08,1.63-.04,3.41-1.11,4.63.51-.58,3.84-.17,4.72-.16,2.06.02,4.13.14,6.18.27,2.49.16,8.45,1.59,10.2-1.02a3.666,3.666,0,0,0,.36-2.63,11.638,11.638,0,0,0-6.35-8.25,16.689,16.689,0,0,0-8.43-1.64c-.83.05-6.71,2.04-7.06,1.02Z" fill="#ffb8b8"/>
          <path id="Path_1220" data-name="Path 1220" d="M247.74,418.54c.6,1.76.52,3.67.87,5.49a.533.533,0,0,0,.12.3.7.7,0,0,0,.35.15c2.05.4,4.09,1.12,6.12,1.65a6.772,6.772,0,0,1,4.47,2.89,2.4,2.4,0,0,1,.34,2.29c2.74-.68,7.16,1.8,9.21-1.27a3.666,3.666,0,0,0,.36-2.63,11.638,11.638,0,0,0-6.35-8.25,16.689,16.689,0,0,0-8.43-1.64c-.83.05-6.71,2.04-7.06,1.02Z" fill="#ffb8b8" opacity="0.51"/>
          <path id="Path_1221" data-name="Path 1221" d="M169.65,393.69c1.09,8.27,2.1,16.55,3.78,24.72,1.31,6.36,1.8,16.41,9.1,18.58a23.623,23.623,0,0,0,8.22.5c17.75-1.11,34.85-6.4,52.59-6.73.67-.01,6.96-.02,6.96,0a36.029,36.029,0,0,0-1-13.24c-8.28,1.11-16.71-1.05-24.86-2.35-9.24-1.48-19.01-2.25-27.68,1.26.57-22.37,6.74-44.39,5.79-66.81-.04-.9-20.71-1.47-22.64-1.11a32.844,32.844,0,0,1-6.1.96c-1.55,0-4.91-.46-6.1.82-1.07,1.15-.28,6.94-.29,8.54a253.876,253.876,0,0,0,2.24,34.85Z" fill="#2d323f"/>
          <path id="Path_1222" data-name="Path 1222" d="M186.2,394.1c-.3,11.8-.99,23.62,1,35.22a183.027,183.027,0,0,1,19.76-6.06,91.584,91.584,0,0,1,34.21-1.15c3.29.51,6.65,1.25,9.38,3.15.02.01-.3-2.97-.36-3.3-.29-1.49-.5-2.98-.89-4.45-8.28,1.11-16.71-1.05-24.86-2.35-9.24-1.48-19.01-2.25-27.68,1.26.57-22.37,6.74-44.39,5.79-66.81-.04-.9-20.71-1.47-22.64-1.11a32.844,32.844,0,0,1-6.1.96c-1.55,0-4.91-.46-6.1.82-1.07,1.15-.28,6.94-.29,8.54a160.18,160.18,0,0,0,.59,17.67A119.14,119.14,0,0,0,186,377.94c.08,5.41.34,10.73.21,16.15Z" fill="#2d323f" opacity="0.14"/>
          <path id="Path_1223" data-name="Path 1223" d="M251.49,417.49a2.1,2.1,0,0,0,.62,1.36c1.81,2.01,4.14,3.47,6.08,5.35a9.715,9.715,0,0,1,3.15,5.71c.07.65-.38,1.33-.06,1.96a1.1,1.1,0,0,0,.93.56c1.26.06,2.43-.54,3.7-.46,1.4.09,2.91.48,4.36.6,8.69.72,17.43,1.03,26.18,1.36,2.59.1,5.27.18,7.68-.77a4.191,4.191,0,0,0-1.95-2.95,21.677,21.677,0,0,0-3.28-1.61c-2.98-1.37-5.27-3.68-8.13-5.22a26.473,26.473,0,0,0-10.41-3.48c-2.36-.19-5.37.07-6.98-1.94s-2.29-4.64-3.95-6.62a8.875,8.875,0,0,0-4.8-3.01,6.875,6.875,0,0,0-5.49,1.08c-.85.63-4.92,7.99-5.75,7.55-1.19-.62-1.87-.21-1.88.53Z" fill="#687eaf"/>
          <path id="Path_1224" data-name="Path 1224" d="M293.72,427.89c.9.44,10.14,4.46,9.97,5.04.34-1.14-.68-2.14-1.52-2.72a21.677,21.677,0,0,0-3.28-1.61c-2.98-1.37-5.27-3.68-8.13-5.22a26.473,26.473,0,0,0-10.41-3.48c-2.36-.19-5.37.07-6.98-1.94s-2.29-4.64-3.95-6.62a8.875,8.875,0,0,0-4.8-3.01,6.875,6.875,0,0,0-5.49,1.08c-.97.72-1.63,2.26-2.28,3.25a29.2,29.2,0,0,1-3.3,4.28,28.69,28.69,0,0,1,6.73,5.98,12.35,12.35,0,0,1,2.77,8.39,14.869,14.869,0,0,0-4.51-14.66c1.27-1.1,2.54-2.21,3.82-3.31a8.67,8.67,0,0,1,4.79,3.12c1.1,1.42,1.74,3.17,2.98,4.47a9.8,9.8,0,0,0,5.97,2.56c2.2.27,4.42.17,6.61.46,3.88.52,7.49,2.25,11.02,3.95Z" fill="#687eaf" opacity="0.27"/>
        </g>
        <g id="Group_672" data-name="Group 672">
          <path id="Path_1225" data-name="Path 1225" d="M338.47,261.25c.75,2.78,0,5.94-2.74,7.29-5.7,2.8-11.62,5.17-17.24,8.14-.56.3-2.84,2-3.39,1.65-.38-.24-.26-1.96-.44-2.41-1.16-2.97-3.44-5.73-4.79-8.67,2.81-1.02,5.71-1.98,8.07-3.87,2.31-1.85,3.12-4.9,5.42-6.69a8.027,8.027,0,0,1,3.73-1.45c3.44-.54,7.24.28,9.63,2.81a7.549,7.549,0,0,1,1.75,3.2Z" fill="#ffb8b8"/>
          <path id="Path_1226" data-name="Path 1226" d="M338.47,261.25c.76,2.83-1.15,9.89-4.41,5.55-1.22-1.62-3.59-1.95-5.55-1.44a26.208,26.208,0,0,0-5.46,2.65,33.507,33.507,0,0,1-8.78,3.05,2.429,2.429,0,0,1-3.02-1.16c-.21-.28-1.33-2.68-1.39-2.66,2.81-1.02,5.71-1.98,8.07-3.87,2.31-1.85,3.12-4.9,5.42-6.69a8.027,8.027,0,0,1,3.73-1.45c3.44-.54,7.24.28,9.63,2.81a7.549,7.549,0,0,1,1.75,3.2Z" fill="#ffb8b8" opacity="0.39"/>
          <path id="Path_1227" data-name="Path 1227" d="M321.39,271.77a7.888,7.888,0,0,1,.83,2.67c-.15,1.09-1.28,1.24-2.27,1.74-2.08,1.03-4.1,2.17-6.08,3.37-3.8,2.28-7.47,4.77-11.2,7.17-6.46,4.16-12.93,8.31-19.23,12.7a68.458,68.458,0,0,0-7.75,6.03c-2.66,2.49-4.95,5.34-7.39,8.04a195.976,195.976,0,0,1-25.17,22.75,145.194,145.194,0,0,1-28.41,17.43,124.322,124.322,0,0,1-26.43,8.8,130.847,130.847,0,0,1-15.11,2.4,75.552,75.552,0,0,1-7.67.33,13.168,13.168,0,0,1-3.77-.17c-1.4-.48-.96-.2-1.49-1.68-3.33-9.35-5.23-20.98-2.71-30.71-.08.3,3.45.18,3.75.13a10.346,10.346,0,0,0,4.03-1.84c2.64-1.78,4.77-4.23,7.4-6.04,6.08-4.18,13.97-4.38,21.34-4.14a43.057,43.057,0,0,0,8.03-.2,37.366,37.366,0,0,0,8.51-2.73c10.74-4.47,21.85-8.26,32.65-12.74a41.444,41.444,0,0,0,9.02-4.66c3.66-2.72,6.33-6.52,9.38-9.91a56.227,56.227,0,0,1,16.09-12.41c7.06-3.63,14.77-5.7,22.35-7.96,3.79-1.13,7.58-2.3,11.27-3.75,1.46-.57,2.85-1.1,4.27-1.79a26.9,26.9,0,0,1,4.37,4.62,12.321,12.321,0,0,1,1.38,2.55Z" fill="#363c51"/>
          <path id="Path_1228" data-name="Path 1228" d="M318.7,267.92a7.342,7.342,0,0,0,1.61,1.48,123.576,123.576,0,0,0-41.09,19.37c-11.16,8.06-18.81,19.59-31.91,25.1q-16.77,7.065-33.54,14.12a15.094,15.094,0,0,0-4.9,2.84,5.114,5.114,0,0,0-1.52,5.17,38.984,38.984,0,0,0-40.24,3.18,6.14,6.14,0,0,0-2.3,2.58,6.526,6.526,0,0,0-.09,3.2,119.58,119.58,0,0,0,4.71,20.02c-1.04.19-2.09.38-3.13.58a113.5,113.5,0,0,1-6.12-26.72,98.888,98.888,0,0,0,1.48,25.93c-6.25-7.8-6.73-22.92-4.3-32.28-.08.3,3.45.18,3.75.13a10.346,10.346,0,0,0,4.03-1.84c2.64-1.78,4.77-4.23,7.4-6.04,6.08-4.18,13.97-4.38,21.34-4.14a43.057,43.057,0,0,0,8.03-.2,37.366,37.366,0,0,0,8.51-2.73c10.74-4.47,21.85-8.26,32.65-12.74a41.444,41.444,0,0,0,9.02-4.66c3.66-2.72,6.33-6.52,9.38-9.91a56.227,56.227,0,0,1,16.09-12.41c7.06-3.63,14.77-5.7,22.35-7.96,3.79-1.13,7.58-2.3,11.27-3.75,1.46-.57,2.85-1.1,4.27-1.79.31.27,1.94,2.11,3.23,3.47Z" fill="#363c51" opacity="0.21"/>
          <path id="Path_1229" data-name="Path 1229" d="M368.14,253.37a92.713,92.713,0,0,0-20.68,8.61c-3.47,1.97-6.71,4.18-10.11,6.23a1.453,1.453,0,0,0-.54.47,6.382,6.382,0,0,1-.26.6.723.723,0,0,1-1.08-.06c-.42-.49-.25-1.42-.45-2.03a6.165,6.165,0,0,0-1.24-1.99,9.179,9.179,0,0,0-3.88-2.58,16.522,16.522,0,0,0-6.71-.72,13.726,13.726,0,0,1-4.57-.1c3.31-3.2-.31-9.16,4.37-12.08,2.38-1.49,5.45-.8,8.23-.46a28.677,28.677,0,0,0,10.83-.78c2.46-.66,4.83-1.65,7.32-2.14a27.2,27.2,0,0,1,11.25.51c2.45.56,4.99.99,7.12,2.4,1.81,1.19,3.56,3.22.39,4.1Z" fill="#687eaf"/>
          <path id="Path_1230" data-name="Path 1230" d="M348.68,250.55c-2.8.82-5.46,2.04-8.25,2.87a30.354,30.354,0,0,1-9.98,1.21c-1.79-.08-4.02-.09-4.83,1.51a20.7,20.7,0,0,1,7.45,3.89c2.17,1.77,4.07,4.31,3.82,7.1a11.113,11.113,0,0,0-5.82-6.12,20.369,20.369,0,0,0-8.42-1.75c-.55,1.37-2.45,3.17-4.02,2.53,3.44-3.25-.14-9.24,4.36-12.05,2.38-1.49,5.45-.8,8.23-.46a28.677,28.677,0,0,0,10.83-.78c2.46-.66,4.83-1.65,7.32-2.14a27.2,27.2,0,0,1,11.25.51c2.45.56,4.99.99,7.12,2.4,1.11.73,2.41,1.82,1.86,3.33a28.517,28.517,0,0,0-20.92-2.05Z" fill="#687eaf" opacity="0.32"/>
        </g>
      </g>
    </g>
  </g>
</svg>
