<svg xmlns="http://www.w3.org/2000/svg" width="194.59" height="365.257" viewBox="0 0 194.59 365.257">
  <g id="Group_684" data-name="Group 684" transform="translate(-544.02 -101.678)">
    <g id="Group_676" data-name="Group 676">
      <path id="Path_1231" data-name="Path 1231" d="M544.02,464.31l27.67-23.66,140,.31,26.92,22.97Z" fill="#8c3e1c"/>
      <path id="Path_1232" data-name="Path 1232" d="M569.34,453.5a13.229,13.229,0,0,1-2.04-.51l17.52-3.18c-3.31-.48-6.61-.95-9.92-1.43a45.727,45.727,0,0,0,10.88-2.63,67.139,67.139,0,0,1-7.12-2.01c6.91.39,13.13-2.11,19.9-2.58,3.82-.26,7.18,1.21,10.84,1.4,4.26.22,8.68-.28,12.94-.41,17.24-.55,33.98-1.26,51.18.1,6.56.52,13.37,1.11,19.04,4.44,3.24,1.9,2.98,5.73.22,8.09-1.83,1.56-4.26,2.2-6.6,2.74-11.53,2.64-23.46,3.93-35.21,2.61-3.59-.4-7.21-1.05-10.79-.56-2.55.35-4.98,1.26-7.49,1.83a28.018,28.018,0,0,1-14.62-.64,23.147,23.147,0,0,0-4.59-1.26c-4.42-.43-8.84,2.78-13.08,1.48,1.22-.57,2.43-1.14,3.65-1.7-4.45,2.18-9.75,1.02-14.52-.32-4.9-1.38-9.18-3.07-14.43-2.68a49.276,49.276,0,0,1,7.94-3.31l-5.64.51a31.521,31.521,0,0,1-8.06.03Z" fill="#8c3e1c" opacity="0.44"/>
      <line id="Line_30" data-name="Line 30" x2="194.59" transform="translate(544.02 465.41)" fill="none" stroke="#c95c3a" stroke-miterlimit="10" stroke-width="3.05"/>
    </g>
    <g id="Group_678" data-name="Group 678">
      <g id="Group_677" data-name="Group 677">
        <path id="Path_1233" data-name="Path 1233" d="M631.27,403.1c1.3-4.87-.71-11.27-2.12-15.63a2.274,2.274,0,0,1-.17-1.2,2.083,2.083,0,0,1,1.07-1.21c3.67-2.32,8.12-2.21,12.31-2.65,1.19-.13,2.34.71,3.52.94a45.422,45.422,0,0,0,.73,10.15,6.611,6.611,0,0,0,1.43,3.46c1.8,1.85,8.07-.45,10.77.04,3.88.71,1.87,6.63,3.13,9.35a12.2,12.2,0,0,1,1.52,3.67,11.04,11.04,0,0,1-.58,4.17,16.138,16.138,0,0,0,3.61,0,1.174,1.174,0,0,1,.56.07c.52.26.36,1.05.12,1.58-.75,1.66-1.49,3.33-2.24,4.99a4.707,4.707,0,0,0-.44,1.31,4.419,4.419,0,0,0,.14,1.49c1.26,5.91,1.68,10.39-.78,16.03-4.37,10.04-16.23,12.99-26.02,10.1-16.23-4.8-18.19-28.94-9.74-41.1a26.771,26.771,0,0,0,2.6-3.99,9.344,9.344,0,0,0,.56-1.56Z" fill="#e8a6a6"/>
        <path id="Path_1234" data-name="Path 1234" d="M663.52,410.37s-.12,0-.32-.02c-.23,0-.37-.04-.69-.02a6.367,6.367,0,0,0-2.2.52,6.646,6.646,0,0,0-1.98,1.36,6.405,6.405,0,0,0-.74.87,5.829,5.829,0,0,1,.45-1.08,7.4,7.4,0,0,1,1.64-2.1,7.7,7.7,0,0,1,2.4-1.45,6.643,6.643,0,0,1,.94-.28c.2-.05.31-.07.31-.07l.18,2.27Z" fill="#63354f"/>
      </g>
      <path id="Path_1235" data-name="Path 1235" d="M642.44,419.02c.05-2.68.18-6.5.04-7.19a25.915,25.915,0,0,0-4.36-9.9,3.159,3.159,0,0,0-1.33-1.26,3.127,3.127,0,0,0-1.86.1c-3.06.8-6.12,1.61-9.18,2.41a26.213,26.213,0,0,0-7.61,2.87c-2.83,1.8-4.88,4.62-7.52,6.69s-6.45,3.32-9.27,1.51a10.45,10.45,0,0,0,12.22.08c-4.48,2.24-9.29,4.81-11.34,9.44-1.04,2.35-1.24,5-2.14,7.4a13.328,13.328,0,0,1-5.54,6.7,15.088,15.088,0,0,0,10.9-11.54c-.71,3.64-.3,6.29-2.87,9.47-2.02,2.5-4.04,2.94-6.95,3.9a40.552,40.552,0,0,0-6.78,3.24c-1.62.9-3.5,1.64-5.29,1.17a10.67,10.67,0,0,0,6.73.69c2.87-.65,5.62-2.49,8.5-1.9-3.46,1.87-6.88,4.06-10.83,4.22a35.975,35.975,0,0,0-7.92,1.22c3.25-1.18,6.8.35,10.25.45a12.59,12.59,0,0,0,8.04-2.63c-1.55,2.34-4.46,3.36-7.23,3.6s-5.56-.14-8.32.14a17.523,17.523,0,0,0-8.6,3.32c4.33-1.11,8.78-2.23,13.22-1.69,1.88.23,3.72.75,5.6.93a17.092,17.092,0,0,0,11.64-3.38c.24,1.6-1.22,2.94-2.68,3.6-5.89,2.69-13.24-.19-19.02,2.76a26.339,26.339,0,0,1,7.36.42c2.13.43,4.21,1.12,6.37,1.42,6.34.89,10.87-4.72,17.06-4.78a19.471,19.471,0,0,1-9.01,4.61c3.21,1.21,6.61-1.6,10.02-1.33,2.3.18,4.26,1.73,6.47,2.43,4.14,1.3,8.54-.51,12.5-2.3a20.207,20.207,0,0,1-11.75,4.21c2.55,1.58,5.85,1.2,8.67.19s5.44-2.58,8.35-3.29c2.74-.67,5.62-.55,8.4-1.03,5.42-.94,10.64-6.8,13.88-11.08.78-1.04,1.51-2.54.69-3.55a3,3,0,0,0-1.62-.85,30.775,30.775,0,0,1-9.43-4.08,16.9,16.9,0,0,1-3.39-3.15c-.67-.8-3.53-3.63-3.53-4.61a9.328,9.328,0,0,1-.44,3.69,3.075,3.075,0,0,1-2.79,2.07,3.72,3.72,0,0,1-1.79-.71c-2.68-1.77-3.95-5.67-3.94-8.78a7.359,7.359,0,0,1,.71-3.6c1.62-2.87,4.69-.83,6.79.36a14.7,14.7,0,0,1-.05-2.68Z" fill="#405150"/>
      <path id="Path_1236" data-name="Path 1236" d="M613.97,429.94c.02,4.28-3.13,9.06-7.18,10.53-1.95.71-4.07,1.02-5.89,2.02-3.05,1.67-5.12,4.05-8.67,4.79a36.833,36.833,0,0,1-8.2.47c3.72.87,7.75,1.71,11.25.18,1.82-.8,3.34-2.18,5.16-2.97,1.93-.83,4.07-.95,6.11-1.43a16.616,16.616,0,0,0,11.18-10.03c.73-1.91,1.05-3.95,1.7-5.89a18.509,18.509,0,0,1,5.91-8.43c2.71-2.2,5.92-2.67,8.79-4.3-5,2.85-7.47,8.61-9.57,13.97s-4.52,11.12-9.48,14.05a3.387,3.387,0,0,1-2.49.6c5.33-2.1,8.12-7.87,10.17-13.22s4.17-11.21,9.03-14.25a18.3,18.3,0,0,0-10.03,8.98c-1.78,3.59-2.25,7.69-4.14,11.22a17.32,17.32,0,0,1-7.04,7c-3.81,2.1-7.01,5.32-11.21,6.69-3.65,1.2-7.6.82-11.44.74-4.45-.1-9.06.25-13.04,2.25a28.018,28.018,0,0,1,14.12-1.19c1.09.19,2.18.45,3.28.57a17.606,17.606,0,0,0,10.53-2.28,28.857,28.857,0,0,1,3.96-2.35c-1.02.64-1.33,1.94-1.96,2.96a9.988,9.988,0,0,1-2.03,2.18,71.962,71.962,0,0,1,6-4.72c1.79-1.26,4.38-1.77,6.51-2.24,3.57-.8,6.91-1.59,9.94-3.72,2.59-1.82,4.51-4.87,7.85-5.38-1.47.22-3.44,2.2-4.49,3.16-1.37,1.26-2.33,2.8-3.95,3.75-3.3,1.95-7.26,2.23-10.77,3.65-4.61,1.87-8.34,5.36-12.89,7.39-4.38,1.96-9.86-.92-14.58.56,3.93-.26,7.7,1.9,11.64,1.79,3.4-.09,6.43-1.83,9.45-3.2,4.04-1.83,8.51-1.59,12.7-3a22.071,22.071,0,0,0,10.5-7.08c1.19-1.52,2.16-3.25,3.68-4.44a8.03,8.03,0,0,1,5.69-1.54,11.012,11.012,0,0,1,2.99.74,13.522,13.522,0,0,1,1.31.47c.38.19.64.66.98.83a10.485,10.485,0,0,0-11.36,1.59c-1.67,1.52-2.79,3.53-4.17,5.32-2.16,2.8-5.23,5.16-8.76,5.4,3.05-.21,5.66-.67,8.11-2.69a22.672,22.672,0,0,0,3.66-4.66,11.362,11.362,0,0,1,3.84-3.49c-2.41,1.75-3.17,4.25-4.2,6.88-.73,1.86-2.17,4.63-4.58,4.61a6.96,6.96,0,0,0,3.56-1.32c2.15-1.35,2.43-4,3.35-6.2.8-1.91,2.91-4.17,5.13-4.21-2.25,1.3-3.95,2.45-4.55,5.17a17.008,17.008,0,0,1-1.15,4.25,8.857,8.857,0,0,1-4.26,3.62,12.464,12.464,0,0,1-5.35,1.32c-1.77-.01-3.46-.65-5.21-.79-1.6-.13-3-.83-4.63-.38a22.507,22.507,0,0,0-2.8,1.14,19.68,19.68,0,0,1-6.88,1.59,6.729,6.729,0,0,0,5.17-.39,8.528,8.528,0,0,1,5.61-.71c1.79.5,3.38,1.62,5.13,2.24,4.05,1.43,8.81-.66,12.52-2.25-3.47,2.35-7.17,3.42-11.19,4.3,2.43,1.73,6.05,1.19,8.67.24,2.65-.96,5.23-3.12,8-3.59,2.74-.47,5.61-.33,8.37-.81,5.42-.94,10.64-6.8,13.88-11.08.78-1.04,1.51-2.54.69-3.55a3,3,0,0,0-1.62-.85,30.775,30.775,0,0,1-9.43-4.08,16.9,16.9,0,0,1-3.39-3.15c-.67-.8-3.53-3.63-3.53-4.61a9.328,9.328,0,0,1-.44,3.69,3.075,3.075,0,0,1-2.79,2.07,3.72,3.72,0,0,1-1.79-.71c-2.68-1.77-3.95-5.67-3.94-8.78a7.359,7.359,0,0,1,.71-3.6c.65-1.16,2.65-2.18,3.83-1.14a2.442,2.442,0,0,1,.91,1.93,1.414,1.414,0,0,1-1.47,1.32,2.222,2.222,0,0,0-.67-.1c-.43.07-.6.59-.67,1.01a10.809,10.809,0,0,0,.29,4.56,3.975,3.975,0,0,0,1.12,2.01,1.8,1.8,0,0,0,2.15.21,1.864,1.864,0,0,0,.67-1.53,8.932,8.932,0,0,0-.25-1.71,11.678,11.678,0,0,1-.2-2.29c0-.28.07-.63.34-.72.45-.14.83.63,1.27.46-.06-2.12-.37-4.24-.5-6.34-.03-.54-.05-1.07-.05-1.61,0-1.79.36-3.81,0-5.58-.57-2.89-1.6-6.02-3.72-8.16a2.587,2.587,0,0,0-3.21-.78,19.177,19.177,0,0,0-2.07,1.44c-2.96,1.97-6.91,1.35-10.29,2.44-5.46,1.76-8.97,7.78-14.62,8.73a28.518,28.518,0,0,0,12.55-4.19c-3.05,5.71-11.72,5.84-15.61,11-2.99,3.97-2.55,10.16-6.47,13.2a19.515,19.515,0,0,0,5.85-7.55c1.39-3.12,3.29-6.48,6.59-7.91-2.05,1.41-3.04,3.91-3.58,6.34-.61,2.74-.6,7.34-2.49,9.53a10.983,10.983,0,0,1-3.33,2.37,68.615,68.615,0,0,1-16.93,6.18c2.73-.61,5.52.15,8.32-.8a13.075,13.075,0,0,1,3.22-.92,21.111,21.111,0,0,0,17.28-12.82Z" fill="#405150" opacity="0.31"/>
    </g>
    <g id="Group_679" data-name="Group 679">
      <path id="Path_1237" data-name="Path 1237" d="M621.61,359.65c.83-2.59,2.25-4.71,4.94-4.38a48.268,48.268,0,0,1,21.4,8.14,7.3,7.3,0,0,1,2.5,2.47c2.53,4.93,1.96,14.46,1.51,19.78-.19,2.3-4.03,23.26-2.2,23.81-5.99-1.82-11.44-5.19-17-7.82-5.59-2.64-9.63-8.39-11.54-14.2-2.27-6.92-2.02-14.45-.84-21.65a42.9,42.9,0,0,1,1.24-6.15Z" fill="#ffb8b8"/>
      <path id="Path_1238" data-name="Path 1238" d="M624.97,317.55c2.22,11.52-1.04,23.12-3.49,34.31a116.447,116.447,0,0,0-2.62,18.49c-.43,7.77.22,15.29,3.65,22.36-2.01-4.96-2.53-9.97-2.66-15.28-.1-4.24-.49-9.19,2.56-12.57a8.2,8.2,0,0,1,3.56-2.15,14.455,14.455,0,0,1,13.5,2.48,21.986,21.986,0,0,1,5.2,6.72,44.333,44.333,0,0,1,4.75,14.04,19.546,19.546,0,0,1-1.62,11.98c.49.94.95,1.89,1.49,2.79.7-.66.93-2.28,1.36-3.22.78-1.68,1.82-3.28,2.71-4.9,1.79-3.27,3.56-6.56,5.21-9.91,3.36-6.85,4.44-14.61,4.95-22.25a170.573,170.573,0,0,0-2.54-42.8,4.536,4.536,0,0,0-.64-1.85,4.287,4.287,0,0,0-3.23-1.31,84.109,84.109,0,0,0-32.13,3.07Z" fill="#63354f"/>
      <path id="Path_1239" data-name="Path 1239" d="M624.97,317.55c.15.79,1.44,6.81,1.02,7.19a8.087,8.087,0,0,1,3.88-1.61,55.243,55.243,0,0,1,13.08-1.08,10.715,10.715,0,0,1,5.37,1.25c2.79,1.76,3.59,5.41,3.96,8.69.83,7.5.54,15.58-3.58,21.9-1.15,1.76-3.05,3.5-5.08,2.98-1.69-.43-2.61-2.22-4-3.27a7.723,7.723,0,0,0-5.99-1.07,17,17,0,0,0-11.11,7.56c-6.29,9.55-4.01,22.73,0,32.63-2.01-4.96-2.53-9.97-2.66-15.28-.1-4.24-.49-9.19,2.56-12.57a8.2,8.2,0,0,1,3.56-2.15,14.455,14.455,0,0,1,13.5,2.48,21.986,21.986,0,0,1,5.2,6.72,44.333,44.333,0,0,1,4.75,14.04,19.546,19.546,0,0,1-1.62,11.98c.49.94.95,1.89,1.49,2.79.7-.66.93-2.28,1.36-3.22.78-1.68,1.82-3.28,2.71-4.9,1.79-3.27,3.56-6.56,5.21-9.91,3.36-6.85,4.44-14.61,4.95-22.25a170.573,170.573,0,0,0-2.54-42.8,4.536,4.536,0,0,0-.64-1.85,4.287,4.287,0,0,0-3.23-1.31,84.109,84.109,0,0,0-32.13,3.07Z" fill="#63354f" opacity="0.25"/>
      <path id="Path_1240" data-name="Path 1240" d="M627.61,402.09c6.7,12.6,13.87,24.96,21.17,37.22l-7.48.39c-4.64.24-10.34,8.27-5.86,12.29a9.5,9.5,0,0,0,3.9,1.77,91.575,91.575,0,0,0,27,3.33,2.852,2.852,0,0,0,3.21-3.03c.75-5.53-1.73-11.13-3.34-16.27-4.57-14.66-12.39-28.01-19.28-41.7-2.7-5.37-6.06-11.42-7.64-17.22-.8-2.95-.87-6.16-2.29-8.86a11.591,11.591,0,0,0-10.62-5.72c-3.83.37-5.89,4.37-6.78,7.94-1.81,7.23.5,15.67,3.88,22.08q2.055,3.9,4.12,7.79Z" fill="#ffcfcf"/>
      <path id="Path_1241" data-name="Path 1241" d="M636.06,397.59c5.24,10,11.02,19.7,16.62,29.51,2.83,4.96,5.62,9.95,8.26,15.01a24.349,24.349,0,0,1,2.53,5.69c.27,1.19.48,4.33-.75,5.03a3.415,3.415,0,0,1-1.62.33,124.587,124.587,0,0,1-13.8-.27c-2.05-.15-4.02-.54-6.07-.65-1.28-.07-4.9.32-5.91-.44,3.8,2.89,9.74,3.44,14.35,4.17a84.707,84.707,0,0,0,16.6,1.08,2.852,2.852,0,0,0,3.21-3.03c.75-5.53-1.73-11.13-3.34-16.27a161.341,161.341,0,0,0-10.48-24.64c-2-3.95-4.07-7.87-6.11-11.8a86.936,86.936,0,0,1-4.96-12.5,24.821,24.821,0,0,1-1.43-8.83,12.292,12.292,0,0,1,.62-3.76c.1-.28,2.01-3.11,2.23-2.66-1.99-4.08-5.33-9.01-9.62-10.94a15.234,15.234,0,0,0-8.38-1.17,9.273,9.273,0,0,0-5.27,2.31c-2.17,2.09-2.74,5.3-3.11,8.28.1-.78,1.04-1.74,1.41-2.4a6.288,6.288,0,0,1,2.12-2.29c.41,1.45.82,2.89,1.32,4.31a197.714,197.714,0,0,0,11.56,25.93Z" fill="#ffcfcf" opacity="0.5"/>
    </g>
    <g id="Group_681" data-name="Group 681">
      <g id="Group_680" data-name="Group 680">
        <path id="Path_1242" data-name="Path 1242" d="M641.8,124.25a12.188,12.188,0,0,1,5.1-.08c1.11.27,3.73.93,3.92,2.27a2.433,2.433,0,0,1-.04.76,185.6,185.6,0,0,0-2.28,34.12,59.163,59.163,0,0,0-12.67-.93c-.33-10.45,1.03-20.85,1.92-31.26a5.789,5.789,0,0,1,1.07-3.58,5.134,5.134,0,0,1,2.97-1.3Z" fill="#e8a6a6"/>
        <path id="Path_1243" data-name="Path 1243" d="M654.59,109.61c2.43-.38,4.88-.89,7.4-1.45,3.9-.88,8.07-1.37,11.8.07,3.57,1.37,6.29,4.32,8.88,7.17a2.724,2.724,0,0,1,.84,1.45,1.843,1.843,0,0,1-1.2,1.76,5.188,5.188,0,0,1-2.22.26,58.537,58.537,0,0,0-13.22.91c-3.69.74-8.58,1.59-11.85,3.5-1.32.77-4.35,3.48-2.95,5.3a9.192,9.192,0,0,1,.65.75,1.407,1.407,0,0,1-.7,1.92c-1.07.43-3.62-1.13-4.77-1.36a31.667,31.667,0,0,0-6.08-.41,6.806,6.806,0,0,0-3.27.53,3.09,3.09,0,0,1-.88.42,1.14,1.14,0,0,1-1.26-.79c-.32-1.18,1.08-1.27,1.44-2.09a4.335,4.335,0,0,0,.08-2.62c-.31-1.78-1.36-3.36-1.66-5.12-.89-5.3.66-9.88,6.5-9.51a55.75,55.75,0,0,0,12.46-.67Z" fill="#63354f"/>
        <path id="Path_1244" data-name="Path 1244" d="M647.54,129.95a1.637,1.637,0,0,0-.28-.07,31.667,31.667,0,0,0-6.08-.41,6.806,6.806,0,0,0-3.27.53,3.09,3.09,0,0,1-.88.42,1.14,1.14,0,0,1-1.26-.79c-.32-1.18,1.08-1.27,1.44-2.09a4.335,4.335,0,0,0,.08-2.62c-.31-1.78-1.36-3.36-1.66-5.12-.89-5.3.66-9.88,6.5-9.51a55.75,55.75,0,0,0,12.46-.67c2.43-.38,4.88-.89,7.4-1.45,3.9-.88,8.07-1.37,11.8.07a17.637,17.637,0,0,1,5.7,3.84c1.1,1.04,3.96,3.21,3.83,4.94-.04.5-.68.93-1.05.6-4.55-4.06-10.54-2.32-15.94-1.92a37.925,37.925,0,0,0-17.24,5.46,7.245,7.245,0,0,0-2.14,1.67,17.963,17.963,0,0,0-1.23,2.13,14.207,14.207,0,0,1,3.97,1.63,1.793,1.793,0,0,1,1.02,1.22,11.1,11.1,0,0,0-4.35-1.03,2.007,2.007,0,0,0-1.11.2c-2.63,1.58,2.6,2.43,3.16,2.66-.23.28-.65.63-.87.34Z" fill="#63354f" opacity="0.31"/>
      </g>
      <path id="Path_1245" data-name="Path 1245" d="M627.53,324.36a6.453,6.453,0,0,0-1.91,1.66c-.77-4.2-.51-8.55-1.15-12.82a58.221,58.221,0,0,0-3.28-12.46c-2.67-6.88-6.13-14.94-5.01-22.5,1.34-9.04,8.8-14.27,11.77-22.28,2.73-7.37,2.58-15.33,3.08-23.05.71-10.93,4.26-21.76,3.49-32.74-.61-8.66-2.4-16.96-2.17-25.83.25-9.77,1.42-19.5,2.59-29.19,1.77.06,16.03-1.68,15.64,1.3-1.3,10.03,1.33,21.55,2.39,31.56.79,7.44,1.64,14.88,2.42,22.33,1.82,17.5,5.47,35.06,5.88,52.63.24,10.49-1.12,20.97-2.07,31.39-.62,6.85,1.16,13.57,2.18,20.29,0,7.05.35,14.05.89,21.17a6.738,6.738,0,0,0-3.73-2.27,33.038,33.038,0,0,0-5.68-.87c-7.08-.65-14.27-1.13-21.24.27a13.273,13.273,0,0,0-4.1,1.4Z" fill="#b5a555"/>
      <path id="Path_1246" data-name="Path 1246" d="M627.53,324.36a6.453,6.453,0,0,0-1.91,1.66c-.77-4.2-.51-8.55-1.15-12.82a58.221,58.221,0,0,0-3.28-12.46c-2.67-6.88-6.13-14.94-5.01-22.5,1.34-9.04,8.8-14.27,11.77-22.28,2.73-7.37,2.58-15.33,3.08-23.05.71-10.93,4.26-21.76,3.49-32.74-.61-8.66-2.4-16.96-2.17-25.83.25-9.77,1.42-19.5,2.59-29.19.1-.65,5.25-.46,5.77-.46.43,0,7.35.07,7.34.14-2.22,8.66.84,18.75,1.91,27.45q1.785,14.475,3.86,28.91c1.22,8.54,2.41,17.13,3.8,25.62,1.43,8.8,3.34,17.22,3.65,26.17.24,10.49-1.12,20.97-2.07,31.39-.62,6.85,1.16,13.57,2.18,20.29,0,7.05.35,14.05.89,21.17a6.738,6.738,0,0,0-3.73-2.27,33.038,33.038,0,0,0-5.68-.87c-7.08-.65-14.27-1.13-21.24.27a13.273,13.273,0,0,0-4.1,1.4Z" fill="#b5a555" opacity="0.28"/>
    </g>
    <g id="Group_683" data-name="Group 683">
      <g id="Group_682" data-name="Group 682">
        <path id="Path_1247" data-name="Path 1247" d="M632.44,119.86a12.226,12.226,0,0,1,5.1-.32c1.12.22,3.77.75,4.02,2.09a2.763,2.763,0,0,1,0,.76,185.1,185.1,0,0,0-.74,34.19,59.28,59.28,0,0,0-12.7-.34c-.8-10.43.09-20.87.51-31.31a5.752,5.752,0,0,1,.91-3.62,5.169,5.169,0,0,1,2.91-1.44Z" fill="#ffb8b8"/>
        <path id="Path_1248" data-name="Path 1248" d="M644.56,104.64c2.41-.5,4.83-1.11,7.33-1.8,3.85-1.06,8-1.74,11.79-.48,3.63,1.2,6.48,4.02,9.19,6.75a2.65,2.65,0,0,1,.9,1.41,1.85,1.85,0,0,1-1.12,1.81,5.171,5.171,0,0,1-2.21.36,58.936,58.936,0,0,0-13.17,1.52c-3.65.91-8.5,1.99-11.68,4.05-1.28.83-4.19,3.68-2.71,5.43a7.713,7.713,0,0,1,.68.72,1.4,1.4,0,0,1-.61,1.95c-1.05.48-3.67-.96-4.82-1.14a31.777,31.777,0,0,0-6.09-.13,6.733,6.733,0,0,0-3.24.69,3.408,3.408,0,0,1-.86.46,1.122,1.122,0,0,1-1.29-.74c-.38-1.16,1.02-1.31,1.35-2.16a4.342,4.342,0,0,0-.04-2.62c-.39-1.76-1.51-3.29-1.89-5.04-1.13-5.26.21-9.9,6.07-9.8a56.162,56.162,0,0,0,12.42-1.25Z" fill="#63354f"/>
        <path id="Path_1249" data-name="Path 1249" d="M644.56,104.64c2.41-.5,4.83-1.11,7.33-1.8,3.85-1.06,8-1.74,11.79-.48,3.63,1.2,6.48,4.02,9.19,6.75.54.54,1.23,1.2,1.02,2.02a4.385,4.385,0,0,1-1.13-.78,18.821,18.821,0,0,0-14.16-4.42c-5.58.6-10.71,3.7-16.32,3.97-1.98.09-3.98-.17-5.95.05a6.643,6.643,0,0,0-5.06,2.73c-1.4,2.29-.5,5.24.44,7.76a33.279,33.279,0,0,1,7.18.67,2.191,2.191,0,0,1,1.28.6c.3.37.23,1.06-.23,1.19a1.071,1.071,0,0,1-.61-.06,18.483,18.483,0,0,0-11.06.44c.08-2.88-1.6-4.9-2.18-7.6-1.13-5.26.21-9.9,6.07-9.8a56.162,56.162,0,0,0,12.42-1.25Z" fill="#63354f" opacity="0.26"/>
      </g>
      <path id="Path_1250" data-name="Path 1250" d="M627.19,320.43a6.226,6.226,0,0,0-1.83,1.75c-.96-4.16-.89-8.51-1.72-12.76a58.683,58.683,0,0,0-3.83-12.3c-2.98-6.75-6.79-14.63-6.01-22.24.93-9.09,8.15-14.67,10.75-22.81,2.4-7.49,1.89-15.43,2.04-23.17.22-10.95,3.27-21.93,2.01-32.86-1-8.63-3.16-16.83-3.33-25.7-.19-9.78.54-19.54,1.28-29.28,1.77-.02,15.94-2.42,15.68.58-.85,10.08,2.3,21.47,3.81,31.42,1.12,7.4,2.31,14.79,3.42,22.19,2.61,17.4,7.04,34.77,8.24,52.3.71,10.47-.17,21-.65,31.45-.48,10.54,4.36,20.43,4.52,30.9.05,3.53.02,7.07.05,10.61-1.55-3.37-5.99-2.79-9.19-2.93-7.1-.32-14.3-.46-21.2,1.26a13.675,13.675,0,0,0-4.03,1.59Z" fill="#d8c161"/>
      <path id="Path_1251" data-name="Path 1251" d="M633.37,287.91c-2.31-7.82-4.91-18.26-1.26-26.12,3.24-6.97,6.83-12.11,7.87-20.12.9-6.94.65-13.97.7-20.96.04-5.93.3-11.87-.23-17.78-.5-5.55-1.68-11-2.67-16.48a237.16,237.16,0,0,1-3.56-32.22c-.1-2.46-.06-6.01-1.75-8.02-.66-.78-6.06-3.42-6.17-1.2.06-1.31.07-2.62.08-3.93,0-.18,7.84-.8,8.38-.84,1.09-.07,7.64-.82,7.46,1.4-.85,10.08,2.3,21.47,3.81,31.42,1.12,7.4,2.31,14.79,3.42,22.19,2.61,17.4,7.04,34.77,8.24,52.3.71,10.47-.17,21-.65,31.45-.48,10.54,4.36,20.43,4.52,30.9,0,3.3.12,6.59.33,9.88.11,1.64.24,3.29.38,4.93.06.74-.13,3.31.41,3.83a11.89,11.89,0,0,0-4.25-2.35,43.123,43.123,0,0,0-16.96-2.48,49.079,49.079,0,0,0-7.76.92c-1.47.32-2.91.84-4.35,1.27a11.677,11.677,0,0,1-2.6.81c-.53.01-.5.34-.92-.07-.31-.3-.2-1.92-.22-2.36-.03-.69,4.91-2.23,5.57-2.44a36.774,36.774,0,0,1,6.23-1.34c3.98-.53,8.22.09,12.08-.48-.03-.94-1.13-1.2-1.92-1.28a45.853,45.853,0,0,0-17.56,1.6c-1.87.53-3.73,1.19-4.82,2.9a26.752,26.752,0,0,1-.06-2.76,47.316,47.316,0,0,1,10.11-4.74,6.6,6.6,0,0,0,2.4-1.15c1.24-1.11,1.28-3.5,1.2-5.02-.4-7.41-3.37-14.52-5.48-21.67Z" fill="#d8c161" opacity="0.52"/>
    </g>
  </g>
</svg>
