<svg xmlns="http://www.w3.org/2000/svg" width="343.4" height="177.948" viewBox="0 0 343.4 177.948">
  <g id="Group_699" data-name="Group 699" transform="translate(-114.96 -30.208)">
    <g id="Group_685" data-name="Group 685">
      <path id="Path_1252" data-name="Path 1252" d="M458.36,205.98,433.44,187.9H148.4l-33.41,17.99Z" fill="#405150"/>
      <path id="Path_1253" data-name="Path 1253" d="M440.2,197.9a2.008,2.008,0,0,0,.09-.89c-.16-1.42-1.7-2.2-3.05-2.65-7.52-2.52-15.57-2.8-23.49-3.06-54.84-1.79-109.52-3.65-164.38-3-18.7.22-37.39.72-56.09,1.03-9.22.15-18.45-.39-27.66.18-4.55.28-20.8.51-22.6,5.69-1.05,3.01,3.38,3.92,5.36,4.3a122.553,122.553,0,0,0,28.35,2.19c-.52.72.71,1.41,1.59,1.47,23.94,1.51,47.98.23,71.93-.67q64.29-2.415,128.65-.21c19.15.66,38.49,1.61,57.31-1.95,1.59-.3,3.51-1.07,3.98-2.43Z" fill="#405150" opacity="0.44"/>
      <line id="Line_31" data-name="Line 31" x1="343.4" transform="translate(114.96 206.89)" fill="none" stroke="#363c51" stroke-miterlimit="10" stroke-width="2.53"/>
    </g>
    <g id="Group_689" data-name="Group 689">
      <path id="Path_1254" data-name="Path 1254" d="M233.67,67.9c.37,3.91-1.37,8.51-2.53,11.64a4.26,4.26,0,0,1-.77,1.44,4.593,4.593,0,0,1-2.05,1.07,92.7,92.7,0,0,0-16.74,6.86,35.736,35.736,0,0,0-13.15,11.96c9.66-4.82,19.94-7.26,30.15-10.61,2.94-.97,5.15-2.48,8.35-2.82.46-.05,6.59-.58,6.59-.46a48.14,48.14,0,0,1,1.87-12.72,3.488,3.488,0,0,1,1.3-2.17,3.814,3.814,0,0,1,1.68-.4c6.29-.49,12.35-.38,17.48-4.58,7.17-5.87,8.43-16.6,4.52-24.6-5.31-10.86-19.6-15.01-30.26-9-2.78,1.57-3.72,5.56-7.14,6.2-1.6.3-3.25-.37-4.85-.1a3.227,3.227,0,0,0,.65,3.21c-1.31,1.81-3.39,2.91-5.08,4.39a6.9,6.9,0,0,0-1.97,7.89c1.3,2.74,5.81,4.93,8.27,6.75a11.83,11.83,0,0,1,2.03,1.77,7.594,7.594,0,0,1,1.67,4.28Z" fill="#ffb8b8"/>
      <g id="Group_686" data-name="Group 686">
        <path id="Path_1255" data-name="Path 1255" d="M273.88,59.05c3.96.84,7.89.99,11.61,3.35A22.463,22.463,0,0,1,294.72,74c2.83,8.36.62,17.85-4.54,25.08-3.35,4.71-7.25,8.01-8.89,13.82a37,37,0,0,0-.83,14.56c-1.99-5.64-1.39-11.91.66-17.52,2.92-8,9.65-13.76,10.93-22.4-.36,2.45-3.37,6.02-4.6,8.23-1.58,2.85-3.62,5.5-5.25,8.36-6.5,11.4-7.33,28.94,1.77,39.26,3.6,4.08,9.24,6.78,14.67,5.78-5.42,3.02-12.54,2.14-17.75-1.21s-8.69-8.79-10.74-14.52a23.94,23.94,0,0,0,1.94,9.54c-5.27-7.65-5.93-17.39-5.9-26.6a37.875,37.875,0,0,1-4.53,15.29c2.64-4.84,1.12-12.26,2.05-17.55,1.06-6.04,3.95-12,6.56-17.53,3.99-8.46,8.73-19.05,5.14-28.42a13.173,13.173,0,0,0-9.01-8.3c.62-.3.53-1.2.93-1.75.65-.88,2.04-.43,3.07-.04a24.663,24.663,0,0,0,3.47.98Z" fill="#363c51"/>
        <path id="Path_1256" data-name="Path 1256" d="M244.49,77.68a4.279,4.279,0,0,1-.17-.79,3.419,3.419,0,0,1,1.69-3.29,4.158,4.158,0,0,0-.77,4.08c.17.44.42.85.56,1.3a4.979,4.979,0,0,1,.16,1.22,14.1,14.1,0,0,0-.13-2.59c-.15-3.12,3.02-5.37,5.9-5.35a2.649,2.649,0,0,0-1.83,2.61,6.43,6.43,0,0,0,.45,1.32,1.763,1.763,0,0,1,.05,1.35,3.322,3.322,0,0,0,.14-2.12,2.885,2.885,0,0,0,1.8,2.09,3.528,3.528,0,0,1-1.01-1.99,1.822,1.822,0,0,1,.17-1.24,1.783,1.783,0,0,1,.7-.6c2.2-1.21,4.86-1.09,7.29-1.39a16.561,16.561,0,0,0,7.75-2.63,10.381,10.381,0,0,0,4.67-8.45,3.571,3.571,0,0,1,.12-1.53,3.765,3.765,0,0,1,.8-1.03c2.92-3.16,2.2-8.63,1.33-12.47a19.8,19.8,0,0,0-6.97-11.27c-5.88-4.61-14.18-5.73-21.47-3.8a13.867,13.867,0,0,1,2.07,1.49,13.835,13.835,0,0,0,2.99,1.33,13.274,13.274,0,0,0-5.23,2.83c-1.89,1.67-2.26,3.5-2.35,5.97a8.535,8.535,0,0,1,4.08-5.82c-2.68,1.55-4.16,6.31-3.26,9.09.53,1.62,1.82,2.89,2.65,4.34,1.99,3.47-3.5,4.55-4.27,7.17a4.8,4.8,0,0,0,1.05,3.87c.64.94,1.86,2.24,1.98,3.42.12,1.3-1.19,2.76-1.85,3.78-.78,1.22-1.43,2.7-.96,4.07a3.734,3.734,0,0,1,2.02-3.32,9.6,9.6,0,0,0-1.27,7.88c.3.88.82,1.67,1.2,2.52a3.9,3.9,0,0,1,.37,2.71,4.394,4.394,0,0,0,.26-2.7c-.16-.71-.49-1.37-.7-2.06Z" fill="#363c51"/>
      </g>
      <path id="Path_1257" data-name="Path 1257" d="M272.1,142.97a40.552,40.552,0,0,1-2.19-7.93c-.59-2.91,0-6.02-.54-8.88,1,5.21,3.55,8.4,5.6,13.03-3.66-8.29-4.12-17.76-2.4-26.65s5.51-17.27,10.07-25.11c2.53-4.36,5.42-9.06,4.71-14.05,1.62,4.32.65,9.23-1.29,13.42s-4.78,7.88-7.13,11.85a46.01,46.01,0,0,0-5.86,15.18,39.028,39.028,0,0,0,9.45,32.77c-3.56-5.88-6.55-10.96-7.87-17.81a34.829,34.829,0,0,1,5.55-27.05c1.9-2.67,4.18-5.05,6.14-7.67a41.348,41.348,0,0,0,6.19-11.89c-1.25,3.82-.63,7.75-2.41,11.66-1.89,4.15-4.57,7.9-6.69,11.94a65.411,65.411,0,0,0,8.3-13.16,21.362,21.362,0,0,0,2.01-6.49,23.939,23.939,0,0,0-4.96-17.6c-3.91-4.76-10.64-8.67-16.89-7.58.07-.36.07-1.42.31-1.68a21.9,21.9,0,0,1-1.99,2.09c-.55.44-1.99.76-2.34,1.32a10.227,10.227,0,0,0,1.48-5.16,4.707,4.707,0,0,0-.79-2.92,2.264,2.264,0,0,0-2.73-.75,11.956,11.956,0,0,0-10.4-19.43,5.26,5.26,0,0,1,3.61,1.31c-4.5-.47-9.87.93-12.15,5.14a3.022,3.022,0,0,1,3.09-1.53,7.171,7.171,0,0,0-1.63,9.92,4.755,4.755,0,0,1,1.08,1.72c.3,1.37-1.05,2.49-2.23,3.25-3.2,2.04-6.52,3.06-3.74,7.15.64.94,1.86,2.24,1.98,3.42.12,1.3-1.19,2.76-1.85,3.78-.78,1.22-1.43,2.7-.96,4.07a3.734,3.734,0,0,1,2.02-3.32,9.6,9.6,0,0,0-1.27,7.88c.3.88.82,1.67,1.2,2.52a3.9,3.9,0,0,1,.37,2.71,4.394,4.394,0,0,0,.26-2.7c-.16-.71-.49-1.37-.7-2.06a4.279,4.279,0,0,1-.17-.79,3.419,3.419,0,0,1,1.69-3.29,4.158,4.158,0,0,0-.77,4.08c.17.44.42.85.56,1.3a4.979,4.979,0,0,1,.16,1.22,14.1,14.1,0,0,0-.13-2.59c-.15-3.12,3.02-5.37,5.9-5.35a2.649,2.649,0,0,0-1.83,2.61,6.43,6.43,0,0,0,.45,1.32,1.763,1.763,0,0,1,.05,1.35,3.322,3.322,0,0,0,.14-2.12,2.885,2.885,0,0,0,1.8,2.09,3.528,3.528,0,0,1-1.01-1.99,1.822,1.822,0,0,1,.17-1.24,1.783,1.783,0,0,1,.7-.6c2.2-1.21,4.86-1.1,7.29-1.39a16.561,16.561,0,0,0,7.75-2.63,10.845,10.845,0,0,0,4.55-6.91,14.525,14.525,0,0,1,3.65,5.41c3.59,9.37-1.15,19.96-5.14,28.42-2.61,5.53-5.5,11.5-6.56,17.53-.93,5.29.59,12.71-2.05,17.55a37.875,37.875,0,0,0,4.53-15.29c-.03,9.21.63,18.94,5.9,26.6Z" fill="#363c51" opacity="0.22"/>
      <g id="Group_688" data-name="Group 688">
        <path id="Path_1258" data-name="Path 1258" d="M236.27,38.91c-.23.21-1.26,1.34-.6,1.59a.756.756,0,0,0,.63-.12,2.553,2.553,0,0,0,.86-.7C237.79,38.81,237.13,38.15,236.27,38.91Z"/>
        <path id="Path_1259" data-name="Path 1259" d="M226.25,45.29s.02.07.06.18c.05.13.07.23.15.41a5.756,5.756,0,0,0,.69,1.22,6.518,6.518,0,0,0,1.58,1.48,6.8,6.8,0,0,1-3.55-1.77c-.17-.15-.33-.34-.41-.42s-.13-.14-.13-.14l1.6-.97Z" fill="#d37575"/>
        <path id="Path_1260" data-name="Path 1260" d="M238.21,35.37a.635.635,0,0,1,.19-.27,1.2,1.2,0,0,1,.89-.28,2.057,2.057,0,0,1,1.19.58,4.1,4.1,0,0,1,.48.53,5.085,5.085,0,0,1,.39.63,4.163,4.163,0,0,1,.37,1.39,3.4,3.4,0,0,1-.11,1.23,2.72,2.72,0,0,1-.34.79c-.12.17-.19.26-.19.26s0-.12.01-.32,0-.47-.02-.79a6.2,6.2,0,0,0-.57-2.16,4.3,4.3,0,0,0-.28-.52c-.08-.13-.24-.36-.33-.48a2.255,2.255,0,0,0-.71-.63,1.133,1.133,0,0,0-.68-.08.846.846,0,0,0-.28.11Z" fill="#363c51"/>
        <g id="Group_687" data-name="Group 687">
          <path id="Path_1261" data-name="Path 1261" d="M246.03,50.46a4.465,4.465,0,0,1,3.19-1.33,3.2,3.2,0,0,1,2.7,2.11,3.641,3.641,0,0,1-.62,3.37,6.746,6.746,0,0,1-2.55,1.84,9.792,9.792,0,0,1-5.1,1.09,3.17,3.17,0,0,1-2.02-.85,1.453,1.453,0,0,1-.05-1.98" fill="#ffb8b8"/>
          <path id="Path_1262" data-name="Path 1262" d="M246.03,50.46a4.629,4.629,0,0,1,.75-.69,5,5,0,0,1,1.03-.61,3.345,3.345,0,0,1,1.57-.28,3.252,3.252,0,0,1,1.8.72,3.471,3.471,0,0,1,1.21,1.83,3.971,3.971,0,0,1-.13,2.36,4.6,4.6,0,0,1-1.43,1.94,9.49,9.49,0,0,1-2,1.17,12.448,12.448,0,0,1-2.07.73,7.35,7.35,0,0,1-3.92.03,2.674,2.674,0,0,1-1.36-.88,1.788,1.788,0,0,1-.37-1.17,1.364,1.364,0,0,1,.26-.73.865.865,0,0,1,.19-.19,1.163,1.163,0,0,0-.27.91,1.539,1.539,0,0,0,.46.95,2.569,2.569,0,0,0,1.23.58,7.729,7.729,0,0,0,3.56-.31,14.429,14.429,0,0,0,1.92-.76,8.33,8.33,0,0,0,1.78-1.07,3.674,3.674,0,0,0,1.18-1.54,3.228,3.228,0,0,0,.18-1.83,2.934,2.934,0,0,0-2.28-2.23,3.835,3.835,0,0,0-2.45.5,6.782,6.782,0,0,0-.85.54Z" fill="#d37575"/>
        </g>
        <path id="Path_1263" data-name="Path 1263" d="M250.06,53.14a1.474,1.474,0,0,0-.13-1.24,1.316,1.316,0,0,0-.94-.6c-.04,0-.1-.01-.12-.01h-.16a1.376,1.376,0,0,0-.26.04,2.977,2.977,0,0,0-.53.22,6.353,6.353,0,0,0-1.02.77l-.15-.78a1.286,1.286,0,0,1,.64.49,1.86,1.86,0,0,1,.27.62,1.974,1.974,0,0,1-.1,1.29,1.77,1.77,0,0,1-.39.56,1.659,1.659,0,0,1-1.25.48,1.462,1.462,0,0,1-1.16-.7,1.23,1.23,0,0,1-.17-.68,1.585,1.585,0,0,1,.59-1.09,2.659,2.659,0,0,1,.44-.33c.18-.11.31-.16.47-.25.31-.15.62-.3.94-.44-.25.24-.51.47-.77.69-.12.11-.28.23-.38.33-.11.12-.22.24-.32.36a1.079,1.079,0,0,0-.28.71.507.507,0,0,0,.11.29.756.756,0,0,0,.25.19.828.828,0,0,0,1.07-.5,1.342,1.342,0,0,0,.05-.72.975.975,0,0,0-.12-.32.375.375,0,0,0-.15-.14l-.75-.3.6-.48a6.066,6.066,0,0,1,1.23-.8,2.388,2.388,0,0,1,.76-.22,1.477,1.477,0,0,1,.42,0c.08,0,.12.02.18.02a1.081,1.081,0,0,1,.21.05,1.756,1.756,0,0,1,1.13,1.06,1.472,1.472,0,0,1-.22,1.4Z" fill="#915757"/>
      </g>
    </g>
    <g id="Group_692" data-name="Group 692">
      <g id="Group_691" data-name="Group 691">
        <path id="Path_1264" data-name="Path 1264" d="M227.55,197.56c-.49.09-.99.15-1.48.19-1.8.17-20.86.34-20.77-1.31.19-3.38.39-6.75.58-10.13a.488.488,0,0,1,.62-.59c4.51.35,9.02.64,13.54.78,4.12.13,8.09-.19,11.01,3.23a4.8,4.8,0,0,1,.73,5.56,6.065,6.065,0,0,1-4.25,2.27Z" fill="#ffb8b8"/>
        <path id="Path_1265" data-name="Path 1265" d="M227.52,197.56a8.627,8.627,0,0,1-2.09.1c.39-1.43.69-4.64-.79-5.67a1.6,1.6,0,0,0-.92-.2c-1.94-.03-3.88-.06-5.81-.1a.97.97,0,0,0-.45.07.922.922,0,0,0-.36.64,8.508,8.508,0,0,1-1.63,4.04c-1.47,1.57-3.85,1.16-5.79,1.11-.62-.01-4.42,0-4.36-1.12l.58-10.13a.488.488,0,0,1,.62-.59c4.51.35,9.02.64,13.54.78,4.59.14,13.19.54,11.96,7.45a3.925,3.925,0,0,1-.91,1.98,4.6,4.6,0,0,1-1.49,1,8.614,8.614,0,0,1-2.1.63Z" fill="#ffb8b8" opacity="0.4"/>
        <g id="Group_690" data-name="Group 690">
          <path id="Path_1266" data-name="Path 1266" d="M227.37,196.83a4.157,4.157,0,0,0,.26-1.16,12.24,12.24,0,0,0-.79-5.71,8.033,8.033,0,0,0-1.33-2.48c-.3-.33-1.34-.52-1.28-1.08.04-.43.65-.47,1.09-.44,3.25.27,5.9-1.92,9.05-1.92,2.31,0,4.33,1.42,6.31,2.57,7.84,4.58,17.23,5.67,26.25,7.15.96.16,2.21.71,1.99,1.63-.13.54-.73.82-1.27,1.01a37.362,37.362,0,0,1-9.12,1.61c-5.33,0-10.7.55-16.04.58a123.4,123.4,0,0,1-15.61-1.05,1.964,1.964,0,0,0,.49-.72Z" fill="#f0f2d3"/>
          <path id="Path_1267" data-name="Path 1267" d="M227.72,196.85a6.98,6.98,0,0,0-.07-1.51c-.49-3.9-.25-7.56-4.7-9.16.87.31,4.9-.38,5.83-.65,1.92-.54,3.74-1.49,5.78-1.49,2.31,0,4.33,1.42,6.31,2.57,7.84,4.58,17.23,5.67,26.25,7.15.97.16,2.21.71,1.99,1.63-.13.54-.73.82-1.27,1.01-3.66,1.26-8.98,2.35-12.84,1.7a45.837,45.837,0,0,1-13.2-4.36c-1.22-.62-2.54-1.32-3.87-1.04-2.07.42-2.97,2.83-3.41,4.9a1.334,1.334,0,0,1-.4.83,1.206,1.206,0,0,1-.8.14c-1.49-.07-5.75.12-5.57-1.73Z" fill="#f0f2d3"/>
        </g>
      </g>
      <path id="Path_1268" data-name="Path 1268" d="M157.98,175.7c-2.93,1.5-5.98,3.29-7.32,6.24-2.04,4.51.99,9.96,5.36,12.45s9.67,2.76,14.73,2.94q10.5.375,20.99.61c6.16.14,12.38-1.01,18.43,0q.645-5.85,1.3-11.71a62.02,62.02,0,0,0,18.84-.72,3.308,3.308,0,0,0,1.84-.79,3.034,3.034,0,0,0,.61-1.89c.38-5.91-2.56-12.09-6.89-16.25-5.4-5.19-11.87-5.72-19.08-5.14a132.059,132.059,0,0,0-48.81,14.26Z" fill="#82a3a3"/>
      <path id="Path_1269" data-name="Path 1269" d="M169.03,185.08a46.365,46.365,0,0,1,17.33,1.8,3.231,3.231,0,0,1,2.2,1.46c.6,1.31-.64,2.7-1.81,3.53a29.39,29.39,0,0,1-15.16,5.38c6.72.13,13.47.54,20.14.69,6.16.14,12.38-1.01,18.43,0q.645-5.85,1.3-11.71a62.02,62.02,0,0,0,18.84-.72,3.308,3.308,0,0,0,1.84-.79,3.034,3.034,0,0,0,.61-1.89c.38-5.91-2.56-12.09-6.89-16.25-5.4-5.19-11.87-5.72-19.08-5.14-2.63.21-6.16.02-8.6.97a56.563,56.563,0,0,1,4.04,8.37c.48,1.24.89,2.72.14,3.82a4.29,4.29,0,0,1-2.13,1.37,182.606,182.606,0,0,1-33.47,9.37c.76-.1,1.51-.19,2.27-.25Z" fill="#82a3a3" opacity="0.51"/>
    </g>
    <g id="Group_694" data-name="Group 694">
      <path id="Path_1270" data-name="Path 1270" d="M218.08,173.46l.44.35a4.592,4.592,0,0,0,1.92,1.05,4.267,4.267,0,0,0,2.32-.43c5.95-2.51,9.67-7.92,13.22-12.9,2.06-2.89,4.21-6.35,2.89-9.98-.98-2.69-3.61-4.42-5.45-6.64-2.79-3.37-3.73-7.85-4-12.17a20.862,20.862,0,0,1,1-8.85,25.043,25.043,0,0,1,4.06-6.37q3.345-4.17,6.96-8.15c2.13-2.34,4.35-4.68,5.72-7.51,4.79-9.97-5.09-18.83-14.82-19.65-6.78-.57-12.18,2.16-18.13,4.77-8.81,3.87-14.02,11.89-17.14,20.47-3.25,8.94-5.71,18.44-2.51,27.73,1.52,4.4,3.71,8.58,4.97,13.06a52.644,52.644,0,0,0,1.97,6.78,25.35,25.35,0,0,0,3.89,5.92,85.5,85.5,0,0,0,12.71,12.52Z" fill="#ffb8b8"/>
      <path id="Path_1271" data-name="Path 1271" d="M223.58,169.18a7.419,7.419,0,0,1,.77.81c1.59,1.95,1.74,2.35,3.76,1.03,3.25-2.13,5.66-6.39,7.87-9.49,2.06-2.89,4.21-6.35,2.89-9.98-.98-2.69-3.61-4.42-5.45-6.64-2.79-3.37-3.73-7.85-4-12.17a20.862,20.862,0,0,1,1-8.85,25.043,25.043,0,0,1,4.06-6.37q3.345-4.17,6.96-8.15c1.57-1.73,4.22-3.86,5.08-6.03a10.786,10.786,0,0,0,.59-4.3c-.08-3.11-.84-6.45-3.23-8.44-3.04-2.54-7.93-2-11.11.04-3.23,2.08-4.81,6.66-5.56,10.28a59.118,59.118,0,0,0-.87,11.44c-2.67-4.02-5.71-8.66-4.8-13.7a15.977,15.977,0,0,1,5.14-8.62,47.547,47.547,0,0,1,8.39-5.78c-5.54,1.3-10.98,3.68-14.9,7.8a17.676,17.676,0,0,0-2.07,21.75c2.42,3.91,1.35,8.18-3.35,10.28-2.35,1.05-8.31-.91-10.75-1.45a67.031,67.031,0,0,1-9.88-3.02,12.262,12.262,0,0,0,7.2,6.84,14.878,14.878,0,0,0,1.27,8.67,30.356,30.356,0,0,1,2.29,4.78,19.539,19.539,0,0,1,.45,3.41,31.958,31.958,0,0,0,12.78,22.35c1.77,1.3,3.88,2.09,5.46,3.53Z" fill="#ffb8b8" opacity="0.39"/>
      <g id="Group_693" data-name="Group 693">
        <path id="Path_1272" data-name="Path 1272" d="M207.54,95.7c-.96.51-3.08,1.27-2.97-.69.04-.68.9-1.55,1.38-1.97,4.68-4.12,10.04-6.5,15.63-9.11-1.75.82-3.82,1.21-5.64,2.04-2.03.93-4.04,1.9-6,2.97a43.592,43.592,0,0,0-10.47,7.59c-2.46,2.52-4.7,5.5-5.13,8.95-.28,2.27.24,4.55.33,6.84s-.38,4.8-2.17,6.28c2.68,3.4,36.67,13.98,37.04,11.25a40.381,40.381,0,0,1,1.95-8.03,21.748,21.748,0,0,1-12.2-13.32c-1.72-5.54-1.26-13.4,3.37-17.64-.44-.37-.89-.74-1.33-1.1a92.1,92.1,0,0,1-8.79,4.08c-1.46.58-2.97,1.02-4.43,1.59a3.581,3.581,0,0,0-.56.27Z" fill="#f0f2d3"/>
        <path id="Path_1273" data-name="Path 1273" d="M211.17,99.6a18.954,18.954,0,0,0-3.19,4.01c-4.94,8.71,2.38,15.66,9.3,19.77q-9.51-2.94-19.03-5.89a1.994,1.994,0,0,0-1.83.04,33.034,33.034,0,0,0,8.09,4.18,65.735,65.735,0,0,0-8.6-1.35c2.34,2.99,33.34,11.53,33.62,9.5a40.381,40.381,0,0,1,1.95-8.03,21.748,21.748,0,0,1-12.2-13.32c-2.06-6.6-.49-13.02,3.3-18.6a13.655,13.655,0,0,0-3.46,2.49q-2.685,2.4-5.38,4.8c-.87.78-1.75,1.57-2.59,2.4Z" fill="#f0f2d3"/>
        <path id="Path_1274" data-name="Path 1274" d="M249.57,94.25s-.31-.72-.94-1.87a17.441,17.441,0,0,0-3.21-4.24,11.864,11.864,0,0,0-2.77-1.96,10.563,10.563,0,0,0-3.51-1.02,13.313,13.313,0,0,0-3.94.28,22.551,22.551,0,0,0-4.05,1.33c-1.35.54-2.71,1.18-4.02,1.85-1.28.67-2.58,1.32-3.77,2.04s-2.37,1.4-3.45,2.11-2.1,1.38-3.04,2.02l-6.24,4.37s.12-.15.35-.43.56-.7,1.01-1.19c.89-1.01,2.18-2.43,3.87-4.01a49.269,49.269,0,0,1,6.18-4.97,41.025,41.025,0,0,1,3.85-2.35c1.35-.73,2.73-1.41,4.19-2.03a25.482,25.482,0,0,1,4.6-1.39,13.885,13.885,0,0,1,4.81-.06,11.276,11.276,0,0,1,4.22,1.66,11.666,11.666,0,0,1,2.91,2.69,14.553,14.553,0,0,1,2.53,5.11,13.016,13.016,0,0,1,.34,1.54c.06.36.09.55.09.55Z" fill="#f0f2d3"/>
      </g>
      <path id="Path_1275" data-name="Path 1275" d="M240.26,67.5a7.374,7.374,0,0,0-1.71-3.09c-4.49-4.96-12.28-4.4-16.8-9.48,1.88,3.31,5.21,4.71,8.19,6.92a11.83,11.83,0,0,1,2.03,1.77,7.594,7.594,0,0,1,1.67,4.28,21.682,21.682,0,0,1-1.49,8.74c-1.11,3.32-1.67,4.95-5.26,5.66-6.59,1.3-13.25,5.15-18.72,8.93-1.08.75-2.54,1.71-3.11,2.95-.76,1.67.52,1.44.99,2.82.44-2.63,2.95-4.35,5.03-5.68,2.76-1.75,5.17-3.09,8.6-2.95a.466.466,0,0,1,.33.1.439.439,0,0,1,.07.32,2.555,2.555,0,0,1-.77,1.66,29.805,29.805,0,0,0,3.18-2.37c1.36-.92,2.75-1.8,4.18-2.59a25.212,25.212,0,0,1,11.29-3.5c1.36-4.38,3.47-9.87,2.3-14.5Z" fill="#ffb8b8" opacity="0.29"/>
    </g>
    <g id="Group_697" data-name="Group 697">
      <g id="Group_696" data-name="Group 696">
        <path id="Path_1276" data-name="Path 1276" d="M394.46,184.54c4.02-.01,7.47,1.14,8.03,6.59a8.226,8.226,0,0,1-6.41,8.54,16.858,16.858,0,0,1-5.35-.06c-13.19-1.56-27.09-1.36-40.29-1.56a49.59,49.59,0,0,0,2.6-16.28c10.63.88,21.14,3.09,31.81,3.46,2.77.1,6.38-.67,9.6-.68Z" fill="#ffb8b8"/>
        <g id="Group_695" data-name="Group 695">
          <path id="Path_1277" data-name="Path 1277" d="M395.16,178.43a6.622,6.622,0,0,1,5.8,1.33c2.6,1.92,4.21,4.82,6.52,7.06a13.2,13.2,0,0,0,12.22,3.84c2.97-.5,5.97-1.35,8.95-.92a4.812,4.812,0,0,1,3.17,1.53c1.37,1.75.1,2.44-1.15,3.18-1.46.86-2.32,2.28-3.58,3.36-2.2,1.89-5.34,2.25-8.26,2.53-6.51.62-12.75.32-19.26.32-1.28-.06-13.07-1.9-13.53-1.12a9.363,9.363,0,0,0,2.59-7.2,13.714,13.714,0,0,0-2.84-7.24c-.23-.31-.48-.67-.37-1.03a.952.952,0,0,1,1.03-.51c.41.04.81.23,1.22.28,2.91.37,4.87-4.55,7.47-5.42Z" fill="#f0f2d3"/>
          <path id="Path_1278" data-name="Path 1278" d="M395.2,178.43a6.622,6.622,0,0,1,5.8,1.33c2.6,1.92,4.21,4.82,6.52,7.06a13.2,13.2,0,0,0,12.22,3.84,56.859,56.859,0,0,1,6.36-1.01c1.66-.08,3.13.6,4.73.56-2.4.04-4.5,1.5-6.72,2.42a15.734,15.734,0,0,1-14.05-1.13,7.485,7.485,0,0,0-4.52-1.71,15.251,15.251,0,0,1-11.58-8.88c-1.51,1.41-1.92,3.65-1.84,5.71s.57,4.1.51,6.17-.81,4.28-2.58,5.35a12.811,12.811,0,0,0-3.46-14.41c4.47.59,4.97-4.09,8.6-5.29Z" fill="#f0f2d3"/>
        </g>
      </g>
      <path id="Path_1279" data-name="Path 1279" d="M267.01,165.61c20.23,5.54,38.53,16.2,60.21,14.75,4.02-.27,8.01-.86,12.04-.88,7.47-.03,14.59,1.83,21.93,2.53a2.46,2.46,0,0,1,1.17.31,2.313,2.313,0,0,1,.77,1.91,33.4,33.4,0,0,1-1.53,12.11,3.649,3.649,0,0,1-1.5,2.27,3.991,3.991,0,0,1-1.98.28q-14.775-.405-29.55-.82c-4.37-.12-8.83-.6-13.14-.68-4.54-.09-9,1.29-13.55,1.27q-6.66-.03-13.31-.31a193.138,193.138,0,0,1-27.58-2.95c-17.5-3.33-35.11-10.36-46.05-24.68,2.88,3.77,10.3-9.15,10.92-10.35a49.955,49.955,0,0,0,5.23-16.98c4.42,2.24,9.62,2.37,14.43,3.66a31.959,31.959,0,0,1,12.76,7.13,15.905,15.905,0,0,1,4.22,4.77c.24.47,1.59,5.91,1.24,5.83,1.1.26,2.19.55,3.27.84Z" fill="#82a3a3"/>
      <path id="Path_1280" data-name="Path 1280" d="M267.01,165.61c20.23,5.54,38.53,16.2,60.21,14.75,4.02-.27,8.01-.86,12.04-.88,7.47-.03,14.59,1.83,21.93,2.53a2.46,2.46,0,0,1,1.17.31,2.313,2.313,0,0,1,.77,1.91c.14,2.4-.58,4.46-.86,6.84.33-2.85-2.84-4.73-5.58-5.6a51.464,51.464,0,0,0-32.54.6,7.339,7.339,0,0,0-3.67,2.29c-.8-1.34-1.61-2.68-2.41-4.02a9.317,9.317,0,0,0-3,3.24c-2.39-2.59-6.35-2.66-9.86-2.99-11.44-1.07-21.86-6.72-32.74-10.43a32.365,32.365,0,0,0-11.71-2.18c-3.99.18-8.08,1.76-10.5,4.93a16.235,16.235,0,0,0-.55-13.33,15.973,15.973,0,0,0-4.51-5.39c-.36-.28-5.66-3.46-5.87-2.66a47.524,47.524,0,0,1-14.34,23.76,17.3,17.3,0,0,0,7.46,5.6,121.779,121.779,0,0,1-14.87,1.85,23,23,0,0,0-1.63-15.23c4.57-1.38,7.81-7.13,9.87-11.14a49.955,49.955,0,0,0,5.23-16.98c4.42,2.24,9.62,2.37,14.43,3.66a31.959,31.959,0,0,1,12.76,7.13,15.905,15.905,0,0,1,4.22,4.77c.24.47,1.59,5.91,1.24,5.83,1.1.26,2.19.55,3.27.84Z" fill="#82a3a3" opacity="0.23"/>
    </g>
    <g id="Group_698" data-name="Group 698">
      <path id="Path_1281" data-name="Path 1281" d="M185.58,196.66c1.56-.75,3.11-1.53,4.72-2.23,4.62-2.01,8.98-4.52,13.54-6.66a9.679,9.679,0,0,0,2.35-1.38,8.754,8.754,0,0,0,2-3.21c5.33-12.55,9.77-25.79,14.62-38.59a45.637,45.637,0,0,0,1.98-7.98c1.28-6.87,3.45-14.19,3.35-21.19-.13-9.14-3.35-21.97,5.37-28.48,3.56-2.66,8.33-3.28,11.88-.24,4.17,3.57,5.32,11.27,4.97,16.35-.37,5.37-2.2,10.53-4.28,15.52a151.439,151.439,0,0,1-7.29,15.07,56.057,56.057,0,0,0-2.7,5.22c-2.66,6.33-3.07,13.35-6,19.58-3,6.38-7.78,11.85-11.34,17.93a62.34,62.34,0,0,0-6.74,16.65c-.94,3.86-1.66,5.09-5.52,6.34-2.4.78-4.83,1.41-7.28,1.98-.86.2-1.85.75-2.66.86a15.713,15.713,0,0,1-2.38-.4c1.96-1.2,3.97-2.34,6-3.41q-4.605,1.095-9.2,2.2a17.756,17.756,0,0,1-4.45.67c-.4,0-.92-.16-.92-.56,0-.53.91-.63,1.01-1.15a5.347,5.347,0,0,1-3.74.54c-.23-.07-2.2-1.27-1.66-1.47,1.51-.57,2.95-1.25,4.39-1.94Z" fill="#ffcfcf"/>
      <path id="Path_1282" data-name="Path 1282" d="M185.76,196.87c.19-.03.37-.05.57-.07.51-.04,5.41-.55,5.5-.33a1.5,1.5,0,0,1-.1,1.45c.3-.45,3.96-.67,4.65-.84,1.62-.4,3.14-1.03,4.73-1.51a11.922,11.922,0,0,0,6.66-4.13,31.466,31.466,0,0,0,3.75-6.89l17.28-39.33a37.016,37.016,0,0,0,1.75-4.52c.38-1.32.61-2.67.94-4,1.09-4.32,3.26-8.29,4.93-12.42a76.206,76.206,0,0,0,4.99-24.78c.16-3.14.13-6.5-1.62-9.1s-5.88-3.8-8.08-1.56c2.79-4.37,9.72-5.88,13.8-2.39,4.17,3.57,5.32,11.27,4.97,16.35-.37,5.37-2.2,10.53-4.28,15.52a151.436,151.436,0,0,1-7.29,15.07,56.057,56.057,0,0,0-2.7,5.22c-2.66,6.33-3.07,13.35-6,19.58-3,6.38-7.78,11.85-11.34,17.93a62.34,62.34,0,0,0-6.74,16.65c-.94,3.86-1.66,5.09-5.52,6.34-2.4.78-4.83,1.41-7.28,1.98-.86.2-1.85.75-2.66.86a15.713,15.713,0,0,1-2.38-.4c1.96-1.2,3.97-2.34,6-3.41q-4.605,1.095-9.2,2.2a17.756,17.756,0,0,1-4.45.67c-.4,0-.92-.16-.92-.56,0-.53.9-.63,1.01-1.15a5.347,5.347,0,0,1-3.74.54c-.23-.07-2.2-1.27-1.66-1.47a21.252,21.252,0,0,1,4.45-1.51Z" fill="#ffcfcf" opacity="0.52"/>
    </g>
  </g>
</svg>
