<svg xmlns="http://www.w3.org/2000/svg" width="248.435" height="169.169" viewBox="0 0 248.435 169.169">
  <g id="Group_728" data-name="Group 728" transform="translate(-357.425 -226.001)">
    <g id="Group_700" data-name="Group 700">
      <path id="Path_1283" data-name="Path 1283" d="M383.52,392.34l31.61-19.36,159.97.17,30.76,19.07Z" fill="#4c587a"/>
      <path id="Path_1284" data-name="Path 1284" d="M428.2,387.5a99.9,99.9,0,0,1-19.38-2.74c-.92-.24-1.96-.61-2.26-1.51-1.76-5.22,44-7.63,48.86-7.76q24.3-.63,48.62-.22c15.75.26,31.81-.27,47.48,1.53a46.766,46.766,0,0,1,14.12,3.41c.92.42,1.97,1.24,1.65,2.19a2.078,2.078,0,0,1-1.44,1.08c-6.71,2.28-14.64,2.22-21.66,2.48-21.6.81-43.21,1.73-64.81,2.43-11.9.39-23.82.37-35.71-.22-5.14-.25-10.31-.37-15.45-.67Z" fill="#4c587a" opacity="0.23"/>
      <line id="Line_32" data-name="Line 32" x2="222.34" transform="translate(383.52 393.68)" fill="none" stroke="#687eaf" stroke-miterlimit="10" stroke-width="2.98"/>
    </g>
    <g id="Group_713" data-name="Group 713">
      <g id="Group_710" data-name="Group 710">
        <path id="Path_1285" data-name="Path 1285" d="M393.78,377.47c-.07-1.45,1.26-3.49,1.33-5.14a14.448,14.448,0,0,0-.97-5.52c-1.07-3-2.26-5.42-5.58-6.41a4.686,4.686,0,0,0-1.63-6.41,1.034,1.034,0,0,1-.51-.43.96.96,0,0,1,.11-.75c1.14-2.76,1.52-6.08-1.59-7.67a10.635,10.635,0,0,0-2.85-18.55,47,47,0,0,0,9.01-19.08c1.45-6.57,3.29-12.24.69-18.99a8.28,8.28,0,0,1-.74-2.55c-.04-.83.21-1.65.24-2.48.14-3.16-2.78-5.66-5.76-6.71-4.98-1.77-12.64-1.06-16.64,2.66a10.618,10.618,0,0,0-3.28,6.42c-.09.73.79,4.8,2.04,4.53a12.56,12.56,0,0,0-8.19,6.11,17.116,17.116,0,0,0-1.92,10.29,8.178,8.178,0,0,0,1.2,3.86,19.535,19.535,0,0,0,2.43,2.3,10.6,10.6,0,0,0-2.69,12.32,12.79,12.79,0,0,0,10.76,7.14c-2.48,3.07-3.94,7.17-3.09,11.03s4.42,7.18,8.37,7c-1.16,2.02.19,4.56,2.14,5.55a4.876,4.876,0,0,0,4.63-.17,6.814,6.814,0,0,0,1.27,4.4c1.02,1.18,3.04,1.59,4.12.47.7,3.34,1.75,6.59,2.39,9.93.45,2.33,1.56,8.53-.39,10.48a13.671,13.671,0,0,0,4.76-11.67l.39,8.04Z" fill="#363c51"/>
        <path id="Path_1286" data-name="Path 1286" d="M393.78,377.47c-.07-1.45,1.26-3.49,1.33-5.14a14.448,14.448,0,0,0-.97-5.52c-1.07-3-2.26-5.42-5.58-6.41a4.686,4.686,0,0,0-1.63-6.41,1.034,1.034,0,0,1-.51-.43.96.96,0,0,1,.11-.75c1.14-2.76,1.52-6.08-1.59-7.67a10.635,10.635,0,0,0-2.85-18.55,47,47,0,0,0,9.01-19.08c1.45-6.57,3.29-12.24.69-18.99a8.28,8.28,0,0,1-.74-2.55c-.04-.83.21-1.65.24-2.48.14-3.16-2.78-5.66-5.76-6.71-3.4-1.21-6.1-.83-9.5-.03,2.01.07,3.58,1.68,4.92,3.19,1.79,2.01,2.99,4,.84,5.92a12.592,12.592,0,0,1-7.1,3.16,12.114,12.114,0,0,1-8.16-2.23,4.3,4.3,0,0,0,3.66,4.36,5.92,5.92,0,0,0-4.92.14,17.431,17.431,0,0,0-4.16,2.89,7.087,7.087,0,0,1,8.02.33,19.521,19.521,0,0,0-4.88,8.35,16.837,16.837,0,0,0,.67,9.58s-2.73.22-2.97.29a5.223,5.223,0,0,0-2.48,2.17,8.209,8.209,0,0,0-1.5,6.83,12.747,12.747,0,0,1,1.59-3.64,4.257,4.257,0,0,1,3.33-1.91c1.67.02,3.02,1.33,4.09,2.61a15.085,15.085,0,0,1,3.46,6.04,3.565,3.565,0,0,1-.71,3.52,3.964,3.964,0,0,1-2.01.77,22.287,22.287,0,0,1-5.29.25c.81.06,2.74,2.03,3.71,2.41a18.052,18.052,0,0,0,4.28.75,13.435,13.435,0,0,1,3.97,1.03c2.44,1.2,3.22,4.27,3.8,6.73a70.747,70.747,0,0,0,2.63,8.62,7.964,7.964,0,0,0-3.84-.2,2.746,2.746,0,0,0-2.13,2.84,6.82,6.82,0,0,1,8.21,2.9,1.651,1.651,0,0,0-1.47,1.7,5.431,5.431,0,0,1,4.53,1.99,51.243,51.243,0,0,1,3.87,5.83c2.69,4.02,1.99,9.34,1.18,14.11.19-1.13,1.4-2.3,1.75-3.47a13.183,13.183,0,0,0,.5-5.15l.39,8.04Z" fill="#363c51" opacity="0.37"/>
        <g id="Group_709" data-name="Group 709">
          <g id="Group_701" data-name="Group 701" opacity="0.37">
            <path id="Path_1287" data-name="Path 1287" d="M368.87,290.78a6.325,6.325,0,0,1,1.36.56,9.193,9.193,0,0,1,1.28.81,12.476,12.476,0,0,1,1.3,1.14,10.58,10.58,0,0,1,1.87,2.64,6.746,6.746,0,0,1,.52,1.38s-.42-.42-.99-1.06-1.33-1.46-2.11-2.26-1.58-1.58-2.2-2.18-1.03-1.03-1.03-1.03Z" fill="#2d323f"/>
          </g>
          <g id="Group_702" data-name="Group 702" opacity="0.37">
            <path id="Path_1288" data-name="Path 1288" d="M363.01,312.41s.15-.01.4-.02a5.763,5.763,0,0,1,1.06.09,7.2,7.2,0,0,1,2.96,1.29c.24.18.46.37.68.57a5.717,5.717,0,0,1,.59.62,8.194,8.194,0,0,1,.84,1.23,6.6,6.6,0,0,0,.79,1.16,2.481,2.481,0,0,1-.38-.16,4.174,4.174,0,0,1-.86-.64c-.32-.3-.65-.65-1.03-.98a13.555,13.555,0,0,0-1.22-1,17.071,17.071,0,0,0-2.55-1.55c-.38-.18-.7-.33-.92-.44S363.01,312.41,363.01,312.41Z" fill="#2d323f"/>
          </g>
          <g id="Group_703" data-name="Group 703" opacity="0.37">
            <path id="Path_1289" data-name="Path 1289" d="M367.75,334.97a1.542,1.542,0,0,1,.18-1.08,2.633,2.633,0,0,1,.86-.97,3.723,3.723,0,0,1,1.6-.58,7.45,7.45,0,0,1,.95-.08c.37,0,.66.03,1.01.05a9.636,9.636,0,0,1,1.11.24,5.941,5.941,0,0,1,1.06.48,7.05,7.05,0,0,1,1.85,1.56,12.072,12.072,0,0,1,1.33,2.06,20.292,20.292,0,0,1,1.54,4.45c.36,1.45.54,2.82.82,3.95a9.373,9.373,0,0,0,.96,2.62,5.294,5.294,0,0,0,.63.87s-.08-.06-.22-.18a5.259,5.259,0,0,1-.57-.58,8.176,8.176,0,0,1-1.34-2.57c-.37-1.14-.72-2.48-1.13-3.88a24.344,24.344,0,0,0-1.58-4.23,10.807,10.807,0,0,0-1.18-1.9,6.528,6.528,0,0,0-1.56-1.42,6.316,6.316,0,0,0-.89-.47c-.3-.1-.59-.2-.9-.28-.32-.04-.69-.1-.95-.13a6.608,6.608,0,0,0-.89,0,4.025,4.025,0,0,0-1.47.34,2.414,2.414,0,0,0-.89.75,1.921,1.921,0,0,0-.31.7,1.441,1.441,0,0,0-.04.28Z" fill="#2d323f"/>
          </g>
          <g id="Group_704" data-name="Group 704" opacity="0.37">
            <path id="Path_1290" data-name="Path 1290" d="M379.05,337.63s-.1-.15-.26-.41a8.442,8.442,0,0,1-.55-1.15,9.669,9.669,0,0,1-.5-1.73,11.518,11.518,0,0,1-.19-2.06,11.4,11.4,0,0,1,.22-2.06,9.613,9.613,0,0,1,.52-1.73,8.08,8.08,0,0,1,.56-1.14c.16-.26.26-.4.26-.4s-.11.68-.27,1.69a25.339,25.339,0,0,0-.29,3.64c0,.66.02,1.32.06,1.94s.11,1.2.18,1.7l.25,1.7Z" fill="#2d323f"/>
          </g>
          <g id="Group_705" data-name="Group 705" opacity="0.37">
            <path id="Path_1291" data-name="Path 1291" d="M367,319.32a13.678,13.678,0,0,1,1.69,1.39,17.762,17.762,0,0,1,1.54,1.63,25.68,25.68,0,0,1,1.54,2.06,24.374,24.374,0,0,1,1.28,2.23,20.453,20.453,0,0,1,.88,2.06,12.853,12.853,0,0,1,.59,2.11s-.46-.75-1.11-1.86-1.54-2.57-2.47-3.99-1.92-2.82-2.68-3.86-1.26-1.76-1.26-1.76Z" fill="#2d323f"/>
          </g>
          <g id="Group_706" data-name="Group 706" opacity="0.37">
            <path id="Path_1292" data-name="Path 1292" d="M374.59,353.08a1.585,1.585,0,0,1-.36-.48,2.349,2.349,0,0,1-.18-1.63,3.061,3.061,0,0,1,1.36-1.96,3.956,3.956,0,0,1,1.27-.52,5.327,5.327,0,0,1,1.38-.11,7.155,7.155,0,0,1,2.56.65,4.134,4.134,0,0,1,1.78,1.51,3.723,3.723,0,0,1,.56,1.51,2.5,2.5,0,0,1,.02.6,4.332,4.332,0,0,0-.21-.54,4.444,4.444,0,0,0-.82-1.21,4.273,4.273,0,0,0-1.67-1.05,8.106,8.106,0,0,0-2.27-.46,5.383,5.383,0,0,0-1.14.06,3.5,3.5,0,0,0-1.02.34,2.817,2.817,0,0,0-1.26,1.37,2.407,2.407,0,0,0-.18,1.39,2.289,2.289,0,0,0,.18.55Z" fill="#2d323f"/>
          </g>
          <g id="Group_707" data-name="Group 707" opacity="0.37">
            <path id="Path_1293" data-name="Path 1293" d="M384.85,344.63a2.331,2.331,0,0,0-.66.34,3.3,3.3,0,0,0-.48.45,2.793,2.793,0,0,0-.4.59c-.08.15-.12.23-.18.35s-.11.24-.16.36c-.1.24-.19.48-.29.69a4.392,4.392,0,0,1-.36.72,2.609,2.609,0,0,1-.2-.8,3.36,3.36,0,0,1,0-.84,3,3,0,0,1,.11-.48,4.149,4.149,0,0,1,.2-.47,2.433,2.433,0,0,1,.72-.8,1.962,1.962,0,0,1,.86-.33,1.178,1.178,0,0,1,.84.2Z" fill="#2d323f"/>
          </g>
          <g id="Group_708" data-name="Group 708" opacity="0.37">
            <path id="Path_1294" data-name="Path 1294" d="M381.86,358.13s-.11-.14-.28-.4a3.725,3.725,0,0,1-.53-1.22,2.1,2.1,0,0,1,.58-1.98,1.692,1.692,0,0,1,1.26-.43,2.886,2.886,0,0,1,1.19.39,5.112,5.112,0,0,1,.48.33c.13.1.27.21.42.34a7.663,7.663,0,0,1,.75.76,6.911,6.911,0,0,1,1.02,1.56,5.644,5.644,0,0,1,.44,1.23,4.568,4.568,0,0,1,.09.48,15.513,15.513,0,0,0-1.02-1.4,13.153,13.153,0,0,0-1.17-1.26c-.22-.22-.48-.41-.72-.62a4.621,4.621,0,0,0-.4-.3c-.12-.09-.26-.17-.39-.25a1.26,1.26,0,0,0-1.38-.15,1.339,1.339,0,0,0-.42.56,2.037,2.037,0,0,0-.15.7,5.413,5.413,0,0,0,.14,1.2c.06.3.1.48.1.48Z" fill="#2d323f"/>
          </g>
        </g>
      </g>
      <path id="Path_1295" data-name="Path 1295" d="M415.14,321.87c.16-1.85,2.29-1.55,3.9-2.03a27.261,27.261,0,0,0,5.85-2.58,50.269,50.269,0,0,0,9.91-7.89c-.77-.76-7.25-11.92-7.48-11.61a24.483,24.483,0,0,1-10.22,8.27,3.847,3.847,0,0,1-2.82.37,3.3,3.3,0,0,1-1.73-2.19c-1.36-4.16-2.41-8.93-6.15-11.68a25.219,25.219,0,0,0-12.78-5c-8.39-.46-16.58,4.39-21.22,11.39-2.32,3.5-4.41,8.24-3.83,12.52a31.075,31.075,0,0,0,5.22,13.12c2.87,4.09,7.18,7.33,12.11,8.14a13.46,13.46,0,0,1,3.41.73c2.23,1.02,2.99,4.75,4.55,6.57.52.61,1.39,1.17,2.07.74a1.8,1.8,0,0,0,.59-.79c.5-1.03.91-2.1,1.34-3.15,1.26.94,2.23,2.89,4.14,2.62a7.378,7.378,0,0,0,1.55-.56,5.61,5.61,0,0,1,3.46-.2c.72.19,1.41.52,2.14.64,2.05.31,3.11-1.65,3.65-3.3a60.139,60.139,0,0,0,2.34-14.13Z" fill="#915757"/>
      <path id="Path_1296" data-name="Path 1296" d="M415.14,322.03c.16-1.85,2.29-1.55,3.9-2.03a27.261,27.261,0,0,0,5.85-2.58,49.907,49.907,0,0,0,9.91-7.89c-.77-.76-7.25-11.92-7.48-11.61a35.884,35.884,0,0,1-5.57,6.05,5.6,5.6,0,0,1,.03,5.47,12.158,12.158,0,0,1-3.87,4.14c-1.54,1.13-3.4,2.16-5.27,1.76a14.329,14.329,0,0,0,4.34-3.13,6.541,6.541,0,0,1-4.36.31c2.93-.63,6.16-1.46,7.79-3.97a9.754,9.754,0,0,1-3.96,1.01,20.5,20.5,0,0,0,2.63-4.62c-1.07.96-3.33,2.19-4.8,1.62-1.4-.54-1.9-2.4-2.32-3.68.27.8-1.78,2.91-2.29,3.41a2.391,2.391,0,0,1-3.17.68c-2.64-1.04-4.71-3.17-7.39-4.15-3.11-1.14-6.58-.64-9.78.23a45.581,45.581,0,0,0-9.04,3.53,15.809,15.809,0,0,0-5.31,4.01,3.4,3.4,0,0,0-.89,2.66,4.163,4.163,0,0,0,.67,1.35c1.99,2.98,4.31,6.2,7.8,7a16.686,16.686,0,0,1-4.99-6.69c1.46,2.04,2.98,4.14,5.12,5.43a27.969,27.969,0,0,0,5.69,2.13,26.328,26.328,0,0,1,10.16,6.29,17.376,17.376,0,0,0-11.95-7.83,19.8,19.8,0,0,0,15.28-1.38,32.88,32.88,0,0,1-9.01.45,11.112,11.112,0,0,1-7.72-4.22,11.232,11.232,0,0,0,10.19,2.43,18.239,18.239,0,0,1-6.26-3.71,9.648,9.648,0,0,1,3.39,1.06,10.426,10.426,0,0,1-2.38-6.39,2.6,2.6,0,0,1,.42-1.71,2.553,2.553,0,0,1,1.25-.73,8.349,8.349,0,0,1,8.08,1.91c3.44,3.3,1.94,8.56,5.9,11.59a12.607,12.607,0,0,0,7.25,2.34,34.991,34.991,0,0,1-.68,12.65c-.35,1.57-1.14,3.43-2.75,3.58-1.13.11-2.16-.71-3.29-.77-1.74-.09-3.26,1.63-4.97,1.3-1.93-.38-2.5-2.98-4.19-3.99a54.735,54.735,0,0,0-2.23,5.76c.96-.14,3.79-3.55,3-4.14,1.26.94,2.23,2.89,4.14,2.62a7.378,7.378,0,0,0,1.55-.56,5.61,5.61,0,0,1,3.46-.2,20.866,20.866,0,0,0,2.14.63c2.05.31,3.11-1.65,3.65-3.3a60.139,60.139,0,0,0,2.34-14.13Z" fill="#915757" opacity="0.29"/>
      <path id="Path_1297" data-name="Path 1297" d="M408.79,309.72a8.237,8.237,0,0,0,10.19-.13,10.839,10.839,0,0,1-7.54.53,6.148,6.148,0,0,0,4.55-1.54c1.43-1.06,1.86-2.41,2.84-3.77a2.571,2.571,0,0,1-3.69.16,8.319,8.319,0,0,1-1.99-3.74c-1.45-4.15-2.65-7.85-6.08-10.86a20.165,20.165,0,0,0-11.92-4.93c-9.06-.58-19.03,4.56-23.71,12.24a27.434,27.434,0,0,0-3.49,7.82c-1.04,4.44,0,9.62,1.71,13.81a15.69,15.69,0,0,0,4.72,6.52,8,8,0,0,1,.16-3.5,28.288,28.288,0,0,0-.45-8.55,11.639,11.639,0,0,0,7.19,7.42,13.869,13.869,0,0,1-4.43-6.06c1.89,1.89,3.66,4.12,5.96,5.52,2.42,1.48,5.27,2.06,7.94,3.01s5.38,2.43,6.64,4.97a8.572,8.572,0,0,0-4.41-4.67,45.587,45.587,0,0,0-6.17-2.29,12.214,12.214,0,0,1-7.85-7.52,21.851,21.851,0,0,0,4,4.47,14.281,14.281,0,0,0,10.52,2.71,45.2,45.2,0,0,0,7.63-1.95,28.288,28.288,0,0,1-7.82.98,12.275,12.275,0,0,1-11.15-7.28c2.16,1.95,4.49,3.91,7.32,4.57a11.332,11.332,0,0,1,3.59,1.01,25.109,25.109,0,0,1-4.76-4.02c2.56,2.15,6.31,2.21,9.13,3.99-1.91-1.06-4.29-2.65-5.17-4.74a2.926,2.926,0,0,1-.21-.78c-.21-2.12,3.9-2.78,5.57-1.94a8.537,8.537,0,0,1,3.56,2.9c.89,1.32,1.52,2.81,2.45,4.11a10.4,10.4,0,0,0,8.73,4.23,12.5,12.5,0,0,1-8.3-5.28,10.349,10.349,0,0,0,10.85,1.89,19.47,19.47,0,0,0,4.95-3.4,11.076,11.076,0,0,1-13.14-1.06,5.375,5.375,0,0,1-1.58-2.23,6.085,6.085,0,0,0,4.12,2.08,15.523,15.523,0,0,0,4.7-.37,11.7,11.7,0,0,1-6.88-1.21,8.544,8.544,0,0,0,6.05-.64c-1.6,1.04-3.53-1.33-4.29-2.48Z" fill="#363c51"/>
      <path id="Path_1298" data-name="Path 1298" d="M408.79,309.72a8.237,8.237,0,0,0,10.19-.13,10.839,10.839,0,0,1-7.54.53,6.148,6.148,0,0,0,4.55-1.54c1.43-1.06,1.86-2.41,2.84-3.77a2.571,2.571,0,0,1-3.69.16,8.319,8.319,0,0,1-1.99-3.74c-1.9-5.41-4.24-10-9.25-13.13a16.561,16.561,0,0,0-3.53-1.68c-1.13-.38-2.4-.34-3.5-.7a9.093,9.093,0,0,1,6.1,10.29,20.24,20.24,0,0,0-14.27-3.68,19.249,19.249,0,0,0-5.51,1.24,13.243,13.243,0,0,0-7.82,15.56,16.592,16.592,0,0,0,1.44,3.52,13.811,13.811,0,0,1,1.3,2.25c-.04-1.37-.09-2.75-.13-4.12a14.782,14.782,0,0,0,7.99,8.13,13.724,13.724,0,0,1-4.13-7.01,37.733,37.733,0,0,0,7.78,4.51,4.883,4.883,0,0,1-1.49-2.91,8.064,8.064,0,0,0,4.47,2.03c-1.37-.17.15-3.83.89-4.27a4.543,4.543,0,0,1,4.08-.05,8.537,8.537,0,0,1,3.56,2.9c.89,1.32,1.52,2.81,2.45,4.11a10.4,10.4,0,0,0,8.73,4.23,12.5,12.5,0,0,1-8.3-5.28,10.349,10.349,0,0,0,10.85,1.89,19.47,19.47,0,0,0,4.95-3.4,11.076,11.076,0,0,1-13.14-1.06,5.375,5.375,0,0,1-1.58-2.23,6.085,6.085,0,0,0,4.12,2.08,15.523,15.523,0,0,0,4.7-.37,11.7,11.7,0,0,1-6.88-1.21,8.544,8.544,0,0,0,6.05-.64c-1.6,1.04-3.53-1.33-4.29-2.48Z" fill="#363c51" opacity="0.24"/>
      <g id="Group_712" data-name="Group 712">
        <path id="Path_1299" data-name="Path 1299" d="M400.35,339.16s.05-.09.13-.25.19-.34.31-.61a11.651,11.651,0,0,0,.73-2,11.983,11.983,0,0,0,.36-2.16c.04-.6.04-1.02.04-1.02a12.671,12.671,0,0,1,.6,3.27,12.517,12.517,0,0,1-.1,2.36c-.04.31-.1.62-.13.79s-.05.28-.05.28l-1.88-.67Z" fill="#63354f"/>
        <path id="Path_1300" data-name="Path 1300" d="M390.27,330.45a3.9,3.9,0,0,0-2.44-1.52c-.44,0-.86.19-.88.7-.02.72,1.01,1.16,1.57,1.35a2.519,2.519,0,0,0,1.11.18c.66-.1.79-.38.64-.71Z"/>
        <path id="Path_1301" data-name="Path 1301" d="M386.35,325.02s-.17.05-.47.12a8.009,8.009,0,0,0-1.16.43,5.392,5.392,0,0,0-1.36.91,4.8,4.8,0,0,0-.58.71,3.1,3.1,0,0,0-.37.78,2.213,2.213,0,0,0-.11.84,2.655,2.655,0,0,0,.16.83,3.638,3.638,0,0,0,.39.73,4.187,4.187,0,0,0,.5.6,5.934,5.934,0,0,0,.95.77c.26.16.41.25.41.25s-.17-.02-.49-.07a3.963,3.963,0,0,1-1.23-.51,3.639,3.639,0,0,1-1.33-1.43,3.162,3.162,0,0,1-.32-1.12,3.308,3.308,0,0,1,.12-1.21c.07-.19.15-.37.24-.56.11-.17.22-.37.33-.52a4.06,4.06,0,0,1,.77-.78,4.224,4.224,0,0,1,1.75-.79,4.558,4.558,0,0,1,1.32-.08,4.01,4.01,0,0,1,.49.07Z" fill="#2d323f"/>
        <path id="Path_1302" data-name="Path 1302" d="M392.41,314.72a5.384,5.384,0,0,1-1.54-2.79,4.069,4.069,0,0,1,2.41-4.12,5.368,5.368,0,0,1,4.9.47,7.986,7.986,0,0,1,3.1,3.97,16.187,16.187,0,0,1,.9,5.03,2.045,2.045,0,0,1-.15,1.07.741.741,0,0,1-.91.38" fill="#915757"/>
        <g id="Group_711" data-name="Group 711" opacity="0.46">
          <path id="Path_1303" data-name="Path 1303" d="M396.46,310.45a.965.965,0,0,0-.66-.37,1.259,1.259,0,0,0-.8.15,1.319,1.319,0,0,0-.56.81,2.051,2.051,0,0,0,.09,1.19,4.381,4.381,0,0,0,.77,1.21,10.048,10.048,0,0,0,1.13,1.13,7.262,7.262,0,0,0,1.35.91,3.259,3.259,0,0,0,1.31.45c.05-.02.02.01.05-.03a.444.444,0,0,0,.07-.2,2.6,2.6,0,0,0,.03-.35,1.941,1.941,0,0,0-.02-.34,2.476,2.476,0,0,0-.54-1.21,2.023,2.023,0,0,0-.45-.4.9.9,0,0,0-.48-.18.85.85,0,0,0-.72.51,1.5,1.5,0,0,0-.17.82,1.427,1.427,0,0,0,.26.73,1.344,1.344,0,0,1-.45-.69,1.668,1.668,0,0,1,.01-.99,1.27,1.27,0,0,1,1.02-.94,1.629,1.629,0,0,1,.82.16,2.67,2.67,0,0,1,.7.49,3.078,3.078,0,0,1,.87,1.57,3.936,3.936,0,0,1,.06.48,3.473,3.473,0,0,1-.02.48,1.3,1.3,0,0,1-.19.6,1.02,1.02,0,0,1-.64.45,1.976,1.976,0,0,1-1.13-.13,5.545,5.545,0,0,1-.87-.37,7.542,7.542,0,0,1-1.52-1.07,9.158,9.158,0,0,1-1.19-1.32,4.554,4.554,0,0,1-.79-1.53,2.42,2.42,0,0,1,.08-1.6,1.634,1.634,0,0,1,.95-.96,1.477,1.477,0,0,1,1,0,1.045,1.045,0,0,1,.5.37c.09.11.1.19.11.18Z" fill="#63354f"/>
        </g>
      </g>
    </g>
    <g id="Group_723" data-name="Group 723">
      <path id="Path_1304" data-name="Path 1304" d="M422.3,299.47c.55-5.07,2.98-10.37,5.44-14.23,3.52-5.54,8.27-10.19,13.25-14.47a232.818,232.818,0,0,1,60.03-37.37c-1.2.51,2.73,10.36,3.03,11.43a53.509,53.509,0,0,1,2.11,11.63c.25,4.67-.91,5.45-4.7,7.7-6.3,3.75-12.14,8.29-18.31,12.3-8.95,5.8-18.74,11.72-23.04,21.48-3.15,7.15-5.17,14.77-12.48,18.94a15.1,15.1,0,0,1-13.02,1.14c-5.2-2.16-10.5-7.12-11.96-12.74a15.951,15.951,0,0,1-.33-5.79Z" fill="#915757"/>
      <path id="Path_1305" data-name="Path 1305" d="M434.27,287.89a4.072,4.072,0,0,0-1.27.34,15.313,15.313,0,0,0-5.56,4.74,21.093,21.093,0,0,0-3.87,12.88c-.74-3.39-1.51-6.41-.63-9.87a37.579,37.579,0,0,1,4.8-10.79c3.52-5.54,8.27-10.19,13.25-14.47q4.9-4.23,10.05-8.16c1.49-1.14,2.65-2.55,4.4-3.31a1.256,1.256,0,0,1,.65-.14,1.317,1.317,0,0,1,.69.4c2.76,2.42,5.4,5,8.22,7.34,1.73,1.43,1.69.8,3.33-.51,1.37-1.09,2.78-2.14,4.2-3.16a139.268,139.268,0,0,1,15.06-9.08c.79-.43,2.21-.75,2.26-1.78.12-2.56.26-5.13.48-7.68.13-1.52-.09-5.92,1.08-7.01a2.734,2.734,0,0,1,.66-.39c2.64-1.2,5.29-2.35,7.96-3.47.24-.1.55-.18.71.01a.617.617,0,0,1,.1.4c.18,3.68,2.21,7.1,3.2,10.59a53.509,53.509,0,0,1,2.11,11.63c.25,4.67-.91,5.45-4.7,7.7-6.3,3.75-12.14,8.29-18.31,12.3-8.95,5.8-18.74,11.72-23.04,21.48-1.29,2.92-2.93,5.38-4.05,8.4-2.21-2.33-5.01-3.94-7.64-5.7-3.4-2.25-7.18-2-11.03-2.03a23.6,23.6,0,0,0,1.82-4.49,6.432,6.432,0,0,0,.19-3.85c-.64-1.86-3.34-2.48-5.12-2.31Z" fill="#915757" opacity="0.22"/>
      <g id="Group_720" data-name="Group 720">
        <g id="Group_714" data-name="Group 714">
          <path id="Path_1306" data-name="Path 1306" d="M472.48,284.46a61.76,61.76,0,0,0-20.13-24.01c-12.17,7.54-24.73,19.12-29.58,32.95a19.58,19.58,0,0,0-.08,12.09,24.011,24.011,0,0,0,2.55,6.02c1.13,1.9,2.9,3.34,4.03,5.17-3.98-6.43-7.27-13.31-5.29-21.07,1.36-5.34,5.75-9.81,10.51-12.36a20.535,20.535,0,0,1,7.33-2.51,10.909,10.909,0,0,1,7.44,1.68c5.8,4.08,4.94,13.04,3.32,19.03a1.7,1.7,0,0,0-.09.8,1.627,1.627,0,0,0,.45.71c1.37,1.51,2.74,3.03,4.11,4.54a48.847,48.847,0,0,1,6.93-13.32c2.5-3.37,5.26-6.8,8.71-9.26-.07-.15-.14-.31-.21-.46Z" fill="#82a3a3"/>
          <path id="Path_1307" data-name="Path 1307" d="M472.48,284.46a65.107,65.107,0,0,0-7.63-12.34,13.517,13.517,0,0,1-10.7,7.26,5.773,5.773,0,0,1,.74,3.79,17.924,17.924,0,0,0-6.95-2.17c6.47,5.22,6.7,12.82,4.64,20.44a1.833,1.833,0,0,0-.09.8,1.627,1.627,0,0,0,.45.71c1.37,1.51,2.74,3.03,4.11,4.54a48.847,48.847,0,0,1,6.93-13.32c2.5-3.37,5.26-6.8,8.71-9.26-.07-.15-.14-.31-.21-.46Z" fill="#82a3a3" opacity="0.51"/>
          <path id="Path_1308" data-name="Path 1308" d="M446.04,265.35a17.394,17.394,0,0,1,4.34,2.28,32.512,32.512,0,0,1,5.31,4.33,55.483,55.483,0,0,1,8.28,10.81,14.2,14.2,0,0,1,2.21,9.45c.17-1.01,2.12-2.63,2.84-3.33,1.17-1.14,2.41-2.24,3.61-3.35a.941.941,0,0,0,.34-.5.888.888,0,0,0-.14-.52,70.082,70.082,0,0,0-8.99-13.55,58,58,0,0,0-8.82-8.48c-.59-.45-1.17-.91-1.76-1.35-.7-.53-.72-.67-1.47-.4a18.757,18.757,0,0,0-3.5,2.28c-1.15.78-2.28,1.58-3.38,2.43a1.4,1.4,0,0,1,1.15-.1Z" fill="#627f7e" opacity="0.45"/>
        </g>
        <g id="Group_719" data-name="Group 719">
          <path id="Path_1309" data-name="Path 1309" d="M422.89,304.28s-.03-.15-.07-.42-.14-.67-.18-1.19c-.07-.52-.11-1.15-.14-1.88a23.1,23.1,0,0,1,.05-2.45,24,24,0,0,1,2.63-9.23,28.881,28.881,0,0,1,1.9-3.07,28.007,28.007,0,0,1,2.36-2.73,25.3,25.3,0,0,1,2.65-2.27,24.826,24.826,0,0,1,5.37-2.99,20.424,20.424,0,0,1,2.32-.78c.71-.18,1.32-.33,1.84-.42.51-.11.92-.14,1.19-.19l.42-.06s-.58.14-1.57.43c-.5.14-1.09.34-1.77.59s-1.41.58-2.21.94a26.075,26.075,0,0,0-2.49,1.36,30.417,30.417,0,0,0-2.58,1.81,25.617,25.617,0,0,0-4.74,4.89,26.623,26.623,0,0,0-4.78,11.76c-.11.87-.19,1.68-.24,2.39-.03.72-.05,1.34-.03,1.86.01,1.04.06,1.63.06,1.63Z" fill="#627f7e"/>
          <g id="Group_715" data-name="Group 715" opacity="0.52">
            <path id="Path_1310" data-name="Path 1310" d="M434.69,281.61s.11-.07.31-.19.5-.31.9-.52a19.393,19.393,0,0,1,3.42-1.46,17.122,17.122,0,0,1,5.24-.8,13.949,13.949,0,0,1,3.02.38c.48.14.96.25,1.46.43a14.882,14.882,0,0,1,1.48.62,10.444,10.444,0,0,1,1.36.82l.64.47.58.53a8.793,8.793,0,0,1,1.04,1.16,13.656,13.656,0,0,1,.82,1.27,11.6,11.6,0,0,1,1.06,2.63,17.611,17.611,0,0,1,.5,2.46,24.824,24.824,0,0,1,.16,3.71c-.03.89-.08,1.4-.08,1.4s-.04-.51-.12-1.39c-.04-.44-.09-.98-.18-1.59s-.2-1.3-.34-2.03a15.123,15.123,0,0,0-.64-2.33,10.313,10.313,0,0,0-.5-1.21,10.611,10.611,0,0,0-.63-1.2c-.23-.4-.52-.76-.79-1.14a13.437,13.437,0,0,0-.97-1.03l-.53-.48-.59-.42a9.781,9.781,0,0,0-1.25-.74,12.882,12.882,0,0,0-1.32-.58c-.45-.17-.96-.29-1.43-.44a14.712,14.712,0,0,0-2.79-.43,17.487,17.487,0,0,0-5.06.46,25.364,25.364,0,0,0-3.48,1.09c-.83.32-1.29.54-1.29.54Z" fill="#627f7e"/>
          </g>
          <g id="Group_716" data-name="Group 716" opacity="0.52">
            <path id="Path_1311" data-name="Path 1311" d="M454.97,289.52a11.062,11.062,0,0,1,.48,1.88,18.8,18.8,0,0,1,.25,1.97,21.368,21.368,0,0,1,.02,2.27,18.784,18.784,0,0,1-.71,4.19,12.249,12.249,0,0,1-.68,1.81s.03-.78.12-1.92.2-2.64.28-4.14.13-3,.16-4.14.09-1.92.09-1.92Z" fill="#627f7e"/>
          </g>
          <g id="Group_717" data-name="Group 717" opacity="0.52">
            <path id="Path_1312" data-name="Path 1312" d="M449.72,264.9s.38.22,1.04.61c.33.2.72.44,1.17.75s.96.62,1.48,1.04a39.241,39.241,0,0,1,3.48,2.89c.6.57,1.22,1.16,1.81,1.81.6.63,1.18,1.3,1.75,1.98s1.1,1.39,1.61,2.09.98,1.42,1.43,2.12a39.744,39.744,0,0,1,2.17,3.97,16.876,16.876,0,0,1,.73,1.65c.2.5.38.93.51,1.29.26.73.4,1.14.4,1.14s-.21-.39-.58-1.06c-.35-.68-.9-1.63-1.57-2.75-.65-1.14-1.49-2.41-2.41-3.75-.46-.67-.96-1.35-1.47-2.03s-1.05-1.36-1.6-2.03-1.11-1.33-1.69-1.96-1.15-1.25-1.71-1.83c-1.15-1.15-2.23-2.23-3.22-3.08s-1.8-1.59-2.41-2.06c-.59-.49-.93-.77-.93-.77Z" fill="#627f7e"/>
          </g>
          <g id="Group_718" data-name="Group 718" opacity="0.52">
            <path id="Path_1313" data-name="Path 1313" d="M463.32,274.58a16.13,16.13,0,0,1,1.41,1.33,22.112,22.112,0,0,1,2.64,3.34,18.949,18.949,0,0,1,1.09,2.02,11.191,11.191,0,0,1,.68,1.89,8.9,8.9,0,0,1,.28,1.39c.04.34.05.53.05.53s-.34-.69-.86-1.72c-.52-1.01-1.27-2.31-2.08-3.57s-1.64-2.54-2.25-3.52-.95-1.68-.95-1.68Z" fill="#627f7e"/>
          </g>
        </g>
      </g>
      <g id="Group_722" data-name="Group 722">
        <path id="Path_1314" data-name="Path 1314" d="M496.58,323.11c2.62,19.09-1.92,38.57-6.49,57.06a8.213,8.213,0,0,1-1.33,3.26c-1.43,1.79-4.43,1.22-6.45,1.26-4.42.1-8.57-.19-12.9-.48a31.231,31.231,0,0,0-8.61.86,56.235,56.235,0,0,1-5.9,1.11c-.39.04-.99-.17-.81-.53,1.64-.82,3.23-1.74,4.86-2.58-1.86.46-3.63,1.22-5.46,1.77a13.73,13.73,0,0,1-4.12.68c-.12,0-2.87-.75-2.12-.98.68-.2,1.35-.41,2.03-.62-.77.3-2.07.23-1.95-.59,7.81-1.11,14.56-6.43,22.38-7.43a42.913,42.913,0,0,1,7.17-.09l6.05.27c1.46.07-.11-19.52-.23-21.26q-.465-6.54-1.1-13.07c-.11-1.1-.66-11.49-1.25-11.68-11.18-3.53-22.49-6.96-34.13-8.63-6.58-.94-17.05-1.5-19.07-9.68-1.16-4.69,1.33-9.11,5.07-11.82,4.27-3.1,9.14-3.65,14.32-2.16,4.7,1.36,8.86,4.45,13.51,6.14,4.8,1.74,9.74,3.03,14.6,4.55a78.686,78.686,0,0,1,11.42,4.34,35.451,35.451,0,0,1,5.36,3.14,20.9,20.9,0,0,1,4.11,3.4,5.585,5.585,0,0,1,.87,2.56c.06.39.12.79.17,1.19Z" fill="#915757"/>
        <path id="Path_1315" data-name="Path 1315" d="M496.58,323.11c2.62,19.09-1.92,38.57-6.49,57.06a8.213,8.213,0,0,1-1.33,3.26c-1.43,1.79-4.43,1.22-6.45,1.26-4.42.1-8.57-.19-12.9-.48a31.231,31.231,0,0,0-8.61.86,56.235,56.235,0,0,1-5.9,1.11c-.39.04-.99-.17-.81-.53,1.64-.82,3.23-1.74,4.86-2.58-1.86.46-3.63,1.22-5.46,1.77a13.73,13.73,0,0,1-4.12.68c-.12,0-2.87-.75-2.12-.98.68-.2,1.35-.41,2.03-.62-.77.3-2.07.23-1.95-.59.03-.21,4.18-.53,4.61-.62a36.029,36.029,0,0,0,3.83-1.2c2.88-.97,5.76-2.13,8.82-2.38-4.58,2.15-9.66,3.22-14.49,4.63a2.855,2.855,0,0,0-1.26.61c1.79.45,3.66-.14,5.43-.68,2.5-.77,5.04-1.45,7.59-2.04a7.331,7.331,0,0,1,2.9-.26,21.819,21.819,0,0,0-8.71,3.44,2.6,2.6,0,0,0,1.95-.08,51.873,51.873,0,0,1,14.42-2.62c4.03-.06,8.12.58,12.06-.28a4.846,4.846,0,0,0,1.98-.8c1.71-1.29,1.26-5.09,1.37-6.98.16-2.74.25-5.49.31-8.24.11-5.36.06-10.72.08-16.09.01-5.19.08-10.39.39-15.58.24-4.07,1.92-8.76-2.78-10.67-6.08-2.47-12.58-3.72-18.86-5.62a28.468,28.468,0,0,1-14-8.83c-2.04-2.45-3.9-5.1-6.41-7.06a15.908,15.908,0,0,0-5.17-2.67c-.72-.22-3.53-1.58-4.13-1.4a15.328,15.328,0,0,1,9.31-.13c4.7,1.36,8.86,4.45,13.51,6.14,4.8,1.74,9.74,3.03,14.6,4.55a78.686,78.686,0,0,1,11.42,4.34,35.451,35.451,0,0,1,5.36,3.14,20.9,20.9,0,0,1,4.11,3.4,5.585,5.585,0,0,1,.87,2.56c.06.39.12.79.17,1.19Z" fill="#915757" opacity="0.37"/>
        <g id="Group_721" data-name="Group 721" opacity="0.33">
          <path id="Path_1316" data-name="Path 1316" d="M442.35,297.15s.26-.06.72-.14a9.521,9.521,0,0,1,1.92-.1,9.827,9.827,0,0,1,1.28.1,10.814,10.814,0,0,1,1.41.26,16.145,16.145,0,0,1,2.95.97,18.011,18.011,0,0,1,2.72,1.46,17.67,17.67,0,0,1,2.15,1.6c.3.25.56.5.79.73s.43.44.57.59a.748.748,0,0,0,.38.25.278.278,0,0,0,.17-.03s-.02.07-.15.14a.814.814,0,0,1-.6,0c-.25-.09-.49-.17-.79-.29s-.63-.24-.98-.39c-.71-.29-1.52-.65-2.38-1.03s-1.76-.77-2.68-1.17c-.45-.21-.91-.38-1.35-.58-.45-.18-.89-.37-1.32-.54-.86-.34-1.68-.65-2.39-.91s-1.32-.47-1.74-.62c-.44-.15-.68-.26-.68-.26Z" fill="#915757"/>
        </g>
      </g>
    </g>
    <g id="Group_727" data-name="Group 727">
      <g id="Group_724" data-name="Group 724">
        <path id="Path_1317" data-name="Path 1317" d="M543.02,302.57c1.32-.46,2.64.65,3.52,1.73,4.4,5.38,5.12,11.31,5.96,17.93.05.39.05.89-.31,1.06a.968.968,0,0,1-.65-.01c-5.57-1.46-10.71-3.61-16.1-5.58-.85-.31-10.13-2.38-10.13-2.39-.16-4.41,1.78-9.59,3.69-13.48-.15.3,5.86,1.56,6.35,1.62a17.844,17.844,0,0,0,7.67-.87Z" fill="#915757"/>
        <path id="Path_1318" data-name="Path 1318" d="M543.02,302.57c1.32-.46,2.64.65,3.52,1.73,4.4,5.38,5.12,11.31,5.96,17.93.05.39.05.89-.31,1.06a.968.968,0,0,1-.65-.01c-2.77-.73-5.23-2.03-7.98-2.76a4.71,4.71,0,0,0-.27-3.54,19.775,19.775,0,0,0-5.35-7.7,24.273,24.273,0,0,1-2.18,8.34,36.649,36.649,0,0,1-10.45-2.32c-.16-4.41,1.78-9.59,3.69-13.48-.15.3,5.86,1.56,6.35,1.62a17.844,17.844,0,0,0,7.67-.87Z" fill="#915757" opacity="0.16"/>
        <path id="Path_1319" data-name="Path 1319" d="M539.83,302.75a1.178,1.178,0,0,0-.61-.21.775.775,0,0,0-.61.86,2.179,2.179,0,0,0,.5,1.05c1.41,1.97,2.99,3.89,4.3,5.92,2.07,3.2,4.95,6.76,2.76,10.68a2.652,2.652,0,0,0-.54,1.47c.05.53.75.98,1.12.59a2.269,2.269,0,0,0,.18-.25c.39-.49,1.16-.28,1.74-.05a54.93,54.93,0,0,0,17,3.5c4.24.27,8.87,1.03,11.66,4.25a5.008,5.008,0,0,0,2,1.78,2.658,2.658,0,0,0,3.03-1.7,6.94,6.94,0,0,0,.16-3.76c-.71-4.58-1.55-9.19-5.31-12.2-3.22-2.58-7.52-3.47-11.51-3.98a6.183,6.183,0,0,1-3-.92,5.746,5.746,0,0,1-1.41-1.89c-1.91-3.47-3.89-7.22-6.97-9.82a6.955,6.955,0,0,0-3.83-1.77c-2.28-.18-3.24,1.17-4.71,2.62a22.269,22.269,0,0,1-4.9,3.85.836.836,0,0,1-1.05-.03Z" fill="#b5a555"/>
        <path id="Path_1320" data-name="Path 1320" d="M545.78,298.93c-1.47,1.45-4.03,2.62-5.11,4.32a21.95,21.95,0,0,1,8.68,18.76c1.88-2.71,1.71-6.43.45-9.49s-3.44-5.61-5.51-8.19a1.646,1.646,0,0,1-.47-.97,1.484,1.484,0,0,1,.5-.95,6.449,6.449,0,0,1,8.35-.5c3.27,2.63,3.37,8.04,6.86,10.38,2.48,1.67,5.76,1.17,8.72,1.57a14.043,14.043,0,0,1,9.61,5.95c2.31,3.4,2.31,6.72,2.07,10.61-.1,1.58.4,2.57,1.86.8.98-1.19.93-2.9.71-4.34-.71-4.58-1.55-9.19-5.31-12.2-3.22-2.58-7.52-3.47-11.51-3.98a6.183,6.183,0,0,1-3-.92,5.746,5.746,0,0,1-1.41-1.89c-1.91-3.47-3.89-7.22-6.97-9.82a6.955,6.955,0,0,0-3.83-1.77c-2.28-.18-3.24,1.17-4.71,2.62Z" fill="#b5a555" opacity="0.26"/>
      </g>
      <g id="Group_726" data-name="Group 726">
        <path id="Path_1321" data-name="Path 1321" d="M461.17,285.32c1.08-1.13,2.21-2.22,3.33-3.3a154.739,154.739,0,0,1,20.39-16.13c1.77-1.21,3.55-2.39,5.33-3.58.32-.21,4.29-2.44,4.21-2.71-2.33-7.46-1.51-15.65.48-23.1a2.706,2.706,0,0,1,.44-1.03,2.853,2.853,0,0,1,1.12-.74c3.51-1.59,6.99-3.15,10.58-4.55,4.37-1.71,9.13-3.43,13.82-3.94,8.3-.91,17.64.63,23.43,7.16,4.88,5.51,5.85,13.73,4.02,20.68a33.918,33.918,0,0,1-10.98,16.73,76.323,76.323,0,0,1-12.49,8.3c-7.14,4.03-14.41,7.82-21.68,11.61,7.8.15,13.38,4.74,20.24,7.52,2.66,1.08,5.33,2.14,7.98,3.26.55.23,4.57,1.5,4.61,2.23a25.513,25.513,0,0,1-.69,7.44c-.14.57-1.7,6.23-2.64,6.07-15.64-2.73-32.1-2.89-47.92-2.04-9.68.52-29.53.14-30.64-13.34-.52-6.33,2.86-12.15,7.07-16.55Z" fill="#cdceaa"/>
        <path id="Path_1322" data-name="Path 1322" d="M533.78,309.14a1.954,1.954,0,0,0-1.15-2.61q-4.53-2.67-9.15-5.16c-9.3-5.01-19.74-9.61-30.11-7.61a34.94,34.94,0,0,0-10.89,4.36,6.464,6.464,0,0,1,1.59-3.65q-4.995,3.06-9.98,6.12a1.367,1.367,0,0,1-.85.29c-.79-.08-.83-1.24-.55-1.99a11.189,11.189,0,0,1,3.77-5c-1.87.51-3.74,1.03-5.61,1.54,2.11-6.23,7.36-10.91,13.01-14.28,6.8-4.06,14.37-6.62,21.71-9.59a124.928,124.928,0,0,0,29.47-16.4c3.22-2.49,6.43-5.38,7.64-9.26a17.025,17.025,0,0,0,.65-4.2c.22-4.19-.38-8.76-3.31-11.76.74.76,2.13,1.22,2.99,1.93a10.429,10.429,0,0,1,2.07,2.43,21.787,21.787,0,0,1,3.22,6.13,25.324,25.324,0,0,1,.12,13.68,33.918,33.918,0,0,1-10.98,16.73,76.323,76.323,0,0,1-12.49,8.3c-7.14,4.03-14.41,7.82-21.68,11.61,7.8.15,13.38,4.74,20.24,7.52,2.66,1.08,5.33,2.14,7.98,3.26.55.23,4.57,1.5,4.61,2.23a25.513,25.513,0,0,1-.69,7.44c-.47,1.94-1.03,4.7-2.56,6.1a2.188,2.188,0,0,0-.84-.11c1.13-2.39,1.29-5.44,1.78-8.02Z" fill="#cdceaa" opacity="0.59"/>
        <path id="Path_1323" data-name="Path 1323" d="M524.49,241.63a4.653,4.653,0,0,1,2.1.08,218.411,218.411,0,0,0-30.6,16.69c-.37.24-.88.94-1.38.82a.613.613,0,0,1-.17-.07,1.573,1.573,0,0,1-.54-.94c-2.13-7.74-.08-16.79,3.74-23.68q-.36,6.555-.71,13.11a.587.587,0,0,0,.15.52.571.571,0,0,0,.41.04c3.52-.69,5.26-4.72,7.17-7.3a32.461,32.461,0,0,1,8.43-7.93c.43-.28,1.13-.47,1.33,0a.886.886,0,0,1-.13.73c-.95,1.93-1.98,3.82-3.07,5.68,1.37-2.32,5.12-3.1,7.56-3.39a1.425,1.425,0,0,1,.65.02.886.886,0,0,1,.12,1.56c3.35-1.6,9-2.57,12.43-.69.12.07.26.16.27.3.01.17-.15.29-.29.37-1.31.78-2.68,1.44-4.02,2.16-1.02.55-2.33,1.73-3.44,1.94Z" fill="#cdceaa" opacity="0.42"/>
        <g id="Group_725" data-name="Group 725">
          <path id="Path_1324" data-name="Path 1324" d="M496.36,254.64s-.09-.31-.23-.85c-.12-.54-.32-1.32-.45-2.27a28.792,28.792,0,0,1-.32-3.26,36.7,36.7,0,0,1,.07-3.76c.07-.64.12-1.28.22-1.9.07-.63.21-1.24.31-1.83a30.582,30.582,0,0,1,.83-3.17c.29-.92.6-1.65.81-2.17s.36-.8.36-.8-.05.32-.17.86-.27,1.32-.44,2.25c-.08.47-.17.97-.26,1.5s-.16,1.1-.26,1.68c-.15,1.17-.3,2.41-.4,3.66s-.16,2.5-.19,3.68c-.01,1.18-.02,2.28,0,3.22s.04,1.73.08,2.29.03.88.03.88Z" fill="#b5a555"/>
          <path id="Path_1325" data-name="Path 1325" d="M502.82,253.14s-.02-.39-.02-1.06c0-.34.01-.74.05-1.22a12.072,12.072,0,0,1,.16-1.58,17.858,17.858,0,0,1,.34-1.85c.13-.65.35-1.33.56-2.03.25-.68.48-1.41.81-2.1.29-.71.67-1.39,1.02-2.09.41-.66.79-1.34,1.24-1.97a21.008,21.008,0,0,1,1.36-1.79c.48-.55.94-1.08,1.43-1.54a17.226,17.226,0,0,1,1.39-1.26,12.814,12.814,0,0,1,1.26-.96,11.975,11.975,0,0,1,1.01-.68c.58-.35.91-.54.91-.54s-.29.26-.8.7-1.21,1.09-2,1.9c-.4.4-.81.86-1.24,1.35s-.84,1.04-1.29,1.58c-.42.57-.85,1.16-1.25,1.78-.43.61-.78,1.27-1.17,1.91-.35.67-.72,1.32-1.02,2-.32.67-.59,1.34-.86,2-.23.67-.49,1.3-.67,1.93s-.37,1.21-.5,1.76c-.15.55-.26,1.06-.35,1.51s-.18.85-.22,1.19c-.1.66-.18,1.04-.18,1.04Z" fill="#b5a555"/>
          <path id="Path_1326" data-name="Path 1326" d="M505.33,251.8a13.614,13.614,0,0,1,.39-2.3,17.38,17.38,0,0,1,.73-2.28,21.438,21.438,0,0,1,1.18-2.48,23.324,23.324,0,0,1,1.52-2.29,17.463,17.463,0,0,1,1.59-1.8,12.7,12.7,0,0,1,1.78-1.51s-.53.75-1.34,1.88c-.79,1.12-1.79,2.63-2.68,4.21s-1.69,3.2-2.24,4.46l-.93,2.11Z" fill="#b5a555"/>
          <path id="Path_1327" data-name="Path 1327" d="M511.84,246.64a2.951,2.951,0,0,1,.11-.9,5.118,5.118,0,0,1,.83-1.75,5.225,5.225,0,0,1,1.41-1.32,3.128,3.128,0,0,1,.82-.37,6.318,6.318,0,0,1-.42.78c-.26.44-.63.98-1.01,1.5s-.79,1.03-1.13,1.42a7.68,7.68,0,0,1-.61.63Z" fill="#b5a555"/>
          <path id="Path_1328" data-name="Path 1328" d="M516,246.12s.18-.21.52-.56.83-.85,1.47-1.39c.62-.55,1.4-1.15,2.25-1.76s1.81-1.19,2.77-1.74a31.817,31.817,0,0,1,2.95-1.43,26.479,26.479,0,0,1,2.68-.97c.8-.25,1.48-.39,1.95-.51.48-.1.75-.15.75-.15l-2.5,1.19c-1.49.71-3.45,1.68-5.35,2.74s-3.78,2.19-5.16,3.08c-1.4.89-2.33,1.49-2.33,1.49Z" fill="#b5a555"/>
          <path id="Path_1329" data-name="Path 1329" d="M475.57,298.71s.14-.2.39-.55a13.143,13.143,0,0,1,1.17-1.35,14.336,14.336,0,0,1,1.92-1.65c.38-.26.77-.55,1.19-.79.41-.26.86-.48,1.29-.72.45-.2.9-.41,1.36-.58.45-.19.92-.32,1.36-.46a14.519,14.519,0,0,1,2.48-.5,12.308,12.308,0,0,1,1.78-.09,6,6,0,0,1,.67.03s-.24.07-.65.17-1,.26-1.69.46c-.35.1-.71.22-1.1.35s-.79.29-1.21.43c-.83.32-1.7.69-2.55,1.11s-1.68.88-2.44,1.34c-.37.25-.75.46-1.08.69s-.66.45-.95.66c-.58.42-1.07.77-1.4,1.05s-.53.41-.53.41Z" fill="#b5a555"/>
          <path id="Path_1330" data-name="Path 1330" d="M479.32,291.93a6.462,6.462,0,0,1,.82-.58,10.122,10.122,0,0,1,2.46-1.06,23.626,23.626,0,0,1,3.7-.71,42.216,42.216,0,0,1,4.3-.31,40.437,40.437,0,0,1,4.31.15c1.37.12,2.64.3,3.72.5s1.97.43,2.59.58c.62.17.97.28.97.28s-.37-.02-1-.09-1.54-.13-2.63-.21-2.35-.15-3.7-.19c-.68-.01-1.37-.03-2.08-.04s-1.43,0-2.15.01c-1.44.02-2.88.1-4.23.18a36.792,36.792,0,0,0-3.66.39,12.181,12.181,0,0,0-2.5.68c-.58.24-.91.41-.91.41Z" fill="#b5a555"/>
          <path id="Path_1331" data-name="Path 1331" d="M484.7,266.17l1.6-1.38c1.03-.87,2.52-2.09,4.37-3.47,1.84-1.4,4.04-2.95,6.45-4.54,1.21-.78,2.45-1.62,3.74-2.4s2.61-1.58,3.92-2.38c1.34-.76,2.68-1.52,3.99-2.26s2.64-1.42,3.91-2.1c2.56-1.33,4.97-2.52,7.06-3.48,4.18-1.95,7.06-3.06,7.06-3.06l-1.78,1.15c-1.14.72-2.77,1.73-4.74,2.92s-4.27,2.56-6.75,4.01l-7.75,4.55c-2.64,1.55-5.27,3.1-7.74,4.55-2.47,1.47-4.77,2.83-6.74,4.01s-3.63,2.15-4.78,2.84c-1.17.68-1.83,1.06-1.83,1.06Z" fill="#b5a555"/>
          <path id="Path_1332" data-name="Path 1332" d="M478.24,301.44s.08-.19.24-.55a9.151,9.151,0,0,1,.74-1.52c.19-.31.4-.67.64-1.04.28-.35.58-.72.9-1.12s.74-.76,1.15-1.17.92-.74,1.41-1.15c.51-.37,1.08-.71,1.66-1.08.61-.31,1.22-.67,1.88-.96a25.605,25.605,0,0,1,4.3-1.53,31.942,31.942,0,0,1,4.79-.89,33.741,33.741,0,0,1,10.03.25,28.758,28.758,0,0,1,4.73,1.22,19.3,19.3,0,0,1,4.1,2.01,32.79,32.79,0,0,0,3.47,2c2.22,1.1,4.13,1.95,5.45,2.56s2.06,1.01,2.06,1.01-.78-.3-2.14-.83-3.33-1.2-5.62-2.24a36.749,36.749,0,0,1-3.59-1.88,21.374,21.374,0,0,0-4.02-1.82,28.9,28.9,0,0,0-4.6-1.12,35.969,35.969,0,0,0-4.88-.43,38.027,38.027,0,0,0-4.9.17,31.965,31.965,0,0,0-4.68.81,31.137,31.137,0,0,0-4.22,1.35c-.66.26-1.26.58-1.87.86-.57.34-1.14.64-1.65.98a19.108,19.108,0,0,0-2.61,2.11c-.34.37-.66.72-.95,1.04-.26.34-.48.67-.69.97a11.051,11.051,0,0,0-.86,1.45c-.19.34-.28.53-.28.53Z" fill="#b5a555"/>
        </g>
      </g>
    </g>
  </g>
</svg>
