<svg xmlns="http://www.w3.org/2000/svg" xmlns:xlink="http://www.w3.org/1999/xlink" width="1879.513" height="564.207" viewBox="0 0 1879.513 564.207">
  <defs>
    <clipPath id="clip-path">
      <path id="Path_330" data-name="Path 330" d="M97.171,181.973c-3.866,16.875-8.867,63.794,8.338,81.834s30.251,20.541,59.675,21.093,44.135,2.217,65.78.828,55.51-2.148,59.115-51.069c6.52-88.361-59.851-129.129-113.136-124.412s-72.484,39.885-79.771,71.717Z" transform="translate(-93.387 -109.882)" fill="none"/>
    </clipPath>
    <clipPath id="clip-path-2">
      <path id="Path_362" data-name="Path 362" d="M443.759,52.583c-23.247,4.9-59.644,15.021-57.967,59.371s18.728,67.218,47.2,76.082,98.337,17.982,113.172-11.507,9.943-71.59,2.289-89.093-26.215-51.4-104.693-34.86Z" transform="translate(-385.736 -48.152)" fill="none"/>
    </clipPath>
    <linearGradient id="linear-gradient" x1="1" y1="0.5" x2="0" y2="0.5" gradientUnits="objectBoundingBox">
      <stop offset="0" stop-color="#5804ff"/>
      <stop offset="1" stop-color="#af04ff"/>
    </linearGradient>
  </defs>
  <g id="Group_145" data-name="Group 145" transform="translate(-79.227 668.99)">
    <g id="Group_144" data-name="Group 144">
      <g id="Group_141" data-name="Group 141">
        <g id="Group_139" data-name="Group 139" transform="translate(-2722.073 -2233.879)">
          <path id="Path_303" data-name="Path 303" d="M347.783,80.813a4.658,4.658,0,0,1-2.194-.629l-13.906-7.647a3.2,3.2,0,0,1-.123-6.006l13.576-8.223a4.479,4.479,0,0,1,2.3-.729c1.756,0,2.915,1.419,2.961,3.62l.33,15.862a3.989,3.989,0,0,1-.966,2.945A2.713,2.713,0,0,1,347.783,80.813Zm-.353-22.459a3.788,3.788,0,0,0-1.9.614l-13.576,8.223a2.449,2.449,0,0,0,.1,4.671l13.906,7.647c1.312.721,2.531.706,3.26-.038a3.253,3.253,0,0,0,.744-2.393l-.33-15.862c-.038-1.772-.874-2.869-2.194-2.869Z" transform="translate(2861.88 1611.1)" fill="#f2c87e"/>
          <g id="Group_138" data-name="Group 138" transform="translate(3009.929 1680.79)">
            <path id="Path_297" data-name="Path 297" d="M229.843,374.189a6.843,6.843,0,0,1-4.97-2.125,6.456,6.456,0,0,1-1.312-2.516,5.714,5.714,0,0,1-2.784-1.012,6.619,6.619,0,0,1-2.715-4.556c-.291-2.332.514-3.766,1.772-5.691a.382.382,0,0,1,.529-.107.376.376,0,0,1,.107.529c-1.2,1.826-1.918,3.053-1.649,5.17a5.845,5.845,0,0,0,2.393,4.027,4.961,4.961,0,0,0,2.171.851,7.062,7.062,0,0,1,.038-2.754,4.724,4.724,0,0,1,2.815-3.467,2.418,2.418,0,0,1,2.508.268,3,3,0,0,1,.89,2.953,5.8,5.8,0,0,1-4.226,3.659,6.173,6.173,0,0,1-1.051.146,5.466,5.466,0,0,0,1.082,1.987,6.132,6.132,0,0,0,4.733,1.872,6.538,6.538,0,0,0,4.809-2.485.382.382,0,0,1,.6.476,7.318,7.318,0,0,1-5.377,2.777c-.123,0-.245.008-.368.008ZM227.3,363.067a1.911,1.911,0,0,0-.775.169,4,4,0,0,0-2.362,2.93,6.466,6.466,0,0,0,0,2.631,4.609,4.609,0,0,0,1.066-.13,5.065,5.065,0,0,0,3.651-3.076,2.243,2.243,0,0,0-.614-2.194,1.485,1.485,0,0,0-.959-.33Z" transform="translate(-122.068 -139.708)"/>
            <path id="Path_298" data-name="Path 298" d="M237.383,88.043a.38.38,0,0,1-.384-.383,12.184,12.184,0,0,1,3.3-8.552,7.428,7.428,0,0,1,5.231-2.186,7.968,7.968,0,0,1,7.64-3.467,12.712,12.712,0,0,1,4.541,2.071c2.616,1.634,4.871,3.045,7.77-.023a.385.385,0,0,1,.56.529c-3.329,3.521-6.075,1.8-8.736.146a12.215,12.215,0,0,0-4.265-1.964,7.288,7.288,0,0,0-6.6,2.746,5.469,5.469,0,0,1,5.07,4.027c.414,1.664-.077,3.321-1.174,3.943-.629.353-1.979.66-3.935-1.3a5.111,5.111,0,0,1-1.3-5.921,6.6,6.6,0,0,0-4.272,1.956,11.417,11.417,0,0,0-3.068,8,.38.38,0,0,1-.384.384h0ZM245.967,77.7a.687.687,0,0,0-.038.077,4.335,4.335,0,0,0,1.02,5.315c1.166,1.174,2.263,1.6,3.014,1.174.782-.445,1.128-1.772.805-3.083C250.576,80.4,249.656,77.864,245.967,77.7Z" transform="translate(-126.494 -73.369)"/>
            <path id="Path_300" data-name="Path 300" d="M146.375,365.99a5.234,5.234,0,0,1-5.323-4.219,5.437,5.437,0,0,1,.989-4.763,5.778,5.778,0,0,1,4.472-2.048,5.89,5.89,0,0,1,5.523,3.774,4.723,4.723,0,0,1-.192,3.689,5.973,5.973,0,0,1-3.2,3.168,6.693,6.693,0,0,1-2.27.406Zm.146-10.271a5.011,5.011,0,0,0-3.881,1.764,4.757,4.757,0,0,0-.828,4.119,4.49,4.49,0,0,0,4.571,3.613,5.912,5.912,0,0,0,2.01-.36,5.153,5.153,0,0,0,2.761-2.754,3.94,3.94,0,0,0,.184-3.083A5.152,5.152,0,0,0,146.521,355.719Z" transform="translate(-104.104 -138.972)" fill="#6479e7"/>
            <path id="Path_302" data-name="Path 302" d="M196.233,423.144c-1.572,0-2.723-1.25-3.007-3.26L191,404.168a3.891,3.891,0,0,1,.706-3.16c.867-1,2.37-1.212,4.019-.544l14.719,5.929a3.2,3.2,0,0,1,.844,5.944l-12.495,9.787A4.238,4.238,0,0,1,196.233,423.144Zm-2.339-22.305a2.059,2.059,0,0,0-1.611.667,3.191,3.191,0,0,0-.529,2.554l2.224,15.716c.23,1.626,1.074,2.6,2.247,2.6a3.5,3.5,0,0,0,2.086-.859l12.495-9.787a2.453,2.453,0,0,0-.652-4.633l-14.719-5.929a4.193,4.193,0,0,0-1.549-.337Z" transform="translate(-115.763 -149.484)" fill="#f2ac30"/>
            <g id="Group_119" data-name="Group 119" transform="translate(0 27.622)">
              <g id="Group_118" data-name="Group 118" transform="translate(0.352 0.385)" clip-path="url(#clip-path)">
                <g id="Group_117" data-name="Group 117" transform="translate(7.757 26.155)">
                  <g id="Group_115" data-name="Group 115" transform="translate(58.416 12.547)">
                    <path id="Path_305" data-name="Path 305" d="M216.9,164.11c1.526,2.5,2.777,6.942,3.467,11.8.483,3.4,1.388,3.751,4.717,5.277s4.1,4.441,2.293,6.105c-2.57,2.37-2.57,1.074-2.915,3.751-.23,1.78.253,3.206-2.148,2.439-.943-.3-2.884-1.457-3.16-1.243-.828.644-.575,3.068,2.593,4.894,1.151.667,2.109.575,1.089,5.852-.89,4.594-6.451,5.308-11.966,4.265s-4.372,3.122-6.558,9.059-2.5,9.266.522,11.759,5.415,14.466,5.1,17.381-10.723,8.951-19.567-.836c-4.786-6.658-10.2-19.467-10.2-19.467s5.622-7.808,5.515-15.4-3.329-36.219,7.179-44.342,23-3.291,24.046-1.281Z" transform="translate(-179.778 -160.459)" fill="#fff"/>
                    <path id="Path_306" data-name="Path 306" d="M201.106,250.22c-2.823,0-7.041-.951-11.145-5.484-4.786-6.65-10.217-19.444-10.27-19.574a.387.387,0,0,1,.038-.376c.054-.077,5.546-7.793,5.446-15.172-.015-1.051-.092-2.539-.176-4.265-.552-10.8-1.7-33.274,7.509-40.384A22.049,22.049,0,0,1,206.1,160.34c5.63,0,10.293,2.056,11.022,3.475,1.488,2.439,2.777,6.788,3.505,11.92.445,3.122,1.189,3.467,4.3,4.886l.192.092a5.44,5.44,0,0,1,3.421,3.827,3.177,3.177,0,0,1-1.035,2.915,13.819,13.819,0,0,1-1.918,1.5c-.66.437-.675.445-.882,2.017-.046.322-.061.637-.077.928-.069,1.212-.184,2.593-2.57,1.826a14.241,14.241,0,0,1-1.473-.644,10.7,10.7,0,0,0-1.4-.606,1.081,1.081,0,0,0-.184.767c.061.913.828,2.286,2.8,3.421.1.061.2.107.3.161,1.25.652,1.91,1.258.974,6.1-.621,3.222-3.521,4.993-8.161,4.993a23.079,23.079,0,0,1-4.257-.43,8.043,8.043,0,0,0-1.442-.153c-2.263,0-2.685,1.4-3.436,4.571a36.488,36.488,0,0,1-1.25,4.4c-2.324,6.3-2.217,9.158.407,11.337,3.145,2.6,5.569,14.643,5.239,17.718-.207,1.964-4.119,4.871-9.089,4.871ZM180.48,225.062c.7,1.634,5.691,13.093,10.071,19.191,3.889,4.3,7.885,5.2,10.547,5.2,4.633,0,8.169-2.715,8.33-4.188.3-2.815-2.117-14.689-4.963-17.043-3.3-2.731-2.769-6.389-.637-12.188a36.267,36.267,0,0,0,1.227-4.3c.706-3,1.22-5.162,4.18-5.162a8.289,8.289,0,0,1,1.58.169,22.157,22.157,0,0,0,4.111.414c2.991,0,6.711-.759,7.409-4.372.874-4.51.291-4.817-.575-5.269-.107-.054-.215-.115-.322-.176-1.895-1.089-3.083-2.6-3.183-4.035a1.7,1.7,0,0,1,.545-1.5c.33-.261.913,0,2.14.583a13.012,13.012,0,0,0,1.381.606,3.352,3.352,0,0,0,.966.192c.453,0,.537-.184.606-1.335.015-.307.038-.637.084-.982.23-1.78.322-1.971,1.22-2.554a12.592,12.592,0,0,0,1.818-1.419,2.458,2.458,0,0,0,.8-2.232,4.779,4.779,0,0,0-2.984-3.245l-.192-.092c-3.168-1.45-4.234-1.941-4.74-5.477-.721-5.032-1.964-9.273-3.413-11.651-.483-.936-4.579-3.083-10.355-3.083a21.322,21.322,0,0,0-13.124,4.464c-8.89,6.865-7.755,29.07-7.21,39.74.092,1.733.161,3.229.176,4.288.1,7.1-4.6,14.221-5.461,15.456Z" transform="translate(-179.659 -160.34)"/>
                  </g>
                  <path id="Path_307" data-name="Path 307" d="M186.99,321.367c1.941.836,20.257,1.8,20.257,1.8s8.046-25.672,4.717-55.1c-6.658,5.829-14.159,4.441-21.645-1.664C195.036,280.845,192.819,310.537,186.99,321.367Z" transform="translate(-122.951 -172.504)"/>
                  <path id="Path_308" data-name="Path 308" d="M223.683,188.718c.407,1.3,1.335,2.163,2.071,1.933s1.012-1.473.606-2.769-1.335-2.163-2.071-1.933S223.276,187.421,223.683,188.718Z" transform="translate(-131.456 -153.75)"/>
                  <path id="Path_309" data-name="Path 309" d="M225.243,185.819a.373.373,0,0,1-.107-.015.382.382,0,0,1-.261-.476l.7-2.362a.388.388,0,0,1,.475-.261.381.381,0,0,1,.261.476l-.7,2.362A.378.378,0,0,1,225.243,185.819Z" transform="translate(-131.773 -152.999)"/>
                  <path id="Path_310" data-name="Path 310" d="M178.507,277.553c-2.14-15.8-9.2-26.255-15.456-35.943-.959-1.488-1.849-1.273-2.255-1.189-2.991.591-6.32,1.994-5.469,3.827a7.1,7.1,0,0,0,.805,1.227c-1.3.261-2.846.583-4.694.989a28.935,28.935,0,0,0-15.532,8.575c-4.3,4.3-26.3,30.973-32.407,37.776,8.046,15.54,21.86,17.833,21.86,17.833s12.625-12.694,20.533-22.412c-.276,1.94-1.25,19.981-4.027,27.061,4.9,2.846,18.531,2.708,26.11,2.385,1.243,1.143,6.09.115,6.09.115s6.658-23.87,4.441-40.246Z" transform="translate(-103.5 -166.435)" fill="#70badb"/>
                  <path id="Path_311" data-name="Path 311" d="M166.826,164.483c-3.643,1.35-7.7,4.687-9.887,18.946-1.059,6.9-3.613,14.3-3.137,21.331.453,6.581,6.152,8.376,11.966,9.542,5.116,1.028,25.013,5.768,26.271-2.8,1.465-9.994-14.29-15.011-12.027-24.292.46-1.887,2.355-4.226,4.3-4.664,2.485-.56,3.229,1.572,5.162,2.876,2.355,1.588,3.766.66,5.185-1.726,1.342-2.255.836-5.868.621-8.4-.276-3.314-.675-4.518,2.209-5.461,3.889-1.281,7.225-3.92,3.475-8.368,4.993,5.929,7.494,4.993,11.551,2.393s4.265-4.993,2.708-9.473-6.351-11.344-14.781-10.3-7.6,3.329-17.7,5.415-16.552,5.1-15.923,14.988Z" transform="translate(-115.206 -143.981)"/>
                  <path id="Path_312" data-name="Path 312" d="M219.8,179.058a.262.262,0,0,1-.13-.023.378.378,0,0,1-.23-.491c.268-.767,1.81-4.61,5.385-5.346a.384.384,0,1,1,.153.752c-3.168.652-4.564,4.157-4.817,4.855A.388.388,0,0,1,219.8,179.058Z" transform="translate(-130.506 -150.787)"/>
                  <path id="Path_313" data-name="Path 313" d="M183.449,318.655h-.023a.38.38,0,0,1-.361-.406c.023-.33.092-1.243.192-2.562.6-7.716,2.194-28.211,1.611-32.89-.614-4.9.713-6.129,2.723-7.985.253-.23.514-.476.79-.744-.989-.629-3.59-2.278-5.553-3.482-2.056-1.258-2.508-2.961-3.712-7.517-.36-1.358-.767-2.9-1.312-4.779a26.308,26.308,0,0,0-5.553-10.462c-.384-.46-.713-.859-.982-1.243a.385.385,0,0,1,.629-.445c.261.361.583.752.951,1.2a27.024,27.024,0,0,1,5.7,10.738c.545,1.887.974,3.5,1.312,4.794,1.151,4.341,1.58,5.96,3.375,7.057,2.47,1.511,5.937,3.728,5.975,3.751a.391.391,0,0,1,.176.284.4.4,0,0,1-.107.314c-.407.406-.79.767-1.151,1.1-1.964,1.818-3.053,2.815-2.485,7.325.6,4.756-1,25.312-1.611,33.043-.1,1.319-.176,2.224-.192,2.554a.391.391,0,0,1-.384.361Z" transform="translate(-119.272 -167.744)" fill="#fff"/>
                  <path id="Path_314" data-name="Path 314" d="M245.543,267.438l-2.915,8.606s-6.942-12.625-11.383-18.178c-4.15-5.185-10.117-8.437-14.842-10.2-3.191-5.277-7.693-6.044-7.693-6.044a4.614,4.614,0,0,0,.3,2.83c.66,1.58,7.8,13.96,6.136,33.672a231.22,231.22,0,0,1-7.356,39.272h4.3s.031-.107.092-.307c3.237.414,9.826,1.081,10.033-.384.276-1.941,4.027-17.488,6.244-22.343,6.658,12.349,12.84,14.873,21.784,11.114,6.389-2.685,11.659-24.161,12.357-32.622.138-.138-17.066-5.415-17.066-5.415Z" transform="translate(-127.797 -166.729)" fill="#70badb"/>
                  <path id="Path_315" data-name="Path 315" d="M213.293,319.6a.416.416,0,0,1-.115-.015.383.383,0,0,1-.253-.476c.084-.284,8.614-28.219,9.849-33.557,1.266-5.492,1.227-6.152.4-7.762-1.036-2.025-1.933-3.8-1.933-3.8a.381.381,0,0,1,.138-.5c.936-.575,3.283-2.424,2.884-3.989-.882-3.475-4.265-15-6.727-19.367l-.077-.138a.383.383,0,1,1,.667-.376l.084.146c2.508,4.441,5.914,16.054,6.8,19.559.522,2.056-2.033,4.019-2.93,4.633.3.591,1,1.979,1.772,3.5.966,1.887.928,2.815-.337,8.284-1.235,5.362-9.772,33.327-9.856,33.611a.387.387,0,0,1-.368.268Z" transform="translate(-128.989 -168.547)" fill="#fff"/>
                  <path id="Path_316" data-name="Path 316" d="M234.643,303.607a.312.312,0,0,1-.161-.038.388.388,0,0,1-.192-.506c6.236-13.653,3.912-18.57,2.524-21.507a14.034,14.034,0,0,1-.6-1.388.383.383,0,0,1,.729-.238,12.78,12.78,0,0,0,.56,1.3c1.45,3.06,3.866,8.177-2.524,22.152a.386.386,0,0,1-.345.222Z" transform="translate(-133.963 -175.592)"/>
                  <path id="Path_317" data-name="Path 317" d="M255.148,291.568a.371.371,0,0,1-.345-.215c-.015-.031-1.549-3.237-2.922-6.543a.375.375,0,0,1,.207-.5.381.381,0,0,1,.5.207c1.365,3.283,2.892,6.474,2.907,6.5a.387.387,0,0,1-.184.514.419.419,0,0,1-.169.038Z" transform="translate(-138.062 -176.668)"/>
                  <g id="Group_116" data-name="Group 116" transform="translate(118.465 39.501)">
                    <path id="Path_318" data-name="Path 318" d="M258.46,253.505c1.565-4.894,3.851-18.109,4.372-23s-2.393-11.758,1.043-16.131,5.622-6.558,6.558-8.744,3.122-2.5,4.265-.314-.621,6.036-3.229,8.744c6.351-4.058,6.873-2.6,8.844-5.722s5.829-11.137,8.33-10.93c2.079-2.807,4.472-1.25,4.894,2.6,1.25-.107,2.393,2.807,1.565,7.179,3.014,1.772,2.708,8.223-1.565,13.116s-12.387,7.808-14.152,11.758-4.687,27.168-4.687,27.168Z" transform="translate(-258.067 -195.595)" fill="#fff"/>
                    <path id="Path_319" data-name="Path 319" d="M274.571,259.5a.262.262,0,0,1-.13-.023L258.2,253.759a.388.388,0,0,1-.238-.476c1.572-4.924,3.858-18.224,4.357-22.926a25.66,25.66,0,0,0-.284-5.515c-.46-3.85-.936-7.831,1.4-10.815,1.058-1.342,1.994-2.478,2.815-3.475a23.993,23.993,0,0,0,3.689-5.177,2.946,2.946,0,0,1,2.577-2.033,2.783,2.783,0,0,1,2.378,1.7c1.02,1.956-.023,4.909-1.81,7.4a35.927,35.927,0,0,1,3.613-1.81,5.38,5.38,0,0,0,3.152-2.608c.422-.667.943-1.58,1.5-2.554,2.631-4.61,4.97-8.437,6.965-8.552a3.1,3.1,0,0,1,2.393-1.434c1.511,0,2.685,1.588,3.03,4.065a1.588,1.588,0,0,1,.836.568c.767.928,1.427,3.252.805,6.781a4.723,4.723,0,0,1,1.849,3.291c.514,3.168-.874,7.195-3.551,10.255a35.965,35.965,0,0,1-7.486,5.9c-2.938,1.925-5.707,3.751-6.612,5.768-1.726,3.858-4.625,26.823-4.656,27.053a.376.376,0,0,1-.176.276.372.372,0,0,1-.2.054Zm-15.755-6.351,15.44,5.446c.437-3.413,3-23.111,4.656-26.8,1-2.224,3.858-4.1,6.888-6.1a35.611,35.611,0,0,0,7.325-5.76c2.531-2.9,3.85-6.681,3.367-9.634a3.89,3.89,0,0,0-1.71-2.9.387.387,0,0,1-.184-.4c.606-3.191.138-5.515-.591-6.4a.775.775,0,0,0-.529-.322.449.449,0,0,1-.445-.337c-.238-2.209-1.166-3.7-2.3-3.7a2.6,2.6,0,0,0-1.9,1.281.367.367,0,0,1-.338.153h0c-1.795,0-4.6,4.917-6.451,8.169-.56.982-1.089,1.9-1.519,2.585a6.116,6.116,0,0,1-3.5,2.9,35.175,35.175,0,0,0-5.469,2.945.4.4,0,0,1-.506-.077.377.377,0,0,1,.023-.506c2.355-2.454,4.265-6.19,3.16-8.3a2.031,2.031,0,0,0-1.7-1.289,2.241,2.241,0,0,0-1.879,1.572,24.715,24.715,0,0,1-3.8,5.369c-.821,1-1.749,2.125-2.8,3.459-2.148,2.738-1.7,6.558-1.25,10.255a26.141,26.141,0,0,1,.291,5.684c-.491,4.625-2.7,17.5-4.28,22.719Z" transform="translate(-257.947 -195.48)"/>
                  </g>
                  <path id="Path_320" data-name="Path 320" d="M279.044,226.594a.385.385,0,0,1-.376-.291c-.529-2.209-2.5-5.814-3.59-6.535a.382.382,0,1,1,.422-.637c1.35.9,3.375,4.763,3.9,7a.381.381,0,0,1-.284.46c-.031,0-.061.008-.092.008Z" transform="translate(-143.434 -161.475)"/>
                  <path id="Path_321" data-name="Path 321" d="M294.625,223.776a.387.387,0,0,1-.345-.215c-.391-.775-4.993-6.3-6.75-6.888a.383.383,0,1,1,.238-.729c2.017.675,6.773,6.428,7.195,7.271a.387.387,0,0,1-.169.514.339.339,0,0,1-.169.038Z" transform="translate(-146.313 -160.743)"/>
                  <path id="Path_322" data-name="Path 322" d="M295.524,222.986a.378.378,0,0,1-.345-.222.382.382,0,0,1,.184-.506c1.2-.56,3.858-3.958,4.571-7.839.368-1.994.982-3.229,1.872-3.781a2.864,2.864,0,0,1,2.355-.161.384.384,0,0,1-.215.736,2.04,2.04,0,0,0-1.741.077c-.69.43-1.2,1.526-1.519,3.267-.736,4-3.5,7.7-5,8.4a.413.413,0,0,1-.161.038Z" transform="translate(-148.148 -159.431)"/>
                  <path id="Path_323" data-name="Path 323" d="M293.753,217.384a.4.4,0,0,1-.291-.13.388.388,0,0,1,.038-.545c2.27-1.971,3.2-4.848,4.042-9.151.775-3.958,2.278-6.159,4.472-6.55a.385.385,0,1,1,.13.759c-1.849.33-3.145,2.324-3.85,5.944-.874,4.464-1.856,7.463-4.288,9.58A.381.381,0,0,1,293.753,217.384Z" transform="translate(-147.734 -157.266)"/>
                  <path id="Path_324" data-name="Path 324" d="M290.633,213.738a.4.4,0,0,1-.222-.069.383.383,0,0,1-.092-.537c1.128-1.6,2.547-6.19,3.689-9.879a48.1,48.1,0,0,1,2.117-6.113.384.384,0,1,1,.675.368,48.11,48.11,0,0,0-2.063,5.975c-1.212,3.935-2.592,8.391-3.789,10.094A.379.379,0,0,1,290.633,213.738Z" transform="translate(-147.007 -156.32)"/>
                  <path id="Path_325" data-name="Path 325" d="M157.564,301.775a.376.376,0,0,1-.245-.092.387.387,0,0,1-.046-.545c2.339-2.754,7.041-7.732,7.1-7.785a.385.385,0,0,1,.56.529c-.046.046-4.74,5.016-7.064,7.755a.378.378,0,0,1-.291.138Z" transform="translate(-116.007 -178.753)"/>
                  <path id="Path_326" data-name="Path 326" d="M256.91,269.33c-1.534,2.876-2.424,7.54-2.109,7.962s11.7,1.342,19.459,6.9c1.772.828,2.332-7.363,2.056-8.315-.729-2.5-18.478-7.586-19.413-6.543Z" transform="translate(-138.735 -173.154)"/>
                  <path id="Path_327" data-name="Path 327" d="M199.4,286.949a.4.4,0,0,1-.253-.092c-.038-.031-3.528-3.068-5.162-4.15a.382.382,0,0,1,.422-.637c1.664,1.112,5.093,4.081,5.239,4.211a.387.387,0,0,1,.038.545.4.4,0,0,1-.292.13Z" transform="translate(-124.542 -176.138)" fill="#fff"/>
                  <path id="Path_328" data-name="Path 328" d="M217.464,285.033a.36.36,0,0,1-.269-.115.38.38,0,0,1,0-.545,23.62,23.62,0,0,1,4.579-3.337c.307-.184.575-.345.775-.476a.378.378,0,0,1,.529.115.384.384,0,0,1-.115.529c-.207.138-.475.3-.8.491a22.958,22.958,0,0,0-4.433,3.221A.385.385,0,0,1,217.464,285.033Z" transform="translate(-129.961 -175.786)" fill="#fff"/>
                  <path id="Path_329" data-name="Path 329" d="M200.071,213.506c-.406-3.781-3.39-7.663-6.926-5.4-3.076,1.964-4.019,7.264-1.2,9.772a5.874,5.874,0,0,0,4.763,1.25c2.723-.537,3.636-3.053,3.36-5.622Z" transform="translate(-123.714 -158.765)" fill="#f2ac30"/>
                </g>
              </g>
              <path id="Path_331" data-name="Path 331" d="M213.759,286.54h0c-7.486,0-14.811-.276-23.295-.6-7.287-.276-15.548-.591-25.389-.775-28.733-.545-42.2-2.608-59.943-21.216-16.606-17.4-12.855-62.888-8.437-82.187,10.063-43.966,37.017-68.2,80.108-72.016,2.761-.245,5.592-.368,8.407-.368a106.274,106.274,0,0,1,76.572,33.435c14.934,16.077,32.023,45.047,28.572,91.759-3.536,47.939-36.135,49.964-57.7,51.314l-1.772.115c-5.745.368-11.191.537-17.128.537ZM185.211,110.155c-2.8,0-5.607.123-8.338.368-42.723,3.781-69.447,27.812-79.433,71.418-4.387,19.168-8.146,64.307,8.246,81.489,17.542,18.393,30.9,20.441,59.406,20.978,9.841.184,18.109.5,25.4.775,8.476.322,15.8.6,23.272.6h0c5.921,0,11.344-.169,17.074-.537l1.772-.115c21.308-1.327,53.5-3.329,56.99-50.6,2.708-36.748-7.1-68.281-28.372-91.176a105.532,105.532,0,0,0-76.012-33.189Z" transform="translate(-92.929 -109.38)" fill="#6479e7"/>
            </g>
          </g>
          <g id="Group_120" data-name="Group 120" transform="translate(3140.826 1718.674)">
            <path id="Path_332" data-name="Path 332" d="M264.172,131.711c5.2-1.358,21.814-4.518,30.512-6.328s18.194-3.053,19.436-2.485-12.549,17.971-18.984,24.859c-2.148,1.473-5.085-1.243-5.085-1.243a33.659,33.659,0,0,1-14.129,8.928c-1.128.222-1.7-6.78-1.81-10.961s.629-4.993-2.823-6.665C260.551,132.616,264.172,131.711,264.172,131.711Z" transform="translate(-263.584 -122.759)" fill="#70badb"/>
            <path id="Path_333" data-name="Path 333" d="M279.36,156.2a.384.384,0,0,1-.368-.284.377.377,0,0,1,.268-.468c.568-.207,2.631-3.544,4.134-5.983a44.868,44.868,0,0,1,4.058-6.006c1.718-1.718,17.526-12.51,24.238-17.051L278.83,139.446a.384.384,0,1,1-.284-.713l36.165-14.351a.385.385,0,0,1,.491.2.389.389,0,0,1-.176.5c-1.12.591-25.227,17.12-27.022,18.915a47.22,47.22,0,0,0-3.95,5.868c-2.616,4.242-3.843,6.121-4.587,6.32a.45.45,0,0,1-.1.015Z" transform="translate(-267.014 -123.131)"/>
            <path id="Path_334" data-name="Path 334" d="M296.909,153.469a.342.342,0,0,1-.222-.077l-.169-.123c-2.316-1.7-5.2-3.8-5.875-3.459a.382.382,0,0,1-.345-.683c1.043-.522,3.114.928,6.673,3.528l.161.123a.389.389,0,0,1,.084.537.4.4,0,0,1-.307.161Z" transform="translate(-269.759 -128.878)"/>
          </g>
        </g>
        <g id="Group_137" data-name="Group 137" transform="translate(-1700.897 -2456.248)">
          <path id="Path_299" data-name="Path 299" d="M646.15,227.86a4.541,4.541,0,0,1-4.619-3.66,4.724,4.724,0,0,1,.859-4.133,5.013,5.013,0,0,1,3.88-1.777,5.126,5.126,0,0,1,4.8,3.274,4.1,4.1,0,0,1-.166,3.2,5.183,5.183,0,0,1-2.775,2.749,5.806,5.806,0,0,1-1.97.353Zm.126-8.911a4.347,4.347,0,0,0-3.368,1.531,4.137,4.137,0,0,0-.719,3.581,3.9,3.9,0,0,0,3.966,3.135,5.159,5.159,0,0,0,1.744-.313,4.471,4.471,0,0,0,2.4-2.389,3.419,3.419,0,0,0,.16-2.675,4.47,4.47,0,0,0-4.18-2.862Z" transform="translate(2905.133 1683.928)" fill="#f2ac30"/>
          <g id="Group_125" data-name="Group 125" transform="translate(3376.049 1788.66)">
            <g id="Group_124" data-name="Group 124" transform="translate(0.332 0.328)" clip-path="url(#clip-path-2)">
              <g id="Group_123" data-name="Group 123" transform="translate(61.184 25.16)">
                <path id="Path_339" data-name="Path 339" d="M540.907,101.406c-1.83-7.767-18.688-17.749-25.9-14.974s2,5.99,2,5.99c-11.094-2-16.418-.666-17.523,2.11s3.547,3.88,3.547,3.88c-7.54.22-15.973,6.1-14.755,10.2s6.209,2.609,6.209,2.609c-7.1,5.71-5.943,11.52,1.464,10.835-7.787,5.857-8.9,16.618-5.9,20.5s5.9-2,5.9-2c-3.128,8.652,1.531,14.309,5.963,7.094-1,9.87,7.767,11.2,10.535,6.322,2.662,9.43,8.984,7.986,10.1,3.328,3.441,4.326,10.2,2.882,11.533-1.777,3.773,4.439,7.1.386,6.768-3.048,3.88,4.546,9.983,5.1,11.2-3.161,5.544,4.106,8.319,3.993,6.822-5.823,9.264,3.381,14.142-6.935,3.494-15.806,7.1,1.883,6.322-5.437-3.827-9.816,7.154-.166,8.039-5.045,4.492-8.652s-9.537-10.6-22.129-7.82Z" transform="translate(-481.176 -85.958)"/>
                <g id="Group_122" data-name="Group 122" transform="translate(23.836 22.836)">
                  <path id="Path_340" data-name="Path 340" d="M514.293,131.992c-1.085,6.5.845,8.432,2.769,13s-.765,9.4,4.366,15.107c4.785,5.331,12.013,5,12.013,5l2.05,8.306,17.7-4.579-3.853-16.678s3.614-1.983,2.529-9.091-1.2-24.684-18.422-22.035S515.87,126.8,514.3,131.979Z" transform="translate(-513.651 -120.432)" fill="#fff"/>
                  <path id="Path_341" data-name="Path 341" d="M535.318,173.585a.333.333,0,0,1-.326-.253l-1.983-8.053c-1.258,0-7.64-.26-12-5.111-3.294-3.674-3.447-7.068-3.574-10.063a14.507,14.507,0,0,0-.845-5.138c-.373-.885-.745-1.664-1.1-2.416-1.444-3.035-2.582-5.437-1.69-10.775l.166-.559c1.5-5.038,2.409-8.079,19.26-10.675a22.571,22.571,0,0,1,3.381-.273c12.678,0,14.2,12.6,15.1,20.125.107.912.206,1.744.319,2.462.965,6.316-1.677,8.718-2.482,9.291l3.8,16.452a.338.338,0,0,1-.24.4l-17.7,4.579a.47.47,0,0,1-.08.013Zm-2.05-8.978a.341.341,0,0,1,.326.253l1.963,7.98,17.064-4.412-3.78-16.359a.331.331,0,0,1,.166-.366c.033-.02,3.394-1.99,2.363-8.752-.113-.732-.213-1.571-.326-2.482-.878-7.307-2.356-19.533-14.442-19.533a21.266,21.266,0,0,0-3.281.266c-16.432,2.529-17.29,5.417-18.721,10.209l-.153.519c-.845,5.085.2,7.287,1.644,10.336.359.759.732,1.544,1.111,2.442a14.982,14.982,0,0,1,.9,5.371c.133,3.028.266,6.156,3.407,9.65,4.18,4.652,10.322,4.892,11.514,4.892h.253Z" transform="translate(-513.486 -120.27)"/>
                </g>
                <path id="Path_342" data-name="Path 342" d="M554.392,135.745a29.26,29.26,0,0,0-3.215-10.3c-1.158-2-2.2-4.046-4.159-5.371-5.491-3.734-12.891-3.507-19.14-2.21-4.965,1.032-10.489,2.789-14.335,6.209-1.278,1.138-6.456,6.3-3.1,7.787,1.963.872,4.126-.978,5.61-2.23a3,3,0,0,0,.326.626c1,1.5,3.494,1.664,5.158,1.331,4.326-.666,8.485-3.494,11.647-6.655-.666,1-1.5,2.329-1.165,3.66.666,1.5,2.163,1.664,3.494,1.664,2.828-.166,5.491-2.5,7.487-4.326-1.664,3.161-3.494,6.322-3.66,9.983a10.142,10.142,0,0,0,.666,4.991c.832,2,2.662,2,4.326.832-.832,2.662-1.331,5.158-.166,7.82.692,1.584,2.882,4.273,5.936,3.714,2.436-.446,2.888-6.156,3.773-8.153,1.651-3.72,1.2-5.324.526-9.377Z" transform="translate(-488.259 -96.344)"/>
                <path id="Path_343" data-name="Path 343" d="M507.693,136.561c-1.491,0-2.928-.532-3.334-2.043a5.294,5.294,0,0,1,.113-2.642,11.145,11.145,0,0,1,2.775-4.319.33.33,0,0,1,.473.027.336.336,0,0,1-.027.473,10.577,10.577,0,0,0-2.582,4.013,4.591,4.591,0,0,0-.106,2.283c.5,1.877,3.155,1.551,3.68,1.464a10.926,10.926,0,0,0,3.68-1.138.332.332,0,1,1,.326.579,11.727,11.727,0,0,1-3.9,1.211,6.667,6.667,0,0,1-1.1.087Z" transform="translate(-486.557 -99.842)" fill="#fff"/>
                <path id="Path_344" data-name="Path 344" d="M529.225,162.618h-.02c-2.19-.12-3.561-.626-4.186-1.551-.779-1.145-.279-2.635.2-4.08.093-.28.186-.559.273-.839.739-2.462-.952-5.431-2.835-7.148a5.057,5.057,0,0,0-4.592-1.264,1.751,1.751,0,0,0-1.3,1.071.335.335,0,1,1-.646-.18,2.378,2.378,0,0,1,1.757-1.531,5.729,5.729,0,0,1,5.224,1.411c2.1,1.917,3.847,5.078,3.021,7.827-.086.28-.18.566-.273.859-.426,1.291-.872,2.622-.279,3.494.492.725,1.73,1.151,3.667,1.258a.333.333,0,0,1-.02.666Z" transform="translate(-490.525 -106.353)"/>
                <path id="Path_345" data-name="Path 345" d="M534.123,146.808a.339.339,0,0,1-.206-.073.33.33,0,0,1-.053-.466c1.165-1.464,4.526-4.506,10.655-1.012a.332.332,0,0,1-.326.579c-5.477-3.115-8.492-.805-9.81.845A.338.338,0,0,1,534.123,146.808Z" transform="translate(-496.441 -105.252)"/>
                <path id="Path_346" data-name="Path 346" d="M544.762,155.424c.559,1.038.532,2.143-.06,2.462s-1.524-.266-2.083-1.3-.526-2.143.06-2.456,1.524.266,2.083,1.3Z" transform="translate(-499.26 -108.729)"/>
                <path id="Path_347" data-name="Path 347" d="M542.4,154.069a.355.355,0,0,1-.16-.04l-1.883-1a.337.337,0,0,1-.14-.453.344.344,0,0,1,.453-.14l1.883,1a.337.337,0,0,1,.14.453A.332.332,0,0,1,542.4,154.069Z" transform="translate(-498.579 -108.18)"/>
                <path id="Path_348" data-name="Path 348" d="M525.9,157.051c.559,1.038.532,2.143-.06,2.462s-1.524-.266-2.083-1.311-.532-2.143.06-2.456S525.342,156.012,525.9,157.051Z" transform="translate(-492.951 -109.271)"/>
                <path id="Path_349" data-name="Path 349" d="M523.544,155.7a.355.355,0,0,1-.16-.04l-1.883-1a.337.337,0,0,1-.14-.453.344.344,0,0,1,.453-.14l1.883,1a.337.337,0,0,1,.14.453A.332.332,0,0,1,523.544,155.7Z" transform="translate(-492.271 -108.725)"/>
                <path id="Path_350" data-name="Path 350" d="M536.956,175.13c-1.591,0-3.148-1.477-4.392-4.153a.318.318,0,0,1,.033-.333.325.325,0,0,1,.306-.14c.339.033.692.067,1.038.067,1.284,0,2.808-.506,6.782-3.088a.323.323,0,0,1,.353,0,.332.332,0,0,1,.16.313c-.413,4.526-2.057,7.334-4.279,7.334Zm-3.527-3.907c1.065,2.07,2.336,3.241,3.534,3.241,1.717,0,3.075-2.349,3.541-6.043-4.173,2.655-5.57,2.9-7.074,2.8Z" transform="translate(-496.02 -113.209)"/>
                <path id="Path_351" data-name="Path 351" d="M537.624,176.565a.266.266,0,0,1-.087-.013.33.33,0,0,1-.233-.406,5.235,5.235,0,0,1,4.546-3.667.33.33,0,0,1,.313.353.327.327,0,0,1-.353.313,4.511,4.511,0,0,0-3.86,3.175.334.334,0,0,1-.319.246Z" transform="translate(-497.613 -114.896)"/>
                <path id="Path_352" data-name="Path 352" d="M477.67,238.074c3.161-3.068,18.242-23.027,24.112-30.161s12.645-7.314,21.856-7.407c-2.269-9.091-1.664-9.291-1.211-9.2a23.62,23.62,0,0,0,17.636-3.993c2.276-.612,2.183,8.5,4.346,9.67s16.618-1.8,23.752,5.331,12.1,24.019,12.1,24.019c-3.88,6.229-30.255,25.829-63.4,16.8-.632-2.8-5.151-7.134-6.5-12.645-5.6,7.314-9.57,12.731-9.57,12.731s-17.789-1.171-23.12-5.144Z" transform="translate(-477.67 -119.85)" fill="#f2ac30"/>
                <path id="Path_353" data-name="Path 353" d="M553.479,207.866a10.242,10.242,0,0,1-7.154-2.509.334.334,0,0,1,.486-.459c1.864,1.95,9.524,5.457,19.859-3.72a.336.336,0,0,1,.473.027.342.342,0,0,1-.027.473c-5.344,4.745-10.029,6.189-13.63,6.189Z" transform="translate(-500.603 -124.468)"/>
                <path id="Path_354" data-name="Path 354" d="M552.45,205.269a.342.342,0,0,1-.319-.233c-.12-.4-2.955-9.723-3.254-11.041a.334.334,0,0,1,.652-.146c.293,1.3,3.214,10.895,3.248,10.994a.332.332,0,0,1-.22.413.513.513,0,0,1-.1.013Z" transform="translate(-501.484 -121.958)"/>
                <path id="Path_355" data-name="Path 355" d="M558.206,205.116a.342.342,0,0,1-.319-.233l-3.494-11.141a.335.335,0,1,1,.639-.2l3.494,11.141a.337.337,0,0,1-.22.419A.259.259,0,0,1,558.206,205.116Z" transform="translate(-503.327 -121.864)"/>
                <path id="Path_356" data-name="Path 356" d="M564.355,203.552a.336.336,0,0,1-.319-.226l-3.494-10.655a.333.333,0,1,1,.632-.206l3.494,10.655a.333.333,0,0,1-.213.419.276.276,0,0,1-.106.013Z" transform="translate(-505.383 -121.505)"/>
                <path id="Path_357" data-name="Path 357" d="M570.241,200.991a.333.333,0,0,1-.319-.24l-2.948-10a.333.333,0,0,1,.639-.186l2.948,10a.331.331,0,0,1-.226.413A.45.45,0,0,1,570.241,200.991Z" transform="translate(-507.535 -120.867)"/>
                <path id="Path_358" data-name="Path 358" d="M543.143,184.074h-.106a.334.334,0,0,1-.326-.339.322.322,0,0,1,.339-.326c2.356.08,8.7-1.99,12.738-6.981a.323.323,0,0,1,.466-.047.329.329,0,0,1,.047.466c-4.126,5.1-10.628,7.228-13.164,7.228Z" transform="translate(-499.425 -116.176)"/>
                <path id="Path_359" data-name="Path 359" d="M527.342,251.723a.34.34,0,0,1-.306-.2,30.09,30.09,0,0,1-2.376-11.42.333.333,0,0,1,.666,0,29.86,29.86,0,0,0,2.323,11.154.332.332,0,0,1-.173.439.318.318,0,0,1-.133.027Z" transform="translate(-493.387 -137.405)"/>
                <path id="Path_360" data-name="Path 360" d="M599.26,259.817a.328.328,0,0,1-.319-.24c-.027-.1-2.995-10.242-4.239-14.076a.333.333,0,0,1,.632-.206c1.251,3.84,4.219,14,4.246,14.1a.328.328,0,0,1-.226.413A.449.449,0,0,1,599.26,259.817Z" transform="translate(-516.809 -139.176)"/>
                <path id="Path_361" data-name="Path 361" d="M566.931,167.551a7.717,7.717,0,0,1-3.5-1.012.332.332,0,1,1,.313-.586,6.028,6.028,0,0,0,3.933.859c2.476-.566,3.5-4.9,3.5-7.094a.334.334,0,0,1,.6-.2,4.979,4.979,0,0,0,4.193,2.156,4.414,4.414,0,0,0,3.521-3.447.333.333,0,1,1,.659.1,5.1,5.1,0,0,1-4.159,4.02h0a5.547,5.547,0,0,1-4.18-1.764c-.226,2.722-1.511,6.329-3.986,6.895a4.244,4.244,0,0,1-.885.093Z" transform="translate(-506.296 -110.035)" fill="#fff"/>
              </g>
            </g>
            <path id="Path_363" data-name="Path 363" d="M492.348,196.85h-.007c-23.486,0-46.793-4.665-59.617-8.658-30.334-9.45-45.848-34.441-47.432-76.389-.739-19.5,5.917-34.561,19.773-44.763,11.467-8.445,25.875-12.3,38.46-14.948a187.43,187.43,0,0,1,38.161-4.432c20.5,0,36.91,4.838,48.783,14.382,9.763,7.853,14.815,17.536,18.122,25.1,4.213,9.63,7.015,25.03,7.321,40.178.26,13.2-1.191,32.457-9.617,49.2-8.452,16.8-34,20.338-53.947,20.338ZM481.68,48.326a186.606,186.606,0,0,0-38.028,4.419c-29.4,6.2-59.251,18.062-57.707,59.038,1.571,41.635,16.938,66.426,46.966,75.783,13.783,4.293,37.5,8.632,59.418,8.632h.007c19.759,0,45.049-3.467,53.348-19.972,8.359-16.618,9.8-35.758,9.544-48.883-.3-15.067-3.081-30.368-7.261-39.925-4.679-10.688-17.1-39.086-66.293-39.086Z" transform="translate(-385.237 -47.66)" fill="#6479e7"/>
          </g>
          <g id="Group_127" data-name="Group 127" transform="translate(3371.697 1822.795)">
            <g id="Group_126" data-name="Group 126" transform="translate(0 0)">
              <path id="Path_364" data-name="Path 364" d="M413.041,99.447H386.952a7.889,7.889,0,0,0-7.72,8.618l.705,11.986a8.175,8.175,0,0,0,8.159,7.727l18.874-.286c.985,2.928,1.7,5.777,3.594,5.637,1.351-.133,1.93-2.988,2.316-5.75a8.032,8.032,0,0,0,7.367-7.78l.426-11.733a7.865,7.865,0,0,0-7.627-8.425Z" transform="translate(-378.871 -99.114)" fill="#fff"/>
              <path id="Path_365" data-name="Path 365" d="M410.251,133.311c-1.85,0-2.609-2.316-3.494-5-.067-.213-.14-.426-.213-.639l-18.754.28a8.471,8.471,0,0,1-8.372-8.046l-.705-11.986A8.708,8.708,0,0,1,381,101.439a7.863,7.863,0,0,1,5.77-2.489H412.86a7.731,7.731,0,0,1,5.584,2.389,8.76,8.76,0,0,1,2.383,6.382l-.426,11.733a8.4,8.4,0,0,1-7.407,8.079c-.426,2.942-1.045,5.617-2.576,5.77h-.166ZM406.791,127a.33.33,0,0,1,.313.226c.1.293.193.586.286.872.819,2.5,1.544,4.652,2.968,4.539,1.264-.126,1.8-4,2.01-5.464a.327.327,0,0,1,.306-.286,7.714,7.714,0,0,0,7.055-7.46l.426-11.733a8.109,8.109,0,0,0-2.19-5.9,7.041,7.041,0,0,0-5.1-2.19H386.772a7.21,7.21,0,0,0-5.284,2.283,8.033,8.033,0,0,0-2.11,5.983l.705,11.986a7.892,7.892,0,0,0,7.707,7.414h.113l18.874-.286h0Z" transform="translate(-378.697 -98.95)"/>
            </g>
            <path id="Path_366" data-name="Path 366" d="M395.821,119.972a2.556,2.556,0,1,1-2.556-2.622A2.587,2.587,0,0,1,395.821,119.972Z" transform="translate(-382.715 -105.104)" fill="#6479e7"/>
            <path id="Path_367" data-name="Path 367" d="M411.011,119.972a2.556,2.556,0,1,1-2.556-2.622A2.587,2.587,0,0,1,411.011,119.972Z" transform="translate(-387.796 -105.104)" fill="#6479e7"/>
            <path id="Path_368" data-name="Path 368" d="M426.2,119.972a2.556,2.556,0,1,1-2.556-2.622A2.587,2.587,0,0,1,426.2,119.972Z" transform="translate(-392.877 -105.104)" fill="#6479e7"/>
          </g>
        </g>
        <g id="Group_140" data-name="Group 140" transform="translate(-1804.74 -2247.497)">
          <path id="Path_296" data-name="Path 296" d="M646.724,347.139a2.785,2.785,0,0,1-.556-.055,2.884,2.884,0,0,1-2.24-1.864,4.138,4.138,0,0,1,.439-3.845,7.968,7.968,0,0,1,3.735-3.156,2.971,2.971,0,0,0-1.214-.948,6.485,6.485,0,0,0-4.613.18,2.688,2.688,0,0,0-1.527,1.535.391.391,0,0,1-.744-.243,3.447,3.447,0,0,1,1.934-2,7.345,7.345,0,0,1,5.239-.2,3.79,3.79,0,0,1,1.684,1.378,7.032,7.032,0,0,1,.838-.227,5.125,5.125,0,0,1,4.221.11c1.206.681,2.052,2.06,2.5,4.1a.393.393,0,1,1-.767.172,5.168,5.168,0,0,0-2.122-3.594,4.439,4.439,0,0,0-3.634-.039,4.613,4.613,0,0,0-.626.164,8.219,8.219,0,0,1,.407,5.693C649.136,346.121,648.063,347.139,646.724,347.139Zm1.8-8.246a7.26,7.26,0,0,0-3.493,2.89,3.408,3.408,0,0,0-.376,3.148,2.132,2.132,0,0,0,1.652,1.386c1.668.329,2.381-1.441,2.608-2.224A7.485,7.485,0,0,0,648.525,338.893Z" transform="translate(2911.474 1712.612)"/>
          <path id="Path_301" data-name="Path 301" d="M634.179,292.444a4.4,4.4,0,0,1-3.641-1.919l-7.847-11.559a4.409,4.409,0,0,1,1.167-6.1l11.559-7.854a4.355,4.355,0,0,1,2.459-.752,4.423,4.423,0,0,1,3.649,1.919l7.847,11.551a4.393,4.393,0,0,1-1.167,6.1l-11.551,7.847a4.373,4.373,0,0,1-2.459.752Zm3.688-27.393a3.591,3.591,0,0,0-2.02.619l-11.559,7.854a3.619,3.619,0,0,0-.955,5.012l7.847,11.559a3.621,3.621,0,0,0,3,1.574,3.573,3.573,0,0,0,2.02-.619l11.551-7.847a3.619,3.619,0,0,0,.955-5.02l-7.847-11.551a3.629,3.629,0,0,0-3-1.582Z" transform="translate(2915.389 1728.207)" fill="#6479e7"/>
          <path id="Path_304" data-name="Path 304" d="M389.713,401.713H389.7c-32.389,0-60.5-2.435-79.148-6.852-21.222-5.027-35.357-13.743-42.013-25.9-5.623-10.274-5.881-22.9-.767-37.518.2-.548.392-1.12.6-1.715,3.994-11.574,11.425-33.117,46.8-76.047,25.717-31.207,58.717-48.4,92.931-48.4a105.18,105.18,0,0,1,37.291,6.907c30.228,11.433,55.5,29.8,73.095,53.141,14.808,19.64,24.033,42.6,25.983,64.653,2.107,23.83-4.667,43.462-17.69,51.23-23.728,14.158-85.93,20.494-137.051,20.494Zm18.372-195.642c-33.971,0-66.759,17.087-92.328,48.114-35.279,42.812-42.679,64.269-46.657,75.8-.2.6-.407,1.175-.6,1.723-5.035,14.4-4.8,26.806.713,36.884,6.547,11.958,20.509,20.541,41.512,25.513,18.591,4.4,46.634,6.829,78.968,6.829h.016c51.019,0,113.056-6.3,136.651-20.384,12.757-7.612,19.39-26.962,17.314-50.487-3.375-38.114-31.214-91.654-98.577-117.129a104.377,104.377,0,0,0-37.017-6.86Z" transform="translate(2993 1741)" fill="#6479e7"/>
          <g id="Group_121" data-name="Group 121" transform="translate(3307.904 1969.326)">
            <path id="Path_335" data-name="Path 335" d="M335.6,235.289c-4.44.407-6.954,3.164-6.515,11s-1.331,15.944,1.778,18.975,10.956,3.038,18.207,3.164,16.649-.086,19.429-.125c6.547-.094,8.88-1.229,9.765-6.359.525-3.015-.736-20.032-.775-21.825-.11-4.456-3-5.028-9.327-5.317-6.069-.274-28.419.094-32.561.478Z" transform="translate(-328.97 -234.709)" fill="#f2ac30"/>
            <path id="Path_336" data-name="Path 336" d="M354.414,256.395h-.086c-3.125-.047-5.662-2.67-7.526-4.957-3.438-4.221-11.183-12.874-13.07-14.487a.389.389,0,0,1,.5-.6c1.911,1.629,9.71,10.345,13.164,14.589,1.754,2.154,4.127,4.628,6.93,4.667,2,.016,4.1-1.2,6.226-3.657,5.865-6.766,14.566-15.286,14.652-15.372a.393.393,0,1,1,.556.556c-.086.086-8.763,8.583-14.6,15.325-2.294,2.647-4.495,3.931-6.742,3.931Z" transform="translate(-329.973 -235.046)"/>
            <path id="Path_337" data-name="Path 337" d="M331.271,270.168a.392.392,0,0,1-.172-.744c1.018-.509,6.21-5.411,10-8.982,3.14-2.968,4.941-4.652,5.364-4.918a.393.393,0,1,1,.407.673c-.376.227-2.733,2.459-5.231,4.816-5.137,4.847-9.147,8.6-10.188,9.115a.346.346,0,0,1-.172.039Z" transform="translate(-329.384 -239.211)"/>
            <path id="Path_338" data-name="Path 338" d="M383.872,271.271a.388.388,0,0,1-.337-.2c-.251-.423-3.164-3.587-5.983-6.641-3.72-4.033-7.573-8.207-8.16-9.131a.392.392,0,1,1,.666-.415c.548.861,4.542,5.192,8.066,9.014,3.594,3.892,5.811,6.3,6.085,6.774a.386.386,0,0,1-.141.533.372.372,0,0,1-.2.055Z" transform="translate(-337.724 -239.045)"/>
          </g>
          <g id="Group_134" data-name="Group 134" transform="translate(3289.244 1980.321)">
            <path id="Path_369" data-name="Path 369" d="M547.56,437.9H517.082a.392.392,0,0,1,0-.783H547.56a.392.392,0,0,1,0,.783Z" transform="translate(-351.026 -289.607)"/>
            <path id="Path_370" data-name="Path 370" d="M439.112,286.1c-9.029-4.354-10.729-14.135,2.443-17.855-9.248-11.371.1-17.957,6.374-19.233s18.7,1.911,30.705,12.224,17.213,10.838,20.83,18.912,1.911,14.346-1.7,22.53-4.041,10.728,2.976,17.322,12.749,13.18,7.862,25.607-63.329,7.862-66.094-.634,3.822-39.633,3.822-39.633L439.1,286.112Z" transform="translate(-332.659 -248.75)"/>
            <path id="Path_371" data-name="Path 371" d="M432.416,353.49c-1.378-6.053.219-19.961,12.326-26.884,8.826-5.051,13.493,2.02,13.493,2.02l1.378,23.274s-24.229,1.7-27.2,1.6Z" transform="translate(-332.658 -265.242)"/>
            <g id="Group_128" data-name="Group 128" transform="translate(26.8 50.15)">
              <path id="Path_372" data-name="Path 372" d="M344.424,316.037c-1.065-1.488-2.655-3.524-4.143-2.459s.877,9.695,7.541,8.622A57.879,57.879,0,0,1,344.424,316.037Z" transform="translate(-339.471 -312.897)" fill="#fff"/>
              <path id="Path_373" data-name="Path 373" d="M346.6,322.579h0c-3.735,0-6.038-3.054-6.868-5.662-.431-1.355-.634-3.148.219-3.759a1.882,1.882,0,0,1,1.1-.368c1.323,0,2.506,1.4,3.587,2.921a60.762,60.762,0,0,0,3.406,6.171.4.4,0,0,1,.031.376.372.372,0,0,1-.3.227A7.573,7.573,0,0,1,346.6,322.579Zm-5.56-9.014a1.078,1.078,0,0,0-.642.219c-.29.2-.431,1.323.07,2.89.791,2.475,2.819,5.121,6.124,5.121h0a4.254,4.254,0,0,0,.446-.016,63.265,63.265,0,0,1-3.085-5.677c-.517-.713-1.817-2.529-2.913-2.529Z" transform="translate(-339.365 -312.79)"/>
            </g>
            <g id="Group_129" data-name="Group 129" transform="translate(45.08 46.642)">
              <path id="Path_374" data-name="Path 374" d="M368.3,316.023c-3.61-1.167-5.952-4.041-4.785-6.374s5,.744,7.651,2.866a12.613,12.613,0,0,0,5.208,2.553A12.712,12.712,0,0,1,368.3,316.023Z" transform="translate(-362.818 -308.419)" fill="#fff"/>
              <path id="Path_375" data-name="Path 375" d="M370.713,316.619a10.653,10.653,0,0,1-2.623-.321,8.128,8.128,0,0,1-5.075-4.041,3.376,3.376,0,0,1,.039-2.9,1.793,1.793,0,0,1,1.692-1.049c1.817,0,4.417,2.083,6.508,3.751a12.6,12.6,0,0,0,5.075,2.514.392.392,0,0,1,.11.736A13.687,13.687,0,0,1,370.713,316.619Zm-5.967-7.526a1.012,1.012,0,0,0-.987.619,2.577,2.577,0,0,0-.016,2.24,7.32,7.32,0,0,0,4.573,3.587,9.913,9.913,0,0,0,2.4.29,13.125,13.125,0,0,0,4.338-.791,13.656,13.656,0,0,1-4.237-2.326c-1.942-1.551-4.526-3.618-6.069-3.618Z" transform="translate(-362.708 -308.31)"/>
            </g>
            <g id="Group_130" data-name="Group 130" transform="translate(30.496 44.285)">
              <path id="Path_376" data-name="Path 376" d="M368.054,347.995c-.282-6.233-.995-18.7-1.981-22.671s-7.228-2.835-7.651-2.976-8.183,2.8-12-4.957-.744-10.627,1.378-9.883c.744-2.553,2.866-1.809,4.041-.533,1.065-2.232,4.143.11,4.887,2.976s1.488,5.419,7.439,4.675,13.281-2.443,16.155,6.163,5.208,22,5.208,22-1.135,8.5-17.463,5.208Z" transform="translate(-344.196 -305.409)" fill="#fff"/>
              <path id="Path_377" data-name="Path 377" d="M374.747,349.036a35.143,35.143,0,0,1-6.883-.767.392.392,0,0,1-.313-.368c-.188-4.213-.9-18.3-1.973-22.592-.454-1.809-2.24-2.725-5.325-2.725-.5,0-.948.023-1.276.039a3.077,3.077,0,0,1-.736,0,3.543,3.543,0,0,0-.439.078,15.424,15.424,0,0,1-3.117.352,9.31,9.31,0,0,1-8.739-5.607c-2.663-5.4-1.887-8.089-1.19-9.209a2.654,2.654,0,0,1,2.67-1.316,2.168,2.168,0,0,1,2.052-1.621,3.426,3.426,0,0,1,2.169.94,1.647,1.647,0,0,1,1.339-.658c1.558,0,3.43,1.942,4,4.158.626,2.42,1.167,4.511,5.145,4.511a15,15,0,0,0,1.872-.125c.439-.055.877-.117,1.331-.172a40.4,40.4,0,0,1,5.325-.478c3.242,0,7.8.736,9.914,7.079,2.843,8.536,5.2,21.919,5.223,22.052v.117c-.008.063-.955,6.3-11.042,6.3Zm-6.429-1.472a33.81,33.81,0,0,0,6.429.689c8.912,0,10.141-5,10.251-5.576-.18-1.034-2.459-13.7-5.184-21.872-1.934-5.8-5.92-6.547-9.17-6.547a40.573,40.573,0,0,0-5.223.47c-.454.063-.9.117-1.339.172a16.568,16.568,0,0,1-1.966.133c-4.581,0-5.278-2.71-5.9-5.1-.525-2.013-2.177-3.571-3.25-3.571a.982.982,0,0,0-.908.666.4.4,0,0,1-.3.219.36.36,0,0,1-.345-.125,2.905,2.905,0,0,0-1.95-1.042c-.666,0-1.143.478-1.417,1.417a.39.39,0,0,1-.2.235.415.415,0,0,1-.305.023,1.833,1.833,0,0,0-2.13.885c-.493.791-1.363,3.2,1.229,8.45a8.459,8.459,0,0,0,8.035,5.168,14.848,14.848,0,0,0,2.968-.337,3.5,3.5,0,0,1,.611-.094,1.191,1.191,0,0,1,.164.023c.149,0,.305-.016.509-.023.345-.016.807-.039,1.323-.039,3.485,0,5.529,1.12,6.085,3.32,1.065,4.26,1.77,17.87,1.981,22.444Z" transform="translate(-344.085 -305.3)"/>
            </g>
            <path id="Path_378" data-name="Path 378" d="M349.386,323.472a.407.407,0,0,1-.243-.078,13.436,13.436,0,0,1-4.746-8.254.387.387,0,0,1,.305-.462.393.393,0,0,1,.462.305,12.7,12.7,0,0,0,4.456,7.8.388.388,0,0,1-.243.7Z" transform="translate(-313.654 -263.048)"/>
            <path id="Path_379" data-name="Path 379" d="M361.346,320.332h-.016a7.01,7.01,0,0,1-5.388-2.78c-2.655-3.352-2.952-8.747-2.631-10.431a.39.39,0,1,1,.767.141c-.29,1.527.016,6.7,2.475,9.8a6.228,6.228,0,0,0,4.808,2.482.392.392,0,0,1-.016.783Z" transform="translate(-315.567 -261.341)"/>
            <path id="Path_380" data-name="Path 380" d="M356.08,323.354h-.031a6.974,6.974,0,0,1-5.074-2.835c-3.125-4.049-3.109-11.081-2.827-12.71a.392.392,0,0,1,.454-.321.4.4,0,0,1,.321.454c-.274,1.558-.29,8.262,2.67,12.1a6.192,6.192,0,0,0,4.518,2.529.392.392,0,0,1-.031.783Z" transform="translate(-314.444 -261.489)"/>
            <path id="Path_381" data-name="Path 381" d="M452.34,368.628c3.508,1.6,13.7,5.208,32.2.533-.634,12.749-1.911,39.633-1.911,39.633s-15.411,8.716-25.717,5.1c-2.866-4.887-4.565-45.271-4.565-45.271Z" transform="translate(-337.069 -274.749)"/>
            <g id="Group_131" data-name="Group 131" transform="translate(102.198 16.719)">
              <path id="Path_382" data-name="Path 382" d="M452,337.281c3.078-.423,6.406-1.6,6.085-6.7s-1.167-11.794-1.167-11.794c-7.972-.1-15.834-4.252-19.444-12.436s1.167-12.436,3.822-20.932,7.651-15.513,18.81-14.769,17.111,6.053,17.111,6.053c-1.911,9.985-3.822,24.12.321,24.973s5.208-6.484,5.208-6.484c6.273-3.085,12.835.666,10.306,6.163-3.078,6.7-10.415,3.3-10.415,3.3-1.488,3.822-7.761,8.074-7.761,8.074.955,7.862,1.911,20.87,7.862,21.614-2.443,12.436-3.712,16.962-3.712,16.962s-21.355,5.208-29.116-2.443c.321-2.655,2.091-11.582,2.091-11.582Z" transform="translate(-435.76 -270.208)" fill="#fff"/>
              <path id="Path_383" data-name="Path 383" d="M464.3,353.32c-6.93,0-11.911-1.441-14.793-4.284a.388.388,0,0,1-.11-.329c.313-2.639,2.028-11.245,2.1-11.606a.391.391,0,0,1,.329-.313c3.015-.415,6.053-1.488,5.748-6.288-.274-4.385-.948-10.016-1.128-11.433a21.509,21.509,0,0,1-19.46-12.655c-2.655-6.022-.916-9.914,1.292-14.855A56.931,56.931,0,0,0,440.8,285.2c3.367-10.775,9.632-15.686,19.209-15.043,11.167.744,17.1,5.936,17.346,6.155a.4.4,0,0,1,.125.368c-2.866,14.989-2.866,23.924.016,24.511a2.968,2.968,0,0,0,.572.063c3.226,0,4.158-6.155,4.166-6.218a.415.415,0,0,1,.211-.3,10.892,10.892,0,0,1,4.761-1.151,6.889,6.889,0,0,1,5.936,2.78,5.113,5.113,0,0,1,.141,5.043,6.963,6.963,0,0,1-6.664,4.385,11.212,11.212,0,0,1-3.892-.744c-1.582,3.446-6.484,7.009-7.549,7.753.07.6.141,1.229.219,1.872.9,7.815,2.13,18.52,7.267,19.163a.392.392,0,0,1,.266.157.38.38,0,0,1,.063.305c-2.42,12.3-3.712,16.946-3.72,16.985a.4.4,0,0,1-.282.274A71.293,71.293,0,0,1,464.3,353.3Zm-14.1-4.714c2.756,2.608,7.5,3.931,14.1,3.931a70.329,70.329,0,0,0,14.276-1.668c.274-1.042,1.5-5.8,3.571-16.312-5.4-1.182-6.633-11.9-7.541-19.781-.086-.728-.164-1.441-.243-2.107a.379.379,0,0,1,.172-.368c.063-.039,6.186-4.229,7.612-7.894a.378.378,0,0,1,.219-.219.432.432,0,0,1,.313,0,10.532,10.532,0,0,0,3.939.83,6.163,6.163,0,0,0,5.952-3.931,4.3,4.3,0,0,0-.094-4.291,6.1,6.1,0,0,0-5.27-2.42,10.041,10.041,0,0,0-4.229.979c-.2,1.175-1.347,6.68-4.91,6.68a3.465,3.465,0,0,1-.736-.078c-3.493-.713-3.72-9.194-.666-25.2-1.034-.838-6.836-5.161-16.7-5.818-9.272-.619-15.122,3.97-18.411,14.5A57.6,57.6,0,0,1,439,291.878c-2.13,4.761-3.806,8.52-1.292,14.213a20.774,20.774,0,0,0,19.092,12.2.389.389,0,0,1,.384.345c.008.07.854,6.766,1.175,11.817.337,5.356-3.266,6.633-6.147,7.071-.29,1.472-1.676,8.544-2.013,11.089Z" transform="translate(-435.646 -270.099)"/>
            </g>
            <path id="Path_384" data-name="Path 384" d="M451.324,304.482a.372.372,0,0,1-.2-.055c-2.24-1.276-3.414-2.529-3.594-3.829-.219-1.613,1.089-2.921,2.349-4.19.251-.251.493-.493.728-.744,2.067-2.2,1.848-6.218.767-9.014a3.07,3.07,0,0,0-2.318-2.114,4.316,4.316,0,0,0-3.681,1.245.393.393,0,1,1-.579-.533,5.109,5.109,0,0,1,4.409-1.488,3.8,3.8,0,0,1,2.905,2.6c1.206,3.117,1.378,7.369-.932,9.828-.235.251-.486.5-.744.76-1.128,1.135-2.294,2.3-2.13,3.532.141,1.026,1.214,2.122,3.2,3.25a.4.4,0,0,1,.149.533.388.388,0,0,1-.337.2Z" transform="translate(-335.411 -256.329)"/>
            <path id="Path_385" data-name="Path 385" d="M474.441,291.687a.384.384,0,0,1-.321-.172c-4.135-6.163-8.52-5.317-10.775-4.252a.394.394,0,1,1-.337-.713c2-.932,7.134-2.365,11.754,4.526a.39.39,0,0,1-.11.54.36.36,0,0,1-.219.063Z" transform="translate(-339.334 -256.776)"/>
            <path id="Path_386" data-name="Path 386" d="M468.808,299.647c-.415,1.323-1.363,2.208-2.122,1.973s-1.034-1.5-.619-2.827,1.363-2.208,2.114-1.973,1.034,1.5.619,2.827Z" transform="translate(-340.005 -259.168)"/>
            <path id="Path_387" data-name="Path 387" d="M468.774,297.055a.385.385,0,0,1-.376-.282l-.713-2.412a.392.392,0,1,1,.752-.219l.713,2.412a.386.386,0,0,1-.266.486A.53.53,0,0,1,468.774,297.055Z" transform="translate(-340.394 -258.534)"/>
            <path id="Path_388" data-name="Path 388" d="M449.04,295.937c-.415,1.323-1.363,2.208-2.114,1.973s-1.034-1.5-.619-2.827,1.363-2.208,2.114-1.973S449.455,294.613,449.04,295.937Z" transform="translate(-335.719 -258.363)"/>
            <path id="Path_389" data-name="Path 389" d="M449,293.345a.385.385,0,0,1-.376-.282l-.713-2.412a.392.392,0,1,1,.752-.219l.713,2.412a.39.39,0,0,1-.266.486.528.528,0,0,1-.11.016Z" transform="translate(-336.106 -257.729)"/>
            <path id="Path_390" data-name="Path 390" d="M452.037,318.426a2.716,2.716,0,0,1-2.052-.846c-.948-.995-1.378-2.835-1.261-5.474a.381.381,0,0,1,.243-.345.4.4,0,0,1,.415.07c.564.517,2.208,1.112,5,1.112a23.763,23.763,0,0,0,5.552-.7.4.4,0,0,1,.431.18.4.4,0,0,1-.039.462c-3.1,3.524-6.116,5.552-8.277,5.552Zm-2.553-5.576c-.008,2.013.352,3.453,1.065,4.19,1.488,1.558,4.808-.031,8.356-3.775-3.79.744-7.6.525-9.413-.423Z" transform="translate(-336.281 -262.411)"/>
            <path id="Path_391" data-name="Path 391" d="M450.742,318.635a.372.372,0,0,1-.2-.055.386.386,0,0,1-.141-.533c.924-1.605,4.659-2.6,6.891-1.848a.389.389,0,1,1-.251.736c-2.02-.689-5.278.305-5.967,1.5a.388.388,0,0,1-.337.2Z" transform="translate(-336.638 -263.324)"/>
            <path id="Path_392" data-name="Path 392" d="M462.319,331.188a.419.419,0,0,1-.439-.392.388.388,0,0,1,.392-.392h.047c3.97,0,10.36-2.287,14.644-4.558a.394.394,0,1,1,.368.7c-4.37,2.318-10.916,4.652-15.012,4.652Z" transform="translate(-339.138 -265.462)"/>
            <path id="Path_393" data-name="Path 393" d="M374.18,356.429c1.809.634,10.627.634,17.745-3.4,1.167,6.484,5.529,25.819,5.529,25.819,6.053-6.586,14.448-14.346,18.278-17.643s9.671-6.484,15.4-6.273a67.631,67.631,0,0,0,8.716-.11s-4.565,8.074-2.232,30.494,3.078,25.4,3.078,25.4l-7.862-.744s1.6-5-3.187-10.736-6.163-9.35-6.8-13.6c-5.1,5.208-18.7,19.656-30.071,19.766s-15.411-10.094-17-22.843a242.331,242.331,0,0,1-1.6-26.14Z" transform="translate(-320.116 -271.368)" fill="#70badb"/>
            <g id="Group_132" data-name="Group 132" transform="translate(86.959 133.511)">
              <path id="Path_394" data-name="Path 394" d="M470.967,419.746c-3.187.955-16.9,5.028-23.164,4.6s-12.749-3.508-17.855-2.232-13.853,7.706-13.227,10.251c.478,1.966,2.819.9,2.819.9a1.767,1.767,0,0,0,2.553.846c.854,1.809,4.785.744,7.118-1.276a8.389,8.389,0,0,1,8.818-1.809,55.448,55.448,0,0,0,15.834,3.4c6.586.321,22.107-.407,22.107-.407s2.341-9.194-5-14.292Z" transform="translate(-416.296 -419.347)" fill="#fff"/>
              <path id="Path_395" data-name="Path 395" d="M423.856,435.333a2.384,2.384,0,0,1-2.036-.822,2.557,2.557,0,0,1-.846.149,1.963,1.963,0,0,1-1.731-1.01,3.842,3.842,0,0,1-1.12.2,1.82,1.82,0,0,1-1.9-1.488c-.744-3.046,8.622-9.5,13.516-10.729a11.583,11.583,0,0,1,2.8-.321,36.008,36.008,0,0,1,7.854,1.245,47.358,47.358,0,0,0,7.322,1.292c5.513.384,16.946-2.764,23.031-4.589a.4.4,0,0,1,.337.055c7.471,5.192,5.176,14.613,5.145,14.707a.393.393,0,0,1-.36.3c-.1,0-10.517.486-17.823.486h0c-1.746,0-3.2-.031-4.315-.078A55.563,55.563,0,0,1,437.8,431.3a7.98,7.98,0,0,0-8.434,1.731,9.37,9.37,0,0,1-5.5,2.294Zm-1.879-1.707a.3.3,0,0,1,.117.016.4.4,0,0,1,.235.2,1.585,1.585,0,0,0,1.527.7,8.586,8.586,0,0,0,4.988-2.107,8.738,8.738,0,0,1,9.209-1.879,54.859,54.859,0,0,0,15.725,3.375c1.1.055,2.545.078,4.276.078,6.594,0,15.725-.392,17.487-.47.3-1.543,1.4-9.076-4.746-13.485-6.179,1.848-17.534,4.941-23.125,4.565a48.058,48.058,0,0,1-7.439-1.316,35.776,35.776,0,0,0-7.674-1.222,10.374,10.374,0,0,0-2.608.3c-5.129,1.284-13.477,7.588-12.945,9.781a1.042,1.042,0,0,0,1.136.893,3.283,3.283,0,0,0,1.143-.251.4.4,0,0,1,.517.188,1.291,1.291,0,0,0,1.19.877,1.961,1.961,0,0,0,.814-.2.417.417,0,0,1,.188-.047Z" transform="translate(-416.187 -419.24)"/>
            </g>
            <path id="Path_396" data-name="Path 396" d="M533.959,397.506c-4.675-12.537-8.716-26.14-12.537-32.3s-8.395-11.9-16.9-12.749c-6.163-.423-11.692-.634-11.692-.634-2.02,5.317-8.5,31.026-5.1,52.6a4.448,4.448,0,0,0-2.553.854c3.4,2.764,5.309,7.761,4.464,14.448a131.2,131.2,0,0,0,35.49-2.443c5.1-1.276,13.493-7.228,8.818-19.765Zm-29.969,3.931.744-8.927,2.443,8.285-3.187.634Z" transform="translate(-344.192 -271.106)" fill="#70badb"/>
            <path id="Path_397" data-name="Path 397" d="M366.791,317.273a.393.393,0,0,1-.392-.368.388.388,0,0,1,.368-.415c.728-.047,1.605-.125,2.569-.219,3.211-.305,7.2-.681,9.593-.063a.392.392,0,1,1-.2.76c-2.263-.587-6.179-.211-9.327.086-.963.094-1.856.172-2.592.219h-.023Z" transform="translate(-318.428 -263.309)"/>
            <path id="Path_398" data-name="Path 398" d="M436.559,394.283a.392.392,0,0,1-.384-.313,22.319,22.319,0,0,1,1.19-11.05.389.389,0,0,1,.728.274c-.791,2.114-1.926,6.735-1.151,10.627a.4.4,0,0,1-.305.462Z" transform="translate(-333.504 -277.796)"/>
            <path id="Path_399" data-name="Path 399" d="M485.372,418.384a.39.39,0,0,1-.094-.767c3.438-.908,24.965-5.137,32.561-5.787a.394.394,0,0,1,.423.36.389.389,0,0,1-.36.423c-7.557.65-29.006,4.855-32.428,5.764a.456.456,0,0,1-.1.016Z" transform="translate(-344.149 -284.121)"/>
            <path id="Path_400" data-name="Path 400" d="M509.66,401.762a.4.4,0,0,1-.376-.274c-.767-2.4-2.663-9.985-3.571-13.626l-.266-1.057a.392.392,0,1,1,.76-.2l.266,1.057c.908,3.634,2.8,11.2,3.555,13.579a.4.4,0,0,1-.251.493.3.3,0,0,1-.117.016Z" transform="translate(-348.585 -278.587)"/>
            <path id="Path_401" data-name="Path 401" d="M423.471,436.363h-.039a.387.387,0,0,1-.352-.423c.125-1.425,5.85-6.194,11.018-7.674a.392.392,0,1,1,.219.752c-5.192,1.488-10.368,6.069-10.447,6.993a.392.392,0,0,1-.392.36Z" transform="translate(-330.722 -287.683)"/>
            <path id="Path_402" data-name="Path 402" d="M420.212,435.077a.388.388,0,0,1-.392-.392c0-2.044,4.291-6.351,11.01-8.45a.394.394,0,0,1,.235.752c-6.9,2.154-10.454,6.375-10.454,7.706a.388.388,0,0,1-.392.392Z" transform="translate(-330.015 -287.242)"/>
            <g id="Group_133" data-name="Group 133" transform="translate(0 101.435)">
              <path id="Path_403" data-name="Path 403" d="M423.068,423.974H389.512l-13.5-39.437a9.916,9.916,0,0,0-8.755-6.257H309.949c-3.634,0-5.646,2.811-4.472,6.257l13.908,40.627c1.519,3.947,1.7,7.189,5.654,7.189H423.06a4.19,4.19,0,0,0,0-8.379Z" transform="translate(-305.142 -378.28)" fill="#f2ac30"/>
              <path id="Path_404" data-name="Path 404" d="M390.531,437.843h-66.65a.392.392,0,0,1,0-.783h66.65a.392.392,0,0,1,0,.783Z" transform="translate(-309.122 -391.029)"/>
              <path id="Path_405" data-name="Path 405" d="M355.972,416.493c-2.9,0-6.085-2.874-7.1-6.406a5.862,5.862,0,0,1,.579-5.176,3.628,3.628,0,0,1,2.984-1.441c2.9,0,6.085,2.874,7.1,6.406a5.862,5.862,0,0,1-.579,5.176A3.628,3.628,0,0,1,355.972,416.493Zm-3.54-12.248a2.836,2.836,0,0,0-2.357,1.128,5.107,5.107,0,0,0-.454,4.487c.932,3.219,3.775,5.842,6.351,5.842a2.836,2.836,0,0,0,2.357-1.128,5.107,5.107,0,0,0,.454-4.487c-.924-3.219-3.775-5.842-6.343-5.842Z" transform="translate(-314.556 -383.744)"/>
            </g>
          </g>
        </g>
        <g id="Group_143" data-name="Group 143">
          <path id="Path_406" data-name="Path 406" d="M423.159,418.078a2.613,2.613,0,0,0-.221-3.683h0a2.6,2.6,0,0,0-3.67.221h0a2.608,2.608,0,0,0,.208,3.67h0a2.626,2.626,0,0,0,1.731.664h0a2.641,2.641,0,0,0,1.952-.872Zm-6.793-6.064a2.611,2.611,0,0,0-.182-3.683h0a2.6,2.6,0,0,0-3.67.182h0a2.61,2.61,0,0,0,.169,3.683h0a2.667,2.667,0,0,0,1.757.664h0a2.628,2.628,0,0,0,1.926-.846Zm-6.728-6.142a2.581,2.581,0,0,0-.117-3.67h0a2.6,2.6,0,0,0-3.683.117h0a2.61,2.61,0,0,0,.13,3.683h0a2.567,2.567,0,0,0,1.77.7h0a2.586,2.586,0,0,0,1.9-.833Zm297.437-4.034h0a2.591,2.591,0,0,0,.443-3.644h0a2.6,2.6,0,0,0-3.657-.455h0a2.607,2.607,0,0,0-.442,3.657h0a2.645,2.645,0,0,0,2.056,1h0A2.579,2.579,0,0,0,707.075,401.838Zm-304.048-2.212a2.608,2.608,0,0,0-.052-3.683h0a2.608,2.608,0,0,0-3.683.052h0a2.608,2.608,0,0,0,.052,3.683h0a2.584,2.584,0,0,0,1.809.742h0a2.656,2.656,0,0,0,1.874-.794Zm311.153-3.787h0a2.607,2.607,0,0,0,.169-3.67h0a2.6,2.6,0,0,0-3.683-.169h0a2.607,2.607,0,0,0-.169,3.67h0a2.628,2.628,0,0,0,1.926.846h0A2.616,2.616,0,0,0,714.18,395.838Zm-317.634-2.6a2.608,2.608,0,0,0,.052-3.683h-.013a2.6,2.6,0,0,0-3.67-.039h0a2.592,2.592,0,0,0-.052,3.67h0a2.552,2.552,0,0,0,1.861.794h0A2.614,2.614,0,0,0,396.547,393.236Zm324.258-3.9a2.6,2.6,0,0,0-.1-3.683h0a2.609,2.609,0,0,0-3.683.1h0a2.621,2.621,0,0,0,.1,3.683h0a2.643,2.643,0,0,0,1.8.716h0a2.565,2.565,0,0,0,1.887-.82Zm-330.569-2.655a2.6,2.6,0,0,0,.169-3.683h0a2.607,2.607,0,0,0-3.67-.169h0a2.6,2.6,0,0,0-.169,3.683h0a2.579,2.579,0,0,0,1.913.846h0a2.568,2.568,0,0,0,1.757-.677Zm336.7-4.321h0a2.616,2.616,0,0,0-.364-3.67h0a2.606,2.606,0,0,0-3.67.377h0a2.591,2.591,0,0,0,.377,3.657h0a2.611,2.611,0,0,0,1.64.586h0A2.6,2.6,0,0,0,726.934,382.356ZM384.145,379.91a2.6,2.6,0,0,0,.312-3.67h0a2.6,2.6,0,0,0-3.67-.3h0a2.6,2.6,0,0,0-.3,3.67h0a2.6,2.6,0,0,0,1.978.911h0A2.547,2.547,0,0,0,384.145,379.91Zm348.4-4.971a2.6,2.6,0,0,0-.638-3.618h0a2.581,2.581,0,0,0-3.618.638h0a2.589,2.589,0,0,0,.625,3.618h0a2.56,2.56,0,0,0,1.5.482h0A2.6,2.6,0,0,0,732.542,374.939Zm-354.215-2.03a2.591,2.591,0,0,0,.455-3.644h0a2.6,2.6,0,0,0-3.644-.468h0a2.61,2.61,0,0,0-.469,3.657h0a2.605,2.605,0,0,0,2.056,1h0A2.564,2.564,0,0,0,378.328,372.909Zm359.264-5.752a2.608,2.608,0,0,0-.9-3.579h0a2.607,2.607,0,0,0-3.566.9h0a2.608,2.608,0,0,0,.9,3.579h0a2.631,2.631,0,0,0,1.341.364h0A2.591,2.591,0,0,0,737.592,367.157ZM372.81,365.673a2.6,2.6,0,0,0,.638-3.631h0a2.6,2.6,0,0,0-3.631-.625h0a2.59,2.59,0,0,0-.625,3.618h0a2.584,2.584,0,0,0,2.134,1.106h0a2.631,2.631,0,0,0,1.484-.468Zm369.271-6.65a2.614,2.614,0,0,0-1.158-3.5h0a2.613,2.613,0,0,0-3.5,1.145h0a2.614,2.614,0,0,0,1.158,3.5h0a2.55,2.55,0,0,0,1.171.286h0A2.625,2.625,0,0,0,742.081,359.023Zm-374.412-.859a2.6,2.6,0,0,0,.833-3.579h0a2.6,2.6,0,0,0-3.592-.846h0a2.625,2.625,0,0,0-.833,3.592h0a2.608,2.608,0,0,0,2.212,1.223h0a2.673,2.673,0,0,0,1.379-.39Zm378.29-7.587a2.618,2.618,0,0,0-1.406-3.41h0a2.618,2.618,0,0,0-3.41,1.405h0a2.618,2.618,0,0,0,1.406,3.41h0a2.692,2.692,0,0,0,1,.2h0a2.608,2.608,0,0,0,2.408-1.6Zm-383.014-.2a2.613,2.613,0,0,0,1.054-3.54h0a2.616,2.616,0,0,0-3.527-1.041h0a2.612,2.612,0,0,0-1.041,3.54h0a2.611,2.611,0,0,0,2.29,1.353h0a2.641,2.641,0,0,0,1.236-.312ZM749.2,341.871a2.6,2.6,0,0,0-1.653-3.292h0a2.594,2.594,0,0,0-3.279,1.653h0a2.6,2.6,0,0,0,1.653,3.292h0a2.569,2.569,0,0,0,.82.13h0a2.577,2.577,0,0,0,2.46-1.783Zm-390.5.455a2.607,2.607,0,0,0,1.262-3.462h0a2.6,2.6,0,0,0-3.449-1.262h0a2.6,2.6,0,0,0-1.262,3.462h0a2.588,2.588,0,0,0,2.355,1.51h0A2.525,2.525,0,0,0,358.7,342.327Zm393.1-9.383a2.605,2.605,0,0,0-1.9-3.149h0a2.587,2.587,0,0,0-3.149,1.887h0a2.607,2.607,0,0,0,1.887,3.162h0a2.673,2.673,0,0,0,.638.078h0A2.619,2.619,0,0,0,751.8,332.944Zm-396.821,1.08a2.621,2.621,0,0,0,1.5-3.37h0a2.6,2.6,0,0,0-3.371-1.484h0a2.6,2.6,0,0,0-1.5,3.357h0a2.606,2.606,0,0,0,2.434,1.666h0a2.592,2.592,0,0,0,.937-.169ZM753.7,323.848a2.607,2.607,0,0,0-2.121-3.006h0a2.609,2.609,0,0,0-3.006,2.134h0a2.587,2.587,0,0,0,2.134,2.993h0a2.4,2.4,0,0,0,.429.039h0A2.6,2.6,0,0,0,753.7,323.848Zm-401.87,1.64a2.609,2.609,0,0,0,1.731-3.253h0a2.6,2.6,0,0,0-3.253-1.731h0a2.606,2.606,0,0,0-1.731,3.24h0a2.611,2.611,0,0,0,2.5,1.848h0a2.517,2.517,0,0,0,.755-.1Zm403.055-10.892h0a2.608,2.608,0,0,0-2.381-2.811h0a2.6,2.6,0,0,0-2.811,2.381h0a2.6,2.6,0,0,0,2.382,2.811h0c.078,0,.143.013.221.013h0A2.615,2.615,0,0,0,754.887,314.595ZM349.32,316.729a2.587,2.587,0,0,0,1.978-3.1h0a2.586,2.586,0,0,0-3.1-1.978h0a2.586,2.586,0,0,0-1.978,3.1h0a2.585,2.585,0,0,0,2.538,2.043h0a1.65,1.65,0,0,0,.56-.065Zm403.289-8.836a2.6,2.6,0,0,0,2.486-2.707h0a2.587,2.587,0,0,0-2.707-2.5h0a2.594,2.594,0,0,0-2.486,2.707h0a2.6,2.6,0,0,0,2.59,2.5Zm-405.085-.078a2.618,2.618,0,0,0,2.238-2.928h0a2.618,2.618,0,0,0-2.928-2.238h0a2.618,2.618,0,0,0-2.238,2.928h0a2.615,2.615,0,0,0,2.577,2.251h0A3.167,3.167,0,0,0,347.525,307.815Zm404.421-9.005a2.6,2.6,0,0,0,2.017-3.084h0a2.619,2.619,0,0,0-3.084-2.017h0a2.619,2.619,0,0,0-2.017,3.084h0a2.612,2.612,0,0,0,2.551,2.069h0A1.86,1.86,0,0,0,751.946,298.81ZM346.5,298.771a2.6,2.6,0,0,0,2.5-2.707h0a2.6,2.6,0,0,0-2.707-2.5h0a2.621,2.621,0,0,0-2.5,2.707h0a2.607,2.607,0,0,0,2.6,2.5Zm403.224-8.784a2.6,2.6,0,0,0,1.327-3.436h0a2.6,2.6,0,0,0-3.435-1.327h0a2.615,2.615,0,0,0-1.327,3.436h0a2.618,2.618,0,0,0,2.382,1.549h0A2.735,2.735,0,0,0,749.72,289.986Zm-400.66-2.772a2.6,2.6,0,0,0-2.447-2.746h0a2.605,2.605,0,0,0-2.746,2.46h0a2.612,2.612,0,0,0,2.447,2.746h.156A2.6,2.6,0,0,0,349.06,287.215ZM745.6,281.879a2.634,2.634,0,0,0,.429-3.67h0a2.617,2.617,0,0,0-3.657-.429h0a2.6,2.6,0,0,0-.429,3.657h0a2.588,2.588,0,0,0,2.043.989h0A2.683,2.683,0,0,0,745.6,281.879Zm-395.546-3.41a2.607,2.607,0,0,0-2.134-3.006h0a2.6,2.6,0,0,0-2.993,2.134h0a2.616,2.616,0,0,0,2.134,3.006h0a2.376,2.376,0,0,0,.429.026h0A2.6,2.6,0,0,0,350.049,278.469Zm337.206-3.553a2.6,2.6,0,0,0-2.355-2.824h0a2.6,2.6,0,0,0-2.824,2.355h0a2.6,2.6,0,0,0,2.355,2.824h.234a2.592,2.592,0,0,0,2.59-2.368Zm6.9,1.9a2.606,2.606,0,0,0,2.147-2.993h0a2.606,2.606,0,0,0-2.993-2.147h0a2.606,2.606,0,0,0-2.147,2.993h0a2.631,2.631,0,0,0,2.577,2.186h0A2.366,2.366,0,0,0,694.153,276.817Zm45.4-1.77a2.6,2.6,0,0,0-.573-3.631h0a2.6,2.6,0,0,0-3.644.586h0a2.615,2.615,0,0,0,.586,3.631h0a2.59,2.59,0,0,0,1.523.495h0A2.6,2.6,0,0,0,739.557,275.047Zm-61.294-1.51a2.587,2.587,0,0,0-1.51-3.358h0a2.613,2.613,0,0,0-3.357,1.51h0a2.609,2.609,0,0,0,1.51,3.358h0a2.626,2.626,0,0,0,.924.169h0A2.593,2.593,0,0,0,678.263,273.537Zm25.025,1.158h0a2.6,2.6,0,0,0,1.809-3.2h0a2.6,2.6,0,0,0-3.2-1.822h0a2.6,2.6,0,0,0-1.809,3.2h0a2.593,2.593,0,0,0,2.5,1.913h0A2.606,2.606,0,0,0,703.288,274.7Zm8.693-2.355a2.6,2.6,0,0,0,1.926-3.136h0a2.606,2.606,0,0,0-3.136-1.926h0a2.618,2.618,0,0,0-1.926,3.136h0a2.61,2.61,0,0,0,2.538,2h0A2.441,2.441,0,0,0,711.981,272.34Zm19.872-2.121a2.618,2.618,0,0,0-1.744-3.24h0a2.591,2.591,0,0,0-3.24,1.744h0a2.6,2.6,0,0,0,1.744,3.24h0a2.574,2.574,0,0,0,.755.1h0a2.6,2.6,0,0,0,2.5-1.848ZM352,269.867a2.6,2.6,0,0,0-1.8-3.214h0a2.6,2.6,0,0,0-3.214,1.8h0a2.615,2.615,0,0,0,1.8,3.214h0a2.644,2.644,0,0,0,.716.1h0A2.608,2.608,0,0,0,352,269.867Zm368.478,1.158a2.614,2.614,0,0,0,2.486-2.72h0a2.6,2.6,0,0,0-2.72-2.473h0a2.593,2.593,0,0,0-2.486,2.707h0a2.6,2.6,0,0,0,2.6,2.486Zm-50.531-1.184a2.607,2.607,0,0,0-.625-3.631h0a2.619,2.619,0,0,0-3.631.638h0a2.61,2.61,0,0,0,.638,3.631h0a2.641,2.641,0,0,0,1.5.469h0a2.594,2.594,0,0,0,2.121-1.106Zm-7.157-5.622a2.61,2.61,0,0,0,.26-3.67h0a2.61,2.61,0,0,0-3.67-.26h0a2.588,2.588,0,0,0-.26,3.67h0a2.564,2.564,0,0,0,1.965.9h0A2.6,2.6,0,0,0,662.79,264.22Zm-307.926-2.681a2.605,2.605,0,0,0-1.418-3.4h0a2.618,2.618,0,0,0-3.4,1.431h0a2.607,2.607,0,0,0,1.431,3.4h0a2.611,2.611,0,0,0,.976.2h0a2.586,2.586,0,0,0,2.407-1.627Zm302.33-4.49a2.611,2.611,0,0,0,1.2-3.488h0a2.606,2.606,0,0,0-3.488-1.184h0a2.587,2.587,0,0,0-1.184,3.475h0a2.574,2.574,0,0,0,2.329,1.458h0a2.725,2.725,0,0,0,1.145-.26Zm-298.556-3.475a2.6,2.6,0,0,0-1.041-3.527h0a2.612,2.612,0,0,0-3.54,1.041h0a2.6,2.6,0,0,0,1.054,3.527h0a2.51,2.51,0,0,0,1.236.325h0a2.6,2.6,0,0,0,2.29-1.366Zm295.029-4.919a2.6,2.6,0,0,0,2.121-3.006h0a2.591,2.591,0,0,0-3.006-2.121h0a2.6,2.6,0,0,0-2.121,3.006h0a2.617,2.617,0,0,0,2.564,2.16h0A1.7,1.7,0,0,0,653.668,248.655Zm-290.4-2.551a2.605,2.605,0,0,0-.625-3.631h0a2.605,2.605,0,0,0-3.631.625h0a2.605,2.605,0,0,0,.625,3.631h0a2.56,2.56,0,0,0,1.5.482h0a2.617,2.617,0,0,0,2.134-1.106Zm5.479-6.858h0a2.611,2.611,0,0,0-.182-3.683h0a2.6,2.6,0,0,0-3.67.182h0a2.61,2.61,0,0,0,.169,3.683h0a2.616,2.616,0,0,0,1.757.677h0a2.573,2.573,0,0,0,1.926-.859Zm286.519-2.173h0a2.586,2.586,0,0,0-2.551-2.655h0a2.611,2.611,0,0,0-2.655,2.551h0a2.6,2.6,0,0,0,2.538,2.655h.052a2.6,2.6,0,0,0,2.6-2.551Zm-280.233-3.9a2.6,2.6,0,0,0,.312-3.67h0a2.6,2.6,0,0,0-3.67-.312h0a2.614,2.614,0,0,0-.312,3.67h0a2.6,2.6,0,0,0,1.991.924h0A2.571,2.571,0,0,0,375.035,233.169Zm280.689-5.1a2.594,2.594,0,0,0-2.46-2.733h0a2.592,2.592,0,0,0-2.733,2.447h0a2.6,2.6,0,0,0,2.46,2.746h.143A2.6,2.6,0,0,0,655.724,228.068Zm-273.648-.052h0a2.6,2.6,0,0,0,.833-3.579h0a2.613,2.613,0,0,0-3.592-.833h0a2.6,2.6,0,0,0-.82,3.592h0a2.6,2.6,0,0,0,2.2,1.223h0A2.57,2.57,0,0,0,382.075,228.016Zm7.7-4.047h0a2.607,2.607,0,0,0,1.353-3.423h0a2.6,2.6,0,0,0-3.423-1.353h0a2.592,2.592,0,0,0-1.353,3.423h0a2.59,2.59,0,0,0,2.381,1.562h0A2.656,2.656,0,0,0,389.779,223.969Zm263.589-2.538a2.6,2.6,0,0,0,2.421-2.772h0a2.6,2.6,0,0,0-2.772-2.421h0a2.606,2.606,0,0,0-2.421,2.772h0a2.6,2.6,0,0,0,2.59,2.421Zm-255.351-.351a2.605,2.605,0,0,0,1.822-3.2h0a2.605,2.605,0,0,0-3.2-1.822h0a2.611,2.611,0,0,0-1.822,3.2h0a2.609,2.609,0,0,0,2.512,1.913h0A2.513,2.513,0,0,0,398.017,221.08Zm8.615-1.848h0a2.6,2.6,0,0,0,2.16-2.967h0a2.6,2.6,0,0,0-2.98-2.173h0a2.612,2.612,0,0,0-2.16,2.98h0a2.607,2.607,0,0,0,2.564,2.2h0A1.507,1.507,0,0,0,406.632,219.232Zm8.823-1h0a2.606,2.606,0,0,0,2.407-2.785h0a2.609,2.609,0,0,0-2.8-2.408h0a2.591,2.591,0,0,0-2.395,2.8h0a2.6,2.6,0,0,0,2.59,2.394h.2Zm29.71-2.98a2.594,2.594,0,0,0-2.59-2.616h0a2.608,2.608,0,0,0-2.616,2.577h0a2.611,2.611,0,0,0,2.577,2.629h.026A2.608,2.608,0,0,0,445.165,215.25Zm-20.757,2.564h0a2.6,2.6,0,0,0,2.551-2.655h0a2.611,2.611,0,0,0-2.655-2.551h0a2.614,2.614,0,0,0-2.551,2.668h0a2.606,2.606,0,0,0,2.6,2.538Zm27.3-.013h0a2.6,2.6,0,0,0,2.564-2.642h0a2.6,2.6,0,0,0-2.642-2.564h0a2.605,2.605,0,0,0-2.564,2.655h0a2.6,2.6,0,0,0,2.6,2.551h.052Zm-15.655-2.629a2.6,2.6,0,0,0-2.59-2.616h0a2.61,2.61,0,0,0-2.616,2.59h0a2.619,2.619,0,0,0,2.59,2.616h0a2.591,2.591,0,0,0,2.6-2.59Zm24.869,2.264a2.6,2.6,0,0,0,2.421-2.785h0a2.606,2.606,0,0,0-2.772-2.421h0a2.618,2.618,0,0,0-2.42,2.785h0a2.612,2.612,0,0,0,2.6,2.421Zm9.266-.989h0a2.62,2.62,0,0,0,2.186-2.967h0a2.613,2.613,0,0,0-2.967-2.186h0a2.6,2.6,0,0,0-2.186,2.954h0a2.612,2.612,0,0,0,2.577,2.225h0c.13,0,.26-.013.39-.026Zm9.188-1.887h0a2.611,2.611,0,0,0,1.848-3.188h0a2.611,2.611,0,0,0-3.188-1.848h0a2.611,2.611,0,0,0-1.848,3.188h0a2.621,2.621,0,0,0,2.512,1.939h0A2.925,2.925,0,0,0,479.378,214.56Zm172.937-2.173a2.6,2.6,0,0,0,1.614-3.305h0a2.6,2.6,0,0,0-3.305-1.614h0a2.606,2.606,0,0,0-1.614,3.305h0a2.594,2.594,0,0,0,2.46,1.757h0A2.408,2.408,0,0,0,652.314,212.387ZM488.331,211.5a2.614,2.614,0,0,0,1.379-3.423h0a2.621,2.621,0,0,0-3.423-1.379h0a2.609,2.609,0,0,0-1.366,3.423h0a2.586,2.586,0,0,0,2.394,1.575h0a2.811,2.811,0,0,0,1.015-.2Zm8.42-4.373h0a2.6,2.6,0,0,0,.846-3.579h0a2.6,2.6,0,0,0-3.579-.859h0a2.614,2.614,0,0,0-.846,3.592h0a2.589,2.589,0,0,0,2.212,1.236h0a2.627,2.627,0,0,0,1.366-.39Zm152.076-3.136a2.6,2.6,0,0,0,.664-3.618h0a2.6,2.6,0,0,0-3.618-.664h0a2.611,2.611,0,0,0-.664,3.631h0a2.6,2.6,0,0,0,2.147,1.119h0A2.561,2.561,0,0,0,648.827,203.993Zm-144.4-2.238a2.621,2.621,0,0,0,.468-3.657h0a2.608,2.608,0,0,0-3.657-.455h0a2.591,2.591,0,0,0-.455,3.644h0a2.581,2.581,0,0,0,2.056,1.015h0A2.581,2.581,0,0,0,504.429,201.755ZM643.27,196.8a2.6,2.6,0,0,0-.156-3.67h0a2.61,2.61,0,0,0-3.683.143h0a2.622,2.622,0,0,0,.156,3.683h0a2.606,2.606,0,0,0,1.757.69h0A2.628,2.628,0,0,0,643.27,196.8Zm-131.723-.937h0a2.588,2.588,0,0,0,.26-3.67h0a2.586,2.586,0,0,0-3.67-.26h0a2.61,2.61,0,0,0-.26,3.67h0a2.583,2.583,0,0,0,1.965.9h0A2.55,2.55,0,0,0,511.547,195.86Zm124.8-4.958a2.616,2.616,0,0,0-.729-3.618h0a2.6,2.6,0,0,0-3.6.729h0a2.6,2.6,0,0,0,.716,3.6h0a2.58,2.58,0,0,0,1.445.442h0A2.636,2.636,0,0,0,636.346,190.9Zm-117.954-1.067a2.6,2.6,0,0,0,.247-3.67h0a2.6,2.6,0,0,0-3.67-.247h0a2.626,2.626,0,0,0-.247,3.683h0a2.615,2.615,0,0,0,1.965.885h0a2.588,2.588,0,0,0,1.7-.651ZM628.63,186.06a2.606,2.606,0,0,0-1.106-3.514h0a2.606,2.606,0,0,0-3.514,1.106h0a2.622,2.622,0,0,0,1.119,3.514h0a2.615,2.615,0,0,0,1.2.286h0a2.588,2.588,0,0,0,2.3-1.392Zm-103.366-2.03a2.6,2.6,0,0,0,.4-3.657h0a2.6,2.6,0,0,0-3.657-.4h0a2.6,2.6,0,0,0-.4,3.657h0a2.549,2.549,0,0,0,2.03.976h0A2.561,2.561,0,0,0,525.263,184.03Zm95.207-2.017a2.609,2.609,0,0,0-1.366-3.423h0a2.614,2.614,0,0,0-3.423,1.379h0a2.6,2.6,0,0,0,1.379,3.41h0a2.532,2.532,0,0,0,1.015.208h0a2.586,2.586,0,0,0,2.394-1.575Zm-8.42-3.475a2.59,2.59,0,0,0-1.523-3.344h0a2.587,2.587,0,0,0-3.344,1.536h0a2.6,2.6,0,0,0,1.523,3.344h0a2.506,2.506,0,0,0,.911.169h0A2.586,2.586,0,0,0,612.05,178.539Zm-79.656.273a2.59,2.59,0,0,0,.755-3.6h0a2.6,2.6,0,0,0-3.592-.755h0a2.607,2.607,0,0,0-.768,3.6h0a2.62,2.62,0,0,0,2.186,1.184h0A2.586,2.586,0,0,0,532.395,178.812Zm71.119-3.4a2.615,2.615,0,0,0-1.64-3.305h0a2.6,2.6,0,0,0-3.292,1.64h0a2.594,2.594,0,0,0,1.627,3.292h0a2.667,2.667,0,0,0,.833.143h0A2.61,2.61,0,0,0,603.513,175.415Zm-63.519-.833a2.6,2.6,0,0,0,1.288-3.449h0a2.6,2.6,0,0,0-3.449-1.288h0a2.6,2.6,0,0,0-1.288,3.449h0a2.611,2.611,0,0,0,2.368,1.523h0A2.649,2.649,0,0,0,539.995,174.583Zm54.865-2a2.61,2.61,0,0,0-1.783-3.227h0a2.6,2.6,0,0,0-3.214,1.8h0a2.6,2.6,0,0,0,1.783,3.214h0a2.719,2.719,0,0,0,.716.1h0a2.612,2.612,0,0,0,2.5-1.887Zm-8.784-2.408a2.587,2.587,0,0,0-1.978-3.1h0a2.6,2.6,0,0,0-3.1,1.978h0a2.593,2.593,0,0,0,1.978,3.1h0a2.844,2.844,0,0,0,.56.065h0A2.6,2.6,0,0,0,586.075,170.171Zm-37.934,1.51A2.613,2.613,0,0,0,550,168.492h0a2.616,2.616,0,0,0-3.188-1.848h0a2.6,2.6,0,0,0-1.848,3.175h0a2.6,2.6,0,0,0,2.512,1.939h0A2.89,2.89,0,0,0,548.141,171.681Zm29.02-3.331a2.606,2.606,0,0,0-2.225-2.928h0a2.6,2.6,0,0,0-2.928,2.238h0a2.606,2.606,0,0,0,2.225,2.928h0a3.175,3.175,0,0,0,.351.013h0A2.584,2.584,0,0,0,577.161,168.349Zm-20.47,1.8a2.621,2.621,0,0,0,2.329-2.863h0a2.6,2.6,0,0,0-2.863-2.316h0a2.6,2.6,0,0,0-2.316,2.85h0a2.6,2.6,0,0,0,2.59,2.342h0c.078,0,.169-.013.26-.013Zm11.426-2.824a2.6,2.6,0,0,0-2.525-2.681h0a2.62,2.62,0,0,0-2.681,2.525h0a2.612,2.612,0,0,0,2.525,2.681h.078A2.6,2.6,0,0,0,568.117,167.321Z" transform="translate(-264.561 -621.95)" opacity="0.1" fill="url(#linear-gradient)"/>
          <circle id="Ellipse_13" data-name="Ellipse 13" cx="2.5" cy="2.5" r="2.5" transform="translate(431 -219)" fill="#dddeff"/>
          <circle id="Ellipse_14" data-name="Ellipse 14" cx="2.5" cy="2.5" r="2.5" transform="translate(423 -214)" fill="#dddeff"/>
          <circle id="Ellipse_15" data-name="Ellipse 15" cx="2.5" cy="2.5" r="2.5" transform="translate(415 -209)" fill="#dddeff"/>
        </g>
        <path id="Path_407" data-name="Path 407" d="M446.12,136.01h0a7.745,7.745,0,0,1-4.97,4.97h0a7.745,7.745,0,0,1,4.97,4.97h0a7.745,7.745,0,0,1,4.97-4.97h0a7.745,7.745,0,0,1-4.97-4.97Z" transform="translate(45.65 -805)" fill="#b435ff"/>
        <path id="Path_408" data-name="Path 408" d="M446.12,136.01h0a7.745,7.745,0,0,1-4.97,4.97h0a7.745,7.745,0,0,1,4.97,4.97h0a7.745,7.745,0,0,1,4.97-4.97h0a7.745,7.745,0,0,1-4.97-4.97Z" transform="translate(174.65 -682)" fill="#b435ff"/>
        <path id="Path_409" data-name="Path 409" d="M446.12,136.01h0a7.745,7.745,0,0,1-4.97,4.97h0a7.745,7.745,0,0,1,4.97,4.97h0a7.745,7.745,0,0,1,4.97-4.97h0a7.745,7.745,0,0,1-4.97-4.97Z" transform="translate(-241.35 -625)" fill="#b435ff"/>
        <path id="Path_410" data-name="Path 410" d="M446.12,136.01h0a7.745,7.745,0,0,1-4.97,4.97h0a7.745,7.745,0,0,1,4.97,4.97h0a7.745,7.745,0,0,1,4.97-4.97h0a7.745,7.745,0,0,1-4.97-4.97Z" transform="translate(88.65 -399)" fill="#b435ff"/>
        <path id="Path_411" data-name="Path 411" d="M446.12,136.01h0a7.745,7.745,0,0,1-4.97,4.97h0a7.745,7.745,0,0,1,4.97,4.97h0a7.745,7.745,0,0,1,4.97-4.97h0a7.745,7.745,0,0,1-4.97-4.97Z" transform="translate(432.65 -729)" fill="#b435ff"/>
        <path id="Path_412" data-name="Path 412" d="M446.12,136.01h0a7.745,7.745,0,0,1-4.97,4.97h0a7.745,7.745,0,0,1,4.97,4.97h0a7.745,7.745,0,0,1,4.97-4.97h0a7.745,7.745,0,0,1-4.97-4.97Z" transform="translate(389.65 -451)" fill="#b435ff"/>
        <path id="Path_413" data-name="Path 413" d="M446.12,136.01h0a7.745,7.745,0,0,1-4.97,4.97h0a7.745,7.745,0,0,1,4.97,4.97h0a7.745,7.745,0,0,1,4.97-4.97h0a7.745,7.745,0,0,1-4.97-4.97Z" transform="translate(-121.35 -664)" fill="#b435ff"/>
        <path id="Path_414" data-name="Path 414" d="M446.12,136.01h0a7.745,7.745,0,0,1-4.97,4.97h0a7.745,7.745,0,0,1,4.97,4.97h0a7.745,7.745,0,0,1,4.97-4.97h0a7.745,7.745,0,0,1-4.97-4.97Z" transform="translate(132.65 -568.263)" fill="#b435ff"/>
        <path id="Path_415" data-name="Path 415" d="M446.12,136.01h0a7.745,7.745,0,0,1-4.97,4.97h0a7.745,7.745,0,0,1,4.97,4.97h0a7.745,7.745,0,0,1,4.97-4.97h0a7.745,7.745,0,0,1-4.97-4.97Z" transform="translate(667.65 -600.263)" fill="#b435ff"/>
        <path id="Path_419" data-name="Path 419" d="M446.12,136.01h0a7.745,7.745,0,0,1-4.97,4.97h0a7.745,7.745,0,0,1,4.97,4.97h0a7.745,7.745,0,0,1,4.97-4.97h0a7.745,7.745,0,0,1-4.97-4.97Z" transform="translate(574.65 -318.263)" fill="#b435ff"/>
        <path id="Path_420" data-name="Path 420" d="M446.12,136.01h0a7.745,7.745,0,0,1-4.97,4.97h0a7.745,7.745,0,0,1,4.97,4.97h0a7.745,7.745,0,0,1,4.97-4.97h0a7.745,7.745,0,0,1-4.97-4.97Z" transform="translate(949.65 -783.263)" fill="#b435ff"/>
        <path id="Path_416" data-name="Path 416" d="M446.12,136.01h0a7.745,7.745,0,0,1-4.97,4.97h0a7.745,7.745,0,0,1,4.97,4.97h0a7.745,7.745,0,0,1,4.97-4.97h0a7.745,7.745,0,0,1-4.97-4.97Z" transform="translate(787.65 -496.03)" fill="#b435ff"/>
        <path id="Path_417" data-name="Path 417" d="M446.12,136.01h0a7.745,7.745,0,0,1-4.97,4.97h0a7.745,7.745,0,0,1,4.97,4.97h0a7.745,7.745,0,0,1,4.97-4.97h0a7.745,7.745,0,0,1-4.97-4.97Z" transform="translate(1089.65 -687.03)" fill="#b435ff"/>
        <path id="Path_423" data-name="Path 423" d="M446.12,136.01h0a7.745,7.745,0,0,1-4.97,4.97h0a7.745,7.745,0,0,1,4.97,4.97h0a7.745,7.745,0,0,1,4.97-4.97h0a7.745,7.745,0,0,1-4.97-4.97Z" transform="translate(1507.65 -600.03)" fill="#b435ff"/>
        <path id="Path_421" data-name="Path 421" d="M446.12,136.01h0a7.745,7.745,0,0,1-4.97,4.97h0a7.745,7.745,0,0,1,4.97,4.97h0a7.745,7.745,0,0,1,4.97-4.97h0a7.745,7.745,0,0,1-4.97-4.97Z" transform="translate(1075.65 -442.197)" fill="#b435ff"/>
        <path id="Path_422" data-name="Path 422" d="M446.12,136.01h0a7.745,7.745,0,0,1-4.97,4.97h0a7.745,7.745,0,0,1,4.97,4.97h0a7.745,7.745,0,0,1,4.97-4.97h0a7.745,7.745,0,0,1-4.97-4.97Z" transform="translate(911.65 -339.01)" fill="#b435ff"/>
      </g>
    </g>
  </g>
</svg>
