<svg xmlns="http://www.w3.org/2000/svg" xmlns:xlink="http://www.w3.org/1999/xlink" width="156.425" height="132.824" viewBox="0 0 156.425 132.824">
  <defs>
    <clipPath id="clip-path">
      <path id="Intersection_1" data-name="Intersection 1" d="M0,59.257a59.258,59.258,0,1,1,59.257,59.257A59.258,59.258,0,0,1,0,59.257Z" transform="translate(0 0)" fill="none"/>
    </clipPath>
  </defs>
  <g id="Group_19" data-name="Group 19" transform="translate(-1140.279 -615.586)">
    <g id="workout" transform="translate(1135.006 598)">
      <g id="Group_16" data-name="Group 16">
        <g id="Group_22" data-name="Group 22">
          <path id="Path_1" data-name="Path 1" d="M26.783,132.824a5.954,5.954,0,0,1-3.218-.943A38.432,38.432,0,0,1,10.945,80.607c-.238-.985-.45-1.97-.645-2.964L6.19,68.089A10.02,10.02,0,0,1,6.4,59.767c-1.52-.722-6.775-8.23-6.063-10.984A6.66,6.66,0,0,1,4.245,44L16.21,35.573C26.427,17.854,45.9,6.4,46.111,6.4A64.6,64.6,0,0,1,74.3,0,65.449,65.449,0,0,1,88.368,1.537c6.288.1,19.09,7.515,19.09,7.515A65.213,65.213,0,0,1,56.344,127.891l-28.559,4.84a5.606,5.606,0,0,1-.994.085Z" transform="translate(5 17.586)" fill="#fff"/>
          <g id="Group_1" data-name="Group 1" transform="translate(20.047 23.53)">
            <ellipse id="Ellipse_1" data-name="Ellipse 1" cx="59.258" cy="59.258" rx="59.258" ry="59.258" transform="translate(0 0)" fill="#7b6db1"/>
            <ellipse id="Ellipse_2" data-name="Ellipse 2" cx="59.258" cy="59.258" rx="59.258" ry="59.258" transform="translate(0 0)" fill="#f99d34"/>
          </g>
          <g id="Group_21" data-name="Group 21">
            <g id="Group_2" data-name="Group 2" transform="translate(20.047 23.53)" clip-path="url(#clip-path)">
              <path id="Path_2" data-name="Path 2" d="M100.366,23.732c6.963,2.717,13.978,6.378,18.131,12.594,9.053,13.579,1.172,33.637,10.3,47.165a20.981,20.981,0,0,0,15.158,9.12A19.2,19.2,0,0,0,160.243,86c5.749-6.913,5.579-16.976,3.7-25.765A84.3,84.3,0,0,0,94.761-5.336C88.077-6.4,67.348-6.8,71.484,5.347c3.737,11,19.5,14.725,28.89,18.394Z" transform="translate(-25.746 -5.067)" fill="#f68b1f"/>
              <path id="Path_3" data-name="Path 3" d="M54.181,78.174C64.3,80.806,72.8,88.024,78.646,96.695s9.29,18.734,11.9,28.865c2.089,8.1,3.592,17.129-.382,24.5-4.577,8.492-15.532,12.076-25.018,10.318s-17.638-7.83-24.415-14.691c-4.645-4.713-8.789-9.876-13.256-14.751-4.424-4.832-8.7-6.717-14.25-10-11.694-6.9-23.345-14.708-31.183-26.045-4.45-6.428-7.558-14.173-6.734-21.944s6.344-15.345,14.029-16.789c7.473-1.41,14.759,2.938,20.721,7.66C15.9,68.459,21.69,73.724,29.1,75.668c8.084,2.123,16.857.365,25.086,2.505Z" transform="translate(-11.304 -14.373)" fill="#f68b1f"/>
            </g>
            <g id="Group_9" data-name="Group 9" transform="translate(1 -1)">
              <g id="Group_5" data-name="Group 5" transform="translate(1 -3)">
                <g id="Group_3" data-name="Group 3">
                  <path id="Path_4" data-name="Path 4" d="M75.72,67.09a4.886,4.886,0,0,1-.05.66L74.11,78.91,72.12,93.13l-9.37-1.31,2.18-15.53.33-2.35a4.718,4.718,0,0,0-3.37-5.2,42.025,42.025,0,0,0-22.21-.23,41.4,41.4,0,0,0-12.81,5.92,4.719,4.719,0,0,0-1.65,5.76l1.55,3.61,6.15,14.31-8.69,3.74L18.95,89.57,13.72,77.4a4.752,4.752,0,0,1,1.06-5.27,52.394,52.394,0,0,1,10.48-7.84,51.418,51.418,0,0,1,11.98-4.92,52.6,52.6,0,0,1,35.77,3.45,4.724,4.724,0,0,1,2.71,4.27Z" fill="#101027"/>
                  <path id="Path_5" data-name="Path 5" d="M32.92,98.11l-8.69,3.74L18.95,89.57l7.82-5.77Z" fill="#fff"/>
                  <path id="Path_6" data-name="Path 6" d="M74.11,78.91,72.12,93.13l-9.37-1.31,2.18-15.53Z" fill="#fff"/>
                </g>
                <g id="Group_4" data-name="Group 4">
                  <path id="Path_7" data-name="Path 7" d="M89.29,126.72a38.089,38.089,0,0,1-6.91,14.08l-50.84,8.61a38.245,38.245,0,1,1,57.75-22.69Z" transform="translate(-0.003 0.001)" fill="#101027"/>
                  <path id="Path_8" data-name="Path 8" d="M49.77,132.35A19.912,19.912,0,1,1,74,118a19.924,19.924,0,0,1-24.23,14.35Zm9.32-36.43a17.687,17.687,0,1,0,12.75,21.52A17.7,17.7,0,0,0,59.09,95.92Z" transform="translate(-2.799 0.857)" fill="#fff"/>
                </g>
              </g>
              <g id="Group_8" data-name="Group 8" transform="translate(57 83.853)">
                <path id="Path_9" data-name="Path 9" d="M31.38,42.711A210.031,210.031,0,0,1,62.073,22.164q8.11-4.451,16.583-8.176C83.864,11.7,89.386,8.515,95.2,8.268c4.871-.206,8.868,2.794,10.9,7.1,2.736,5.786-.486,11.11-6.47,12.577A27.783,27.783,0,0,1,82.01,25.872c-4.764-2.2-8.843-5.654-13.475-8.126a37.108,37.108,0,0,0-25.385-3.429" transform="translate(-4.286)" fill="none" stroke="#101027" stroke-miterlimit="10" stroke-width="1.71"/>
                <g id="Group_6" data-name="Group 6" transform="translate(18.218 9.982)">
                  <path id="Path_10" data-name="Path 10" d="M20.643,12.386l-.033,3.725a2.054,2.054,0,0,0,2.044,2.069l18.643.148a2.054,2.054,0,0,0,2.069-2.044l.025-3.725a2.063,2.063,0,0,0-1.376-1.953,1.958,1.958,0,0,0-.668-.115L22.7,10.35h-.049a2.053,2.053,0,0,0-2.019,2.036Z" transform="translate(-20.61 -10.35)" fill="#fff"/>
                  <path id="Path_11" data-name="Path 11" d="M23.1,10.35v1.2a1.736,1.736,0,0,0,1.723,1.764l15.866.124A1.755,1.755,0,0,0,42.452,11.7v-1.1a1.876,1.876,0,0,0-.659-.115l-18.643-.14Z" transform="translate(-21.048 -10.35)" fill="#101027"/>
                </g>
                <g id="Group_7" data-name="Group 7" transform="translate(7.003 38.221)">
                  <path id="Path_12" data-name="Path 12" d="M9.012,59.751,7.248,56.47a2.056,2.056,0,0,1,.841-2.786l16.426-8.827A2.056,2.056,0,0,1,27.3,45.7l1.764,3.288a2.052,2.052,0,0,1-.3,2.374,1.9,1.9,0,0,1-.536.412L11.8,60.591a.264.264,0,0,0-.041.025,2.053,2.053,0,0,1-2.736-.857Z" transform="translate(-7.003 -44.613)" fill="#fff"/>
                  <path id="Path_13" data-name="Path 13" d="M12.594,61.653l-.569-1.063a1.741,1.741,0,0,1,.709-2.365l13.978-7.508a1.749,1.749,0,0,1,2.365.709l.519.964a1.9,1.9,0,0,1-.536.412L12.635,61.62a.264.264,0,0,0-.041.025Z" transform="translate(-7.849 -45.649)" fill="#101027"/>
                </g>
              </g>
            </g>
          </g>
        </g>
      </g>
    </g>
  </g>
</svg>
