<svg xmlns="http://www.w3.org/2000/svg" xmlns:xlink="http://www.w3.org/1999/xlink" width="600" height="500" viewBox="0 0 600 500">
  <defs>
    <linearGradient id="linear-gradient" x1="0.552" y1="0.993" x2="0.552" y2="-0.334" gradientUnits="objectBoundingBox">
      <stop offset="0" stop-color="#fff"/>
      <stop offset="1" stop-color="#1c887b"/>
    </linearGradient>
    <linearGradient id="linear-gradient-2" x1="0.573" y1="0.885" x2="0.573" y2="0.123" gradientUnits="objectBoundingBox">
      <stop offset="0" stop-color="#fff"/>
      <stop offset="1" stop-color="#34a299"/>
    </linearGradient>
    <linearGradient id="linear-gradient-3" x1="0.408" y1="0.698" x2="0.408" y2="-0.486" xlink:href="#linear-gradient-2"/>
    <linearGradient id="linear-gradient-4" x1="0.409" y1="0.958" x2="0.409" y2="-0.106" xlink:href="#linear-gradient-2"/>
    <linearGradient id="linear-gradient-5" x1="0.71" y1="1.156" x2="0.516" y2="0.188" xlink:href="#linear-gradient"/>
    <linearGradient id="linear-gradient-6" x1="-0.84" y1="0.993" x2="-0.84" y2="-0.334" xlink:href="#linear-gradient"/>
    <linearGradient id="linear-gradient-7" x1="-1.296" y1="0.885" x2="-1.296" y2="0.123" xlink:href="#linear-gradient-2"/>
    <linearGradient id="linear-gradient-8" x1="-7.923" y1="0.698" x2="-7.923" y2="-0.486" xlink:href="#linear-gradient-2"/>
    <linearGradient id="linear-gradient-9" x1="-6.429" y1="0.958" x2="-6.429" y2="-0.106" xlink:href="#linear-gradient-2"/>
    <linearGradient id="linear-gradient-10" x1="-5.383" y1="1.156" x2="-5.577" y2="0.188" xlink:href="#linear-gradient"/>
  </defs>
  <g id="_7740166" data-name="7740166" transform="translate(8.5 -109.5)">
    <rect id="Rectangle_18" data-name="Rectangle 18" width="600" height="500" rx="20" transform="translate(-8.5 109.5)" fill="#fff4f3"/>
    <g id="_4" data-name="4" transform="translate(118.079 184.427)">
      <g id="OBJECTS" transform="translate(54.59 58.48)">
        <g id="Group_199" data-name="Group 199">
          <g id="Group_157" data-name="Group 157" transform="translate(36.557 81.018)">
            <g id="Group_153" data-name="Group 153" transform="translate(0 0)">
              <g id="Group_151" data-name="Group 151" transform="translate(14.19)">
                <path id="Path_509" data-name="Path 509" d="M163.721,247.376a20.215,20.215,0,0,1,12.764-8.4c1.192-19.581,8.149-22.634,12.1-27.93,6.33-8.781,2.481-14.187,6.4-19.338-9.292,8.812-14.972.42-27.043,15.458-4.9,6.063-1.174,2.524-1.873,12.089a21.163,21.163,0,0,0-2.341-6.063c-2.505,4.251-7.176,13.427-8.909,16.766-14.923,29.578-15.671,16.881-8.2,26.976a20.134,20.134,0,0,1,3.028,5.674,23.262,23.262,0,0,0-8.666-9.4c-5.412,9.9-3.43,13.743,6.659,27.444,10.982,15.288,3.624,19.77,7.589,5.175,6.543-24.093,19.332-13.956,21.126-44.647A18.253,18.253,0,0,0,163.721,247.376Z" transform="translate(-138.04 -191.71)" fill="url(#linear-gradient)"/>
                <path id="Path_510" data-name="Path 510" d="M184.373,216.8c11.962-17.343,14.26-14.9,12.752-16.382a119.714,119.714,0,0,0-14.254,17.532,11.9,11.9,0,0,0-1.046-8.507c-1.526.833,1.046.681.791,6.154-.243,6.008-5.023,7.528-12.466,26.988a13.675,13.675,0,0,0-3.588-10.745c-1.271,1.234,1.922.833,2.907,7.468a15.344,15.344,0,0,1-.718,7.127c-9.541,27.584,1.472,10.016-9.389-.864l-.432.432c12.953,12.977-6,34.042,8.234,81.821,1.83-.547-4.014-9.012-4.865-33.793-.438-13.153-.225-22.293,5.132-30.01,6.233-8.982,12.375-8.185,11.755-9.882a26.523,26.523,0,0,0-15.549,15.8c2.232-15.215,5.084-34.638,20.189-37.3-.28-1.441-7.893,1.7-11.439,6.026,14.23-33.6,23.011-23.528,23.315-26.7-3.953-.377-8.361,2.122-11.329,4.834Z" transform="translate(-146.227 -195.123)" fill="url(#linear-gradient-2)"/>
              </g>
              <g id="Group_152" data-name="Group 152" transform="translate(0 33.957)">
                <path id="Path_511" data-name="Path 511" d="M142.686,373.65c-2.22-.2,6.434-35.824-15.416-81.924C128.553,291.117,146.711,328.187,142.686,373.65Z" transform="translate(-119.63 -264.859)" fill="url(#linear-gradient-3)"/>
                <path id="Path_512" data-name="Path 512" d="M128.932,316.537a15.4,15.4,0,0,0-2.773-2.25c-8.659-5.424-9.122,1.514-6.209-10.459A47.285,47.285,0,0,0,121.2,293.66c4.64,10.423,15.343,22.78,17.38,49.78-2.25-17.574-20.177-19.174-20.463-29.828C121.744,313.466,126.536,314.33,128.932,316.537Z" transform="translate(-116.044 -265.62)" fill="url(#linear-gradient-4)"/>
                <path id="Path_513" data-name="Path 513" d="M123.192,263.829c-2.147-1.788-5.151-2.335-7.905-2.761-.645-3.77-.961-10.028.182-13.518,3.381,7.462,7.559,11.214,12.557,17.386,14.072,17.957,8.751,40.622,9.474,63.292-3.32-40.445-15.9-39.387-21.91-65.6A13.393,13.393,0,0,1,123.192,263.829Z" transform="translate(-114.706 -247.55)" fill="url(#linear-gradient-5)"/>
              </g>
            </g>
            <g id="Group_156" data-name="Group 156" transform="translate(93.414 0)">
              <g id="Group_154" data-name="Group 154">
                <path id="Path_514" data-name="Path 514" d="M299.583,247.376a20.215,20.215,0,0,0-12.764-8.4c-1.192-19.581-8.149-22.634-12.1-27.93-6.33-8.781-2.481-14.187-6.4-19.338,9.292,8.812,14.972.42,27.043,15.458,4.9,6.063,1.174,2.524,1.873,12.089a21.164,21.164,0,0,1,2.341-6.063c2.505,4.251,7.176,13.427,8.909,16.766,14.923,29.578,15.671,16.881,8.2,26.976a20.136,20.136,0,0,0-3.028,5.674,23.262,23.262,0,0,1,8.666-9.4c5.412,9.9,3.43,13.743-6.659,27.444-10.982,15.288-3.624,19.77-7.589,5.175-6.543-24.093-19.332-13.956-21.126-44.647A18.253,18.253,0,0,1,299.583,247.376Z" transform="translate(-268.32 -191.71)" fill="url(#linear-gradient-6)"/>
                <path id="Path_515" data-name="Path 515" d="M290.747,216.8c-11.962-17.343-14.26-14.9-12.752-16.382a119.715,119.715,0,0,1,14.254,17.532,11.9,11.9,0,0,1,1.046-8.507c1.526.833-1.046.681-.791,6.154.243,6.008,5.023,7.528,12.466,26.988a13.675,13.675,0,0,1,3.588-10.745c1.271,1.234-1.922.833-2.907,7.468a15.344,15.344,0,0,0,.718,7.127c9.541,27.584-1.472,10.016,9.389-.864l.432.432c-12.953,12.977,6,34.042-8.234,81.821-1.83-.547,4.014-9.012,4.865-33.793.438-13.153.225-22.293-5.132-30.01-6.233-8.982-12.369-8.185-11.755-9.882a26.523,26.523,0,0,1,15.549,15.8c-2.232-15.215-5.084-34.638-20.189-37.3.28-1.441,7.893,1.7,11.439,6.026-14.23-33.6-23.011-23.528-23.315-26.7,3.953-.377,8.362,2.122,11.329,4.834Z" transform="translate(-271.951 -195.123)" fill="url(#linear-gradient-7)"/>
              </g>
              <g id="Group_155" data-name="Group 155" transform="translate(47.496 33.957)">
                <path id="Path_516" data-name="Path 516" d="M347.005,373.65c2.22-.2-6.434-35.824,15.416-81.924C361.138,291.117,342.98,328.187,347.005,373.65Z" transform="translate(-346.424 -264.859)" fill="url(#linear-gradient-8)"/>
                <path id="Path_517" data-name="Path 517" d="M357.881,316.537a15.4,15.4,0,0,1,2.773-2.25c8.659-5.424,9.122,1.514,6.209-10.459a47.285,47.285,0,0,1-1.253-10.168c-4.64,10.423-15.343,22.78-17.38,49.78,2.25-17.574,20.177-19.174,20.463-29.828C365.069,313.466,360.277,314.33,357.881,316.537Z" transform="translate(-347.132 -265.62)" fill="url(#linear-gradient-9)"/>
                <path id="Path_518" data-name="Path 518" d="M361.858,263.829c2.147-1.788,5.151-2.335,7.905-2.761.645-3.77.961-10.028-.182-13.518-3.381,7.462-7.559,11.214-12.557,17.386-14.072,17.957-8.751,40.622-9.474,63.292,3.32-40.445,15.9-39.387,21.91-65.6A13.393,13.393,0,0,0,361.858,263.829Z" transform="translate(-346.706 -247.55)" fill="url(#linear-gradient-10)"/>
              </g>
            </g>
          </g>
          <g id="Group_168" data-name="Group 168" transform="translate(40.211 26.404)">
            <path id="Path_519" data-name="Path 519" d="M179.3,360.96c-3.594,11.341-3.527,27.3-3.527,27.3h75.168l-1.016-23.8-70.62-3.5Z" transform="translate(-142.29 -203.423)" fill="#0a2246"/>
            <path id="Path_520" data-name="Path 520" d="M191.4,180.964s-5.856,16.437,1.727,41.686c8.057,26.848-5.637,36.365-7.48,70.9h64.125c2.183-19.569-9.791-40.062,3.564-58.944C268.1,213.741,269.685,201,269.685,201s2.761-8.982-22.1-15.884-50.193-9.438-56.177-4.141Z" transform="translate(-146.162 -131.774)" fill="#fff"/>
            <g id="Group_162" data-name="Group 162" transform="translate(74.801 61.953)">
              <g id="Group_160" data-name="Group 160" transform="translate(1.192 8.229)">
                <g id="Group_158" data-name="Group 158" transform="translate(0 0)">
                  <path id="Path_521" data-name="Path 521" d="M253.519,217.31l-1.429,14.716-2.925-3.582-3.484,2.049,3.484-13.184Z" transform="translate(-245.68 -217.31)" fill="#f16f67"/>
                  <path id="Path_522" data-name="Path 522" d="M254.726,217.31h-4.354L248.76,223.4a2.211,2.211,0,0,1,.955.3c.626.456.809,1.843,1.563,2.092a.937.937,0,0,0,.262.036,1.367,1.367,0,0,1,1.35,1.028l.669,2.536,1.174-12.083Z" transform="translate(-246.887 -217.31)" fill="#d14d4a"/>
                </g>
                <g id="Group_159" data-name="Group 159" transform="translate(5.917)">
                  <path id="Path_523" data-name="Path 523" d="M255.41,217.31l1.429,14.716,2.925-3.582,3.484,2.049-3.484-13.184Z" transform="translate(-255.41 -217.31)" fill="#f16f67"/>
                  <path id="Path_524" data-name="Path 524" d="M259.764,217.31H255.41l.754,7.741a1.308,1.308,0,0,1,.207-.03,1.213,1.213,0,0,1,.207.03c.76.14,1.618.961,2.28.748.754-.243.93-1.63,1.563-2.092a2.211,2.211,0,0,1,.955-.3l-1.611-6.093Z" transform="translate(-255.41 -217.31)" fill="#d14d4a"/>
                </g>
              </g>
              <g id="Group_161" data-name="Group 161" transform="translate(0 0)">
                <path id="Path_525" data-name="Path 525" d="M259.847,211.785c0,.809-1.265,1.4-1.5,2.128-.243.754.42,1.976-.036,2.609s-1.836.377-2.469.839-.809,1.843-1.563,2.092c-.73.237-1.684-.772-2.493-.772s-1.764,1.009-2.493.772c-.754-.243-.93-1.63-1.563-2.092s-2.007-.207-2.469-.839.207-1.855-.036-2.609c-.237-.73-1.5-1.326-1.5-2.128s1.265-1.4,1.5-2.128c.243-.754-.42-1.976.036-2.609s1.836-.377,2.469-.839.809-1.843,1.563-2.092c.73-.237,1.684.772,2.493.772s1.764-1.009,2.493-.772c.754.243.93,1.63,1.563,2.092s2.007.207,2.469.839-.207,1.855.036,2.609C258.582,210.386,259.847,210.982,259.847,211.785Z" transform="translate(-243.72 -203.896)" fill="#fdb724"/>
                <circle id="Ellipse_35" data-name="Ellipse 35" cx="5.576" cy="5.576" r="5.576" transform="translate(0.187 7.886) rotate(-45)" fill="#feedd9"/>
                <path id="Path_526" data-name="Path 526" d="M254.885,210.173l.584,1.8a.555.555,0,0,0,.523.383h1.891a.55.55,0,0,1,.322,1l-1.526,1.113a.554.554,0,0,0-.2.62l.584,1.8a.555.555,0,0,1-.851.62l-1.526-1.113a.557.557,0,0,0-.651,0l-1.526,1.113a.554.554,0,0,1-.851-.62l.584-1.8a.557.557,0,0,0-.2-.62l-1.526-1.113a.551.551,0,0,1,.322-1h1.891a.547.547,0,0,0,.523-.383l.584-1.8a.553.553,0,0,1,1.052,0Z" transform="translate(-246.292 -206.134)" fill="#fdb724"/>
              </g>
            </g>
            <path id="Path_527" data-name="Path 527" d="M243.227,157.791c.87,5.71-.8,13.968-.8,13.968s1.976,4.269,7.93,6.78c0,0,7.638-.261,11.688-6.288,0,0-.45-6.2-.772-8.045-.262-1.472,3.491-6.7,3.491-6.7s-9.955-7.82-10.271-7.735-11.262,8.021-11.262,8.021Z" transform="translate(-168.414 -120.659)" fill="#ff948f"/>
            <path id="Path_528" data-name="Path 528" d="M254.849,149.77c-.316.085-11.262,8.021-11.262,8.021.626,3.551-.237,10.5-.237,10.5.523,3.8,3.4,4.044,5.376,3.211,5.351-2.262,10.429-5.254,13.688.76,0,0-.517-7.3-.772-8.045-.486-1.411,3.491-6.7,3.491-6.7s-9.955-7.82-10.271-7.735Z" transform="translate(-168.774 -120.66)" fill="#f16f67"/>
            <path id="Path_529" data-name="Path 529" d="M250.626,119.863c-6.209.036-15.9-7.5-5.722-9.73,3.15-.687,3.363-4.038,5.43-6.166,2.688-2.761,7.212-3.241,9.456,1.587.857,1.843,1.5,3.886,2.931,5.3,2.6,2.56,6.026,3.1,8.064,6.172,2.609,3.934-.821,8.8.426,13.129.936,3.235,1.9,3.588-2.572,6.89-9.5,7.03-7.151,8.994-8.136,8.4-1.63-.979-.249-3.959-.14-4.384.742-2.779.5-4.95-1.8-6.251a22.239,22.239,0,0,0-3.612-1.192c-5.607-2.007-.523-10.058-1.247-11.621a4.332,4.332,0,0,0-3.071-2.141Z" transform="translate(-167.647 -101.9)" fill="#0a2246"/>
            <path id="Path_530" data-name="Path 530" d="M247.485,120.912c-5.984,2.518-14.284,20.518-8.623,27.146,5.479,6.409,16.17-.73,19.332-4.117a.3.3,0,0,1,.474.049c.45.748,1.843,2.128,5.37-.3,4.305-2.955,1.3-7.7-2.25-4.153-.839.839-1.52,2.372-2.4,1.678s-1.678-.14-2.08-.742,1.07-.839,2.074-2.518,2.657-2.591,1.283-4.664-2.055-4.512-.231-6.294-1.009-5.181-5.528-6.264a12.529,12.529,0,0,0-7.419.176Z" transform="translate(-166.275 -109.108)" fill="#ff948f"/>
            <g id="Group_165" data-name="Group 165" transform="translate(1.385 43.888)">
              <path id="Path_531" data-name="Path 531" d="M282.239,266.719c-1.35-6.081-.979-19.149,9.055-35.38s12.874-22.835,11.816-29.682-16.468-12.472-26-14.187c0,0-9.049,9.049-5.625,26.173s9.784,59.929,9.784,59.929l.979-6.847Z" transform="translate(-180.881 -179.322)" fill="#404aa9"/>
              <path id="Path_532" data-name="Path 532" d="M286.651,288.46l.979-6.847c-1.35-6.081-.979-19.149,9.055-35.38,3.1-5.017,5.509-9.109,7.334-12.582-.274-1.873-.426-2.961-.426-3.016,0-.474-7.8-5.175-7.8-5.175-3.4,7.224-6.872,16.845-6.555,25.206.28,7.413-2.7,10.332-4.792,23.242,1.307,8.483,2.207,14.552,2.207,14.552Z" transform="translate(-186.267 -194.21)" fill="#2f3b84"/>
              <g id="Group_164" data-name="Group 164">
                <path id="Path_533" data-name="Path 533" d="M232.473,177.981c-1.849-.255-2.5.809-3.126,2.566A202.941,202.941,0,0,0,218.626,249.5s-6.27-24.1-.541-46.7c2.724-10.739,4.8-14.327,4.184-17.307-.772-3.7-4.609-3.454-3.649-4.689,6.136-7.875,14.212-6.671,14.212-6.671s-.067,1.289-.164,2.232c-.079.76-.195,1.605-.195,1.605Z" transform="translate(-159.313 -174.071)" fill="#739ad5"/>
                <g id="Group_163" data-name="Group 163" transform="translate(0 2.961)">
                  <path id="Path_534" data-name="Path 534" d="M170.29,178.94c-7.547,2.554-43.206,21.3-46.01,39.369-.383,2.457-1.94,4.068-.979,7.243a4.155,4.155,0,0,0,.359.809l.45.778a4.35,4.35,0,0,0,3.46,2.171c4.67.334,15.379.255,23.655-6.148,10.9-8.434,18.067-11.238,18.067-11.238l.991-32.984Z" transform="translate(-122.993 -178.94)" fill="#404aa9"/>
                  <path id="Path_535" data-name="Path 535" d="M170.059,190.164l-4.147-2.1c-1.757,8.739-20.1,21.114-33.039,19.016-4.518,4.749-7.82,9.8-8.593,14.807-.383,2.457-1.94,4.068-.979,7.243a4.155,4.155,0,0,0,.359.809l.45.778a4.35,4.35,0,0,0,3.46,2.171c4.67.334,15.379.255,23.655-6.148,10.9-8.434,18.067-11.238,18.067-11.238l.766-25.334Z" transform="translate(-122.993 -182.514)" fill="#2f3b84"/>
                </g>
                <path id="Path_536" data-name="Path 536" d="M202.367,203.907c2.724-10.739,4.8-14.327,4.184-17.307-.772-3.7-4.616-3.46-3.649-4.689a18.455,18.455,0,0,1,5.522-4.774c-20.445-1.374-20.974,3.339-20.974,3.339-7.717,22.956.024,57.746-3.521,76.67a281.362,281.362,0,0,1-8.246,32.066c-2.439,10.429,29.086,7.358,29.086,7.358.833-7.486-.547-23.443-1.861-45.967C202.908,250.6,196.639,226.5,202.367,203.907Z" transform="translate(-143.589 -175.175)" fill="#404aa9"/>
              </g>
              <path id="Path_537" data-name="Path 537" d="M271.218,179.46c2.779,1.38,9.456,6.318,9.462,8.86,0,1.861-2.548,1.618-5.2,3.667s-4.53,6.622-2.171,19.447c2.937,15.951,4.828,27.943,4.093,38.3,0,0-12.357-38.773-10.478-50.826s4.476-17.173,4.476-17.173l-.189-2.274Z" transform="translate(-179.322 -176.183)" fill="#739ad5"/>
              <path id="Path_538" data-name="Path 538" d="M281.9,286.967c2.791,12.874,11.9,28.855,11.84,49.16,0,0-11.451,6.118-11.84.736s.955-3.3,0-27.237a250.294,250.294,0,0,0-3.7-35.155Z" transform="translate(-183.817 -213.417)" fill="#404aa9"/>
              <path id="Path_539" data-name="Path 539" d="M281.9,336.856c.237,3.284,4.6,2.286,7.96,1.009.4-22.05-7.334-43.23-11.657-63.4a250.293,250.293,0,0,1,3.7,35.155c.955,23.935-.389,21.855,0,27.237Z" transform="translate(-183.817 -213.417)" fill="#2f3b84"/>
            </g>
            <g id="Group_166" data-name="Group 166" transform="translate(83.13 62.362)">
              <path id="Path_540" data-name="Path 540" d="M274.926,330.558a4.215,4.215,0,0,0-2.189-.608h-4.8a4.223,4.223,0,0,0-1.526.286c-1.909.736-7.121,2.676-7.121,3.746,0,.882.31,1.095,1.5,1.095a17.708,17.708,0,0,0,5-1.289l3.047.687-5.017,2.262s-5.9,4.129-6.294,5.211.4,2.657,2.359,1.77c0,0-.4,2.657,1.277,2.165a41.235,41.235,0,0,0,6-3.247s-2.657,2.287-2.554,3.308,3.539-.359,4.427-1.046a20.651,20.651,0,0,1,3.934-1.672,16.91,16.91,0,0,0,4.859.663c2.232,0,7.139-2.6,9.207-3.758-2.2-3.126-4.707-6.738-6.324-9.128-.87.164-4.53.31-5.771-.438Z" transform="translate(-257.417 -253.632)" fill="#ff948f"/>
              <path id="Path_541" data-name="Path 541" d="M295.7,329.636c1.618,2.39,4.135,6,6.324,9.128.59-.328.949-.541.949-.541,1.058-.809,2.177-1.611,3.332-2.42l-6.191-9.322A18.828,18.828,0,0,1,295.7,329.636Z" transform="translate(-272.42 -252.272)" fill="#fff"/>
              <path id="Path_542" data-name="Path 542" d="M311.437,204.45s-5.461,2-9.353,9.8c-2.536,5.078-6.659,21.071-3.661,23.637,7.48,9.061,20.341,13.336,20.055,16.772-.116,1.411-3.509,3.624-6.355,7.486-3.18,4.312-6.1,10.5-11.347,16.516l6.191,9.322c12.509-8.739,29.609-17.574,30.393-29.889C338.218,244.64,321.909,214.307,311.437,204.45Z" transform="translate(-273.076 -204.45)" fill="#404aa9"/>
              <path id="Path_543" data-name="Path 543" d="M297.381,251.66c-.079,2.262.2,4.014,1.034,4.731,7.48,9.061,20.341,13.336,20.055,16.772-.067.8-1.174,1.849-2.645,3.314h0c5.284-5.284,7.376-5.686,6.884-7.376s-26.027-8.848-25.328-17.434Z" transform="translate(-273.073 -222.951)" fill="#2f3b84"/>
            </g>
            <g id="Group_167" data-name="Group 167" transform="translate(0 63.9)">
              <path id="Path_544" data-name="Path 544" d="M153.386,217.08a55.8,55.8,0,0,1-13,3.983c-9.857,1.6-14.12,2.8-16.389,9.724s-3.551,8.392-3.241,10.393a4.72,4.72,0,0,0,1.946,2.7,3.276,3.276,0,0,0,2.25.651c3.886-.3,10.411,2.28,18.055-2.214,4.214-2.475,8.544-6.92,12.211-10.727C152.5,226.706,151.865,220.339,153.386,217.08Z" transform="translate(-120.715 -210.938)" fill="#404aa9"/>
              <path id="Path_545" data-name="Path 545" d="M181.439,212.446c-1.782.255-4.305,1.453-7.528,2.816-1.52,3.259-.882,9.632,1.837,14.509,1.35-1.4,2.615-2.724,3.752-3.831-2.153-6.075-1.551-12.892,1.934-13.5Z" transform="translate(-141.246 -209.12)" fill="#fff"/>
              <path id="Path_546" data-name="Path 546" d="M214.441,210.714c-2.384-.906-9.967-2.378-9.967-2.378l-6.786-1.356s-9.195,2.8-12.922,3.332c-3.484.6-4.087,7.419-1.934,13.5,1.916-1.861,3.466-3.107,4.464-3.107,3.2,0,8.355,3.588,12.43,1.21a9.087,9.087,0,0,0,3.053,1.247,3.146,3.146,0,0,0,2.487-2.037s1.7.791,1.922-2.943c0,0,1.928,0,1.472-3.053l-1.247-2.037h8.258s1.155-1.472-1.234-2.378Z" transform="translate(-144.566 -206.98)" fill="#ff948f"/>
            </g>
          </g>
          <g id="Group_171" data-name="Group 171" transform="translate(13.226 176.206)">
            <g id="Group_169" data-name="Group 169">
              <path id="Path_547" data-name="Path 547" d="M77.562,374.583c19,10.356,49.689-3.551,50.035,5.649V353.889c-.462-12.272-25.936,1.344-51.258-5.649,0,0,3.266,7.79,14.838,16.273-.511,4.494-13.616,10.07-13.616,10.07Z" transform="translate(-76.34 -348.24)" fill="#f16f67"/>
              <path id="Path_548" data-name="Path 548" d="M142.338,383.873c-4.847,5.807-28.861-7.826-28.393,4.567V362.1c0-10.216,23.552,1.247,28.393-4.567Z" transform="translate(-91.075 -351.881)" fill="#d14d4a"/>
              <path id="Path_549" data-name="Path 549" d="M389.405,374.583c-19,10.356-49.689-3.551-50.035,5.649V353.889c.462-12.272,25.936,1.344,51.258-5.649,0,0-3.266,7.79-14.838,16.273C376.3,369.007,389.405,374.583,389.405,374.583Z" transform="translate(-179.419 -348.24)" fill="#f16f67"/>
              <path id="Path_550" data-name="Path 550" d="M339.36,383.873c4.847,5.807,28.393-7.82,28.393,4.567V362.1c0-10.216-23.552,1.247-28.393-4.567Z" transform="translate(-179.415 -351.881)" fill="#d14d4a"/>
              <path id="Path_551" data-name="Path 551" d="M196.679,385.456c47.773,0,82.52-14.6,82.739-20.426v26.343C279.2,397.2,248.685,411.8,196.679,411.8s-82.52-14.6-82.739-20.426V365.03C114.159,370.856,148.9,385.456,196.679,385.456Z" transform="translate(-88.311 -356.422)" fill="#ff948f"/>
            </g>
            <g id="Group_170" data-name="Group 170" transform="translate(26.696 23.096)">
              <path id="Path_552" data-name="Path 552" d="M124.333,397.458c-1.642-.845-2.457-1.3-4.093-2.244V386.22c1.575.87,2.372,1.289,3.971,2.086.012.651.018,1.028.024,1.824-.876-.438-1.314-.669-2.189-1.131,0,.572,0,.876.012,1.49.809.432,1.216.645,2.031,1.058.012.851.012,1.3.024,2.153-.821-.42-1.228-.632-2.043-1.076,0,.742.006,1.113.012,1.8.888.48,1.332.718,2.22,1.174.012.809.018,1.2.024,1.855Z" transform="translate(-120.24 -386.22)" fill="#fff"/>
              <path id="Path_553" data-name="Path 553" d="M133.966,402.169c-.626-2.432-.943-4.421-1.557-7.437-.018-.006-.024-.012-.043-.018.091,1.2.14,2.207.152,2.889.03,1.745.049,2.645.085,3.959-.663-.3-1-.462-1.66-.778-.067-3.01-.1-6.191-.164-9.213.979.456,1.478.681,2.463,1.113.632,2.408.949,4.354,1.593,7.346a.2.2,0,0,1,.036.018c.511-2.505.76-4.214,1.265-6.148,1,.4,1.508.6,2.518.979.091,3.053.14,6.251.231,9.292-.693-.261-1.046-.4-1.739-.669-.036-1.332-.061-2.25-.1-4.02,0-.231-.006-.486-.012-.766s0-.979.018-2.013c-.018-.006-.024-.012-.043-.018-.5,2.554-.748,4.3-1.247,6.251-.718-.3-1.076-.45-1.794-.766Z" transform="translate(-124.371 -388.317)" fill="#fff"/>
              <path id="Path_554" data-name="Path 554" d="M153.541,403.14a3.314,3.314,0,0,1-.651,2.378,1.8,1.8,0,0,1-1.97.292l-.535-.17c.03,1.3.043,1.94.073,2.949-.76-.243-1.143-.371-1.9-.632-.091-3.041-.134-6.233-.225-9.286.979.341,1.466.5,2.451.821a4.048,4.048,0,0,1,2.043,1.3,3.82,3.82,0,0,1,.724,2.353Zm-3.2.286c.14.043.207.067.347.116a.614.614,0,0,0,.681-.128,1.206,1.206,0,0,0,.237-.857,1.156,1.156,0,0,0-.815-1.222c-.2-.067-.3-.1-.493-.158.018.857.03,1.326.049,2.25Z" transform="translate(-131.248 -391.099)" fill="#fff"/>
              <path id="Path_555" data-name="Path 555" d="M160.994,411.767c-.067-3.01-.1-6.191-.164-9.207.778.213,1.161.322,1.94.523.043,2.347.067,4.457.116,7.34,1.1.28,1.648.413,2.755.663.012.8.012,1.18.024,1.83-1.873-.426-2.8-.657-4.664-1.149Z" transform="translate(-136.147 -392.623)" fill="#fff"/>
              <path id="Path_556" data-name="Path 556" d="M179.319,411.661a5.082,5.082,0,0,1-.888,3.436,2.675,2.675,0,0,1-2.609.559,3.833,3.833,0,0,1-2.6-1.545,6.792,6.792,0,0,1-.936-3.819c-.012-1.654.274-2.791.87-3.4a2.7,2.7,0,0,1,2.627-.486,3.99,3.99,0,0,1,2.633,1.52,6.458,6.458,0,0,1,.9,3.746Zm-4.98-.93c.012,1.916.5,2.889,1.472,3.071a.952.952,0,0,0,1.095-.444,4.306,4.306,0,0,0,.353-2.068,5.172,5.172,0,0,0-.371-2.214,1.5,1.5,0,0,0-1.089-.87c-.979-.195-1.466.584-1.453,2.518Z" transform="translate(-140.638 -394.087)" fill="#fff"/>
              <path id="Path_557" data-name="Path 557" d="M190.265,411.992a26.529,26.529,0,0,1,1.265-3.047c.851.116,1.277.17,2.128.28a46.552,46.552,0,0,0-2.408,5.23c0,1.508,0,2.274-.006,3.405-.791-.109-1.186-.164-1.976-.28,0-1.113,0-1.855.006-3.332-.949-2.524-1.429-4.044-2.384-6.008.857.14,1.283.207,2.141.341.5,1.155.742,1.909,1.241,3.405Z" transform="translate(-146.36 -394.849)" fill="#fff"/>
              <path id="Path_558" data-name="Path 558" d="M205.8,419.736c-1.733-.182-2.6-.286-4.336-.493.006-2.913.012-6.045.018-8.964,1.727.195,2.584.28,4.318.45v1.794c-.943-.091-1.417-.14-2.359-.237v1.478c.87.091,1.307.14,2.183.225v2.128c-.876-.091-1.314-.134-2.183-.231v1.782c.943.1,1.417.158,2.359.255v1.824Z" transform="translate(-152.069 -395.649)" fill="#fff"/>
              <path id="Path_559" data-name="Path 559" d="M217.206,420.814c-1.733-.134-2.6-.213-4.336-.377V411.4c1.733.152,2.6.225,4.342.359v1.806c-.949-.073-1.417-.109-2.366-.189v1.484c.876.073,1.314.109,2.189.176v2.134c-.876-.067-1.314-.1-2.189-.182v1.794c.943.079,1.417.122,2.366.195v1.83Z" transform="translate(-156.541 -396.088)" fill="#fff"/>
              <path id="Path_560" data-name="Path 560" d="M237.545,417.513a5.579,5.579,0,0,1-.912,3.57,3.083,3.083,0,0,1-2.651.943,3.287,3.287,0,0,1-2.639-1.149,5.922,5.922,0,0,1-.912-3.661,5.423,5.423,0,0,1,.918-3.533,3.1,3.1,0,0,1,2.657-.906,3.34,3.34,0,0,1,2.645,1.119A5.822,5.822,0,0,1,237.545,417.513Zm-5.035-.182c0,1.909.486,2.8,1.472,2.846a1.133,1.133,0,0,0,1.113-.608,4.547,4.547,0,0,0,.365-2.116,4.8,4.8,0,0,0-.365-2.159,1.218,1.218,0,0,0-1.095-.7c-.991-.043-1.49.815-1.49,2.743Z" transform="translate(-163.422 -396.625)" fill="#fff"/>
              <path id="Path_561" data-name="Path 561" d="M248.416,422.276c-.778,0-1.168,0-1.946-.012.006-2.925.012-6.063.024-8.994,1.727.03,2.6.036,4.324.036v1.782H248.44v1.8h2.189V419H248.44c0,1.453,0,2.177-.006,3.272Z" transform="translate(-169.708 -396.821)" fill="#fff"/>
              <path id="Path_562" data-name="Path 562" d="M267.2,421.782c-.79.043-1.186.061-1.976.091.006-2.256.012-4.312.018-7.109-.711.03-1.07.043-1.782.061v-1.812c2.214-.067,3.32-.116,5.534-.243v1.812c-.712.043-1.064.061-1.776.1,0,2.8-.006,4.853-.012,7.1Z" transform="translate(-176.367 -396.625)" fill="#fff"/>
              <path id="Path_563" data-name="Path 563" d="M282.7,420.535c-.791.079-1.186.116-1.982.188V417.16c-.918.085-1.374.122-2.293.2v3.557c-.79.061-1.192.091-1.982.146.006-2.895.012-6.014.018-8.915.791-.055,1.186-.085,1.982-.152v3.2c.918-.073,1.374-.116,2.293-.2v-3.211c.79-.079,1.186-.116,1.976-.2,0,2.913,0,6.039-.006,8.939Z" transform="translate(-181.453 -396.162)" fill="#fff"/>
              <path id="Path_564" data-name="Path 564" d="M295.793,419.113c-1.709.219-2.56.322-4.293.517v-8.97c1.727-.219,2.591-.341,4.318-.59v1.8c-.936.128-1.4.195-2.347.322v1.478c.87-.116,1.3-.17,2.171-.292v2.128c-.864.116-1.3.17-2.165.28v1.788c.93-.116,1.4-.176,2.335-.3v1.83Z" transform="translate(-187.355 -395.567)" fill="#fff"/>
              <path id="Path_565" data-name="Path 565" d="M312.456,416.139c-.584-2.068-.876-3.874-1.453-6.519a.1.1,0,0,0-.043.006c.067,1.155.1,2.128.091,2.809-.006,1.733-.012,2.627-.018,3.928-.693.109-1.04.158-1.733.261.018-2.986.024-6.154.043-9.146,1.04-.17,1.563-.255,2.6-.438.59,2.031.888,3.795,1.484,6.416a.1.1,0,0,0,.043-.006c.6-2.828.9-4.695,1.5-6.957,1.04-.195,1.557-.3,2.591-.5v9.261c-.718.134-1.076.2-1.8.328,0-1.326,0-2.238.006-4,0-.231,0-.487.006-.766s.03-.991.067-2.037a.1.1,0,0,0-.043.006c-.584,2.87-.882,4.78-1.472,7.042-.748.128-1.119.188-1.867.31Z" transform="translate(-194.331 -393.968)" fill="#fff"/>
              <path id="Path_566" data-name="Path 566" d="M334.131,407.4a7.21,7.21,0,0,1-.851,3.947,3.947,3.947,0,0,1-2.6,1.7,2.559,2.559,0,0,1-2.609-.5c-.608-.632-.912-1.812-.918-3.515a6.959,6.959,0,0,1,.888-3.868,4.048,4.048,0,0,1,2.591-1.666,2.549,2.549,0,0,1,2.591.42c.59.608.9,1.77.912,3.491Zm-4.938,1.2c.006,1.964.5,2.755,1.466,2.53a1.54,1.54,0,0,0,1.089-.93,5.591,5.591,0,0,0,.341-2.286,4.483,4.483,0,0,0-.377-2.128.892.892,0,0,0-1.076-.42c-.967.231-1.453,1.247-1.441,3.223Z" transform="translate(-201.326 -392.931)" fill="#fff"/>
              <path id="Path_567" data-name="Path 567" d="M349.682,407.044c-1,.353-1.5.523-2.505.845a53.682,53.682,0,0,1-2.688-5.923.113.113,0,0,0-.043.012c.073,1.064.116,1.934.128,2.53.024,1.83.036,2.791.061,4.172-.681.2-1.028.3-1.709.493-.049-3.065-.067-6.276-.116-9.353,1-.286,1.5-.432,2.5-.736a59.758,59.758,0,0,1,2.676,5.82.033.033,0,0,0,.03-.012c-.061-.973-.1-1.8-.1-2.426-.024-1.837-.043-2.8-.067-4.184.681-.225,1.016-.334,1.7-.572.061,3.065.091,6.27.158,9.328Z" transform="translate(-207.463 -390.723)" fill="#fff"/>
              <path id="Path_568" data-name="Path 568" d="M361.356,402.891c-.748.322-1.125.474-1.879.778-.049-2.372-.073-4.482-.122-7.395-.681.268-1.028.4-1.709.651-.012-.827-.018-1.222-.036-1.9,2.128-.784,3.187-1.2,5.3-2.1.012.669.018,1.058.03,1.879-.675.292-1.016.432-1.7.711.049,2.907.073,5.011.116,7.37Z" transform="translate(-213.263 -388.85)" fill="#fff"/>
              <path id="Path_569" data-name="Path 569" d="M375.937,395.51c-.724.426-1.089.632-1.824,1.034-.006-1.2-.012-2.019-.018-3.618-.851.456-1.283.675-2.141,1.1.012,1.611.024,2.432.037,3.643-.736.377-1.107.566-1.855.924-.049-3-.067-6.172-.116-9.176.754-.341,1.131-.517,1.879-.876.012,1.107.018,1.83.03,3.284.864-.426,1.3-.639,2.153-1.089-.006-1.441-.012-2.165-.018-3.259.748-.377,1.119-.572,1.867-.967V395.5Z" transform="translate(-218.126 -386.334)" fill="#fff"/>
            </g>
          </g>
          <g id="Group_184" data-name="Group 184" transform="translate(0 5.236)">
            <g id="Group_183" data-name="Group 183">
              <g id="Group_172" data-name="Group 172" transform="translate(79.757)">
                <path id="Path_570" data-name="Path 570" d="M186.32,80.679a23.6,23.6,0,0,1,3.18-1.028,9.6,9.6,0,0,1,2.414-.261,4.982,4.982,0,0,1,2.949.87c1.314.979,1.581,2.414,2.238,2.645,0,0-.316.109-.827.243a20.483,20.483,0,0,1-2.007.5,11.89,11.89,0,0,1-2.536.231,5.467,5.467,0,0,1-2.4-.438,6.757,6.757,0,0,1-2.591-1.879A1.922,1.922,0,0,1,186.32,80.679Z" transform="translate(-185.971 -71.91)" fill="#fdb724"/>
                <path id="Path_571" data-name="Path 571" d="M186.095,75.859a23.509,23.509,0,0,0,3.028-1.429,15.4,15.4,0,0,0,2.049-1.338,5.574,5.574,0,0,0,1.9-2.542c.547-1.581-.036-2.889.438-3.46,0,0-.359.091-.93.274a18.613,18.613,0,0,0-2.128.906,14.289,14.289,0,0,0-2.39,1.459,5.943,5.943,0,0,0-1.648,2.043,6.045,6.045,0,0,0-.639,3.156,1.886,1.886,0,0,0,.322.924Z" transform="translate(-185.745 -67.09)" fill="#fdb724"/>
              </g>
              <g id="Group_173" data-name="Group 173" transform="translate(70.189 2.712)">
                <path id="Path_572" data-name="Path 572" d="M170.96,87.489c5.1-2.694,7.875-2.286,9.4-1.374,1.545.93,1.995,2.511,2.736,2.694,0,0-.334.152-.888.353a19.542,19.542,0,0,1-2.153.76c-1.727.456-3.807.888-5.455.292a7.733,7.733,0,0,1-3.065-1.788,2.172,2.172,0,0,1-.572-.924Z" transform="translate(-170.384 -76.987)" fill="#fdb724"/>
                <path id="Path_573" data-name="Path 573" d="M170.589,82.052c5.066-2.682,6.72-4.768,7.151-6.622.438-1.818-.334-3.193.128-3.88,0,0-.4.14-1,.4a25.289,25.289,0,0,0-2.274,1.228c-1.727,1.016-3.539,2.6-4.111,4.318a6.5,6.5,0,0,0-.353,3.57A2.062,2.062,0,0,0,170.589,82.052Z" transform="translate(-170.012 -71.55)" fill="#fdb724"/>
              </g>
              <g id="Group_174" data-name="Group 174" transform="translate(60.07 6.732)">
                <path id="Path_574" data-name="Path 574" d="M154.88,96.7c5.284-3.63,8.41-3.484,10.2-2.627,1.812.87,2.475,2.536,3.308,2.645a20.875,20.875,0,0,1-3.211,1.563,17.453,17.453,0,0,1-2.955.93,7.616,7.616,0,0,1-3.01.03,8.311,8.311,0,0,1-3.588-1.587,2.307,2.307,0,0,1-.742-.955Z" transform="translate(-153.963 -84.197)" fill="#fdb724"/>
                <path id="Path_575" data-name="Path 575" d="M154.289,90.663c5.242-3.606,6.841-6.093,7.127-8.167.292-2.049-.736-3.509-.3-4.336a26.864,26.864,0,0,0-3.46,2.189,15.039,15.039,0,0,0-2.53,2.414,6.663,6.663,0,0,0-1.514,2.864,7.391,7.391,0,0,0,.055,4,2.277,2.277,0,0,0,.632,1.028Z" transform="translate(-153.372 -78.16)" fill="#fdb724"/>
              </g>
              <g id="Group_175" data-name="Group 175" transform="translate(49.491 12.454)">
                <path id="Path_576" data-name="Path 576" d="M138.4,108.793c.663-.584,1.277-1.131,1.9-1.575s1.21-.833,1.764-1.168a12.648,12.648,0,0,1,3.016-1.4,6.686,6.686,0,0,1,4.208-.091c2.128.766,3.059,2.511,4,2.554,0,0-.359.268-.961.657-.614.371-1.417.93-2.378,1.447-1.934,1-4.281,2.08-6.446,1.794a9.391,9.391,0,0,1-4.159-1.271,2.631,2.631,0,0,1-.949-.949Z" transform="translate(-136.922 -94.113)" fill="#fdb724"/>
                <path id="Path_577" data-name="Path 577" d="M137.45,102.25c5.3-4.67,6.762-7.607,6.8-9.961.085-2.28-1.228-3.764-.833-4.719,0,0-.438.28-1.113.766a20.538,20.538,0,0,0-2.457,2.092c-1.83,1.709-3.594,4.141-3.819,6.355a8.208,8.208,0,0,0,.6,4.415,2.536,2.536,0,0,0,.833,1.052Z" transform="translate(-135.976 -87.57)" fill="#fdb724"/>
              </g>
              <g id="Group_176" data-name="Group 176" transform="translate(38.655 20.201)">
                <path id="Path_578" data-name="Path 578" d="M122.07,124.282c.645-.742,1.259-1.423,1.861-2.019.62-.578,1.21-1.089,1.782-1.539a19.894,19.894,0,0,1,1.618-1.168,12.991,12.991,0,0,1,1.508-.791,7.161,7.161,0,0,1,4.628-.669c2.439.547,3.7,2.353,4.737,2.268,0,0-.353.347-.955.851-.3.255-.663.547-1.076.864s-.845.681-1.332,1.034c-1.976,1.368-4.4,2.864-6.823,2.864a10.429,10.429,0,0,1-4.761-.791A2.952,2.952,0,0,1,122.07,124.282Z" transform="translate(-119.69 -107.225)" fill="#fdb724"/>
                <path id="Path_579" data-name="Path 579" d="M120.536,117.367c.645-.742,1.216-1.459,1.733-2.128.541-.651,1.016-1.277,1.429-1.873s.778-1.161,1.089-1.709c.322-.529.6-1.028.833-1.508a9.083,9.083,0,0,0,1.016-4.731c-.219-2.536-1.867-4-1.563-5.108,0,0-.45.371-1.125,1.009-.341.316-.736.705-1.161,1.143s-.845.961-1.289,1.508c-1.788,2.159-3.405,5.1-3.339,7.577a9.129,9.129,0,0,0,1.3,4.786A2.825,2.825,0,0,0,120.536,117.367Z" transform="translate(-118.157 -100.31)" fill="#fdb724"/>
              </g>
              <g id="Group_177" data-name="Group 177" transform="translate(28.037 30.418)">
                <path id="Path_580" data-name="Path 580" d="M106.646,143.646c.6-.912,1.192-1.739,1.757-2.493a17.914,17.914,0,0,1,1.691-1.989,17.524,17.524,0,0,1,3.132-2.645,8.148,8.148,0,0,1,4.993-1.423c2.773.249,4.433,2.055,5.552,1.818,0,0-.334.426-.924,1.064s-1.38,1.532-2.347,2.432c-.474.456-1.016.9-1.557,1.35a16.607,16.607,0,0,1-1.7,1.265,12.07,12.07,0,0,1-1.855.985,7.771,7.771,0,0,1-1.909.584,11.839,11.839,0,0,1-5.394-.14,3.167,3.167,0,0,1-1.447-.809Z" transform="translate(-103.025 -124.15)" fill="#fdb724"/>
                <path id="Path_581" data-name="Path 581" d="M104.316,136.606c4.731-7.328,5.57-11.268,4.883-14.1-.608-2.755-2.639-4.123-2.463-5.394,0,0-.444.474-1.107,1.283a26.55,26.55,0,0,0-2.311,3.314,22.82,22.82,0,0,0-1.161,2.128,21.723,21.723,0,0,0-.894,2.3,13.052,13.052,0,0,0-.523,2.293,7.927,7.927,0,0,0,.067,2.189,9.9,9.9,0,0,0,2.153,5.035,3.13,3.13,0,0,0,1.35.961Z" transform="translate(-100.695 -117.11)" fill="#fdb724"/>
              </g>
              <g id="Group_178" data-name="Group 178" transform="translate(18.196 43.516)">
                <path id="Path_582" data-name="Path 582" d="M93.33,167.366c.486-1.113.973-2.128,1.453-3.059.5-.918,1.028-1.727,1.532-2.463a18.7,18.7,0,0,1,1.5-1.958,17.742,17.742,0,0,1,1.5-1.472,8.688,8.688,0,0,1,5.248-2.384c3.053-.189,5.151,1.508,6.361,1.089,0,0-.316.5-.821,1.314s-1.283,1.873-2.171,3.016a24.388,24.388,0,0,1-3.1,3.387,10.444,10.444,0,0,1-3.849,2.341,13.19,13.19,0,0,1-5.9.809,3.588,3.588,0,0,1-1.733-.626Z" transform="translate(-87.968 -145.456)" fill="#fdb724"/>
                <path id="Path_583" data-name="Path 583" d="M89.874,160.56q.73-1.669,1.265-3.144c.377-.973.73-1.879,1-2.736.286-.851.48-1.666.681-2.4a18.442,18.442,0,0,0,.444-2.086,11.508,11.508,0,0,0-.432-5.978c-1.143-2.955-3.618-4.141-3.6-5.564a16.077,16.077,0,0,0-1,1.605A36.482,36.482,0,0,0,86.2,144.3a24.488,24.488,0,0,0-1.526,5.248,10.97,10.97,0,0,0,3.545,10.186,3.458,3.458,0,0,0,1.648.815Z" transform="translate(-84.512 -138.65)" fill="#fdb724"/>
              </g>
              <g id="Group_179" data-name="Group 179" transform="translate(9.786 59.966)">
                <path id="Path_584" data-name="Path 584" d="M83.49,195.614c.322-1.314.663-2.518,1.009-3.624A28.353,28.353,0,0,1,85.7,189a18.292,18.292,0,0,1,2.633-4.311,13.568,13.568,0,0,1,1.344-1.441,10.819,10.819,0,0,1,1.374-1.022,8.447,8.447,0,0,1,2.591-1.095,10.8,10.8,0,0,1,4.366.018c1.228.2,2.2.4,2.809.067,0,0-.243.608-.681,1.563a32.782,32.782,0,0,1-1.812,3.661,25.493,25.493,0,0,1-2.743,4.238,11.753,11.753,0,0,1-3.752,3.266,14.78,14.78,0,0,1-6.312,2.013,3.939,3.939,0,0,1-2.019-.347Z" transform="translate(-75.702 -171.66)" fill="#fdb724"/>
                <path id="Path_585" data-name="Path 585" d="M78.471,189.653c.322-1.314.584-2.536.784-3.685s.432-2.2.566-3.186a36.639,36.639,0,0,0,.389-5.132,17.288,17.288,0,0,0-.152-2.043,12.551,12.551,0,0,0-.3-1.727,10.021,10.021,0,0,0-1.107-2.712,12.364,12.364,0,0,0-3.034-3.284c-.973-.791-1.764-1.386-1.885-2.183,0,0-.359.736-.845,1.952a50,50,0,0,0-1.5,4.847,27.72,27.72,0,0,0-.7,6.087,12.009,12.009,0,0,0,1.241,5.479c1.727,3.041,3.381,4.378,4.579,5.029a3.862,3.862,0,0,0,1.964.566Z" transform="translate(-70.683 -165.7)" fill="#fdb724"/>
              </g>
              <g id="Group_180" data-name="Group 180" transform="translate(3.548 80.051)">
                <path id="Path_586" data-name="Path 586" d="M79.04,227.968c.207-6.008,1.423-10.168,2.974-12.934A12.165,12.165,0,0,1,84.47,211.8a9.4,9.4,0,0,1,2.627-1.7,12.13,12.13,0,0,1,4.761-.839c1.386-.018,2.487.012,3.089-.462,0,0-.158.7-.42,1.824-.128.559-.292,1.222-.5,1.952s-.48,1.52-.724,2.359a33.93,33.93,0,0,1-2.122,5.132,16.574,16.574,0,0,1-1.532,2.366,10.193,10.193,0,0,1-1.873,1.952,24.341,24.341,0,0,1-3.746,2.475,11.1,11.1,0,0,1-2.712,1.052,4.449,4.449,0,0,1-2.274.061Z" transform="translate(-67.72 -202.676)" fill="#fdb724"/>
                <path id="Path_587" data-name="Path 587" d="M71.745,224.021a62.486,62.486,0,0,0-.626-13.47,18.624,18.624,0,0,0-1.271-4.038,11.158,11.158,0,0,0-1.733-2.749c-2.566-2.992-5.9-3.345-6.464-5.035,0,0-.061.225-.164.62s-.249.979-.365,1.7-.268,1.587-.4,2.542a32.073,32.073,0,0,0,.195,9.961,17.82,17.82,0,0,0,.93,3.156,10.97,10.97,0,0,0,1.569,2.6,17.175,17.175,0,0,0,3.4,3.2,9.674,9.674,0,0,0,2.657,1.32,4.3,4.3,0,0,0,2.268.195Z" transform="translate(-60.424 -198.73)" fill="#fdb724"/>
              </g>
              <g id="Group_181" data-name="Group 181" transform="translate(0 103.865)">
                <path id="Path_588" data-name="Path 588" d="M81.6,263.992c-1.222-6.574-.766-11.384.28-14.728A16.88,16.88,0,0,1,82.765,247a13.736,13.736,0,0,1,1.095-1.794,9.538,9.538,0,0,1,2.475-2.414c3.5-2.329,7.2-1.788,8.282-3.083,0,0,.024.791-.043,2.055-.1,1.265-.164,3-.432,4.914-.48,3.825-1.344,8.349-3.892,11.4s-4.658,4.6-6.191,5.309a4.957,4.957,0,0,1-2.457.6Z" transform="translate(-64.887 -238.603)" fill="#fdb724"/>
                <path id="Path_589" data-name="Path 589" d="M71.3,263.279c-1.216-6.555-2.347-11.165-3.758-14.516a20.9,20.9,0,0,0-1.107-2.274,15.078,15.078,0,0,0-1.155-1.849,13.556,13.556,0,0,0-2.505-2.627c-3.387-2.718-7.109-2.39-8.124-4.123,0,0-.061,1.028-.061,2.676.012.821-.006,1.8.091,2.876s.207,2.256.377,3.478c.2,1.222.462,2.493.784,3.746a29.324,29.324,0,0,0,1.253,3.673,17.454,17.454,0,0,0,1.764,3.247,10.846,10.846,0,0,0,2.28,2.493c3.387,2.676,5.966,3.375,7.65,3.521a4.749,4.749,0,0,0,2.505-.322Z" transform="translate(-54.59 -237.89)" fill="#fdb724"/>
              </g>
              <g id="Group_182" data-name="Group 182" transform="translate(0.292 125.356)">
                <path id="Path_590" data-name="Path 590" d="M92.975,302.523c-3.053-6.774-3.807-12.1-3.5-15.969a12.614,12.614,0,0,1,3.253-8.057,14.99,14.99,0,0,1,5-3.266c1.557-.693,2.809-1.192,3.259-2,0,0,.2.839.407,2.2.255,1.35.511,3.229.736,5.309.383,4.178.572,9.207-1.38,13.129-.493.979-.991,1.861-1.459,2.645a23.785,23.785,0,0,1-1.368,2.062,14.378,14.378,0,0,1-2.463,2.639,5.5,5.5,0,0,1-2.487,1.307Z" transform="translate(-68.529 -273.23)" fill="#fdb724"/>
                <path id="Path_591" data-name="Path 591" d="M79.516,306.238c-3.041-6.756-5.455-11.445-7.814-14.728-.3-.407-.6-.8-.894-1.161s-.572-.718-.857-1.04a17.788,17.788,0,0,0-1.727-1.727,14.462,14.462,0,0,0-3.345-2.268,17.01,17.01,0,0,0-5.972-1.484c-1.715-.17-3.083-.268-3.837-1.119,0,0,.17,1.149.553,2.968a49.139,49.139,0,0,0,2.116,6.884,34.439,34.439,0,0,0,4.086,7.644,15.976,15.976,0,0,0,5.886,5.236,20.137,20.137,0,0,0,5.546,1.77,11.623,11.623,0,0,0,3.643.036,5.282,5.282,0,0,0,2.615-1.016Z" transform="translate(-55.07 -276.945)" fill="#fdb724"/>
              </g>
            </g>
            <path id="Path_592" data-name="Path 592" d="M213.1,70.715a18.117,18.117,0,0,1-2.621,1.788,21.18,21.18,0,0,1-2.439,1.119,13.81,13.81,0,0,1-4.232.851,11.173,11.173,0,0,1-4.172-.48,10.578,10.578,0,0,1,3.3-2.676,12.1,12.1,0,0,1,4.281-1.289,11.1,11.1,0,0,1,2.767.012,16.437,16.437,0,0,1,3.114.663Z" transform="translate(-111.434 -68.209)" fill="#fdb724"/>
            <path id="Path_593" data-name="Path 593" d="M165.791,71.21l-3.18.62c-.529.109-1.064.2-1.587.322l-1.575.383c-1.046.261-2.1.493-3.144.784l-3.107.912a97.908,97.908,0,0,0-12.1,4.609l-1.478.663c-.486.231-.967.48-1.447.724l-2.889,1.466c-1.873,1.07-3.789,2.074-5.6,3.253-.912.584-1.855,1.113-2.736,1.739l-2.676,1.83c-.894.608-1.733,1.283-2.609,1.922s-1.733,1.289-2.554,1.989L116.6,94.482l-2.414,2.159c-.815.705-1.587,1.466-2.353,2.22s-1.569,1.49-2.3,2.28a115.854,115.854,0,0,0-8.447,9.815A108.971,108.971,0,0,0,88.05,133.28c-.906,1.964-1.624,4-2.426,6.008l-1.052,3.065-.523,1.532-.456,1.557-.906,3.114-.772,3.144c-.128.523-.261,1.046-.377,1.575l-.316,1.587c-.207,1.058-.432,2.116-.626,3.18l-.5,3.2c-.079.535-.176,1.064-.237,1.6l-.176,1.611c-.116,1.076-.243,2.147-.347,3.223l-.213,3.235-.1,1.618-.036,1.618-.073,3.241.055,3.241c.018,1.082.1,2.159.146,3.235a110.027,110.027,0,0,0,14.771,49.184" transform="translate(-64.121 -68.705)" fill="none" stroke="#fdb724" stroke-miterlimit="10" stroke-width="1"/>
          </g>
          <g id="Group_197" data-name="Group 197" transform="translate(135.991 5.236)">
            <g id="Group_196" data-name="Group 196" transform="translate(10.782)">
              <g id="Group_185" data-name="Group 185">
                <path id="Path_594" data-name="Path 594" d="M308.9,75.859a23.507,23.507,0,0,1-3.028-1.429,15.4,15.4,0,0,1-2.049-1.338,5.574,5.574,0,0,1-1.9-2.542c-.547-1.581.036-2.889-.438-3.46,0,0,.359.091.93.274a18.613,18.613,0,0,1,2.128.906,14.289,14.289,0,0,1,2.39,1.459,5.943,5.943,0,0,1,1.648,2.043,6.045,6.045,0,0,1,.639,3.156,1.887,1.887,0,0,1-.322.924Z" transform="translate(-298.121 -67.09)" fill="#fdb724"/>
                <path id="Path_595" data-name="Path 595" d="M306.732,80.679a23.6,23.6,0,0,0-3.18-1.028,9.6,9.6,0,0,0-2.414-.261,4.982,4.982,0,0,0-2.949.87c-1.314.979-1.581,2.414-2.238,2.645,0,0,.316.109.827.243a20.482,20.482,0,0,0,2.007.5,11.89,11.89,0,0,0,2.536.231,5.467,5.467,0,0,0,2.4-.438,6.757,6.757,0,0,0,2.591-1.879A1.922,1.922,0,0,0,306.732,80.679Z" transform="translate(-295.95 -71.91)" fill="#fdb724"/>
              </g>
              <g id="Group_186" data-name="Group 186" transform="translate(7.991 2.712)">
                <path id="Path_596" data-name="Path 596" d="M324.341,82.052c-5.066-2.682-6.72-4.768-7.151-6.622-.438-1.818.334-3.193-.128-3.88,0,0,.4.14,1,.4a25.289,25.289,0,0,1,2.274,1.228c1.727,1.016,3.539,2.6,4.111,4.318a6.5,6.5,0,0,1,.353,3.57,2.061,2.061,0,0,1-.462.985Z" transform="translate(-312.209 -71.55)" fill="#fdb724"/>
                <path id="Path_597" data-name="Path 597" d="M321.222,87.489c-5.1-2.694-7.875-2.286-9.4-1.374-1.545.93-1.995,2.511-2.736,2.694,0,0,.334.152.888.353a19.545,19.545,0,0,0,2.153.76c1.727.456,3.8.888,5.455.292a7.733,7.733,0,0,0,3.065-1.788,2.172,2.172,0,0,0,.572-.924Z" transform="translate(-309.09 -76.987)" fill="#fdb724"/>
              </g>
              <g id="Group_187" data-name="Group 187" transform="translate(16.389 6.732)">
                <path id="Path_598" data-name="Path 598" d="M340.493,90.663c-5.242-3.606-6.841-6.093-7.127-8.167-.292-2.049.736-3.509.3-4.336a26.862,26.862,0,0,1,3.46,2.189,15.037,15.037,0,0,1,2.53,2.414,6.662,6.662,0,0,1,1.514,2.864,7.391,7.391,0,0,1-.055,4,2.277,2.277,0,0,1-.632,1.028Z" transform="translate(-326.981 -78.16)" fill="#fdb724"/>
                <path id="Path_599" data-name="Path 599" d="M336.412,96.7c-5.284-3.63-8.41-3.484-10.2-2.627-1.812.87-2.475,2.536-3.308,2.645a20.875,20.875,0,0,0,3.211,1.563,17.451,17.451,0,0,0,2.955.93,7.616,7.616,0,0,0,3.01.03,8.311,8.311,0,0,0,3.588-1.587,2.306,2.306,0,0,0,.742-.955Z" transform="translate(-322.9 -84.197)" fill="#fdb724"/>
              </g>
              <g id="Group_188" data-name="Group 188" transform="translate(25.036 12.454)">
                <path id="Path_600" data-name="Path 600" d="M357.216,102.25c-5.3-4.67-6.762-7.607-6.8-9.961-.085-2.28,1.228-3.764.833-4.719,0,0,.438.28,1.113.766a20.539,20.539,0,0,1,2.457,2.092c1.83,1.709,3.594,4.141,3.819,6.355a8.208,8.208,0,0,1-.6,4.415,2.536,2.536,0,0,1-.833,1.052Z" transform="translate(-342.33 -87.57)" fill="#fdb724"/>
                <path id="Path_601" data-name="Path 601" d="M352.007,108.793c-.663-.584-1.277-1.131-1.9-1.575s-1.21-.833-1.763-1.168a12.648,12.648,0,0,0-3.016-1.4,6.686,6.686,0,0,0-4.208-.091c-2.128.766-3.059,2.511-4,2.554,0,0,.359.268.961.657.614.371,1.417.93,2.378,1.447,1.934,1,4.281,2.08,6.446,1.794a9.391,9.391,0,0,0,4.159-1.271,2.63,2.63,0,0,0,.949-.949Z" transform="translate(-337.12 -94.113)" fill="#fdb724"/>
              </g>
              <g id="Group_189" data-name="Group 189" transform="translate(33.72 20.201)">
                <path id="Path_602" data-name="Path 602" d="M373.984,117.367c-.645-.742-1.216-1.459-1.733-2.128-.541-.651-1.016-1.277-1.429-1.873s-.778-1.161-1.089-1.709c-.322-.529-.6-1.028-.833-1.508a9.083,9.083,0,0,1-1.016-4.731c.219-2.536,1.867-4,1.563-5.108,0,0,.45.371,1.125,1.009.341.316.736.705,1.161,1.143s.845.961,1.289,1.508c1.788,2.159,3.405,5.1,3.339,7.577a9.129,9.129,0,0,1-1.3,4.786,2.825,2.825,0,0,1-1.076,1.034Z" transform="translate(-357.851 -100.31)" fill="#fdb724"/>
                <path id="Path_603" data-name="Path 603" d="M367.533,124.282c-.645-.742-1.259-1.423-1.861-2.019-.62-.578-1.21-1.089-1.782-1.539a19.9,19.9,0,0,0-1.618-1.168,12.987,12.987,0,0,0-1.508-.791,7.161,7.161,0,0,0-4.628-.669c-2.439.547-3.7,2.353-4.737,2.268,0,0,.353.347.955.851.3.255.663.547,1.076.864s.845.681,1.332,1.034c1.976,1.368,4.4,2.864,6.823,2.864a10.43,10.43,0,0,0,4.762-.791A2.953,2.953,0,0,0,367.533,124.282Z" transform="translate(-351.4 -107.225)" fill="#fdb724"/>
              </g>
              <g id="Group_190" data-name="Group 190" transform="translate(42.105 30.418)">
                <path id="Path_604" data-name="Path 604" d="M390.068,136.606c-4.731-7.328-5.57-11.268-4.883-14.1.608-2.755,2.639-4.123,2.463-5.394,0,0,.444.474,1.107,1.283a26.551,26.551,0,0,1,2.311,3.314,22.825,22.825,0,0,1,1.161,2.128,21.724,21.724,0,0,1,.894,2.3,13.488,13.488,0,0,1,.523,2.293,7.926,7.926,0,0,1-.067,2.189,9.9,9.9,0,0,1-2.153,5.035,3.13,3.13,0,0,1-1.35.961Z" transform="translate(-372.943 -117.11)" fill="#fdb724"/>
                <path id="Path_605" data-name="Path 605" d="M382.314,143.646c-.6-.912-1.192-1.739-1.757-2.493a17.918,17.918,0,0,0-1.691-1.989,17.525,17.525,0,0,0-3.132-2.645,8.148,8.148,0,0,0-4.993-1.423c-2.773.249-4.433,2.055-5.552,1.818,0,0,.334.426.924,1.064s1.38,1.532,2.347,2.432c.474.456,1.016.9,1.557,1.35a16.608,16.608,0,0,0,1.7,1.265,12.072,12.072,0,0,0,1.855.985,7.771,7.771,0,0,0,1.909.584,11.832,11.832,0,0,0,5.394-.14,3.168,3.168,0,0,0,1.447-.809Z" transform="translate(-365.19 -124.15)" fill="#fdb724"/>
              </g>
              <g id="Group_191" data-name="Group 191" transform="translate(49.743 43.516)">
                <path id="Path_606" data-name="Path 606" d="M404.369,160.56q-.73-1.669-1.265-3.144c-.377-.973-.73-1.879-1-2.736-.286-.851-.48-1.666-.681-2.4a18.455,18.455,0,0,1-.444-2.086,11.507,11.507,0,0,1,.432-5.978c1.143-2.955,3.618-4.141,3.6-5.564a16.079,16.079,0,0,1,1,1.605,36.482,36.482,0,0,1,2.025,4.044,24.491,24.491,0,0,1,1.526,5.248,10.97,10.97,0,0,1-3.545,10.186,3.459,3.459,0,0,1-1.648.815Z" transform="translate(-386.782 -138.65)" fill="#fdb724"/>
                <path id="Path_607" data-name="Path 607" d="M395.337,167.366c-.486-1.113-.973-2.128-1.453-3.059-.5-.918-1.028-1.727-1.532-2.463a18.7,18.7,0,0,0-1.5-1.958,17.743,17.743,0,0,0-1.5-1.472,8.688,8.688,0,0,0-5.248-2.384c-3.053-.189-5.151,1.508-6.361,1.089,0,0,.316.5.821,1.314s1.283,1.873,2.171,3.016a24.387,24.387,0,0,0,3.1,3.387,10.444,10.444,0,0,0,3.849,2.341,13.19,13.19,0,0,0,5.9.809,3.588,3.588,0,0,0,1.733-.626Z" transform="translate(-377.75 -145.456)" fill="#fdb724"/>
              </g>
              <g id="Group_192" data-name="Group 192" transform="translate(55.989 59.966)">
                <path id="Path_608" data-name="Path 608" d="M415.387,189.653c-.322-1.314-.584-2.536-.784-3.685s-.432-2.2-.566-3.186a36.637,36.637,0,0,1-.389-5.132,17.289,17.289,0,0,1,.152-2.043,12.539,12.539,0,0,1,.3-1.727,10.019,10.019,0,0,1,1.107-2.712,12.363,12.363,0,0,1,3.034-3.284c.973-.791,1.764-1.386,1.885-2.183,0,0,.359.736.845,1.952a49.986,49.986,0,0,1,1.5,4.847,27.721,27.721,0,0,1,.7,6.087,12.009,12.009,0,0,1-1.241,5.479c-1.727,3.041-3.381,4.378-4.579,5.029a3.862,3.862,0,0,1-1.964.566Z" transform="translate(-398.062 -165.7)" fill="#fdb724"/>
                <path id="Path_609" data-name="Path 609" d="M405.345,195.614c-.322-1.314-.663-2.518-1.009-3.624a28.348,28.348,0,0,0-1.2-2.992,18.292,18.292,0,0,0-2.633-4.311,13.568,13.568,0,0,0-1.344-1.441,10.818,10.818,0,0,0-1.374-1.022,8.447,8.447,0,0,0-2.591-1.095,10.8,10.8,0,0,0-4.366.018c-1.228.2-2.2.4-2.809.067,0,0,.243.608.681,1.563a32.773,32.773,0,0,0,1.812,3.661,25.49,25.49,0,0,0,2.743,4.238,11.752,11.752,0,0,0,3.752,3.266,14.78,14.78,0,0,0,6.312,2.013,3.939,3.939,0,0,0,2.019-.347Z" transform="translate(-388.02 -171.66)" fill="#fdb724"/>
              </g>
              <g id="Group_193" data-name="Group 193" transform="translate(60.112 80.051)">
                <path id="Path_610" data-name="Path 610" d="M420.911,224.021a62.485,62.485,0,0,1,.626-13.47,18.624,18.624,0,0,1,1.271-4.038,11.156,11.156,0,0,1,1.733-2.749c2.566-2.992,5.9-3.345,6.464-5.035,0,0,.061.225.164.62s.249.979.365,1.7.268,1.587.4,2.542a32.073,32.073,0,0,1-.195,9.961,17.82,17.82,0,0,1-.93,3.156,10.97,10.97,0,0,1-1.569,2.6,17.175,17.175,0,0,1-3.4,3.2,9.674,9.674,0,0,1-2.657,1.32,4.3,4.3,0,0,1-2.268.195Z" transform="translate(-405.003 -198.73)" fill="#fdb724"/>
                <path id="Path_611" data-name="Path 611" d="M410.708,227.968c-.207-6.008-1.423-10.168-2.974-12.934a12.164,12.164,0,0,0-2.457-3.229,9.4,9.4,0,0,0-2.627-1.7,12.13,12.13,0,0,0-4.761-.839c-1.387-.018-2.487.012-3.089-.462,0,0,.158.7.42,1.824.128.559.292,1.222.5,1.952s.48,1.52.724,2.359a33.928,33.928,0,0,0,2.122,5.132,16.572,16.572,0,0,0,1.532,2.366,10.192,10.192,0,0,0,1.873,1.952,24.341,24.341,0,0,0,3.746,2.475,11.1,11.1,0,0,0,2.712,1.052,4.449,4.449,0,0,0,2.274.061Z" transform="translate(-394.8 -202.676)" fill="#fdb724"/>
              </g>
              <g id="Group_194" data-name="Group 194" transform="translate(61.153 103.865)">
                <path id="Path_612" data-name="Path 612" d="M417.93,263.279c1.216-6.555,2.347-11.165,3.758-14.516a20.91,20.91,0,0,1,1.107-2.274,15.082,15.082,0,0,1,1.155-1.849,13.556,13.556,0,0,1,2.505-2.627c3.387-2.718,7.109-2.39,8.124-4.123,0,0,.061,1.028.061,2.676-.012.821.006,1.8-.091,2.876s-.207,2.256-.377,3.478c-.2,1.222-.462,2.493-.784,3.746a29.322,29.322,0,0,1-1.253,3.673,17.453,17.453,0,0,1-1.763,3.247,10.711,10.711,0,0,1-2.28,2.493c-3.387,2.676-5.966,3.375-7.65,3.521a4.749,4.749,0,0,1-2.505-.322Z" transform="translate(-404.906 -237.89)" fill="#fdb724"/>
                <path id="Path_613" data-name="Path 613" d="M409.537,263.992c1.222-6.574.766-11.384-.28-14.728a16.879,16.879,0,0,0-.888-2.262,13.738,13.738,0,0,0-1.095-1.794,9.539,9.539,0,0,0-2.475-2.414c-3.5-2.329-7.2-1.788-8.282-3.083,0,0-.024.791.043,2.055.1,1.265.164,3,.432,4.914.48,3.825,1.344,8.349,3.892,11.4s4.658,4.6,6.191,5.309a4.957,4.957,0,0,0,2.457.6Z" transform="translate(-396.513 -238.603)" fill="#fdb724"/>
              </g>
              <g id="Group_195" data-name="Group 195" transform="translate(56.739 125.356)">
                <path id="Path_614" data-name="Path 614" d="M404.73,306.238c3.041-6.756,5.455-11.445,7.814-14.728.3-.407.6-.8.894-1.161s.572-.718.857-1.04a17.8,17.8,0,0,1,1.727-1.727,14.462,14.462,0,0,1,3.345-2.268,16.979,16.979,0,0,1,5.972-1.484c1.715-.17,3.083-.268,3.837-1.119,0,0-.17,1.149-.553,2.968a49.138,49.138,0,0,1-2.116,6.884,34.44,34.44,0,0,1-4.086,7.644,15.976,15.976,0,0,1-5.886,5.236,20.137,20.137,0,0,1-5.546,1.77,11.622,11.622,0,0,1-3.643.036,5.282,5.282,0,0,1-2.615-1.016Z" transform="translate(-395.318 -276.945)" fill="#fdb724"/>
                <path id="Path_615" data-name="Path 615" d="M398.665,302.523c3.053-6.774,3.807-12.1,3.5-15.969a12.614,12.614,0,0,0-3.253-8.057,14.99,14.99,0,0,0-5-3.266c-1.557-.693-2.809-1.192-3.259-2,0,0-.2.839-.407,2.2-.255,1.35-.511,3.229-.736,5.309-.383,4.178-.572,9.207,1.38,13.129.493.979.991,1.861,1.459,2.645a23.779,23.779,0,0,0,1.368,2.062,14.381,14.381,0,0,0,2.463,2.639,5.5,5.5,0,0,0,2.487,1.307Z" transform="translate(-389.253 -273.23)" fill="#fdb724"/>
              </g>
            </g>
            <path id="Path_616" data-name="Path 616" d="M278.22,70.723a16.536,16.536,0,0,1,3.113-.663,11.1,11.1,0,0,1,2.767-.012,12.135,12.135,0,0,1,4.281,1.289,10.577,10.577,0,0,1,3.3,2.676,11.173,11.173,0,0,1-4.172.48,13.844,13.844,0,0,1-4.232-.851,21.176,21.176,0,0,1-2.439-1.119,18.115,18.115,0,0,1-2.621-1.788Z" transform="translate(-278.22 -68.217)" fill="#fdb724"/>
            <path id="Path_617" data-name="Path 617" d="M278.22,71.21l3.18.62c.529.109,1.064.2,1.587.322l1.575.383c1.046.261,2.1.493,3.144.784l3.107.912a97.911,97.911,0,0,1,12.1,4.609l1.478.663c.486.231.967.48,1.447.724l2.889,1.466c1.873,1.07,3.789,2.074,5.6,3.253.912.584,1.855,1.113,2.737,1.739l2.676,1.83c.894.608,1.733,1.283,2.609,1.922s1.733,1.289,2.554,1.989l2.505,2.055,2.414,2.159c.815.705,1.587,1.466,2.353,2.22s1.569,1.49,2.3,2.28a115.847,115.847,0,0,1,8.447,9.815,108.972,108.972,0,0,1,13.038,22.324c.906,1.964,1.624,4,2.426,6.008l1.052,3.065.523,1.532.456,1.557.906,3.114.772,3.144c.128.523.261,1.046.377,1.575l.316,1.587c.207,1.058.432,2.116.626,3.18l.5,3.2c.079.535.176,1.064.237,1.6l.176,1.611c.116,1.076.243,2.147.347,3.223l.213,3.235.1,1.618.036,1.618.073,3.241-.055,3.241c-.018,1.082-.1,2.159-.146,3.235a109.951,109.951,0,0,1-14.771,49.184" transform="translate(-278.22 -68.705)" fill="none" stroke="#fdb724" stroke-miterlimit="10" stroke-width="1"/>
          </g>
          <g id="Group_198" data-name="Group 198" transform="translate(16.497 17.166)">
            <rect id="Rectangle_16" data-name="Rectangle 16" width="0.389" height="0.389" transform="matrix(0.895, 0.445, -0.445, 0.895, 127.619, 109.815)" fill="#f16f67"/>
            <rect id="Rectangle_17" data-name="Rectangle 17" width="0.626" height="0.626" transform="matrix(0.834, -0.552, 0.552, 0.834, 184.101, 73.087)" fill="#404aa9"/>
            <rect id="Rectangle_18-2" data-name="Rectangle 18" width="0.699" height="0.699" transform="translate(201.827 124.302) rotate(134.33)" fill="#1c887b"/>
            <rect id="Rectangle_19" data-name="Rectangle 19" width="1.155" height="1.155" transform="translate(162.604 15.198) rotate(5.86)" fill="#f16f67"/>
            <rect id="Rectangle_20" data-name="Rectangle 20" width="0.389" height="0.389" transform="matrix(0.046, 0.999, -0.999, 0.046, 80.121, 141.39)" fill="#fdb724"/>
            <rect id="Rectangle_21" data-name="Rectangle 21" width="1.879" height="1.879" transform="matrix(0.875, -0.485, 0.485, 0.875, 137.879, 83.295)" fill="#fdb724"/>
            <rect id="Rectangle_22" data-name="Rectangle 22" width="2.432" height="2.432" transform="matrix(-0.991, -0.134, 0.134, -0.991, 137.516, 21.536)" fill="#fdb724"/>
            <rect id="Rectangle_23" data-name="Rectangle 23" width="0.967" height="0.967" transform="translate(162.608 28.903) rotate(39.85)" fill="#fdb724"/>
            <rect id="Rectangle_24" data-name="Rectangle 24" width="0.736" height="0.736" transform="translate(23.56 119.231) rotate(145.86)" fill="#1c887b"/>
            <rect id="Rectangle_25" data-name="Rectangle 25" width="0.748" height="0.748" transform="translate(22.357 48.911) rotate(-36.81)" fill="#fdb724"/>
            <rect id="Rectangle_26" data-name="Rectangle 26" width="0.341" height="0.341" transform="translate(119.237 128.48) rotate(-65.57)" fill="#fdb724"/>
            <rect id="Rectangle_27" data-name="Rectangle 27" width="1.472" height="1.472" transform="translate(23.095 87.964) rotate(-76.59)" fill="#1c887b"/>
            <rect id="Rectangle_28" data-name="Rectangle 28" width="0.651" height="0.651" transform="translate(70.928 93.157) rotate(7.53)" fill="#404aa9"/>
            <rect id="Rectangle_29" data-name="Rectangle 29" width="1.545" height="1.545" transform="translate(50.653 39.955) rotate(137.15)" fill="#404aa9"/>
            <rect id="Rectangle_30" data-name="Rectangle 30" width="0.632" height="0.632" transform="matrix(-0.31, -0.951, 0.951, -0.31, 163.133, 73.277)" fill="#404aa9"/>
            <rect id="Rectangle_31" data-name="Rectangle 31" width="0.949" height="0.949" transform="translate(0 95.716) rotate(-41.94)" fill="#404aa9"/>
            <rect id="Rectangle_32" data-name="Rectangle 32" width="1.855" height="1.855" transform="translate(143.085 60.882) rotate(71.89)" fill="#404aa9"/>
            <rect id="Rectangle_33" data-name="Rectangle 33" width="1.192" height="1.192" transform="translate(62.817 7.938) rotate(132.12)" fill="#404aa9"/>
            <rect id="Rectangle_34" data-name="Rectangle 34" width="1.502" height="1.502" transform="translate(76.419 4.915) rotate(108.48)" fill="#fdb724"/>
            <rect id="Rectangle_35" data-name="Rectangle 35" width="2.463" height="2.463" transform="translate(142.644 22.869) rotate(32.69)" fill="#1c887b"/>
            <rect id="Rectangle_36" data-name="Rectangle 36" width="1.958" height="1.958" transform="translate(13.15 75.712) rotate(-167.73)" fill="#f16f67"/>
            <rect id="Rectangle_37" data-name="Rectangle 37" width="2.597" height="2.597" transform="translate(193.675 47.362) rotate(66.38)" fill="#fdb724"/>
            <rect id="Rectangle_38" data-name="Rectangle 38" width="2.025" height="2.025" transform="translate(122.022 15.142) rotate(150.87)" fill="#fdb724"/>
            <rect id="Rectangle_39" data-name="Rectangle 39" width="1.496" height="1.496" transform="translate(171.372 101.818) rotate(71.2)" fill="#fdb724"/>
            <rect id="Rectangle_40" data-name="Rectangle 40" width="2.858" height="2.858" transform="matrix(-0.726, 0.687, -0.687, -0.726, 127.083, 3.693)" fill="#fdb724"/>
            <rect id="Rectangle_41" data-name="Rectangle 41" width="2.572" height="2.572" transform="translate(38.142 48.461) rotate(-176.66)" fill="#fdb724"/>
            <rect id="Rectangle_42" data-name="Rectangle 42" width="1.745" height="1.745" transform="translate(146.209 42.162) rotate(138.63)" fill="#1c887b"/>
            <rect id="Rectangle_43" data-name="Rectangle 43" width="3.466" height="3.466" transform="translate(128.05 32.572) rotate(-86.44)" fill="#1c887b"/>
            <rect id="Rectangle_44" data-name="Rectangle 44" width="1.046" height="1.046" transform="translate(203.228 92.928) rotate(137.44)" fill="#1c887b"/>
            <rect id="Rectangle_45" data-name="Rectangle 45" width="3.053" height="3.053" transform="translate(44.249 17.116) rotate(-160.03)" fill="#404aa9"/>
            <rect id="Rectangle_46" data-name="Rectangle 46" width="1.016" height="1.016" transform="translate(173.196 37.629) rotate(-61.56)" fill="#404aa9"/>
            <rect id="Rectangle_47" data-name="Rectangle 47" width="2.104" height="2.104" transform="matrix(-0.894, -0.449, 0.449, -0.894, 93.435, 4.464)" fill="#1c887b"/>
            <rect id="Rectangle_48" data-name="Rectangle 48" width="0.724" height="0.724" transform="translate(57.75 95.589) rotate(6.22)" fill="#f16f67"/>
            <rect id="Rectangle_49" data-name="Rectangle 49" width="0.517" height="0.517" transform="matrix(-0.464, -0.886, 0.886, -0.464, 152.291, 97.462)" fill="#1c887b"/>
            <rect id="Rectangle_50" data-name="Rectangle 50" width="1.958" height="1.958" transform="translate(106.206 15.406) rotate(1.84)" fill="#1c887b"/>
            <rect id="Rectangle_51" data-name="Rectangle 51" width="2.572" height="2.572" transform="translate(87.997 22.479) rotate(154.1)" fill="#fdb724"/>
            <rect id="Rectangle_52" data-name="Rectangle 52" width="0.894" height="0.894" transform="matrix(0.431, 0.902, -0.902, 0.431, 173.571, 136.022)" fill="#f16f67"/>
            <rect id="Rectangle_53" data-name="Rectangle 53" width="2.633" height="2.633" transform="translate(84.673 46.175) rotate(105.29)" fill="#404aa9"/>
            <rect id="Rectangle_54" data-name="Rectangle 54" width="0.876" height="0.876" transform="translate(204.599 73.186) rotate(-143.82)" fill="#1c887b"/>
            <rect id="Rectangle_55" data-name="Rectangle 55" width="0.791" height="0.791" transform="translate(188.913 117.274) rotate(-15.25)" fill="#1c887b"/>
            <rect id="Rectangle_56" data-name="Rectangle 56" width="0.146" height="0.146" transform="matrix(-0.593, 0.805, -0.805, -0.593, 141.311, 158.038)" fill="#1c887b"/>
            <rect id="Rectangle_57" data-name="Rectangle 57" width="1.356" height="1.356" transform="translate(111.002 0) rotate(57.95)" fill="#f16f67"/>
            <rect id="Rectangle_58" data-name="Rectangle 58" width="0.657" height="0.657" transform="translate(65.617 79.453) rotate(-162.72)" fill="#404aa9"/>
            <rect id="Rectangle_59" data-name="Rectangle 59" width="0.979" height="0.979" transform="translate(58.099 44.866) rotate(-137.34)" fill="#404aa9"/>
            <rect id="Rectangle_60" data-name="Rectangle 60" width="2.214" height="2.214" transform="translate(125.097 56.845) rotate(-118.35)" fill="#f16f67"/>
            <rect id="Rectangle_61" data-name="Rectangle 61" width="2.159" height="2.159" transform="translate(159.171 89.064) rotate(-50.54)" fill="#404aa9"/>
            <rect id="Rectangle_62" data-name="Rectangle 62" width="1.484" height="1.484" transform="matrix(0.812, -0.584, 0.584, 0.812, 16.559, 62.677)" fill="#f16f67"/>
            <rect id="Rectangle_63" data-name="Rectangle 63" width="0.639" height="0.639" transform="matrix(-0.689, 0.725, -0.725, -0.689, 42.598, 83.611)" fill="#fdb724"/>
            <rect id="Rectangle_64" data-name="Rectangle 64" width="1.916" height="1.916" transform="translate(71.837 35.467) rotate(-90.87)" fill="#f16f67"/>
            <rect id="Rectangle_65" data-name="Rectangle 65" width="1.198" height="1.198" transform="translate(48.642 110.4) rotate(164.57)" fill="#404aa9"/>
            <rect id="Rectangle_66" data-name="Rectangle 66" width="0.991" height="0.991" transform="translate(54.029 25.479) rotate(-8.37)" fill="#404aa9"/>
            <rect id="Rectangle_67" data-name="Rectangle 67" width="0.219" height="0.219" transform="translate(48.662 144.244) rotate(-108.35)" fill="#fdb724"/>
            <rect id="Rectangle_68" data-name="Rectangle 68" width="2.627" height="2.627" transform="translate(180.52 50.568) rotate(64.36)" fill="#404aa9"/>
            <rect id="Rectangle_69" data-name="Rectangle 69" width="1.764" height="1.764" transform="matrix(-0.698, 0.716, -0.716, -0.698, 153.885, 47.449)" fill="#404aa9"/>
            <rect id="Rectangle_70" data-name="Rectangle 70" width="0.645" height="0.645" transform="translate(47.963 65.071) rotate(110.34)" fill="#f16f67"/>
          </g>
          <text id="_1" data-name="#1" transform="translate(112.002 10)" fill="#f16f67" font-size="9" font-family="SegoeUI-Bold, Segoe UI" font-weight="700"><tspan x="0" y="0">#1</tspan></text>
        </g>
      </g>
    </g>
    <path id="Path_167" data-name="Path 167" d="M303.453,429.381H24V24H303.453Zm-276.9-2.553H300.9V26.553H26.553Z" transform="translate(127.5 132.5)" fill="#d14d4a"/>
  </g>
</svg>
