<svg xmlns="http://www.w3.org/2000/svg" xmlns:xlink="http://www.w3.org/1999/xlink" width="600" height="500" viewBox="0 0 600 500">
  <defs>
    <clipPath id="clip-path">
      <rect id="Rectangle_9" data-name="Rectangle 9" width="599" height="500" transform="translate(-0.11 0)" fill="none"/>
    </clipPath>
    <linearGradient id="linear-gradient" x1="0.499" y1="1" x2="0.499" gradientUnits="objectBoundingBox">
      <stop offset="0" stop-color="#e2465b"/>
      <stop offset="1" stop-color="#e2a85b"/>
    </linearGradient>
    <linearGradient id="linear-gradient-2" x1="0.501" y1="1" x2="0.501" y2="0" xlink:href="#linear-gradient"/>
    <linearGradient id="linear-gradient-3" x1="0.501" y1="1" x2="0.501" y2="0.003" xlink:href="#linear-gradient"/>
    <linearGradient id="linear-gradient-5" x1="0.5" y1="1" x2="0.5" y2="0" xlink:href="#linear-gradient"/>
    <linearGradient id="linear-gradient-6" x1="0.501" y1="1" x2="0.501" y2="0.003" xlink:href="#linear-gradient"/>
    <linearGradient id="linear-gradient-7" x1="0.498" y1="1" x2="0.498" y2="0" xlink:href="#linear-gradient"/>
    <linearGradient id="linear-gradient-8" x1="0.502" y1="0.999" x2="0.502" y2="0.003" xlink:href="#linear-gradient"/>
  </defs>
  <g id="Group_383" data-name="Group 383" transform="translate(-2268 -5153)">
    <rect id="Rectangle_11" data-name="Rectangle 11" width="600" height="500" rx="20" transform="translate(2268 5153)" fill="#eef7ff"/>
    <g id="Group_200" data-name="Group 200" transform="translate(1201 6032.711)">
      <g id="_2" data-name="2" transform="translate(1177 -820)">
        <g id="OBJECTS" transform="translate(68.488 42.342)">
          <g id="Group_100" data-name="Group 100" transform="translate(29.254 140.972)">
            <g id="Group_90" data-name="Group 90" transform="translate(0 0.129)">
              <g id="Group_85" data-name="Group 85" transform="translate(0 2.259)">
                <g id="Group_82" data-name="Group 82" transform="translate(28.157)">
                  <path id="Path_182" data-name="Path 182" d="M428.922,513.664l-6.092-23.3,14.246,19.44Z" transform="translate(-422.83 -490.36)" fill="#3e1742"/>
                  <path id="Path_183" data-name="Path 183" d="M437.076,509.8,422.83,490.36l10.1,21.41Z" transform="translate(-422.83 -490.36)" fill="#3e1742"/>
                  <line id="Line_1" data-name="Line 1" x1="10.1" y1="21.41" fill="#3e1742"/>
                </g>
                <g id="Group_83" data-name="Group 83" transform="translate(4.274 10.618)">
                  <path id="Path_184" data-name="Path 184" d="M411.144,528.065,391.43,504.32l25.708,17Z" transform="translate(-391.43 -504.32)" fill="#3e1742"/>
                  <path id="Path_185" data-name="Path 185" d="M417.138,521.319l-2.837,3.187L391.43,504.32Z" transform="translate(-391.43 -504.32)" fill="#3e1742"/>
                  <line id="Line_2" data-name="Line 2" x1="22.871" y1="20.186" fill="#3e1742"/>
                </g>
                <g id="Group_84" data-name="Group 84" transform="translate(0 37.938)">
                  <path id="Path_186" data-name="Path 186" d="M407.053,549.169l-21.243-7.461,22.544-1.468Z" transform="translate(-385.81 -540.24)" fill="#3e1742"/>
                  <path id="Path_187" data-name="Path 187" d="M408.354,540.24l-.7,4.784-21.844-3.316Z" transform="translate(-385.81 -540.24)" fill="#3e1742"/>
                  <line id="Line_3" data-name="Line 3" x1="21.844" y1="3.316" transform="translate(0 1.468)" fill="#3e1742"/>
                </g>
              </g>
              <g id="Group_89" data-name="Group 89" transform="translate(0.243)">
                <g id="Group_86" data-name="Group 86" transform="translate(28.149)">
                  <path id="Path_188" data-name="Path 188" d="M429.242,510.7,423.15,487.39,437.4,506.838Z" transform="translate(-423.142 -487.39)" fill="#ffff35"/>
                  <path id="Path_189" data-name="Path 189" d="M437.4,506.838,423.15,487.39l10.093,21.41Z" transform="translate(-423.142 -487.39)" fill="#ffb235"/>
                  <path id="Path_190" data-name="Path 190" d="M433.24,508.8c-1.977-3.43-3.727-6.967-5.423-10.526-1.673-3.575-3.286-7.172-4.678-10.876,1.977,3.43,3.727,6.967,5.423,10.526C430.236,501.5,431.849,505.1,433.24,508.8Z" transform="translate(-423.14 -487.392)" fill="#fff"/>
                </g>
                <g id="Group_87" data-name="Group 87" transform="translate(4.274 10.618)">
                  <path id="Path_191" data-name="Path 191" d="M411.457,525.1,391.75,501.35l25.7,17Z" transform="translate(-391.75 -501.35)" fill="#ffff35"/>
                  <path id="Path_192" data-name="Path 192" d="M417.45,518.349l-2.829,3.187L391.75,501.35Z" transform="translate(-391.75 -501.35)" fill="#ffb235"/>
                  <path id="Path_193" data-name="Path 193" d="M414.621,521.536c-1.012-.768-1.993-1.582-2.989-2.373l-2.936-2.434c-1.955-1.628-3.871-3.3-5.78-4.974-1.9-1.688-3.8-3.377-5.659-5.119l-2.784-2.609c-.905-.89-1.833-1.765-2.723-2.677,1.012.768,1.993,1.582,2.989,2.373l2.936,2.441c1.955,1.628,3.871,3.3,5.78,4.974,1.9,1.688,3.8,3.377,5.651,5.119l2.784,2.609c.905.89,1.833,1.765,2.723,2.67Z" transform="translate(-391.75 -501.35)" fill="#fff"/>
                </g>
                <g id="Group_88" data-name="Group 88" transform="translate(0 37.945)">
                  <path id="Path_194" data-name="Path 194" d="M407.373,546.2,386.13,538.74l22.536-1.46Z" transform="translate(-386.13 -537.28)" fill="#ffff35"/>
                  <path id="Path_195" data-name="Path 195" d="M408.666,537.28l-.692,4.784L386.13,538.74Z" transform="translate(-386.13 -537.28)" fill="#ffb235"/>
                  <path id="Path_196" data-name="Path 196" d="M407.974,542.524c-3.689-.236-7.34-.715-10.983-1.255-3.636-.563-7.271-1.194-10.861-2.069,3.689.236,7.34.715,10.983,1.255C400.748,541.025,404.384,541.649,407.974,542.524Z" transform="translate(-386.13 -537.74)" fill="#fff"/>
                </g>
              </g>
            </g>
            <g id="Group_99" data-name="Group 99" transform="translate(141.14)">
              <g id="Group_94" data-name="Group 94" transform="translate(0.989 2.092)">
                <g id="Group_91" data-name="Group 91">
                  <path id="Path_197" data-name="Path 197" d="M580.833,513.282l6.092-23.312L572.68,509.418Z" transform="translate(-572.68 -489.97)" fill="#3e1742"/>
                  <path id="Path_198" data-name="Path 198" d="M572.68,509.418l14.246-19.448-10.1,21.41Z" transform="translate(-572.68 -489.97)" fill="#3e1742"/>
                  <line id="Line_4" data-name="Line 4" y1="21.41" x2="10.1" transform="translate(4.145)" fill="#3e1742"/>
                </g>
                <g id="Group_92" data-name="Group 92" transform="translate(12.42 10.618)">
                  <path id="Path_199" data-name="Path 199" d="M595,527.675l19.714-23.745L589.01,520.936Z" transform="translate(-589.01 -503.93)" fill="#3e1742"/>
                  <path id="Path_200" data-name="Path 200" d="M589.01,520.936l2.837,3.179,22.871-20.186Z" transform="translate(-589.01 -503.93)" fill="#3e1742"/>
                  <line id="Line_5" data-name="Line 5" y1="20.186" x2="22.871" transform="translate(2.837)" fill="#3e1742"/>
                </g>
                <g id="Group_93" data-name="Group 93" transform="translate(19.866 37.945)">
                  <path id="Path_201" data-name="Path 201" d="M600.093,548.789l21.243-7.469L598.8,539.86Z" transform="translate(-598.8 -539.86)" fill="#3e1742"/>
                  <path id="Path_202" data-name="Path 202" d="M598.8,539.86l.692,4.784,21.844-3.324Z" transform="translate(-598.8 -539.86)" fill="#3e1742"/>
                  <line id="Line_6" data-name="Line 6" y1="3.324" x2="21.844" transform="translate(0.692 1.46)" fill="#3e1742"/>
                </g>
              </g>
              <g id="Group_98" data-name="Group 98">
                <g id="Group_95" data-name="Group 95">
                  <path id="Path_203" data-name="Path 203" d="M579.533,510.532l6.092-23.312L571.38,506.668Z" transform="translate(-571.38 -487.22)" fill="#ffff35"/>
                  <path id="Path_204" data-name="Path 204" d="M571.38,506.668l14.246-19.448-10.093,21.41Z" transform="translate(-571.38 -487.22)" fill="#ffb235"/>
                  <path id="Path_205" data-name="Path 205" d="M576.84,508.63c1.392-3.7,3-7.309,4.678-10.876,1.7-3.567,3.445-7.1,5.423-10.534-1.392,3.7-3,7.309-4.678,10.876-1.7,3.56-3.445,7.1-5.415,10.534Z" transform="translate(-572.687 -487.22)" fill="#fff"/>
                </g>
                <g id="Group_96" data-name="Group 96" transform="translate(12.428 10.618)">
                  <path id="Path_206" data-name="Path 206" d="M593.713,524.925,613.42,501.18l-25.7,17.006Z" transform="translate(-587.72 -501.18)" fill="#ffff35"/>
                  <path id="Path_207" data-name="Path 207" d="M587.72,518.186l2.829,3.187L613.42,501.18Z" transform="translate(-587.72 -501.18)" fill="#ffb235"/>
                  <path id="Path_208" data-name="Path 208" d="M591.44,521.376c.89-.913,1.818-1.78,2.723-2.67l2.784-2.609c1.856-1.742,3.757-3.43,5.651-5.119,1.909-1.673,3.826-3.347,5.78-4.974l2.936-2.441c1-.791,1.977-1.6,2.989-2.373-.89.913-1.818,1.78-2.723,2.677l-2.784,2.609c-1.856,1.742-3.757,3.43-5.651,5.119-1.917,1.673-3.826,3.347-5.78,4.974l-2.936,2.441c-1,.791-1.977,1.6-2.989,2.373Z" transform="translate(-588.611 -501.182)" fill="#fff"/>
                </g>
                <g id="Group_97" data-name="Group 97" transform="translate(19.866 37.945)">
                  <path id="Path_209" data-name="Path 209" d="M598.793,546.039l21.243-7.469L597.5,537.11Z" transform="translate(-597.5 -537.11)" fill="#ffff35"/>
                  <path id="Path_210" data-name="Path 210" d="M597.5,537.11l.692,4.784,21.844-3.324Z" transform="translate(-597.5 -537.11)" fill="#ffb235"/>
                  <path id="Path_211" data-name="Path 211" d="M598.41,542.354c3.59-.875,7.225-1.5,10.861-2.069,3.643-.54,7.294-1.019,10.983-1.255-3.59.875-7.218,1.5-10.861,2.069C605.75,541.639,602.1,542.118,598.41,542.354Z" transform="translate(-597.718 -537.57)" fill="#fff"/>
                </g>
              </g>
            </g>
          </g>
          <g id="Group_102" data-name="Group 102" transform="translate(83.118 97.726)">
            <g id="Group_101" data-name="Group 101" opacity="0.34">
              <text id="GYM" transform="translate(0 32)" fill="#3e1742" font-size="30" font-family="SegoeUIBlack, Segoe UI"><tspan x="0" y="0">GYM</tspan></text>
            </g>
            <text id="GYM-2" data-name="GYM" transform="translate(0 32)" fill="#3e1742" font-size="30" font-family="SegoeUIBlack, Segoe UI"><tspan x="0" y="0">GYM</tspan></text>
          </g>
          <g id="Group_115" data-name="Group 115">
            <path id="Path_212" data-name="Path 212" d="M587,331.014a3.192,3.192,0,0,0,.175-.54,2.637,2.637,0,0,0,.076-.555v-.053a3.174,3.174,0,0,0-.03-.54,4.712,4.712,0,0,0-.1-.472h0a3.33,3.33,0,0,0-3.042-2.411l-2.244-.091.51-12.968h0a4.06,4.06,0,0,0-3.035-4.084c-.015,0-.03-.015-.046-.015a3.276,3.276,0,0,0-.548-.076c-.091-.008-.175-.03-.266-.038l-.73-.03a3.63,3.63,0,0,0-.578.038h0a4.048,4.048,0,0,0-3.636,3.864L573,326.009l-10.983-.434c-.1-.745-.228-1.521-.38-2.343l-.046.023a2.319,2.319,0,0,0-1.886-1.711l-.129-.023a2.324,2.324,0,0,0-2.647,1.871l.213-1.377a2.6,2.6,0,0,0-2.441-2.791h0a2.6,2.6,0,0,0-3.057,2.076v-.274a2.69,2.69,0,0,0-5.362.1l.023.472a.13.13,0,0,0-.038.015l-.129-.783a2.952,2.952,0,0,0-5.719,1.11l.114.487c-1.848-.068-2.327.844-2.51,2.183l-7.294-.289.51-12.968a4.055,4.055,0,0,0-3.08-4.1c-.076-.015-.16-.015-.236-.03h0a3.647,3.647,0,0,0-.578-.084l-.73-.03a4.135,4.135,0,0,0-.981.091,4.025,4.025,0,0,0-3.164,3.331c-.023.16-.061.312-.068.472l-.51,12.968-1.8-.068a3.3,3.3,0,0,0-3.225,2.168h0a3.247,3.247,0,0,0-.137.464,3.158,3.158,0,0,0-.076.548,2.633,2.633,0,0,0,.038.6,4.178,4.178,0,0,0,.129.532,3.416,3.416,0,0,0,.327.745,3.321,3.321,0,0,0,2.685,1.567l1.8.068-.51,12.968a3.949,3.949,0,0,0,.259,1.59,4.745,4.745,0,0,0,.335.685.037.037,0,0,0,.008.023c.068.114.16.213.243.327.076.1.145.205.228.3A4.03,4.03,0,0,0,524,347.6a2.031,2.031,0,0,0,.2.068h0a4.038,4.038,0,0,0,.814.114l.73.03h0a3.63,3.63,0,0,0,.578-.038,3.939,3.939,0,0,0,1.719-.57,4.042,4.042,0,0,0,1.924-3.293l.51-12.968,6.381.251a5.923,5.923,0,0,0,2.282,5.263,63.406,63.406,0,0,1,4.906,4.487c2.373,14.611-.989,36.044-.989,36.044a36.88,36.88,0,0,0-12.474,1.544h0c-10.443,3.392-11.994,11.12-11.994,11.127a.077.077,0,0,1-.038-.015.253.253,0,0,1-.046-.023.366.366,0,0,0-.053-.023c-.837-1.24-11.644-8.245-34.545-6.26-.114.008-.228.023-.342.03-.958.084-1.924.183-2.921.3,0-.479.008-.951.023-1.43.03-1.1.106-2.19.2-3.286a24.154,24.154,0,0,0,10.466-13.5,7.32,7.32,0,0,0,2.373-5.408V359.6a5.3,5.3,0,0,0,0-10.024V339.487a20.06,20.06,0,0,0-20.056-20.056H462.363a20.06,20.06,0,0,0-20.056,20.056v10.154a5.31,5.31,0,0,0,0,9.9v.51A7.352,7.352,0,0,0,445.341,366a24.2,24.2,0,0,0,10.374,13.013c.106,1.126.183,2.244.221,3.369h0q.023.719.023,1.438h-.1c-.92-.106-1.818-.2-2.7-.281a.938.938,0,0,1-.152-.015c-24.087-2.168-34.926,5.59-34.933,6.358,0,0-1.552-7.735-11.994-11.12h0a36.907,36.907,0,0,0-12.473-1.544s-3.362-21.425-.989-36.044a63.389,63.389,0,0,1,4.906-4.487,5.923,5.923,0,0,0,2.282-5.263l6.381-.251.51,12.968a4.041,4.041,0,0,0,1.3,2.822,3.832,3.832,0,0,0,.624.472,4.119,4.119,0,0,0,1.476.555c.076.015.16,0,.243.015a3.627,3.627,0,0,0,.578.038l.73-.03a4.116,4.116,0,0,0,.814-.114h0a4.061,4.061,0,0,0,3.08-4.1l-.51-12.968,1.8-.068a3.3,3.3,0,0,0,3.027-2.373,3.049,3.049,0,0,0,.114-.472,3.149,3.149,0,0,0,.038-.6,2.639,2.639,0,0,0-.076-.548,3.248,3.248,0,0,0-.137-.464h0a3.308,3.308,0,0,0-3.225-2.168l-1.8.068-.411-10.5-.1-2.472c0-.076-.023-.152-.03-.228a4.139,4.139,0,0,0-.35-1.339,4.058,4.058,0,0,0-3.833-2.327l-.73.03a3.651,3.651,0,0,0-.578.084,4.05,4.05,0,0,0-3.324,4.138h0l.51,12.968-7.294.289c-.183-1.339-.662-2.259-2.51-2.183l.114-.487a2.952,2.952,0,0,0-5.72-1.11l-.129.783a.128.128,0,0,1-.038-.015l.023-.472a2.69,2.69,0,0,0-5.362-.1v.274a2.59,2.59,0,0,0-3.05-2.076h0a2.6,2.6,0,0,0-2.434,2.791l.213,1.377a2.324,2.324,0,0,0-2.647-1.871l-.129.023a2.33,2.33,0,0,0-1.886,1.711l-.046-.023c-.16.814-.281,1.6-.38,2.343l-10.983.434-.51-12.968c0-.038-.015-.076-.015-.114a4.168,4.168,0,0,0-.365-1.453,4.075,4.075,0,0,0-.4-.677,3.745,3.745,0,0,0-.517-.578,1.13,1.13,0,0,0-.152-.114,4.021,4.021,0,0,0-1.179-.707,4.067,4.067,0,0,0-1.012-.221h0a3.63,3.63,0,0,0-.578-.038l-.73.03a4.056,4.056,0,0,0-3.849,3.392,4.182,4.182,0,0,0-.053.821l.51,12.968-2.244.091a3.155,3.155,0,0,0-.662.091,3.215,3.215,0,0,0-1.164.548,3.139,3.139,0,0,0-.472.426,3.23,3.23,0,0,0-.738,1.354h0a2.475,2.475,0,0,0-.1.472,3.127,3.127,0,0,0-.03.54v.061a3.361,3.361,0,0,0,.076.555,3.3,3.3,0,0,0,3.354,2.578l2.244-.091.51,12.968a4.056,4.056,0,0,0,3.392,3.849h0a4.182,4.182,0,0,0,.821.053l.73-.03a2.943,2.943,0,0,0,.578-.084,4.051,4.051,0,0,0,3.324-4.138h0l-.51-12.968,10.587-.418a13.762,13.762,0,0,0,1.8,5.727c-.213,3.385-.806,12.238-1.643,18.4-.859,6.328-4.807,17.957-5.043,23.547a8.8,8.8,0,0,0,.053,1.529,4.3,4.3,0,0,0,.106.5c.913,3.392,6.647,13.538,16.208,22.293,1.057.966,2.16,1.917,3.309,2.837,1.11,1.11,16.132,15.752,33.085,14.983l7.872,39.679a4.619,4.619,0,0,0,4.533,3.727h67.014a4.629,4.629,0,0,0,4.495-3.529l9.758-40.067c13.424-.205,25.35-9.614,29.678-13.462h0c.905-.806,1.476-1.361,1.658-1.552,1.148-.92,2.251-1.871,3.308-2.837,9.56-8.747,15.288-18.9,16.2-22.293.053-.19-.677.4-.654.259.061-.434.837-1.711.814-2.289-.236-5.59-4.183-17.212-5.043-23.547-.365-2.662-.677-5.834-.943-8.853l-.068-.821c-.114-1.354-.213-2.662-.3-3.864-.053-.723-.1-1.407-.145-2.038-.076-1.141-.137-2.107-.182-2.829a13.989,13.989,0,0,0,1.8-5.727l10.587.418-.51,12.968h0a4.055,4.055,0,0,0,3.08,4.1c.076.015.16.023.236.03a3.651,3.651,0,0,0,.578.084h0l.73.03h0a3.671,3.671,0,0,0,.821-.053h0a4.063,4.063,0,0,0,3.4-3.849l.51-12.968,2.244.091a3.31,3.31,0,0,0,3.179-2.038h0Zm-106.382,52.8v0Z" transform="translate(-347.84 -303.124)" fill="#3e1742" opacity="0.6"/>
            <g id="Group_114" data-name="Group 114">
              <g id="Group_104" data-name="Group 104" transform="translate(0 0.224)">
                <path id="Path_213" data-name="Path 213" d="M446.227,419.487s7.066-10.884.525-21.714c-7.5-12.42-23.616-4.328-23.616-4.328s-2.373-11.5-23.479-10.922c0,0-4.533-24.331-1.78-38.942,0,0-5.978-10.207-16.436-3.263,0,0-.677,12.032-1.727,19.79-.951,6.982-3.263,23.966-2.6,28.613s14.352,28.544,40.25,32.933c0,0,18.337,11.059,28.864-2.175Z" transform="translate(-354.446 -310.72)" fill="#f3e9a4"/>
                <path id="Path_214" data-name="Path 214" d="M379.766,360.277c1.057-7.75,1.727-19.79,1.727-19.79a15.547,15.547,0,0,1,3.917-1.917c-.16.1-.312.19-.472.289,0,0-2.206,11.7-3.255,19.456-.951,6.982-2.928,27.662-2.267,32.317s15.546,25.183,41.444,29.571c0,0,11.12,6.7,21.015,3.423-10.549,6.587-24.468-1.795-24.468-1.795-25.9-4.389-39.4-26.666-40.067-31.321s1.468-23.251,2.419-30.233Z" transform="translate(-354.497 -310.881)" fill="#ebd481"/>
                <path id="Path_215" data-name="Path 215" d="M383.785,340.224s-5.461-3.575-2.943-16.634l9.88,5.446,2.19,5.324-2.639,7.53-6.488-1.673Z" transform="translate(-355.207 -307.295)" fill="#f3e9a4"/>
                <path id="Path_216" data-name="Path 216" d="M397.994,425.771a66.105,66.105,0,0,1-5.484-4.571,69.31,69.31,0,0,1,21.273-23.89c3.05.989,5.879,2,7.591,3.43-9.872,6.153-16.854,15.394-23.388,25.031Z" transform="translate(-358.16 -324.945)" fill="#458aee"/>
                <path id="Path_217" data-name="Path 217" d="M7.111,0H9.226a7.115,7.115,0,0,1,7.111,7.111v3.772H0V7.111A7.115,7.115,0,0,1,7.111,0Z" transform="translate(44.732 31.416) rotate(180)" fill="#ebcf6e"/>
                <g id="Group_103" data-name="Group 103">
                  <path id="Path_218" data-name="Path 218" d="M350.787,333.631l64.018-2.525a3.314,3.314,0,0,0,3.179-3.438h0a3.314,3.314,0,0,0-3.438-3.179l-64.018,2.525a3.314,3.314,0,0,0-3.179,3.438h0a3.314,3.314,0,0,0,3.438,3.179Z" transform="translate(-347.347 -307.509)" fill="#3a9fa3"/>
                  <path id="Path_219" data-name="Path 219" d="M414.64,326.789l-64.018,2.525a3.294,3.294,0,0,0-3,2.282,3.286,3.286,0,0,1,2.921-4.571l64.018-2.525a3.313,3.313,0,0,1,3.438,3.179,3.433,3.433,0,0,1-.167,1.156,3.3,3.3,0,0,0-3.179-2.038Z" transform="translate(-347.349 -307.512)" fill="#41b3b8"/>
                  <path id="Path_220" data-name="Path 220" d="M350.711,332.286l64.018-2.525a3.309,3.309,0,0,0,3.042-2.411,3.2,3.2,0,0,1,.213,1.012A3.318,3.318,0,0,1,414.8,331.8l-64.018,2.525a3.27,3.27,0,0,1-3.3-4.206,3.3,3.3,0,0,0,3.225,2.168Z" transform="translate(-347.347 -308.195)" fill="#359194"/>
                  <path id="Path_221" data-name="Path 221" d="M4.061.008h.73A4.061,4.061,0,0,1,8.853,4.069V36.637A4.061,4.061,0,0,1,4.792,40.7h-.73A4.061,4.061,0,0,1,0,36.637V4.061A4.066,4.066,0,0,1,4.061,0Z" transform="translate(55.898 0.346) rotate(-2.24)" fill="#e2505b"/>
                  <path id="Path_222" data-name="Path 222" d="M424.913,302.45l.73-.03a3.671,3.671,0,0,1,.821.053,4.062,4.062,0,0,0-3.088,4.1l1.285,32.545a4.063,4.063,0,0,0,3.4,3.849,4.034,4.034,0,0,1-.814.114l-.73.03a4.051,4.051,0,0,1-4.214-3.894l-1.285-32.545a4.051,4.051,0,0,1,3.894-4.214Z" transform="translate(-364.985 -302.225)" fill="#e22d3b"/>
                  <path id="Path_223" data-name="Path 223" d="M430.3,338.932l-1.285-32.545a4.048,4.048,0,0,0-3.636-3.864,3.65,3.65,0,0,1,.578-.084l.73-.03A4.051,4.051,0,0,1,430.9,306.3l1.285,32.545a4.051,4.051,0,0,1-3.894,4.214l-.73.03a3.627,3.627,0,0,1-.578-.038,4.051,4.051,0,0,0,3.324-4.138Z" transform="translate(-366.03 -302.223)" fill="#ff6e79"/>
                  <path id="Path_224" data-name="Path 224" d="M359.308,345.762l.73-.03a4.055,4.055,0,0,0,3.894-4.214l-1.285-32.545a4.055,4.055,0,0,0-4.214-3.894l-.73.03a4.055,4.055,0,0,0-3.894,4.214l1.285,32.545A4.055,4.055,0,0,0,359.308,345.762Z" transform="translate(-348.893 -302.862)" fill="#e2505b"/>
                  <path id="Path_225" data-name="Path 225" d="M361.009,345.729l-.73.03a3.669,3.669,0,0,1-.821-.053,4.062,4.062,0,0,0,3.088-4.1l-1.285-32.545a4.063,4.063,0,0,0-3.4-3.849,4.039,4.039,0,0,1,.814-.114l.73-.03a4.051,4.051,0,0,1,4.214,3.894l1.285,32.545a4.051,4.051,0,0,1-3.894,4.214Z" transform="translate(-349.864 -302.859)" fill="#ff6e79"/>
                  <path id="Path_226" data-name="Path 226" d="M355.7,309.25l1.285,32.545a4.048,4.048,0,0,0,3.636,3.864,3.653,3.653,0,0,1-.578.084l-.73.03a4.051,4.051,0,0,1-4.214-3.894l-1.285-32.545a4.051,4.051,0,0,1,3.894-4.214l.73-.03a3.635,3.635,0,0,1,.578.038,4.051,4.051,0,0,0-3.324,4.138Z" transform="translate(-348.893 -302.865)" fill="#e22d3b"/>
                </g>
                <path id="Path_227" data-name="Path 227" d="M396.664,331.334h0a2.3,2.3,0,0,0,2.426-2.046l.472-9.233a2.548,2.548,0,0,0-2.647-2.525h0a2.546,2.546,0,0,0-2.715,2.426l.1,9.249a2.292,2.292,0,0,0,2.373,2.137Z" transform="translate(-358.565 -305.844)" fill="#f3e9a4"/>
                <path id="Path_228" data-name="Path 228" d="M391.085,332.038h0a2.338,2.338,0,0,0,2.19-2.373l-.814-9.211a2.6,2.6,0,0,0-3.065-2.122h0a2.6,2.6,0,0,0-2.434,2.791l1.4,9.142A2.333,2.333,0,0,0,391.085,332.038Z" transform="translate(-356.826 -306.03)" fill="#f3e9a4"/>
                <path id="Path_229" data-name="Path 229" d="M401.652,331.522h0a2.433,2.433,0,0,0,2.943-1.559l2.092-9.013a2.68,2.68,0,0,0-2.4-2.989h0a2.681,2.681,0,0,0-3.316,1.879l-1.476,9.127a2.414,2.414,0,0,0,2.168,2.548Z" transform="translate(-359.826 -305.932)" fill="#f3e9a4"/>
                <path id="Path_230" data-name="Path 230" d="M2.32,0h.137A2.327,2.327,0,0,1,4.784,2.327V7.37A2.327,2.327,0,0,1,2.457,9.7H2.327A2.327,2.327,0,0,1,0,7.37V2.327A2.327,2.327,0,0,1,2.327,0Z" transform="translate(31.52 23.79) rotate(171.02)" fill="#f3e9a4"/>
                <path id="Path_231" data-name="Path 231" d="M1.346,0H1.59A1.341,1.341,0,0,1,2.928,1.339v.51a.325.325,0,0,1-.327.327H.327A.325.325,0,0,1,0,1.848v-.51A1.341,1.341,0,0,1,1.339,0Z" transform="translate(39.781 25.012) rotate(180)" fill="#fff7bd"/>
                <path id="Path_232" data-name="Path 232" d="M403.888,327.174a3.693,3.693,0,0,1-4.9-.3c-2.632-2.259-2.479-4.335-1.027-5.309s2.479,1.232,6.716.73,2.464,3.27,3.643,6.5.525,5.438-1.742,7.492-5.278,4.2-6.244,6.5-9.386-2.571-5.8-9.074a5.618,5.618,0,0,1,7.149-1.932s2.571-.289,2.206-4.6Z" transform="translate(-358.434 -306.749)" fill="#f3e9a4"/>
                <path id="Path_233" data-name="Path 233" d="M393.648,336.01a7,7,0,0,1,.875-2.517,5.167,5.167,0,0,1,1.894-1.947,5.226,5.226,0,0,1,2.677-.647,8.741,8.741,0,0,1,2.7.494l-.167-.015a2.053,2.053,0,0,0,.981-.662,3.587,3.587,0,0,0,.631-1.148,6.393,6.393,0,0,0,.3-1.331c.053-.456.068-.928.076-1.392l.745.183a2.794,2.794,0,0,1-2.373,1.323,5.939,5.939,0,0,1-4.487-2.3,4.485,4.485,0,0,1-.875-2.426,3.746,3.746,0,0,1,.145-1.316,1.736,1.736,0,0,1,.928-1.05,3.324,3.324,0,0,1,2.533.183,18.544,18.544,0,0,0,2.312.631,6.645,6.645,0,0,0,2.388.137,5.924,5.924,0,0,1-2.426.091,16.324,16.324,0,0,1-2.4-.456,4.575,4.575,0,0,0-1.133-.259,1.965,1.965,0,0,0-1.042.167c-.616.3-.73,1.072-.646,1.825a4.246,4.246,0,0,0,2.533,3.43,4.75,4.75,0,0,0,2.137.532,2.119,2.119,0,0,0,1.7-.89l.023-.038a.392.392,0,0,1,.723.221,14.17,14.17,0,0,1-.106,1.5,7.286,7.286,0,0,1-.365,1.483,4.172,4.172,0,0,1-.791,1.361,2.685,2.685,0,0,1-1.422.882.338.338,0,0,1-.152-.008h-.015a8.343,8.343,0,0,0-2.479-.578,4.683,4.683,0,0,0-2.449.464,5.166,5.166,0,0,0-1.894,1.688,7.83,7.83,0,0,0-1.088,2.388Z" transform="translate(-358.43 -306.694)" fill="#ebcf6e"/>
                <path id="Path_234" data-name="Path 234" d="M401.179,329.05a6.514,6.514,0,0,1-.532,3.917,5.716,5.716,0,0,1-.038-2A5.9,5.9,0,0,1,401.179,329.05Z" transform="translate(-360.082 -308.602)" fill="#ebcf6e"/>
                <path id="Path_235" data-name="Path 235" d="M394.824,332.019a24,24,0,0,1-.517-4.084,24.816,24.816,0,0,1,.091-4.115,24,24,0,0,1,.517,4.084A24.813,24.813,0,0,1,394.824,332.019Z" transform="translate(-358.58 -307.35)" fill="#ebcf6e"/>
                <path id="Path_236" data-name="Path 236" d="M388.109,329.645a8.553,8.553,0,0,1-.654-4.5,7.444,7.444,0,0,1,.631,2.206A7.69,7.69,0,0,1,388.109,329.645Z" transform="translate(-356.931 -307.668)" fill="#ebcf6e"/>
                <path id="Path_237" data-name="Path 237" d="M1.346,0H1.59A1.341,1.341,0,0,1,2.928,1.339v.51a.325.325,0,0,1-.327.327H.327A.325.325,0,0,1,0,1.848v-.51A1.341,1.341,0,0,1,1.339,0Z" transform="translate(35.324 25.012) rotate(180)" fill="#fff7bd"/>
                <path id="Path_238" data-name="Path 238" d="M1.339,0h.243A1.341,1.341,0,0,1,2.921,1.339v.51a.325.325,0,0,1-.327.327H.327A.325.325,0,0,1,0,1.848v-.51A1.341,1.341,0,0,1,1.339,0Z" transform="translate(30.114 23.399) rotate(180)" fill="#fff7bd"/>
              </g>
              <g id="Group_106" data-name="Group 106" transform="translate(142.815)">
                <path id="Path_239" data-name="Path 239" d="M538.421,419.209s-7.066-10.884-.525-21.714c7.5-12.42,23.616-4.328,23.616-4.328s.107-11.5,24.468-12.664c0,0,3.544-22.582.791-37.192,0,0,5.978-10.207,16.436-3.263,0,0,.677,12.032,1.727,19.79.951,6.982,3.78,25.685,3.111,30.332S593.182,417,567.285,421.384c0,0-18.338,11.059-28.864-2.175Z" transform="translate(-535.119 -310.432)" fill="#f3e9a4"/>
                <path id="Path_240" data-name="Path 240" d="M607.359,359.987c-1.057-7.75-1.727-19.79-1.727-19.79a15.547,15.547,0,0,0-3.917-1.917l.472.289s.669,12.032,1.727,19.79c.951,6.982,3.78,25.685,3.111,30.332s-14.862,26.826-40.759,31.214c0,0-11.12,6.7-21.015,3.423,10.549,6.587,24.468-1.795,24.468-1.795,25.9-4.388,40.1-26.567,40.759-31.214s-2.168-23.35-3.111-30.332Z" transform="translate(-537.544 -310.588)" fill="#ebd481"/>
                <path id="Path_241" data-name="Path 241" d="M619.687,339.944s5.461-3.575,2.943-16.634l-9.88,5.446-2.19,5.324,2.639,7.53,6.488-1.673Z" transform="translate(-553.181 -307.004)" fill="#f3e9a4"/>
                <path id="Path_242" data-name="Path 242" d="M600.9,425.036a61.952,61.952,0,0,0,5.3-4.442c-5.21-9.439-13.66-18.178-22.848-24.574a20.9,20.9,0,0,0-7.058,3.788c9.872,6.153,17.493,15.759,24.6,25.228Z" transform="translate(-544.979 -324.412)" fill="#458aee"/>
                <path id="Path_243" data-name="Path 243" d="M601.33,328.88h16.337v3.772a7.115,7.115,0,0,1-7.111,7.111h-2.114a7.115,7.115,0,0,1-7.111-7.111V328.88Z" transform="translate(-550.971 -308.337)" fill="#ebcf6e"/>
                <g id="Group_105" data-name="Group 105" transform="translate(24.443)">
                  <path id="Path_244" data-name="Path 244" d="M634.456,333.351l-64.018-2.525a3.314,3.314,0,0,1-3.179-3.438h0a3.314,3.314,0,0,1,3.438-3.179l64.018,2.525a3.314,3.314,0,0,1,3.179,3.438h0A3.314,3.314,0,0,1,634.456,333.351Z" transform="translate(-567.257 -307.218)" fill="#3a9fa3"/>
                  <path id="Path_245" data-name="Path 245" d="M570.613,326.5l64.018,2.525a3.294,3.294,0,0,1,3,2.282,3.286,3.286,0,0,0-2.921-4.571L570.7,324.209a3.318,3.318,0,0,0-3.438,3.179,3.436,3.436,0,0,0,.167,1.156,3.3,3.3,0,0,1,3.179-2.038Z" transform="translate(-567.257 -307.218)" fill="#41b3b8"/>
                  <path id="Path_246" data-name="Path 246" d="M634.535,332l-64.01-2.525a3.309,3.309,0,0,1-3.042-2.411,3.2,3.2,0,0,0-.213,1.012,3.318,3.318,0,0,0,3.179,3.438l64.018,2.525a3.318,3.318,0,0,0,3.438-3.179,3.284,3.284,0,0,0-.137-1.027A3.291,3.291,0,0,1,634.542,332Z" transform="translate(-567.259 -307.902)" fill="#359194"/>
                  <path id="Path_247" data-name="Path 247" d="M4.061,0h.73A4.066,4.066,0,0,1,8.853,4.061V36.637A4.061,4.061,0,0,1,4.792,40.7h-.73A4.061,4.061,0,0,1,0,36.637V4.069A4.061,4.061,0,0,1,4.061.008Z" transform="matrix(-0.999, -0.04, 0.04, -0.999, 13.179, 41.017)" fill="#e2505b"/>
                  <path id="Path_248" data-name="Path 248" d="M580.349,302.16l-.73-.03a3.671,3.671,0,0,0-.821.053,4.062,4.062,0,0,1,3.088,4.1L580.6,338.827a4.063,4.063,0,0,1-3.4,3.849,4.034,4.034,0,0,0,.814.114l.73.03a4.051,4.051,0,0,0,4.214-3.894l1.285-32.545a4.051,4.051,0,0,0-3.894-4.214Z" transform="translate(-569.638 -301.932)" fill="#e22d3b"/>
                  <path id="Path_249" data-name="Path 249" d="M575.035,338.652l1.285-32.545a4.048,4.048,0,0,1,3.636-3.864,3.65,3.65,0,0,0-.578-.084l-.73-.03a4.051,4.051,0,0,0-4.214,3.894l-1.285,32.545a4.051,4.051,0,0,0,3.894,4.214l.73.03a3.627,3.627,0,0,0,.578-.038,4.05,4.05,0,0,1-3.324-4.138Z" transform="translate(-568.667 -301.932)" fill="#ff6e79"/>
                  <path id="Path_250" data-name="Path 250" d="M4.061,0h.73A4.061,4.061,0,0,1,8.853,4.061V36.629a4.061,4.061,0,0,1-4.061,4.061h-.73A4.061,4.061,0,0,1,0,36.629V4.061A4.061,4.061,0,0,1,4.061,0Z" transform="matrix(0.999, 0.04, -0.04, 0.999, 57.029, 2.091)" fill="#e2505b"/>
                  <path id="Path_251" data-name="Path 251" d="M644.263,345.439l.73.03a3.672,3.672,0,0,0,.821-.053,4.062,4.062,0,0,1-3.088-4.1l1.285-32.545a4.063,4.063,0,0,1,3.4-3.849,4.034,4.034,0,0,0-.814-.114l-.73-.03a4.051,4.051,0,0,0-4.214,3.894l-1.285,32.545a4.051,4.051,0,0,0,3.894,4.214Z" transform="translate(-584.761 -302.566)" fill="#ff6e79"/>
                  <path id="Path_252" data-name="Path 252" d="M649.641,308.96,648.356,341.5a4.048,4.048,0,0,1-3.636,3.864,3.65,3.65,0,0,0,.578.084l.73.03a4.051,4.051,0,0,0,4.214-3.894l1.285-32.545a4.051,4.051,0,0,0-3.894-4.214l-.73-.03a3.627,3.627,0,0,0-.578.038,4.051,4.051,0,0,1,3.324,4.138Z" transform="translate(-585.803 -302.572)" fill="#e22d3b"/>
                </g>
                <path id="Path_253" data-name="Path 253" d="M609.137,331.054h0a2.3,2.3,0,0,1-2.426-2.046l-.472-9.233a2.548,2.548,0,0,1,2.647-2.525h0a2.551,2.551,0,0,1,2.715,2.426l-.1,9.249a2.292,2.292,0,0,1-2.373,2.137Z" transform="translate(-552.146 -305.553)" fill="#f3e9a4"/>
                <path id="Path_254" data-name="Path 254" d="M614.4,331.748h0a2.338,2.338,0,0,1-2.19-2.373l.814-9.211a2.6,2.6,0,0,1,3.065-2.122h0a2.609,2.609,0,0,1,2.441,2.791l-1.4,9.142a2.333,2.333,0,0,1-2.723,1.772Z" transform="translate(-553.574 -305.736)" fill="#f3e9a4"/>
                <path id="Path_255" data-name="Path 255" d="M603.548,331.242h0a2.44,2.44,0,0,1-2.943-1.559l-2.092-9.013a2.675,2.675,0,0,1,2.4-2.989h0a2.681,2.681,0,0,1,3.316,1.879l1.483,9.127A2.425,2.425,0,0,1,603.548,331.242Z" transform="translate(-550.284 -305.641)" fill="#f3e9a4"/>
                <path id="Path_256" data-name="Path 256" d="M2.32,0h.137A2.327,2.327,0,0,1,4.784,2.327V7.37A2.327,2.327,0,0,1,2.457,9.7H2.327A2.327,2.327,0,0,1,0,7.37V2.327A2.327,2.327,0,0,1,2.327,0Z" transform="matrix(0.988, 0.155, -0.155, 0.988, 65.069, 14.261)" fill="#f3e9a4"/>
                <path id="Path_257" data-name="Path 257" d="M608.169,331.9h2.274a.325.325,0,0,1,.327.327v.51a1.341,1.341,0,0,1-1.339,1.339h-.243a1.341,1.341,0,0,1-1.339-1.339v-.51a.325.325,0,0,1,.327-.327Z" transform="translate(-552.532 -309.06)" fill="#fff7bd"/>
                <path id="Path_258" data-name="Path 258" d="M598.793,326.884a3.693,3.693,0,0,0,4.9-.3c2.632-2.259,2.479-4.335,1.027-5.309S602.238,322.5,598,322s-2.464,3.27-3.643,6.5-.525,5.438,1.742,7.492,5.278,4.2,6.244,6.5,9.386-2.571,5.8-9.074a5.623,5.623,0,0,0-7.149-1.932s-2.571-.289-2.206-4.6Z" transform="translate(-549.164 -306.455)" fill="#f3e9a4"/>
                <path id="Path_259" data-name="Path 259" d="M610.285,335.718a8,8,0,0,0-1.088-2.388,5.226,5.226,0,0,0-1.894-1.688,4.683,4.683,0,0,0-2.449-.464,8.515,8.515,0,0,0-2.479.57h-.015a.213.213,0,0,1-.152.015,2.64,2.64,0,0,1-1.422-.882,4.172,4.172,0,0,1-.791-1.361,6.927,6.927,0,0,1-.365-1.483,14.194,14.194,0,0,1-.107-1.5.4.4,0,0,1,.38-.4.4.4,0,0,1,.342.183l.023.038a2.11,2.11,0,0,0,1.7.89,4.749,4.749,0,0,0,2.137-.532,4.261,4.261,0,0,0,2.533-3.43c.084-.745-.03-1.529-.646-1.825a2.042,2.042,0,0,0-1.042-.167,4.575,4.575,0,0,0-1.133.259,16.319,16.319,0,0,1-2.4.456,6.058,6.058,0,0,1-2.426-.091,6.645,6.645,0,0,0,2.388-.137,18.545,18.545,0,0,0,2.312-.631,3.326,3.326,0,0,1,2.533-.183,1.691,1.691,0,0,1,.928,1.05,3.421,3.421,0,0,1,.145,1.316,4.5,4.5,0,0,1-.875,2.426,5.646,5.646,0,0,1-1.978,1.643,5.472,5.472,0,0,1-2.51.654,2.793,2.793,0,0,1-2.373-1.323l.745-.183a12.023,12.023,0,0,0,.076,1.392,6.4,6.4,0,0,0,.3,1.331,3.586,3.586,0,0,0,.631,1.148,2.019,2.019,0,0,0,.981.662l-.167.015a8.741,8.741,0,0,1,2.7-.494,5.226,5.226,0,0,1,2.677.647,5.167,5.167,0,0,1,1.894,1.947,7.051,7.051,0,0,1,.875,2.518Z" transform="translate(-550.411 -306.398)" fill="#ebcf6e"/>
                <path id="Path_260" data-name="Path 260" d="M606.077,328.77a5.848,5.848,0,0,1,.57,1.917,5.717,5.717,0,0,1-.038,2,6.515,6.515,0,0,1-.532-3.917Z" transform="translate(-552.083 -308.311)" fill="#ebcf6e"/>
                <path id="Path_261" data-name="Path 261" d="M612.438,331.729a27.81,27.81,0,0,1,.426-8.2,23.265,23.265,0,0,1,.091,4.115A24.794,24.794,0,0,1,612.438,331.729Z" transform="translate(-553.599 -307.056)" fill="#ebcf6e"/>
                <path id="Path_262" data-name="Path 262" d="M619.126,329.355a8.552,8.552,0,0,1,.654-4.5,7.441,7.441,0,0,1-.03,2.289,7.745,7.745,0,0,1-.631,2.206Z" transform="translate(-555.214 -307.375)" fill="#ebcf6e"/>
                <path id="Path_263" data-name="Path 263" d="M614.029,331.9H616.3a.325.325,0,0,1,.327.327v.51a1.341,1.341,0,0,1-1.339,1.339h-.243a1.341,1.341,0,0,1-1.339-1.339v-.51a.325.325,0,0,1,.327-.327Z" transform="translate(-553.935 -309.06)" fill="#fff7bd"/>
                <path id="Path_264" data-name="Path 264" d="M620.877,329.78h2.267a.325.325,0,0,1,.327.327v.51a1.341,1.341,0,0,1-1.339,1.339h-.243a1.341,1.341,0,0,1-1.339-1.339v-.51a.325.325,0,0,1,.327-.327Z" transform="translate(-555.573 -308.553)" fill="#fff7bd"/>
              </g>
              <path id="Path_265" data-name="Path 265" d="M534.03,400.683a14.331,14.331,0,0,0-4.936,7.34s-.053-.023-.137-.068c-.875-1.3-12.671-8.922-37.831-5.925a.663.663,0,0,0,.023.144h-24.78c-20.809-7.294-35.656,3.62-35.663,4.419a41.88,41.88,0,0,0-7.6-5.278c-9.872,6.153-16.854,14.588-23.388,24.224,0,0,15.539,15.858,33.161,15.052l7.872,39.679A4.619,4.619,0,0,0,445.286,484H512.3a4.629,4.629,0,0,0,4.495-3.529l9.758-40.067c16.885-.259,31.412-15.082,31.412-15.082-6.533-9.637-14.055-18.482-23.928-24.635Z" transform="translate(-359.886 -325.287)" fill="#457bc9"/>
              <path id="Path_266" data-name="Path 266" d="M534.035,401a80.262,80.262,0,0,0-7.613,7.378s2.624-.068,2.548-.107c-.875-1.3-12.671-8.922-37.831-5.925a.663.663,0,0,0,.023.145h-24.78c-26.1-3.08-35.587,4.814-35.595,5.605,0,0-3.97-2.814-8.123-6.282-9.872,6.153-16.39,14.4-22.924,24.034,0,0,.479.487,1.339,1.27,6.145-8.693,13.211-16.6,22.262-22.239a14.331,14.331,0,0,1,4.936,7.34c.008-.8,11.69-9.15,37.793-6.062h24.78c-.015-.091-.023-.145-.023-.145,25.16-3,36.956,4.624,37.831,5.925.084.038.137.068.137.068a14.331,14.331,0,0,1,4.936-7.34c9.173,5.712,16.307,13.751,22.513,22.589,1.118-.989,1.734-1.62,1.734-1.62C551.445,416,543.922,407.153,534.05,401Z" transform="translate(-359.891 -325.604)" fill="#79a7ea"/>
              <path id="Path_267" data-name="Path 267" d="M554.956,428.33c-4.746,4.107-16.231,12.755-29.092,12.953l-9.758,40.067a4.623,4.623,0,0,1-4.495,3.529H444.6a4.619,4.619,0,0,1-4.533-3.727l-7.872-39.679c-13.143.6-25.129-8.077-30.37-12.519-.821,1.133-2.578,2.556-3.362,3.719,0,0,16.5,15.584,34.112,14.778l7.872,39.679a4.619,4.619,0,0,0,4.533,3.727h67.014a4.629,4.629,0,0,0,4.495-3.529l9.758-40.067c16.885-.259,32.081-14.481,32.081-14.481-.882-1.3-2.457-3.179-3.369-4.442Z" transform="translate(-359.585 -332.148)" fill="#458aee"/>
              <g id="Group_109" data-name="Group 109" transform="translate(80.837 94.684)">
                <g id="Group_107" data-name="Group 107" opacity="0.34">
                  <path id="Path_621" data-name="Path 621" d="M20.464-1.377A13.545,13.545,0,0,1,16.919-.168a20.351,20.351,0,0,1-4.5.535Q6.9.366,3.9-2.4a9.99,9.99,0,0,1-3-7.742A11.533,11.533,0,0,1,2.41-16.069a9.84,9.84,0,0,1,4.27-3.94,14.611,14.611,0,0,1,6.489-1.348,24.148,24.148,0,0,1,5.845.776v5.522a12.427,12.427,0,0,0-2.783-.916,15.459,15.459,0,0,0-2.915-.256,5.568,5.568,0,0,0-4.153,1.567,5.867,5.867,0,0,0-1.545,4.307,6.015,6.015,0,0,0,1.3,4.1,4.566,4.566,0,0,0,3.625,1.479,7.849,7.849,0,0,0,1.6-.117v-3H10.107v-4.79H20.464Zm14.15-5.918V0H28.286V-7.207l-6.475-13.8h7.266L31.348-14.4a8.528,8.528,0,0,1,.33,1.172q.1.5.212,1.011h.059a13.319,13.319,0,0,1,.425-2.065l2.241-6.724h6.694ZM62.607,0V-11.514q0-1.626.1-3.574l.044-.967h-.176q-.469,2.476-.718,3.428L58.77,0H52.822L49.585-12.48q-.132-.469-.688-3.574h-.176q.205,4.922.205,6.152V0H43.374V-21.006h9.478L55.737-9.595a14.085,14.085,0,0,1,.271,1.428q.168,1.077.212,1.663h.088q.161-1.333.513-3.149l2.7-11.353h9.331V0Z" transform="translate(0 32)" fill="#fff" stroke="#304552" stroke-width="4"/>
                </g>
                <path id="Path_618" data-name="Path 618" d="M20.464-1.377A13.545,13.545,0,0,1,16.919-.168a20.351,20.351,0,0,1-4.5.535Q6.9.366,3.9-2.4a9.99,9.99,0,0,1-3-7.742A11.533,11.533,0,0,1,2.41-16.069a9.84,9.84,0,0,1,4.27-3.94,14.611,14.611,0,0,1,6.489-1.348,24.148,24.148,0,0,1,5.845.776v5.522a12.427,12.427,0,0,0-2.783-.916,15.459,15.459,0,0,0-2.915-.256,5.568,5.568,0,0,0-4.153,1.567,5.867,5.867,0,0,0-1.545,4.307,6.015,6.015,0,0,0,1.3,4.1,4.566,4.566,0,0,0,3.625,1.479,7.849,7.849,0,0,0,1.6-.117v-3H10.107v-4.79H20.464Zm14.15-5.918V0H28.286V-7.207l-6.475-13.8h7.266L31.348-14.4a8.528,8.528,0,0,1,.33,1.172q.1.5.212,1.011h.059a13.319,13.319,0,0,1,.425-2.065l2.241-6.724h6.694ZM62.607,0V-11.514q0-1.626.1-3.574l.044-.967h-.176q-.469,2.476-.718,3.428L58.77,0H52.822L49.585-12.48q-.132-.469-.688-3.574h-.176q.205,4.922.205,6.152V0H43.374V-21.006h9.478L55.737-9.595a14.085,14.085,0,0,1,.271,1.428q.168,1.077.212,1.663h.088q.161-1.333.513-3.149l2.7-11.353h9.331V0Z" transform="translate(0 32)" fill="#fff"/>
              </g>
              <path id="Path_287" data-name="Path 287" d="M516.45,402.978v-1.164c-1.924.114-3.925.281-6.031.532a.663.663,0,0,0,.023.145h-24.78A23.562,23.562,0,0,0,480.3,401v1.978a18.082,18.082,0,0,0,18.079,18.079h0a18.077,18.077,0,0,0,18.079-18.079Z" transform="translate(-379.179 -325.604)" fill="#458aee"/>
              <g id="Group_110" data-name="Group 110" transform="translate(103.372 60.686)">
                <path id="Path_288" data-name="Path 288" d="M498.829,411.49h0a13.486,13.486,0,0,1-13.515-13.736,55.443,55.443,0,0,0-2.054-16.094h30.948a60.84,60.84,0,0,0-1.863,16.086,13.5,13.5,0,0,1-13.515,13.736Z" transform="translate(-483.26 -381.66)" fill="#f3e9a4"/>
                <path id="Path_289" data-name="Path 289" d="M512.367,394.843a61.341,61.341,0,0,1,1.841-13.173H483.26A55.749,55.749,0,0,1,485.291,395a36.042,36.042,0,0,0,27.077-.152Z" transform="translate(-483.26 -381.662)" fill="#ebcf6e" opacity="0.57"/>
              </g>
              <path id="Path_290" data-name="Path 290" d="M466.3,337.42h56.29v22.528a8.066,8.066,0,0,1-8.062,8.062H474.37a8.066,8.066,0,0,1-8.062-8.062V337.42h0Z" transform="translate(-375.827 -310.382)" fill="#25353f"/>
              <g id="Group_111" data-name="Group 111" transform="translate(139.036 37.762)">
                <path id="Path_291" data-name="Path 291" d="M541.787,357.338a5.818,5.818,0,1,0-5.818,5.818A5.818,5.818,0,0,0,541.787,357.338Z" transform="translate(-530.15 -351.52)" fill="#f3e9a4"/>
                <circle id="Ellipse_20" data-name="Ellipse 20" cx="3.696" cy="3.696" r="3.696" transform="translate(2.122 2.122)" fill="#ebcf6e"/>
              </g>
              <g id="Group_112" data-name="Group 112" transform="translate(86.761 37.762)">
                <path id="Path_292" data-name="Path 292" d="M473.057,357.338a5.818,5.818,0,1,0-5.818,5.818A5.818,5.818,0,0,0,473.057,357.338Z" transform="translate(-461.42 -351.52)" fill="#f3e9a4"/>
                <path id="Path_293" data-name="Path 293" d="M471.514,358.047a3.567,3.567,0,1,0-3.567,3.567A3.567,3.567,0,0,0,471.514,358.047Z" transform="translate(-462.129 -352.229)" fill="#ebcf6e"/>
              </g>
              <path id="Path_294" data-name="Path 294" d="M495.328,378.356h0a26.435,26.435,0,0,1-26.438-26.438V336.426a24.854,24.854,0,0,1,24.856-24.856H496.9a24.854,24.854,0,0,1,24.856,24.856v15.493a26.435,26.435,0,0,1-26.438,26.438Z" transform="translate(-376.447 -304.193)" fill="#f3e9a4"/>
              <path id="Path_295" data-name="Path 295" d="M496.912,311.57h-3.156A24.854,24.854,0,0,0,468.9,336.426v3.681a24.854,24.854,0,0,1,24.856-24.856h3.156a24.854,24.854,0,0,1,24.856,24.856v-3.681A24.854,24.854,0,0,0,496.912,311.57Z" transform="translate(-376.449 -304.193)" fill="#ebcf6e" opacity="0.43"/>
              <path id="Path_296" data-name="Path 296" d="M502.946,367.79h0a2.584,2.584,0,0,1-2.586-2.586v-5.088a2.584,2.584,0,0,1,2.586-2.586h0a2.584,2.584,0,0,1,2.586,2.586V365.2A2.584,2.584,0,0,1,502.946,367.79Z" transform="translate(-383.982 -315.197)" fill="#e2c386"/>
              <g id="Group_113" data-name="Group 113" transform="translate(108.438 56.077)">
                <path id="Path_297" data-name="Path 297" d="M489.92,375.6A10.524,10.524,0,0,0,500.4,386.164h0a10.524,10.524,0,0,0,10.564-10.481Z" transform="translate(-489.92 -375.6)" fill="#861153"/>
                <path id="Path_298" data-name="Path 298" d="M510.975,375.684,489.93,375.6a10.455,10.455,0,0,0,.456,3.1h20.14a10.437,10.437,0,0,0,.456-3.02Z" transform="translate(-489.922 -375.6)" fill="#fff"/>
                <path id="Path_299" data-name="Path 299" d="M503.294,382.22c-2.624,0-4.754,1.681-4.754,3.75a3.041,3.041,0,0,0,.221,1.08,10.512,10.512,0,0,0,3.7.7h0a10.473,10.473,0,0,0,5.552-1.567c0-.068.03-.137.03-.213,0-2.069-2.13-3.75-4.754-3.75Z" transform="translate(-491.984 -377.185)" fill="#ad166c"/>
              </g>
              <path id="Path_300" data-name="Path 300" d="M521.816,346.59l-8.306-.312a1.386,1.386,0,0,1-1.331-1.437h0a1.386,1.386,0,0,1,1.438-1.331l8.305.312a1.386,1.386,0,0,1,1.331,1.438h0A1.386,1.386,0,0,1,521.816,346.59Z" transform="translate(-386.811 -311.84)" fill="#25353f"/>
              <path id="Path_301" data-name="Path 301" d="M481.847,346.59l8.306-.312a1.386,1.386,0,0,0,1.331-1.437h0a1.386,1.386,0,0,0-1.437-1.331l-8.306.312a1.386,1.386,0,0,0-1.331,1.438h0A1.386,1.386,0,0,0,481.847,346.59Z" transform="translate(-379.205 -311.84)" fill="#25353f"/>
              <path id="Path_302" data-name="Path 302" d="M518.465,349.618h-.281a3.13,3.13,0,0,0-3.118,2.936l2.776,1.552-2.791,1.765a3.138,3.138,0,0,0,3.141,3.1h.281a3.142,3.142,0,0,0,3.141-3.141v-3.073a3.142,3.142,0,0,0-3.141-3.141Z" transform="translate(-387.499 -313.301)" fill="#25353f"/>
              <path id="Path_303" data-name="Path 303" d="M486.585,349.618H486.3a3.13,3.13,0,0,0-3.118,2.936l2.776,1.552-2.791,1.765a3.138,3.138,0,0,0,3.141,3.1h.281a3.142,3.142,0,0,0,3.141-3.141v-3.073a3.142,3.142,0,0,0-3.141-3.141Z" transform="translate(-379.866 -313.301)" fill="#25353f"/>
              <ellipse id="Ellipse_21" data-name="Ellipse 21" cx="5.742" cy="1.795" rx="5.742" ry="1.795" transform="translate(127.68 46.707)" fill="#f3d38d"/>
              <path id="Path_304" data-name="Path 304" d="M488.365,365.075c0,.989-2.571,1.795-5.742,1.795s-5.742-.806-5.742-1.795,2.571-1.795,5.742-1.795S488.365,364.086,488.365,365.075Z" transform="translate(-378.36 -316.573)" fill="#f3d38d"/>
              <path id="Path_305" data-name="Path 305" d="M470.258,356.4h0a1.85,1.85,0,0,1-1.848-1.848V335.07h3.7v19.486A1.85,1.85,0,0,1,470.258,356.4Z" transform="translate(-376.332 -309.819)" fill="#25353f"/>
              <path id="Path_306" data-name="Path 306" d="M533.339,363.428h0a1.685,1.685,0,0,1-1.688-1.688V343.95h3.377v17.79a1.685,1.685,0,0,1-1.688,1.688Z" transform="translate(-391.473 -311.945)" fill="#25353f"/>
              <path id="Path_307" data-name="Path 307" d="M535.231,335.872c-1.7-2.32-4.328-3.286-5.872-2.16s-1.422,3.925.281,6.244,4.328,3.286,5.872,2.16S536.935,338.192,535.231,335.872Z" transform="translate(-390.666 -309.382)" fill="#25353f"/>
              <path id="Path_308" data-name="Path 308" d="M470.242,333.312c-2.32,1.7-3.286,4.328-2.16,5.872s3.925,1.415,6.244-.281,3.286-4.328,2.16-5.872S472.562,331.616,470.242,333.312Z" transform="translate(-376.141 -309.073)" fill="#25353f"/>
              <path id="Path_309" data-name="Path 309" d="M489.018,322.152a12.2,12.2,0,0,0,.456,1.711,9.767,9.767,0,0,0,9.3,6.632H522.59a21.965,21.965,0,0,0-21.965-21.965H488.266A21.965,21.965,0,0,0,466.3,330.5h13.158a9.6,9.6,0,0,0,8.61-5.081,8.808,8.808,0,0,0,.943-3.27Z" transform="translate(-375.827 -303.465)" fill="#25353f"/>
              <path id="Path_310" data-name="Path 310" d="M498.641,312.26h-7.5a21.967,21.967,0,0,0-19.5,11.842" transform="translate(-377.105 -304.358)" fill="none" stroke="#304552" stroke-linecap="round" stroke-miterlimit="10" stroke-width="2.16"/>
              <path id="Path_311" data-name="Path 311" d="M512.366,311.963a.943.943,0,1,0-.943.943A.943.943,0,0,0,512.366,311.963Z" transform="translate(-386.405 -304.061)" fill="#304552"/>
            </g>
          </g>
          <g id="Group_118" data-name="Group 118" transform="translate(71.983 164.436)">
            <path id="Path_620" data-name="Path 620" d="M17.31-12.669a6.148,6.148,0,0,1-.982,3.441,6.4,6.4,0,0,1-2.8,2.327,10.17,10.17,0,0,1-4.232.824H7.554V0h-5.7V-18.905H9.611q3.995,0,5.847,1.516A5.745,5.745,0,0,1,17.31-12.669Zm-6.025.2a2.215,2.215,0,0,0-.672-1.753,2.906,2.906,0,0,0-1.978-.593H7.554v4.667H8.833Q11.285-10.151,11.285-12.472ZM37.009-9.505a10.466,10.466,0,0,1-1.226,5.1A8.742,8.742,0,0,1,32.356-.916,9.835,9.835,0,0,1,27.425.33,9.844,9.844,0,0,1,22.58-.877a8.537,8.537,0,0,1-3.395-3.388A9.988,9.988,0,0,1,17.972-9.2,10.9,10.9,0,0,1,19.2-14.4a8.711,8.711,0,0,1,3.441-3.566,10.01,10.01,0,0,1,5.036-1.259,9.728,9.728,0,0,1,4.858,1.206,8.224,8.224,0,0,1,3.309,3.441A10.788,10.788,0,0,1,37.009-9.505Zm-6.038.158a6.562,6.562,0,0,0-.9-3.678,2.8,2.8,0,0,0-2.452-1.345,3.1,3.1,0,0,0-2.65,1.292,6.081,6.081,0,0,0-.949,3.652,6.01,6.01,0,0,0,.943,3.6A3.007,3.007,0,0,0,27.53-4.535a2.936,2.936,0,0,0,1.78-.58,3.716,3.716,0,0,0,1.226-1.661A6.872,6.872,0,0,0,30.971-9.347ZM61.215,0H55.163L52.54-10.771a18.681,18.681,0,0,1-.264-2.294h-.053a18.154,18.154,0,0,1-.382,2.294L49.007,0H42.6L38.091-18.905H44.34L45.922-7.778q.04.211.119,1.226l.079,1.094H46.2q.026-.343.158-1.167a11.046,11.046,0,0,1,.25-1.233l2.914-11.048H55.73L58.156-7.7l.171,1.121.132,1.094h.053l.04-.461.171-1.833,1.648-11.127h5.616Zm6.908,0V-18.905H79.9v4.456H73.818v2.755h5.708v4.456H73.818v2.782h6.513V0ZM92.829,0,91.418-4.074a5.065,5.065,0,0,0-1.061-1.885,1.937,1.937,0,0,0-1.417-.686h-.224V0h-5.7V-18.905h7.567q3.968,0,5.86,1.3a4.411,4.411,0,0,1,1.892,3.9,4.929,4.929,0,0,1-1.1,3.27A6.274,6.274,0,0,1,93.963-8.53v.053a4.577,4.577,0,0,1,2,1.2,7.422,7.422,0,0,1,1.43,2.465L99.249,0Zm-.541-12.907a1.979,1.979,0,0,0-.58-1.5,2.561,2.561,0,0,0-1.819-.554H88.716v4.324h1.028a2.611,2.611,0,0,0,1.846-.646A2.115,2.115,0,0,0,92.288-12.907Z" transform="translate(0 29)" fill="#ffc935"/>
            <path id="Path_317" data-name="Path 317" d="M486,546.329l-.03-.38-.137-.707-.1-.335-.259-.517-.19-.312-.327-.426-.243-.259-.35-.38-.266-.213-.616-.357-.327-.137-.38-.122-.38-.068-.761-.046-.35.023-.525.023-.35.068-.616.167-.38.144-.548.281-.335.213-.373.335-.266.281-.259.357-.19.3-.068.145-.213.494-.122.357-.068.167-.068.327-.053.335-.015.259H486Z" transform="translate(-450.334 -523.816)" fill="none"/>
            <path id="Path_318" data-name="Path 318" d="M518.095,548.628l.091.358.145.182.144-.023.114-.259.243-1.187h-.882l.068.548Z" transform="translate(-460.177 -525.164)" fill="none"/>
            <path id="Path_319" data-name="Path 319" d="M505.737,549.122l.137.023.145-.19.4-1.2.015-.053H505.41l.228,1.209Z" transform="translate(-457.174 -525.164)" fill="none"/>
            <path id="Path_320" data-name="Path 320" d="M476.8,548.126v.357l.023.38.076.38.023.213.091.357.046.16.122.335.091.19.19.335.122.183.259.335.145.167.281.281.472.4.335.213.38.19.357.144.494.167.357.068.593.068.4.023.586-.046.38-.046.525-.122.327-.137.525-.335.281-.213.38-.38.236-.259.312-.38.213-.327.236-.525.145-.357.114-.54.046-.357.053-.57v-.4L486,547.7H476.83l-.008.076Z" transform="translate(-450.324 -525.164)" fill="none"/>
            <path id="Path_321" data-name="Path 321" d="M459.427,546.41l.236-.236.1-.144.167-.3.068-.167.091-.38.03-.167v-.593l-.076-.35-.068-.19-.145-.312-.091-.137-.266-.289-.19-.114-.35-.19-.616-.167-.38-.046h-.548l-.707.046-1.042-.068h-.357l-.19.023-.259.046-.1.068-.068.167-.046.281v.548l.068.875.023.38.023,1.377.015.114h4.571Z" transform="translate(-445.014 -523.943)" fill="none"/>
          </g>
          <g id="Group_124" data-name="Group 124" transform="translate(85.096 278.797)">
            <g id="Group_119" data-name="Group 119" transform="translate(2.092 2.449)">
              <path id="Path_327" data-name="Path 327" d="M514.307,679.286a6.815,6.815,0,0,0-.16-.783c-.023-.1-.046-.19-.076-.289a9.812,9.812,0,0,0-.319-.943c0-.015-.008-.023-.015-.038a10.046,10.046,0,0,0-.487-1,.51.51,0,0,0-.053-.084,7.587,7.587,0,0,0-.555-.837l-.068-.091a9.03,9.03,0,1,0-12.093,13.044c.038.023.076.046.107.068a8.088,8.088,0,0,0,.707.4c.076.038.152.076.228.106q.319.148.639.274c.1.038.19.076.289.107.205.068.418.129.631.19.107.03.213.061.319.084a6.626,6.626,0,0,0,.677.122c.1.015.2.038.3.046a8.68,8.68,0,0,0,1,.061,9.038,9.038,0,0,0,9.043-9.036,10.182,10.182,0,0,0-.068-1.088c-.015-.106-.03-.205-.046-.312Z" transform="translate(-470.209 -671.65)" fill="#3e1742"/>
              <path id="Path_328" data-name="Path 328" d="M471.4,681.387a.948.948,0,0,0-.023-.145,5.32,5.32,0,0,0-.145-.624h0a5.22,5.22,0,0,0-.243-.6c-.015-.03-.023-.053-.038-.084a4.737,4.737,0,1,0-5.545,6.67c.023,0,.046.015.068.015.16.046.327.076.494.107a.948.948,0,0,1,.145.023,5.067,5.067,0,0,0,.593.038h0a4.7,4.7,0,0,0,1.316-.19,5.322,5.322,0,0,0,.525-.182c.145-.061.281-.129.411-.2a4.632,4.632,0,0,0,.913-.654,3.175,3.175,0,0,0,.319-.319,4.724,4.724,0,0,0,1.24-3.187,4.645,4.645,0,0,0-.053-.654Z" transform="translate(-461.98 -673.005)" fill="#3e1742"/>
              <path id="Path_329" data-name="Path 329" d="M551.507,682.038a4.65,4.65,0,0,0-.053-.654,1.047,1.047,0,0,0-.023-.152,5.709,5.709,0,0,0-.144-.624V680.6a5.844,5.844,0,0,0-.243-.6.406.406,0,0,1-.038-.084,4.739,4.739,0,1,0-5.545,6.678c.023,0,.046.015.068.015.16.046.327.076.494.107a.947.947,0,0,1,.145.023,5.068,5.068,0,0,0,.593.038h0a4.739,4.739,0,0,0,4.738-4.738h0Z" transform="translate(-481.146 -673.003)" fill="#3e1742"/>
            </g>
            <g id="Group_123" data-name="Group 123">
              <g id="Group_120" data-name="Group 120" transform="translate(26.149)">
                <path id="Path_330" data-name="Path 330" d="M511.681,677.466a9.036,9.036,0,1,0-9.036,9.036A9.037,9.037,0,0,0,511.681,677.466Z" transform="translate(-493.61 -668.43)" fill="#ffc935"/>
                <path id="Path_331" data-name="Path 331" d="M507.979,670.2a9.025,9.025,0,0,1-11.819,13.28,9.029,9.029,0,1,0,11.819-13.272Z" transform="translate(-494.221 -668.854)" fill="#ff7835"/>
                <path id="Path_332" data-name="Path 332" d="M503.492,678.793c-2.061,2.061-4.951,2.525-6.45,1.027s-1.042-4.389,1.027-6.45,4.951-2.525,6.45-1.027S505.561,676.732,503.492,678.793Z" transform="translate(-494.221 -669.156)" fill="#ffda73"/>
              </g>
              <g id="Group_121" data-name="Group 121" transform="translate(0 4.297)">
                <path id="Path_333" data-name="Path 333" d="M468.707,678.818a4.738,4.738,0,1,0-4.738,4.738A4.739,4.739,0,0,0,468.707,678.818Z" transform="translate(-459.23 -674.08)" fill="#ffc935"/>
                <path id="Path_334" data-name="Path 334" d="M465.919,674.53a4.681,4.681,0,0,1,.616,2.289,4.739,4.739,0,0,1-4.738,4.738,4.817,4.817,0,0,1-1.757-.342,4.727,4.727,0,1,0,5.879-6.685Z" transform="translate(-459.424 -674.188)" fill="#ff7835"/>
                <path id="Path_335" data-name="Path 335" d="M463.948,678.918c-.936.936-2.236,1.141-2.913.464s-.472-1.977.464-2.913,2.236-1.141,2.913-.464S464.883,677.982,463.948,678.918Z" transform="translate(-459.567 -674.445)" fill="#ffda73"/>
              </g>
              <g id="Group_122" data-name="Group 122" transform="translate(60.892 4.297)">
                <path id="Path_336" data-name="Path 336" d="M548.767,678.818a4.738,4.738,0,1,0-4.738,4.738A4.739,4.739,0,0,0,548.767,678.818Z" transform="translate(-539.29 -674.08)" fill="#ffc935"/>
                <path id="Path_337" data-name="Path 337" d="M545.979,674.53a4.681,4.681,0,0,1,.616,2.289,4.739,4.739,0,0,1-4.738,4.738,4.817,4.817,0,0,1-1.757-.342,4.727,4.727,0,1,0,5.879-6.685Z" transform="translate(-539.484 -674.188)" fill="#ff7835"/>
                <path id="Path_338" data-name="Path 338" d="M544.128,678.918c-.936.936-2.236,1.141-2.913.464s-.472-1.977.464-2.913,2.236-1.141,2.913-.464S545.063,677.982,544.128,678.918Z" transform="translate(-539.655 -674.445)" fill="#ffda73"/>
              </g>
            </g>
          </g>
          <g id="Group_129" data-name="Group 129" transform="translate(52.444 252.952)">
            <g id="Group_125" data-name="Group 125" transform="translate(0 2.685)">
              <path id="Path_339" data-name="Path 339" d="M429.549,652.827l-.023.365-.091,1.225-.023.228-.091.16-.114.091-2.974.091h-.365l-1.2-.091-.365.023-1.179.091-.365.023h-1.567l-1.179-.091h-.365l-1.955.114-.776-.046-.274-.046-.16-.114-.068-.16-.046-.251-.046-.525-.023-.365.023-.342v-.342l.091-1.2V651.3l.023-1.2-.023-.365-.068-1.2-.023-.365.046-1.224v-1.932l.091-1.2-.023-.365-.068-1.2-.023-.365v-.548l.046-.685V640.3l.068-1.179.023-.319.068-.183.114-.091.183-.023.3-.046,1.476.091,1.384-.023h.365l1.361.091h.365l1.361-.091h.365l3.088.046.388-.023.776-.068h.57l.319.068.137.114.046.16.046.3v.616l-.046.57v.388l.023.57.023.342-.023.342-.046.274-.091.16-.114.091-.274.046h-.183l-.365.023-2.137-.046h-.365l-1.156.046h-.365l-1.179-.046-1.019-.068h-.342l-.183.023-.228.046-.114.114-.023.137-.046.251-.046.548v.365l.023.388.023.251.046.16.091.114.251.068.73.046.73-.046h2.16l2.548-.137.707.046.251.046.137.114.068.137.023.251.046.388.023.388v.753l.046.525-.046.685-.046.274-.091.16-.16.114-.228.046h-.456l-1.019-.114-.365-.023-1.818.114-1.453-.046h-.365l-.913-.068-.388.023-.274.023-.114.068-.068.16-.023.342-.068.57-.023.365v.5l.023.228.068.16.091.091.251.023,1.247.046h.365l1.225-.091,1.612.091h.365l1.612-.091h.342l.342.023.821.091.137.068.091.137.023.251.068,1.247Z" transform="translate(-416.3 -638.095)" fill="#3e1742"/>
              <path id="Path_340" data-name="Path 340" d="M452.593,655.011l-.183.091-.342-.023-.936-.046-.365-.023-1.247.046h-.365l-1.247-.023-.205-.046-.137-.16-.205-.228-.411-.57-.205-.3-.479-.844-.183-.319-1.681-2.685h-.183l-.89,1.384-.183.319-.548,1.088-.205.319-.548.73-.228.319-.685.974-.228.068h-.342l-2.525-.137-.365.023-.974.091-.319.023-.16-.137.023-.228.183-.274,2.365-3.43.205-.319.73-1.019.183-.3.73-1.019.183-.3.707-1.019.114-.228-.023-.114-.114-.16-.707-1-.183-.3-.593-1.042-.183-.3-.73-.981-.183-.3-.821-1.27-.662-1.042-.183-.274-.73-.981-.046-.205.046-.046V638.7l.183-.114h.685l.365.023,2.905-.046.365.023.319.068.205.182.274.411.068.137.183.319.662,1.065.183.319.548,1.133.183.319.639,1.088.183.137.183-.16.616-.951.183-.319.479-1.019.183-.319.616-.928.183-.319.319-.593.16-.251.205-.183.3-.114.388-.046.365.023.936.068.365.023,1.042-.046h1.088l.319.068.137.182-.114.3-.205.342-.205.319L451,640.925l-.8,1.179-.183.3-.73,1.2-.183.3-.821,1.179-.183.274-.753,1.179-.114.228.091.251.593.73.205.3.974,1.475.776,1.179.183.274.8,1.179.205.3,1.065,1.5.205.3.114.16.137.319v.274Z" transform="translate(-421.021 -638.119)" fill="#3e1742"/>
              <path id="Path_341" data-name="Path 341" d="M473.108,652.783l-.183.183-.411.365-.274.205-.434.319-.274.183-.456.251-.3.16-.525.251-.342.114-.388.114-.388.068-.57.114-.8.091-.411.023-.57.046h-1.179l-.388-.023-.388-.046-.388-.068-.388-.091-.342-.114-1.019-.274-.5-.182-.3-.137-.434-.251-.274-.205-.3-.205-.319-.205-.593-.5-.274-.274-.251-.3-.251-.342-.205-.319-.183-.319-.16-.319-.228-.479-.342-.951-.16-.456-.228-.685-.046-.342-.023-.525.023-.342.023-.365v-.388l.046-.768.023-.365.068-.342.091-.5.091-.342.114-.342.114-.319.16-.456.16-.319.16-.342.183-.342.205-.342.205-.319.228-.3.251-.319.274-.3.274-.251.3-.251.274-.228.73-.5.3-.182.319-.182.685-.319.388-.137.365-.114.776-.183.388-.068.388-.046.707-.046.5-.046.342.023.5.023.837.114.319.068.525.091.8.228.319.137.5.3.319.183.593.411.707.5.251.182.137.114.16.16.046.183-.023.182-.137.183-.205.251-.251.251-.251.228-.251.205-.251.251-.388.456-.251.274-.114.114-.205.183-.16.068-.16.023-.16-.046-.251-.137-.434-.319-.3-.16-.5-.228-.319-.114-.5-.137-.342-.068-.57-.046h-.365l-.5.046-.365.091-.5.16-.342.137-.3.114-.456.228-.319.228-.16.137-.274.3-.205.319-.16.3-.16.319-.137.342-.114.365-.068.388-.046.342-.046.685v.365l.023.57.023.342.114.525.114.342.16.388.183.342.342.5.251.274.434.365.3.205.456.228.342.137.5.137.365.068.548.023h.525l.319-.068.183-.046.342-.114.57-.205.365-.16.342-.16.3-.16.434-.274.3-.228.228-.16.137-.046.205.046.251.16.251.228.091.137.228.251.365.456.228.274.616.707.205.274.114.114.114.205v.137Z" transform="translate(-426.195 -637.982)" fill="#3e1742"/>
              <path id="Path_342" data-name="Path 342" d="M493.809,652.827l-.023.365-.091,1.225-.023.228-.091.16-.114.091-2.974.091h-.365l-1.2-.091-.365.023-1.179.091-.365.023h-1.567l-1.179-.091h-.365l-1.955.114-.776-.046-.274-.046-.16-.114-.068-.16-.046-.251-.046-.525-.023-.365.023-.342v-.342l.091-1.2V651.3l.023-1.2-.023-.365-.068-1.2-.023-.365.046-1.224v-1.932l.091-1.2-.023-.365-.068-1.2-.023-.365v-.548l.046-.685V640.3l.068-1.179.023-.319.068-.183.114-.091.183-.023.3-.046,1.476.091,1.384-.023h.365l1.361.091h.365l1.361-.091h.365l3.088.046.388-.023.776-.068h.57l.319.068.137.114.046.16.046.3v.616l-.046.57v.388l.023.57.023.342-.023.342-.046.274-.091.16-.114.091-.274.046h-.183l-.365.023-2.137-.046h-.365l-1.156.046h-.365l-1.179-.046-1.019-.068h-.342l-.182.023-.228.046-.114.114-.023.137L485.2,643l-.046.548v.365l.023.388.023.251.046.16.091.114.251.068.73.046.73-.046h2.16l2.548-.137.707.046.251.046.137.114.068.137.023.251.046.388.023.388v.753l.046.525-.046.685-.046.274-.091.16-.16.114-.228.046h-.456l-1.019-.114-.365-.023-1.818.114-1.453-.046h-.365l-.913-.068-.388.023-.274.023-.114.068-.068.16-.023.342-.068.57-.023.365v.5l.023.228.068.16.091.091.251.023,1.247.046h.365l1.225-.091,1.612.091h.365l1.612-.091h.342l.342.023.821.091.137.068.091.137.023.251.068,1.247Z" transform="translate(-431.685 -638.095)" fill="#3e1742"/>
              <path id="Path_343" data-name="Path 343" d="M516.649,654.866l-.3.091h-1.59l-1.247-.023h-.365l-1.019.046h-.3l-.205-.091-.183-.183-.73-1.019-.205-.274-.73-.981-.205-.274-.639-1.042-.205-.274-.73-.981-.16-.183-.137-.068-.274-.023-.73-.046-.3.023-.182.137-.068.3-.046,1.247.023.365.091,1.27.023.365.023.548v.365l-.023.365-.046.274-.114.114-.251.068h-.365l-1.088-.068-1.042.068h-.365l-1.042-.068-.274-.046-.137-.091-.046-.228-.023-.319-.023-.342.046-.593.023-.365.091-1.225v-.365l-.068-1.224-.023-.365-.023-1.2v-.365l.068-1.224v-.365l-.068-1.224V645l.068-1.225v-.365l.046-1.2v-.365l-.023-1.225v-.365l-.046-.753.023-.342.023-.137.068-.3.137-.183.274-.068.183-.023.342-.023,1.019.046,2.708.091,1.544-.091h.365l1.5.091h.867l.388.023.342.068.479.137.342.114.342.137.365.137.342.16.3.182.434.3.251.205.228.228.228.274.319.456.205.3.274.434.16.319.16.342.114.365.068.365.023.365.046.5v.365l-.023.365-.046.388-.068.388-.091.365-.137.342-.16.342-.205.342-.205.3-.205.274-.205.251-.365.365-.251.205-.456.251-.274.16-.3.16-.3.068-.183.068.091.182.821,1.156.205.274.821,1.11.228.274.821,1.133.228.274.707.821.205.251.114.251-.091.205Zm-6.389-8.846.3-.114.274-.16.228-.274.16-.342.091-.365.023-.365-.023-.388-.046-.388-.091-.342-.16-.342-.205-.274-.251-.205-.319-.137-.5-.114-.365-.046-1.133-.023h-.365l-1.156.068-.274.023-.16.068-.137.137-.023.251.023.525.046.365.046.388.023.388-.046,1.247.023.251.046.137.16.068.274.046,1.179.091h.365l1.5-.091.5-.091Z" transform="translate(-436.682 -638.088)" fill="#3e1742"/>
              <path id="Path_344" data-name="Path 344" d="M538.058,652.783l-.182.183-.411.365-.274.205-.434.319-.274.183-.456.251-.3.16-.525.251-.342.114-.388.114-.388.068-.57.114-.8.091-.411.023-.57.046h-1.179l-.388-.023-.388-.046-.388-.068-.388-.091-.342-.114-1.019-.274-.5-.182-.3-.137-.434-.251-.274-.205-.3-.205-.319-.205-.593-.5-.274-.274-.251-.3-.251-.342-.205-.319-.183-.319-.16-.319-.228-.479-.342-.951-.16-.456-.228-.685-.046-.342-.023-.525.023-.342.023-.365v-.388l.046-.768.023-.365.068-.342.091-.5.091-.342.114-.342.114-.319.16-.456.16-.319.16-.342.183-.342.205-.342.205-.319.228-.3.251-.319.274-.3.274-.251.3-.251.274-.228.73-.5.3-.182.319-.182.685-.319.388-.137.365-.114.776-.183.388-.068.388-.046.7-.046.5-.046.342.023.5.023.844.114.319.068.525.091.8.228.319.137.5.3.319.183.593.411.707.5.251.182.137.114.16.16.046.183-.023.182-.137.183-.205.251-.251.251-.251.228-.251.205-.251.251-.388.456-.251.274-.114.114-.205.183-.16.068-.16.023-.16-.046-.251-.137-.434-.319-.3-.16-.5-.228-.319-.114-.5-.137-.342-.068-.57-.046h-.365l-.5.046-.365.091-.5.16-.342.137-.3.114-.456.228-.319.228-.16.137-.274.3-.205.319-.16.3-.16.319-.137.342-.114.365-.068.388-.046.342-.046.685v.365l.023.57.023.342.114.525.114.342.16.388.182.342.342.5.251.274.434.365.3.205.456.228.342.137.5.137.365.068.548.023h.525l.319-.068.182-.046.342-.114.57-.205.365-.16.342-.16.3-.16.434-.274.3-.228.228-.16.137-.046.205.046.251.16.251.228.091.137.228.251.365.456.228.274.616.707.205.274.114.114.114.205v.137Z" transform="translate(-441.746 -637.982)" fill="#3e1742"/>
              <path id="Path_345" data-name="Path 345" d="M550.256,651.428v.365l-.091,1.224v.365l-.023,1.247v.251l-.068.137-.183.046-.319.023-1.156-.023h-1.407l-1.133-.091-.137-.046-.068-.068v-.228l-.046-.57V653.7l-.023-.342v-.342l-.068-1.225.023-.365.068-1.224.023-.365-.068-1.247v-.365l-.023-1.224V645.04l-.023-1.247v-.365l.023-1.224v-1.955L545.51,639l.068-.251.137-.091.228-.023h.183l.342-.023.548.023h.365l1.042-.046h1.407l.251.046.046.137.023.251.046.593.023.365v2.229l.023,1.224v.365l-.023,1.247v.365l.023,1.224V647l-.046,1.225V650.2l.068,1.225Z" transform="translate(-447.236 -638.126)" fill="#3e1742"/>
              <path id="Path_346" data-name="Path 346" d="M569.339,649.754l-.023.388-.046.388-.068.365-.114.5-.114.319-.205.456-.16.3-.274.411-.228.274-.274.274-.274.251-.456.3-.3.205-.342.183-.319.16-.525.182-.685.228-.365.068-.57.091-.342.046-.5.046-.319.023-.525.023-1.088.068h-.5l-.319-.023-.525-.046-.342-.046-.388-.068L558.8,655l-.5-.16-.319-.16-.342-.16-.319-.16-.3-.182-.73-.5-.274-.228-.411-.319-.274-.228-.251-.251-.183-.205-.023-.16.114-.205.091-.114.228-.251.639-.593.205-.251.388-.593.205-.251.228-.251.251-.137.251.046.251.183.73.5.342.182.319.16.525.251.342.114.365.114.365.068.525.023.365.023,1.43-.091.365-.046.183-.046.342-.137.3-.182.228-.228.114-.16.137-.342-.023-.388-.046-.183-.182-.319-.114-.137-.3-.228-.182-.068-.342-.137-.388-.091-.388-.068-2.16-.205-.685-.137-.365-.091-.5-.182-.342-.114-.342-.16-.776-.388-.3-.205-.342-.205-.3-.205-.388-.319-.205-.3-.205-.342-.137-.342-.16-.479-.068-.342-.068-.5-.046-.73.023-.365.046-.548.068-.342.091-.3.114-.342.228-.5.16-.319.183-.274.228-.251.365-.342.3-.228.3-.205.319-.16.434-.251.685-.274.342-.114.525-.091.365-.068.685-.091.5-.091.365-.046.342-.023h.365l.685.068.342.046.16.046.365.046.776.137.388.091.365.114.388.114.365.137.342.16.342.137.434.251.319.16.3.205.205.205v.228l-.137.251-.251.456-.182.274-.867,1.133-.251.319-.274.228-.182.068-.16-.023-.228-.114-.342-.205-.342-.137-.16-.068-.342-.114-.183-.046-.388-.091-.525-.114-.365-.023-.593-.046h-.593l-.388.023-.388.068-.365.114-.137.068-.274.205-.114.137-.16.319-.046.365.068.3.183.3.251.228.274.137.16.068.342.068.57.068.776.046.388.068.776.183.73.228.525.114.342.091.639.228.456.205.319.16.319.182.3.183.662.548.251.274.228.274.274.411.183.3.16.342.091.342.091.5.046.342.023.388Z" transform="translate(-449.479 -637.98)" fill="#3e1742"/>
              <path id="Path_347" data-name="Path 347" d="M590.009,652.827l-.023.365-.091,1.225-.023.228-.091.16-.114.091-2.974.091h-.365l-1.2-.091-.365.023-1.179.091-.365.023h-1.567l-1.179-.091h-.365l-1.955.114-.776-.046-.274-.046-.16-.114-.068-.16-.046-.251-.046-.525-.023-.365.023-.342v-.342l.091-1.2V651.3l.023-1.2-.023-.365-.068-1.2-.023-.365.046-1.224v-1.932l.091-1.2-.023-.365-.068-1.2-.023-.365v-.548l.046-.685V640.3l.068-1.179.023-.319.068-.183.114-.091.183-.023.3-.046,1.476.091,1.384-.023h.365l1.361.091h.365l1.361-.091h.365l3.088.046.388-.023.776-.068h.57l.319.068.137.114.046.16.046.3v.616l-.046.57v.388l.023.57.023.342-.023.342-.046.274-.091.16-.114.091-.274.046h-.183l-.365.023-2.137-.046h-.365l-1.156.046h-.365l-1.179-.046-1.019-.068h-.342l-.183.023-.228.046-.114.114-.023.137L581.4,643l-.046.548v.365l.023.388.023.251.046.16.091.114.251.068.73.046.73-.046h2.16l2.548-.137.707.046.251.046.137.114.068.137.023.251.046.388.023.388v.753l.046.525-.046.685-.046.274-.091.16-.16.114-.228.046h-.456l-1.019-.114-.365-.023-1.818.114-1.453-.046h-.365l-.913-.068-.388.023-.274.023-.114.068-.068.16-.023.342-.068.57-.023.365v.5l.023.228.068.16.091.091.251.023,1.247.046h.365l1.224-.091,1.612.091h.365l1.612-.091h.342l.342.023.821.091.137.068.091.137.023.251.068,1.247Z" transform="translate(-454.718 -638.095)" fill="#3e1742"/>
            </g>
            <g id="Group_128" data-name="Group 128">
              <g id="Group_126" data-name="Group 126">
                <path id="Path_348" data-name="Path 348" d="M429.549,649.3l-.023.365-.091,1.225-.023.228-.091.16-.114.091-2.974.091h-.365l-1.2-.091-.365.023-1.179.091-.365.023h-1.567l-1.179-.091h-.365l-1.955.114-.776-.046-.274-.046-.16-.114-.068-.16-.046-.251-.046-.525-.023-.365.023-.342v-.342l.091-1.2v-.365l.023-1.2-.023-.365-.068-1.2-.023-.365.046-1.224v-1.932l.091-1.2-.023-.365-.068-1.2-.023-.365V637.8l.046-.685v-.342l.068-1.179.023-.319.068-.183.114-.091.183-.023.3-.046,1.476.091L420,635h.365l1.361.091h.365l1.361-.091h.365l3.088.046.388-.023.776-.068h.57l.319.068.137.114.046.16.046.3v.616l-.046.57v.388l.023.57.023.342-.023.342-.046.274-.091.16-.114.091-.274.046h-.183l-.365.023-2.137-.046h-.365l-1.156.046h-.365l-1.179-.046-1.019-.068h-.342l-.183.023-.228.046-.114.114-.023.137-.046.251-.046.548v.365l.023.388.023.251.046.16.091.114.251.068.73.046.73-.046h2.16l2.548-.137.707.046.251.046.137.114.068.137.023.251.046.388.023.388v.753l.046.525-.046.685-.046.274-.091.16-.16.114-.228.046h-.456l-1.019-.114-.365-.023-1.818.114-1.453-.046h-.365l-.913-.068-.388.023-.274.023-.114.068-.068.16-.023.342-.068.57-.023.365v.5l.023.228.068.16.091.091.251.023,1.247.046h.365l1.225-.091,1.612.091h.365l1.612-.091h.342l.342.023.821.091.137.068.091.137.023.251.068,1.247Z" transform="translate(-416.3 -634.565)" fill="url(#linear-gradient)"/>
                <path id="Path_349" data-name="Path 349" d="M452.593,651.486l-.183.091-.342-.023-.936-.046-.365-.023-1.247.046h-.365l-1.247-.023-.205-.046-.137-.16-.205-.228-.411-.57-.205-.3-.479-.844-.183-.319L444.4,646.36h-.183l-.89,1.384-.183.319-.548,1.088-.205.319-.548.73-.228.319-.685.981-.228.068h-.342l-2.525-.137-.365.023-.974.091-.319.023-.16-.137.023-.228.183-.274,2.365-3.43.205-.319.73-1.019.183-.3.73-1.019.183-.3.707-1.019.114-.228-.023-.114-.114-.16-.707-1-.183-.3-.593-1.042-.183-.3-.73-.981-.183-.3-.821-1.27-.662-1.042-.183-.274-.73-.981-.046-.205.046-.046v-.114l.183-.114h.685l.365.023,2.905-.046.365.023.319.068.205.182.274.411.068.137.183.319.662,1.065.183.319.548,1.133.183.319.639,1.088.183.137.183-.16.616-.951.183-.319.479-1.019.183-.319.616-.928.183-.319.319-.593.16-.251.205-.183.3-.114.388-.046.365.023.936.068.365.023,1.042-.046h1.088l.319.068.137.183-.114.3-.205.342-.205.319L451,637.415l-.8,1.179-.183.3-.73,1.2-.183.3-.821,1.179-.183.274-.753,1.179-.114.228.091.251.593.73.205.3.974,1.475.776,1.179.183.274.8,1.179.205.3,1.065,1.5.205.3.114.16.137.319v.274Z" transform="translate(-421.021 -634.594)" fill="url(#linear-gradient-2)"/>
                <path id="Path_350" data-name="Path 350" d="M473.108,649.251l-.183.182-.411.365-.274.205-.434.319-.274.182-.456.251-.3.16-.525.251-.342.114-.388.114-.388.068-.57.114-.8.091-.411.023-.57.046h-1.179l-.388-.023-.388-.046-.388-.068-.388-.091-.342-.114-1.019-.274-.5-.183-.3-.137-.434-.251-.274-.205-.3-.205-.319-.205-.593-.5-.274-.274-.251-.3-.251-.342L459,648.2l-.183-.319-.16-.319-.228-.479-.342-.951-.16-.456-.228-.685-.046-.342-.023-.525.023-.342.023-.365v-.388l.046-.776.023-.365.068-.342.091-.5L458,640.7l.114-.342.114-.319.16-.456.16-.319.16-.342.183-.342.205-.342.205-.319.228-.3.251-.319.274-.3.274-.251.3-.251.274-.228.73-.5.3-.182.319-.182.685-.319.388-.137.365-.114.776-.183.388-.068.388-.046.707-.046.5-.046.342.023.5.023.837.114.319.068.525.091.8.228.319.137.5.3.319.183.593.411.707.5.251.182.137.114.16.16.046.183-.023.182-.137.183-.205.251-.251.251-.251.228-.251.205-.251.251-.388.456-.251.274-.114.114-.205.183-.16.068-.16.023-.16-.046-.251-.137-.434-.319-.3-.16-.5-.228-.319-.114-.5-.137-.342-.068-.57-.046h-.365l-.5.046-.365.091-.5.16-.342.137-.3.114-.456.228-.319.228-.16.137-.274.3-.205.319-.16.3-.16.319-.137.342-.114.365-.068.388-.046.342-.046.685v.365l.023.57.023.342.114.525.114.342.16.388.183.342.342.5.251.274.434.365.3.205.456.228.342.137.5.137.365.068.548.023h.525l.319-.068.183-.046.342-.114.57-.205.365-.16.342-.16.3-.16.434-.274.3-.228.228-.16.137-.046.205.046.251.16.251.228.091.137.228.251.365.456.228.274.616.707.205.274.114.114.114.205v.137Z" transform="translate(-426.195 -634.45)" fill="url(#linear-gradient-3)"/>
                <path id="Path_351" data-name="Path 351" d="M493.809,649.3l-.023.365-.091,1.225-.023.228-.091.16-.114.091-2.974.091h-.365l-1.2-.091-.365.023-1.179.091-.365.023h-1.567l-1.179-.091h-.365l-1.955.114-.776-.046-.274-.046-.16-.114-.068-.16-.046-.251-.046-.525-.023-.365.023-.342v-.342l.091-1.2v-.365l.023-1.2-.023-.365-.068-1.2-.023-.365.046-1.224v-1.932l.091-1.2-.023-.365-.068-1.2-.023-.365V637.8l.046-.685v-.342l.068-1.179.023-.319.068-.183.114-.091.183-.023.3-.046,1.476.091,1.384-.023h.365l1.361.091h.365l1.361-.091h.365l3.088.046.388-.023.776-.068h.57l.319.068.137.114.046.16.046.3v.616l-.046.57v.388l.023.57.023.342-.023.342-.046.274-.091.16-.114.091-.274.046h-.183l-.365.023-2.137-.046h-.365l-1.156.046h-.365l-1.179-.046-1.019-.068h-.342l-.182.023-.228.046-.114.114-.023.137-.046.251-.046.548v.365l.023.388.023.251.046.16.091.114.251.068.73.046.73-.046h2.16l2.548-.137.707.046.251.046.137.114.068.137.023.251.046.388.023.388v.753l.046.525-.046.685-.046.274-.091.16-.16.114-.228.046h-.456l-1.019-.114-.365-.023-1.818.114-1.453-.046h-.365l-.913-.068-.388.023-.274.023-.114.068-.068.16-.023.342-.068.57-.023.365v.5l.023.228.068.16.091.091.251.023,1.247.046h.365l1.225-.091,1.612.091h.365l1.612-.091h.342l.342.023.821.091.137.068.091.137.023.251.068,1.247Z" transform="translate(-431.685 -634.565)" fill="url(#linear-gradient)"/>
                <path id="Path_352" data-name="Path 352" d="M516.649,651.336l-.3.091h-1.59l-1.247-.023h-.365l-1.019.046h-.3l-.205-.091-.183-.182-.73-1.019-.205-.274-.73-.981-.205-.274-.639-1.042-.205-.274-.73-.974-.16-.183-.137-.068-.274-.023-.73-.046-.3.023-.182.137-.068.3-.046,1.247.023.365.091,1.27.023.365.023.548v.365l-.023.365-.046.274-.114.114-.251.068h-.365l-1.088-.068-1.042.068h-.365l-1.042-.068-.274-.046-.137-.091-.046-.228-.023-.319-.023-.342.046-.593.023-.365.091-1.225v-.365l-.068-1.224-.023-.365-.023-1.2v-.365l.068-1.224v-.365l-.068-1.224v-.365l.068-1.232v-.365l.046-1.2v-.365l-.023-1.224v-.365l-.046-.753.023-.342.023-.137.068-.3.137-.183.274-.068.183-.023.342-.023,1.019.046,2.708.091,1.544-.091h.365l1.5.091h.867l.388.023.342.068.479.137.342.114.342.137.365.137.342.16.3.183.434.3.251.205.228.228.228.274.319.456.205.3.274.434.16.319.16.342.114.365.068.365.023.365.046.5v.365l-.023.365-.046.388-.068.388-.091.365-.137.342-.16.342-.205.342-.205.3-.205.274-.205.251-.365.365-.251.205-.456.251-.274.16-.3.16-.3.068-.183.068.091.183.821,1.156.205.274.821,1.11.228.274.821,1.133.228.274.707.821.205.251.114.251-.091.205ZM510.26,642.5l.3-.114.274-.16.228-.274.16-.342.091-.365.023-.365-.023-.388-.046-.388-.091-.342-.16-.342-.205-.274-.251-.205-.319-.137-.5-.114-.365-.046-1.133-.023h-.365l-1.156.068-.274.023-.16.068-.137.137-.023.251.023.525.046.365.046.388.023.388-.046,1.247.023.251.046.137.16.068.274.046,1.179.091h.365l1.5-.091.5-.091Z" transform="translate(-436.682 -634.558)" fill="url(#linear-gradient-5)"/>
                <path id="Path_353" data-name="Path 353" d="M538.058,649.251l-.182.182-.411.365-.274.205-.434.319-.274.182-.456.251-.3.16-.525.251-.342.114-.388.114-.388.068-.57.114-.8.091-.411.023-.57.046h-1.179l-.388-.023-.388-.046-.388-.068-.388-.091-.342-.114-1.019-.274-.5-.183-.3-.137-.434-.251-.274-.205-.3-.205-.319-.205-.593-.5-.274-.274-.251-.3-.251-.342-.205-.319-.183-.319-.16-.319-.228-.479-.342-.951-.16-.456-.228-.685-.046-.342-.023-.525.023-.342.023-.365v-.388l.046-.776.023-.365.068-.342.091-.5.091-.342.114-.342.114-.319.16-.456.16-.319.16-.342.183-.342.205-.342.205-.319.228-.3.251-.319.274-.3.274-.251.3-.251.274-.228.73-.5.3-.182.319-.182.685-.319.388-.137.365-.114.776-.183.388-.068.388-.046.7-.046.5-.046.342.023.5.023.844.114.319.068.525.091.8.228.319.137.5.3.319.183.593.411.707.5.251.182.137.114.16.16.046.183-.023.182-.137.183-.205.251-.251.251-.251.228-.251.205-.251.251-.388.456-.251.274-.114.114-.205.183-.16.068-.16.023-.16-.046-.251-.137-.434-.319-.3-.16-.5-.228-.319-.114-.5-.137-.342-.068-.57-.046h-.365l-.5.046-.365.091-.5.16-.342.137-.3.114-.456.228-.319.228-.16.137-.274.3-.205.319-.16.3-.16.319-.137.342-.114.365-.068.388-.046.342-.046.685v.365l.023.57.023.342.114.525.114.342.16.388.182.342.342.5.251.274.434.365.3.205.456.228.342.137.5.137.365.068.548.023h.525l.319-.068.182-.046.342-.114.57-.205.365-.16.342-.16.3-.16.434-.274.3-.228.228-.16.137-.046.205.046.251.16.251.228.091.137.228.251.365.456.228.274.616.707.205.274.114.114.114.205v.137Z" transform="translate(-441.746 -634.45)" fill="url(#linear-gradient-6)"/>
                <path id="Path_354" data-name="Path 354" d="M550.256,647.9v.365l-.091,1.225v.365l-.023,1.247v.251l-.068.137-.183.046-.319.023-1.156-.023h-1.407l-1.133-.091-.137-.046-.068-.068V651.1l-.046-.57v-.365l-.023-.342v-.342l-.068-1.224.023-.365.068-1.225.023-.365-.068-1.247v-.365l-.023-1.225V641.51l-.023-1.247V639.9l.023-1.225v-1.955l-.046-1.247.068-.251.137-.091.228-.023h.183l.342-.023.548.023h.365l1.042-.046h1.407l.251.046.046.137.023.251.046.593.023.365v2.228l.023,1.225v.365l-.023,1.247v.365l.023,1.225v.365L550.2,644.7v1.978l.068,1.224Z" transform="translate(-447.236 -634.596)" fill="url(#linear-gradient-7)"/>
                <path id="Path_355" data-name="Path 355" d="M569.339,646.234l-.023.388-.046.388-.068.365-.114.5-.114.319-.205.456-.16.3-.274.411-.228.274-.274.274-.274.251-.456.3-.3.205-.342.183-.319.16-.525.182-.685.228-.365.068-.57.091-.342.046-.5.046-.319.023-.525.023-1.088.068h-.5l-.319-.023-.525-.046-.342-.046-.388-.068-.342-.114-.5-.16-.319-.16-.342-.16-.319-.16-.3-.182-.73-.5-.274-.228-.411-.319-.274-.228-.251-.251-.183-.205-.023-.16.114-.205.091-.114.228-.251.639-.593.205-.251.388-.593.205-.251.228-.251.251-.137.251.046.251.182.73.5.342.182.319.16.525.251.342.114.365.114.365.068.525.023.365.023,1.43-.091.365-.046.183-.046.342-.137.3-.182.228-.228.114-.16.137-.342-.023-.388-.046-.183-.182-.319-.114-.137-.3-.228-.182-.068-.342-.137-.388-.091-.388-.068-2.16-.205-.685-.137-.365-.091-.5-.182-.342-.114-.342-.16-.776-.388-.3-.205-.342-.205-.3-.205-.388-.319-.205-.3-.205-.342-.137-.342-.16-.479-.068-.342-.068-.5-.046-.73.023-.365.046-.548.068-.342.091-.3.114-.342.228-.5.16-.319.183-.274.228-.251.365-.342.3-.228.3-.205.319-.16.434-.251.685-.274.342-.114.525-.091.365-.068.685-.091.5-.091.365-.046.342-.023h.365l.685.068.342.046.16.046.365.046.776.137.388.091.365.114.388.114.365.137.342.16.342.137.434.251.319.16.3.205.205.205v.228l-.137.251-.251.456-.182.274-.867,1.133-.251.319-.274.228-.182.068-.16-.023-.228-.114-.342-.205-.342-.137-.16-.068-.342-.114-.183-.046-.388-.091-.525-.114-.365-.023-.593-.046h-.593l-.388.023-.388.068-.365.114-.137.068-.274.205-.114.137-.16.319-.046.365.068.3.183.3.251.228.274.137.16.068.342.068.57.068.776.046.388.068.776.183.73.228.525.114.342.091.639.228.456.205.319.16.319.182.3.183.662.548.251.274.228.274.274.411.183.3.16.342.091.342.091.5.046.342.023.388Z" transform="translate(-449.479 -634.452)" fill="url(#linear-gradient-8)"/>
                <path id="Path_356" data-name="Path 356" d="M590.009,649.3l-.023.365-.091,1.225-.023.228-.091.16-.114.091-2.974.091h-.365l-1.2-.091-.365.023-1.179.091-.365.023h-1.567l-1.179-.091h-.365l-1.955.114-.776-.046-.274-.046-.16-.114-.068-.16-.046-.251-.046-.525-.023-.365.023-.342v-.342l.091-1.2v-.365l.023-1.2-.023-.365-.068-1.2-.023-.365.046-1.224v-1.932l.091-1.2-.023-.365-.068-1.2-.023-.365V637.8l.046-.685v-.342l.068-1.179.023-.319.068-.183.114-.091.183-.023.3-.046,1.476.091,1.384-.023h.365l1.361.091h.365l1.361-.091h.365l3.088.046.388-.023.776-.068h.57l.319.068.137.114.046.16.046.3v.616l-.046.57v.388l.023.57.023.342-.023.342-.046.274-.091.16-.114.091-.274.046h-.183l-.365.023-2.137-.046h-.365l-1.156.046h-.365l-1.179-.046-1.019-.068h-.342l-.183.023-.228.046-.114.114-.023.137-.046.251-.046.548v.365l.023.388.023.251.046.16.091.114.251.068.73.046.73-.046h2.16l2.548-.137.707.046.251.046.137.114.068.137.023.251.046.388.023.388v.753l.046.525-.046.685-.046.274-.091.16-.16.114-.228.046h-.456l-1.019-.114-.365-.023-1.818.114-1.453-.046h-.365l-.913-.068-.388.023-.274.023-.114.068-.068.16-.023.342-.068.57-.023.365v.5l.023.228.068.16.091.091.251.023,1.247.046h.365l1.224-.091,1.612.091h.365l1.612-.091h.342l.342.023.821.091.137.068.091.137.023.251.068,1.247Z" transform="translate(-454.718 -634.565)" fill="url(#linear-gradient)"/>
              </g>
            </g>
          </g>
          <g id="Group_134" data-name="Group 134" transform="translate(18.85 177.526)">
            <g id="Group_132" data-name="Group 132" transform="translate(7.994)">
              <path id="Path_619" data-name="Path 619" d="M2.547-1.308V-6.931a8.684,8.684,0,0,0,1.8,1.239,13.92,13.92,0,0,0,2.215.929A17.453,17.453,0,0,0,8.9-4.177a12.48,12.48,0,0,0,2.157.207,9.207,9.207,0,0,0,5.129-1.147,3.775,3.775,0,0,0,1.687-3.328,3.629,3.629,0,0,0-.562-2.031,5.9,5.9,0,0,0-1.572-1.572,16.518,16.518,0,0,0-2.375-1.365Q12-14.068,10.442-14.779q-1.675-.9-3.121-1.813a13.433,13.433,0,0,1-2.513-2.031,8.5,8.5,0,0,1-1.675-2.513,8.184,8.184,0,0,1-.608-3.282,7.575,7.575,0,0,1,1.044-4.028,8.819,8.819,0,0,1,2.754-2.823,12.625,12.625,0,0,1,3.89-1.652,18.472,18.472,0,0,1,4.452-.539q5.164,0,7.527,1.17V-26.9a12.022,12.022,0,0,0-7.206-2.02,12.912,12.912,0,0,0-2.421.229,7.2,7.2,0,0,0-2.157.757,4.67,4.67,0,0,0-1.549,1.354,3.319,3.319,0,0,0-.6,2,3.776,3.776,0,0,0,.459,1.9,4.914,4.914,0,0,0,1.343,1.469,13.717,13.717,0,0,0,2.157,1.3q1.274.631,2.949,1.365,1.721.9,3.247,1.882a15.308,15.308,0,0,1,2.685,2.18,9.58,9.58,0,0,1,1.836,2.651,7.784,7.784,0,0,1,.677,3.316A8.217,8.217,0,0,1,22.6-4.292a8.138,8.138,0,0,1-2.719,2.8A12.113,12.113,0,0,1,15.95.069a22.191,22.191,0,0,1-4.7.482A20.033,20.033,0,0,1,9.214.425Q8.009.3,6.747.057A22.693,22.693,0,0,1,4.36-.528,7.556,7.556,0,0,1,2.547-1.308ZM40.092-.252a9.227,9.227,0,0,1-4.108.78q-6.839,0-6.839-6.563V-19.323H25.221V-23.5h3.924v-5.439l5.324-1.515V-23.5h5.623v4.177H34.47v11.75a4.63,4.63,0,0,0,.757,2.983,3.144,3.144,0,0,0,2.524.9,3.66,3.66,0,0,0,2.341-.78ZM58.314-18.428a4.413,4.413,0,0,0-2.777-.757,4.753,4.753,0,0,0-3.947,2.134,9.544,9.544,0,0,0-1.583,5.806V0H44.682V-23.5h5.324v4.842H50.1a8.186,8.186,0,0,1,2.4-3.867,5.412,5.412,0,0,1,3.615-1.388,4.487,4.487,0,0,1,2.2.436ZM81.562-10.3H65.543a6.771,6.771,0,0,0,2.008,5.026,7.471,7.471,0,0,0,5.267,1.767A11.614,11.614,0,0,0,79.726-5.76v4.292A15.782,15.782,0,0,1,71.234.551a10.512,10.512,0,0,1-8.135-3.2q-2.949-3.2-2.949-9.008A12.522,12.522,0,0,1,63.4-20.6a10.622,10.622,0,0,1,8.067-3.454,9.262,9.262,0,0,1,7.458,3.1q2.639,3.1,2.639,8.606Zm-5.141-3.764a6.861,6.861,0,0,0-1.354-4.464A4.524,4.524,0,0,0,71.4-20.126a5.167,5.167,0,0,0-3.89,1.675,7.653,7.653,0,0,0-1.962,4.383ZM107.563,0h-5.324V-13.242q0-6.586-4.659-6.586A5.086,5.086,0,0,0,93.564-18a6.768,6.768,0,0,0-1.583,4.6V0H86.633V-23.5H91.98v3.9h.092a8.376,8.376,0,0,1,7.619-4.452,7.1,7.1,0,0,1,5.852,2.49q2.02,2.49,2.02,7.195Zm27.883-1.882q0,12.943-13.012,12.943a19.38,19.38,0,0,1-8.009-1.538V4.659a14.82,14.82,0,0,0,7.321,2.2q8.376,0,8.376-8.239v-2.57h-.092a8.621,8.621,0,0,1-7.94,4.5,8.589,8.589,0,0,1-6.919-3.133,12.667,12.667,0,0,1-2.628-8.411q0-5.99,2.823-9.524a9.385,9.385,0,0,1,7.757-3.534,7.476,7.476,0,0,1,6.908,3.81h.092V-23.5h5.324Zm-5.278-8.881v-3.052a5.979,5.979,0,0,0-1.641-4.234,5.375,5.375,0,0,0-4.1-1.756,5.63,5.63,0,0,0-4.739,2.238,10.1,10.1,0,0,0-1.71,6.254,8.691,8.691,0,0,0,1.641,5.542,5.267,5.267,0,0,0,4.349,2.077,5.644,5.644,0,0,0,4.475-1.985A7.48,7.48,0,0,0,130.168-10.763ZM154.77-.252a9.227,9.227,0,0,1-4.108.78q-6.839,0-6.839-6.563V-19.323H139.9V-23.5h3.924v-5.439l5.324-1.515V-23.5h5.623v4.177h-5.623v11.75A4.63,4.63,0,0,0,149.9-4.59a3.144,3.144,0,0,0,2.524.9,3.66,3.66,0,0,0,2.341-.78ZM180.243,0h-5.324V-12.852q0-6.977-4.659-6.977a4.873,4.873,0,0,0-3.947,2.02,8.039,8.039,0,0,0-1.606,5.164V0h-5.347V-34.791h5.347V-19.6h.092a8.408,8.408,0,0,1,7.619-4.452q7.826,0,7.826,9.57Z" transform="translate(0 51)" fill="#62b78e"/>
            </g>
            <g id="Group_133" data-name="Group 133" transform="translate(0 59.158)">
              <path id="Path_379" data-name="Path 379" d="M494.653,621.369H376.459a1.749,1.749,0,1,1,0-3.5H494.653a1.749,1.749,0,1,1,0,3.5Z" transform="translate(-372.748 -615.459)" fill="#3e1742"/>
              <path id="Path_380" data-name="Path 380" d="M568.979,617.87h53.37a1.749,1.749,0,1,1,0,3.5h-53.37a1.749,1.749,0,1,1,0-3.5Z" transform="translate(-418.841 -615.459)" fill="#3e1742"/>
              <path id="Path_381" data-name="Path 381" d="M566.409,614.7h53.37a1.749,1.749,0,0,1,0,3.5h-53.37a1.749,1.749,0,0,1,0-3.5Z" transform="translate(-418.226 -614.7)" fill="#ffff35"/>
              <path id="Path_382" data-name="Path 382" d="M492.073,618.2H373.879a1.749,1.749,0,0,1,0-3.5H492.073a1.749,1.749,0,0,1,0,3.5Z" transform="translate(-372.13 -614.7)" fill="#ffff35"/>
            </g>
          </g>
        </g>
        <path id="Path_167" data-name="Path 167" d="M302.051,427.347H24V24H302.051ZM26.54,424.806H299.51V26.54H26.54Z" transform="translate(27 -34.863)" fill="#659cec"/>
      </g>
    </g>
  </g>
</svg>
