<svg xmlns="http://www.w3.org/2000/svg" xmlns:xlink="http://www.w3.org/1999/xlink" width="600" height="500" viewBox="0 0 600 500">
  <defs>
    <clipPath id="clip-path">
      <path id="Path_169" data-name="Path 169" d="M271.412,263.858c-23.752-25.627-75.177-34.513-105.1-18.946C155.2,250.694,144.275,262.6,133.128,268.3c-24.519,12.544-36.042,22.147-42.721,54.068C84.2,352,87.2,376.033,100.85,403.4c15.77,31.612,52.813,45.884,86.249,46.828,18.748.534,51.563-.437,67.826-10.045,29.107-17.193,36.137-32.836,43.521-75.93C303.975,331.954,295.169,289.484,271.412,263.858Z" transform="translate(-87.321 -237.21)"/>
    </clipPath>
    <clipPath id="clip-path-2">
      <path id="Path_46" data-name="Path 46" d="M709.228,497.165s16.422,1.877,18.288,7.6c.678,2.081.138,7.52-2.329,11.176s-13.214,10.127-13.079,12.6a19.1,19.1,0,0,0,2.946,6.62c-11.387-3.5-21.025-1.12-27.209.7,1.8-4.421,3.621-9.111,3.483-9.6-.267-.94-7.5-14.508-7.5-14.508a15.84,15.84,0,0,1,8.971-9.715c5.381-2.316,16.43-4.889,16.43-4.889Z" transform="translate(-683.83 -497.16)" fill="#e5886e"/>
    </clipPath>
    <clipPath id="clip-path-3">
      <path id="Path_50" data-name="Path 50" d="M675.61,546.883s1.615-7.173-5.151-7.173c0,0-7.075,11.5-6.9,18.129.032,1.154,3.288,4.87,4.14,4.87s18.833-7.531,18.833-7.531Z" transform="translate(-663.558 -539.71)" fill="#e5886e"/>
    </clipPath>
    <clipPath id="clip-path-4">
      <path id="Path_53" data-name="Path 53" d="M734.21,519.137s5.058-1.411,7.7,7.878c0,0-4.733,13.325-15.188,17.642-5.678,2.343-22.92-10-22.92-10s-.847-4.3,2.5-4.3,19.31,5.76,19.31,5.76a56.578,56.578,0,0,1,8.6-16.973Z" transform="translate(-703.709 -519.061)" fill="#e5886e"/>
    </clipPath>
    <clipPath id="clip-path-5">
      <path id="Path_58" data-name="Path 58" d="M757.81,560.412s6.972-5,7.774-4.7,6.919,2.909,7.02,3.409-.757,1.173-1.056,1.165c-.5-.011-3.957-.715-3.957-.715l1.04,1.167a1.546,1.546,0,0,1-.111,2.171l-1.39,1.268-9.317-3.767Z" transform="translate(-757.81 -555.7)" fill="#e5886e"/>
    </clipPath>
    <clipPath id="clip-path-6">
      <path id="Path_61" data-name="Path 61" d="M793.807,982.231s-.3,4.442-.67,8.057c-.22,2.133.8,4.074,2.155,4.074h11.075c1.244,0,2.406-.993,3.1-2.642.005-.011.008-.021.013-.032.378-.913.034-2.141-.638-2.351-7.578-2.337-10.014-7.126-10.014-7.126S795.125,982.13,793.807,982.231Z" transform="translate(-793.108 -982.181)" fill="#eaa03d"/>
    </clipPath>
    <clipPath id="clip-path-7">
      <path id="Path_64" data-name="Path 64" d="M760.671,451.523s-1.088,12.168-1.091,13.185c-.005,3.078,4.148,2.557,5.786.535s3.327-16.332,3.327-16.332S764.281,456.854,760.671,451.523Z" transform="translate(-759.58 -448.91)" fill="#e5886e"/>
    </clipPath>
    <clipPath id="clip-path-8">
      <path id="Path_67" data-name="Path 67" d="M736.6,380.878a10.019,10.019,0,0,0-8.852,10.869,82.654,82.654,0,0,0,3.026,11.316c.18.447,4.521,3.735,6.26,5.037a1.9,1.9,0,0,0,1.57.331h0a1.926,1.926,0,0,0,1.1-.733c1.956-2.639,4.105-4.78,5.238-7.666,0,0,5.6-1.271,4.675-5.8-.858-4.182-3.682-1.736-3.682-1.736s1.083-12.624-9.339-11.615Z" transform="translate(-727.663 -380.823)" fill="#e5886e"/>
    </clipPath>
    <clipPath id="clip-path-9">
      <path id="Path_73" data-name="Path 73" d="M721.786,630.324c6.557,5.22,13.325,49.674,12.732,52.58-.508,2.5-7.335,29.911-9.238,37.545a2.593,2.593,0,0,1-2.515,1.964h0a2.588,2.588,0,0,1-2.591-2.541c-.135-7.195-.461-27.354.05-29.908a20.911,20.911,0,0,1,2.906-6.437s-3.91-11.628-6.316-14.328-8.134-26.528-8.134-26.528l-.8.283s2.173,23.161.3,29.39c0,0,1.779,5.781,1.827,7.65s-1.988,36.121-2.34,36.78c-.866,1.62-3.094,1.228-2.978,0,0,0-7.226-35.981-9.511-49.9s-3.224-29.146-.6-35.862c0,0,16.115-9.532,27.209-.7Z" transform="translate(-692.989 -626.564)" fill="#2b1a21"/>
    </clipPath>
    <clipPath id="clip-path-10">
      <path id="Path_76" data-name="Path 76" d="M709.089,961.893a30.137,30.137,0,0,1,2.356,3.809c.124.619-1.215,10-2.7,10.239s-14.011.423-14.2-.447,1.543-4.092,2.658-4.59,8.153-5.019,8.351-9.013" transform="translate(-694.524 -961.89)" fill="#eaa03d"/>
    </clipPath>
    <clipPath id="clip-path-11">
      <path id="Path_98" data-name="Path 98" d="M938.317,792.6s-3.846,9.246-3,10.326,1.106,4.338.048,7.112-10.456,31.878-10.456,31.878l-4.947-1.85s2.478-40.682,3.867-42.611,1.7-6.861,1.7-6.861,8.542-.654,12.793,2Z" transform="translate(-919.96 -790.521)" fill="#e5886e"/>
    </clipPath>
    <clipPath id="clip-path-12">
      <path id="Path_104" data-name="Path 104" d="M1059.682,788.545s1.654,5.265,1.053,5.866-3.309,6.017-3.01,7.52,7.745,31.139,8.836,31.288a33.2,33.2,0,0,0,5.456-.752s-2.562-27.931-1.5-36.555a19.842,19.842,0,0,0-3.949-14.442l-6.88,7.07Z" transform="translate(-1057.703 -781.47)" fill="#e5886e"/>
    </clipPath>
    <clipPath id="clip-path-13">
      <path id="Path_103" data-name="Path 103" d="M1065.6,922.287H1036.83l1.662-22.743c5.979-4.3,16.094-4.023,27.111-2.748Z" transform="translate(-1036.83 -895.971)" fill="#fff"/>
    </clipPath>
    <clipPath id="clip-path-14">
      <path id="Path_109" data-name="Path 109" d="M965.282,672.321c2.838,17.69,8.37,27.878,8.37,37.579a32.217,32.217,0,0,1-21.806-.087l-1.62-14.172a1.586,1.586,0,0,0-1-1.3h0a1.587,1.587,0,0,0-2.049.876l-5.519,13.452s-1.676,1.718-12.523.717c-7.2-.664-9.177-2.74-9.177-2.74s5.646-10.209,6.975-30.168c0,0,12.658-11.734,38.347-4.159Z" transform="translate(-919.96 -669.776)" fill="#eaa03d"/>
    </clipPath>
    <clipPath id="clip-path-15">
      <path id="Path_113" data-name="Path 113" d="M1084.373,973s-1.03,4.442-1.625,8.06a3.5,3.5,0,0,0,3.446,4.074h17.714a5.98,5.98,0,0,0,4.958-2.642c.008-.011.013-.021.021-.032a1.543,1.543,0,0,0-1.022-2.351c-12.121-2.337-17.465-6.821-17.465-6.821a56.185,56.185,0,0,0-6.025-.289Z" transform="translate(-1082.7 -972.987)" fill="#2b1a21"/>
    </clipPath>
    <clipPath id="clip-path-16">
      <path id="Path_118" data-name="Path 118" d="M938.289,498.044s-8.124-1.726-12.147-1.7-8.912,2.666-9.257,8.447c-.193,3.237,2.761,9.6,5.231,13.254s6.379,9.49,6.244,11.97-3.693,15.991-3.693,18.942c13.9-2.695,27.669,8.33,38.935-.792-1.535-12.123-4.6-16.7-6.2-21.213-.326-.921,8.859-15.159,8.859-15.159s-2.358-5.927-11.543-8.857c-5.58-1.781-16.43-4.889-16.43-4.889Z" transform="translate(-916.876 -496.339)" fill="#fff"/>
    </clipPath>
    <clipPath id="clip-path-17">
      <path id="Path_121" data-name="Path 121" d="M992.069,460.8s.966,9.3.969,10.223c.008,2.8-5.175,1.509-7.017-.333S982.31,454.5,982.31,454.5s5.7,11.152,9.757,6.3Z" transform="translate(-982.31 -454.5)" fill="#e5886e"/>
    </clipPath>
    <clipPath id="clip-path-18">
      <path id="Path_125" data-name="Path 125" d="M934.789,525.394s-8.37-4.172-10.379,6.435c0,0,8.3,19.831,16.626,21.671,6,1.326,24.734-16.922,24.734-16.922s.754-3.428-2.568-3c-14.839,1.932-20.76,8.6-20.76,8.6-.733-7.017-1.408-10.014-7.65-16.787Z" transform="translate(-924.41 -524.585)" fill="#e5886e"/>
    </clipPath>
    <clipPath id="clip-path-19">
      <path id="Path_162" data-name="Path 162" d="M176.005,359.31,143.12,371.765c0,46.651,32.885,60.33,32.885,60.33s32.885-13.678,32.885-60.33L176.005,359.31Z" transform="translate(-143.12 -359.31)" fill="#eaa03d"/>
    </clipPath>
  </defs>
  <g id="Group_381" data-name="Group 381" transform="translate(-894 -5160)">
    <g id="_7270204" data-name="7270204" transform="translate(902.5 5045.5)">
      <rect id="Rectangle_11" data-name="Rectangle 11" width="600" height="500" rx="20" transform="translate(-8.5 114.5)" fill="#fef9f3"/>
      <g id="Group_81" data-name="Group 81" transform="translate(152.5 177.348)">
        <path id="Path_167" data-name="Path 167" d="M302.051,427.347H24V24H302.051ZM26.54,424.806H299.51V26.54H26.54Z" transform="translate(-24 -24)" fill="#eaa03d"/>
      </g>
      <g id="Group_89" data-name="Group 89" transform="translate(185.499 285.673)">
        <g id="Group_82" data-name="Group 82" clip-path="url(#clip-path)">
          <path id="Path_168" data-name="Path 168" d="M271.412,263.858c-23.752-25.627-75.177-34.513-105.1-18.946C155.2,250.694,144.275,262.6,133.128,268.3c-24.519,12.544-36.042,22.147-42.721,54.068C84.2,352,87.2,376.033,100.85,403.4c15.77,31.612,52.813,45.884,86.249,46.828,18.748.534,51.563-.437,67.826-10.045,29.107-17.193,36.137-32.836,43.521-75.93C303.975,331.954,295.169,289.484,271.412,263.858Z" transform="translate(-87.321 -237.21)" fill="#e9d3b4"/>
        </g>
      </g>
      <path id="Path_890" data-name="Path 890" d="M-79.775-32.056h4.842q3.034,0,4.148,1.265a4.34,4.34,0,0,1,1.113,2.959,3.733,3.733,0,0,1-.4,1.815,5.487,5.487,0,0,1-1.3,1.5,4.416,4.416,0,0,1,2.437,1.754,4.635,4.635,0,0,1,.715,2.476,4.355,4.355,0,0,1-1.58,3.571,6.809,6.809,0,0,1-4.414,1.28h-5.563Zm3.582,2.785v3.645h.819a2.147,2.147,0,0,0,1.525-.578,1.879,1.879,0,0,0,.617-1.429,1.433,1.433,0,0,0-.605-1.162,2.369,2.369,0,0,0-1.512-.476Zm0,6.468v4.582h1.283q2.944,0,2.944-2.158a2.26,2.26,0,0,0-.717-1.8,3.017,3.017,0,0,0-2.051-.628Zm20.176,2.7h-7.759a2.617,2.617,0,0,0,.69,1.711,1.959,1.959,0,0,0,1.462.656,2.632,2.632,0,0,0,2.342-1.355l2.974.985a5.527,5.527,0,0,1-5.151,2.9,5.45,5.45,0,0,1-4.089-1.555,5.742,5.742,0,0,1-1.519-4.19,5.41,5.41,0,0,1,1.6-3.975,5.347,5.347,0,0,1,3.94-1.607,5.152,5.152,0,0,1,3.93,1.69,5.95,5.95,0,0,1,1.576,4.221ZM-63.75-22.28h4.379q-.456-2.038-2.088-2.038a2.281,2.281,0,0,0-1.551.531,2.3,2.3,0,0,0-.74,1.5Zm18.025-2.506-2.2,1.342a2.656,2.656,0,0,0-1.78-.962,1.1,1.1,0,0,0-.7.227.682.682,0,0,0-.293.555.881.881,0,0,0,.338.77,9.336,9.336,0,0,0,1.8.742,6.369,6.369,0,0,1,2.3,1.287,2.83,2.83,0,0,1,.842,2.178,3,3,0,0,1-1.266,2.411,4.731,4.731,0,0,1-3.038,1.006,4.864,4.864,0,0,1-2.4-.669,5.6,5.6,0,0,1-2.031-2.051l2.62-1.19q.886,1.529,1.835,1.529a1.192,1.192,0,0,0,.772-.277.8.8,0,0,0,.342-.631.755.755,0,0,0-.392-.689,1.341,1.341,0,0,0-.582-.235,3.681,3.681,0,0,0-.911-.355q-3.266-1.065-3.266-3.458a2.868,2.868,0,0,1,1.171-2.361,4.812,4.812,0,0,1,3.059-.918,5.173,5.173,0,0,1,3.783,1.747Zm3.05-5.267h3.241v3.733h1.555v2.974h-1.555v7.913h-3.24v-7.911h-1.241V-26.32h1.241ZM-123.451-3.541h5.671a7.763,7.763,0,0,1,5.848,2.291,8.32,8.32,0,0,1,2.215,6.038A8.106,8.106,0,0,1-112,10.813a8.261,8.261,0,0,1-6.082,2.266h-5.366Zm3.608,3.14V9.865h1.417a5.4,5.4,0,0,0,3.62-1.2,5,5,0,0,0,1.417-4.012,5.967,5.967,0,0,0-.683-2.892A3.5,3.5,0,0,0-116.053.047,7.56,7.56,0,0,0-118.527-.4Zm12.48,8.063a5.544,5.544,0,0,1,1.607-4.114,5.61,5.61,0,0,1,4.127-1.6A5.275,5.275,0,0,1-97.7,3.579a5.543,5.543,0,0,1,1.589,4.032A5.585,5.585,0,0,1-97.7,11.687a5.345,5.345,0,0,1-3.981,1.62,5.26,5.26,0,0,1-4.19-1.715,5.812,5.812,0,0,1-1.494-3.93Zm8.063,0a2.827,2.827,0,0,0-.722-1.924,2.181,2.181,0,0,0-1.683-.823,2.277,2.277,0,0,0-1.721.772,2.613,2.613,0,0,0-.722,1.848,2.943,2.943,0,0,0,.715,2,2.211,2.211,0,0,0,1.728.823,2.2,2.2,0,0,0,1.683-.8,2.741,2.741,0,0,0,.722-1.9Zm13.885,1.646v3.24a7.051,7.051,0,0,1-2.772.76,5.612,5.612,0,0,1-4.1-1.62,5.452,5.452,0,0,1-1.645-4.052,5.651,5.651,0,0,1,1.525-4.05A5.1,5.1,0,0,1-88.54,1.978a7.042,7.042,0,0,1,3.163.76V5.8a6.045,6.045,0,0,0-2.592-.683,2.37,2.37,0,0,0-1.754.665,2.37,2.37,0,0,0-.665,1.753,2.366,2.366,0,0,0,.658,1.74A2.333,2.333,0,0,0-88,9.94a7.518,7.518,0,0,0,2.583-.633Zm2.57-10.849h3.24V2.192h1.555V5.166H-79.6v7.913h-3.24V5.168h-1.241V2.192h1.241Zm6.444,9.2a5.544,5.544,0,0,1,1.607-4.114,5.61,5.61,0,0,1,4.126-1.6,5.275,5.275,0,0,1,3.93,1.626A5.543,5.543,0,0,1-65.152,7.6a5.585,5.585,0,0,1-1.589,4.076,5.345,5.345,0,0,1-3.981,1.62,5.26,5.26,0,0,1-4.19-1.715A5.813,5.813,0,0,1-76.4,7.662Zm8.063,0a2.827,2.827,0,0,0-.722-1.924,2.181,2.181,0,0,0-1.683-.823,2.277,2.277,0,0,0-1.721.772,2.613,2.613,0,0,0-.722,1.848,2.943,2.943,0,0,0,.715,2,2.211,2.211,0,0,0,1.728.823,2.2,2.2,0,0,0,1.683-.8,2.741,2.741,0,0,0,.721-1.892Zm9.074-5.47V3.8h.052a4.311,4.311,0,0,1,1.12-1.285,2.037,2.037,0,0,1,1.185-.472,3.193,3.193,0,0,1,.595.052V5.638a4.321,4.321,0,0,0-.8-.076,1.857,1.857,0,0,0-1.551.7,3.121,3.121,0,0,0-.551,1.97v4.845H-62.5V2.192Zm18.341,7.875h4.608v3.013H-47.592l5.506-7a17.756,17.756,0,0,0,1.715-2.532A4.036,4.036,0,0,0-39.858,1.7,2.088,2.088,0,0,0-40.469.16,2.088,2.088,0,0,0-42.01-.451a1.687,1.687,0,0,0-1.544.766,5.263,5.263,0,0,0-.582,2.4h-3.582A5.854,5.854,0,0,1-46-1.834a6.073,6.073,0,0,1,4.291-1.607,5.513,5.513,0,0,1,3.888,1.386A4.609,4.609,0,0,1-36.315,1.5a8.514,8.514,0,0,1-1.76,4.683l-.964,1.406q-.57.848-1.443,1.936ZM-28.213-3.3a5.5,5.5,0,0,1,4.582,2.2A9.342,9.342,0,0,1-21.92,4.789q0,4.3-1.9,6.386a5.79,5.79,0,0,1-4.392,2.082,5.615,5.615,0,0,1-4.614-2.222,9.112,9.112,0,0,1-1.766-5.842,10.091,10.091,0,0,1,1.728-6.17A5.405,5.405,0,0,1-28.313-3.3Zm2.9,8.392a7.96,7.96,0,0,0-.785-3.86A2.366,2.366,0,0,0-28.213-.173a2.437,2.437,0,0,0-2.187,1.4,7.979,7.979,0,0,0-.8,3.911,7.115,7.115,0,0,0,.81,3.645,2.352,2.352,0,0,0,2.136,1.367,2.352,2.352,0,0,0,2.136-1.367,7.279,7.279,0,0,0,.8-3.7ZM-13.4,10.067h4.6v3.012H-20.074l5.506-7a17.756,17.756,0,0,0,1.715-2.532A4.036,4.036,0,0,0-12.34,1.7,2.088,2.088,0,0,0-12.951.16a2.088,2.088,0,0,0-1.541-.611,1.687,1.687,0,0,0-1.544.766,5.263,5.263,0,0,0-.585,2.4H-20.2a5.854,5.854,0,0,1,1.721-4.544,6.073,6.073,0,0,1,4.291-1.607A5.513,5.513,0,0,1-10.3-2.056a4.609,4.609,0,0,1,1.506,3.55,8.514,8.514,0,0,1-1.76,4.683l-.966,1.406q-.57.848-1.443,1.936ZM.177-3.072H3.443V6.257H4.975V9.219H3.443v3.86H-.1V9.219H-7.277V6.231ZM-.152.983-4.313,6.257H-.1V.982Z" transform="translate(350.951 228.637)" fill="#c46c23"/>
      <g id="Group_201" data-name="Group 201" transform="translate(-386.69 -15.582)">
        <g id="Group_65" data-name="Group 65" transform="translate(602.908 337.406)">
          <g id="Group_42" data-name="Group 42" transform="translate(14.063 0)">
            <g id="Group_23" data-name="Group 23" transform="translate(5.366 32.408)">
              <path id="Path_42" data-name="Path 42" d="M709.228,497.165s16.422,1.877,18.288,7.6c.678,2.081.138,7.52-2.329,11.176s-13.214,10.127-13.079,12.6a19.1,19.1,0,0,0,2.946,6.62c-11.387-3.5-21.025-1.12-27.209.7,1.8-4.421,3.621-9.111,3.483-9.6-.267-.94-7.5-14.508-7.5-14.508a15.84,15.84,0,0,1,8.971-9.715c5.381-2.316,16.43-4.889,16.43-4.889Z" transform="translate(-683.83 -497.16)" fill="#e5886e"/>
              <g id="Group_22" data-name="Group 22" clip-path="url(#clip-path-2)">
                <path id="Path_43" data-name="Path 43" d="M744.349,530.126l2.245-5.066a27.464,27.464,0,0,0-4.243,5.432l2-.368Z" transform="translate(-726.86 -517.675)" fill="#a74c3a"/>
                <path id="Path_44" data-name="Path 44" d="M740.586,499.761l-7.631,14.828-.871,9.534-20.377-4.135s-3.033-10.816,3.251-20.239l4.675-1.083s-3.952,2.636-4.823,11.178l16.57-2.118s4.159-9.654,5.892-10.548l3.317,2.581" transform="translate(-703.79 -497.175)" fill="#fff"/>
                <path id="Path_45" data-name="Path 45" d="M675.46,603.009c0,2.165,11.287-5.977,18.958-4.849,10.006,1.472,19.654,4.738,19.654,2.573s-11.178-9.312-18.931-9.312S675.46,600.843,675.46,603.009Z" transform="translate(-677.675 -566.469)" fill="#a74c3a"/>
              </g>
            </g>
            <path id="Path_47" data-name="Path 47" d="M732.959,437.945a3.517,3.517,0,0,1-3.515,3.515c-1.94,0-3.994-2.295-3.994-4.235s2.054-2.8,3.994-2.8A3.517,3.517,0,0,1,732.959,437.945Z" transform="translate(-709.067 -418.627)" fill="#a74c3a"/>
            <g id="Group_25" data-name="Group 25" transform="translate(0 43.671)">
              <path id="Path_48" data-name="Path 48" d="M675.61,546.883s1.615-7.173-5.151-7.173c0,0-7.075,11.5-6.9,18.129.032,1.154,3.288,4.87,4.14,4.87s18.833-7.531,18.833-7.531Z" transform="translate(-663.558 -539.71)" fill="#e5886e"/>
              <g id="Group_24" data-name="Group 24" clip-path="url(#clip-path-3)">
                <ellipse id="Ellipse_3" data-name="Ellipse 3" cx="13.293" cy="11.004" rx="13.293" ry="11.004" transform="translate(2.01 6.054)" fill="#a74c3a" opacity="0.5"/>
                <path id="Path_49" data-name="Path 49" d="M701.323,571.759l-4.063,1.154L701.63,568l4.675,2.668Z" transform="translate(-688.339 -560.512)" fill="#002a37" opacity="0.3"/>
              </g>
            </g>
            <g id="Group_27" data-name="Group 27" transform="translate(10.628 38.205)">
              <path id="Path_51" data-name="Path 51" d="M734.21,519.137s5.058-1.411,7.7,7.878c0,0-4.733,13.325-15.188,17.642-5.678,2.343-22.92-10-22.92-10s-.847-4.3,2.5-4.3,19.31,5.76,19.31,5.76a56.578,56.578,0,0,1,8.6-16.973Z" transform="translate(-703.709 -519.061)" fill="#e5886e"/>
              <g id="Group_26" data-name="Group 26" clip-path="url(#clip-path-4)">
                <path id="Path_52" data-name="Path 52" d="M751.829,553.9c0,3.123-5.013,7.833-10.22,5.654-5.508-2.306-11.769-5.117-11.769-8.24s5.408-2.636,11.051-2.636,10.937,2.1,10.937,5.22Z" transform="translate(-722.923 -540.815)" fill="#a74c3a" opacity="0.3"/>
              </g>
            </g>
            <g id="Group_29" data-name="Group 29" transform="translate(24.949 47.904)">
              <path id="Path_54" data-name="Path 54" d="M757.81,560.412s6.972-5,7.774-4.7,6.919,2.909,7.02,3.409-.757,1.173-1.056,1.165c-.5-.011-3.957-.715-3.957-.715l1.04,1.167a1.546,1.546,0,0,1-.111,2.171l-1.39,1.268-9.317-3.767Z" transform="translate(-757.81 -555.7)" fill="#e5886e"/>
              <g id="Group_28" data-name="Group 28" clip-path="url(#clip-path-5)">
                <path id="Path_55" data-name="Path 55" d="M779.761,571.445a.155.155,0,0,0,.056-.3c-.056-.021-5.514-2.2-6.8-3.584a.154.154,0,0,0-.225.209c1.329,1.44,6.681,3.571,6.909,3.661a.138.138,0,0,0,.056.011Z" transform="translate(-768.797 -564.386)" fill="#a74c3a"/>
                <path id="Path_56" data-name="Path 56" d="M779.358,578.275a.156.156,0,0,0,.148-.108.153.153,0,0,0-.1-.193c-.05-.016-5.074-1.615-6.393-2.554a.154.154,0,1,0-.177.251c1.358.969,6.268,2.531,6.477,2.6a.151.151,0,0,0,.048.008Z" transform="translate(-768.81 -570.178)" fill="#a74c3a"/>
                <path id="Path_57" data-name="Path 57" d="M786.214,565.658a.154.154,0,0,0,.032-.3c-.061-.013-6.146-1.294-8.145-2.658a.154.154,0,1,0-.175.254c2.049,1.4,8,2.652,8.256,2.705Z" transform="translate(-772.553 -560.825)" fill="#a74c3a"/>
              </g>
            </g>
            <g id="Group_31" data-name="Group 31" transform="translate(34.292 160.793)">
              <path id="Path_59" data-name="Path 59" d="M793.807,982.231s-.3,4.442-.67,8.057c-.22,2.133.8,4.074,2.155,4.074h11.075c1.244,0,2.406-.993,3.1-2.642.005-.011.008-.021.013-.032.378-.913.034-2.141-.638-2.351-7.578-2.337-10.014-7.126-10.014-7.126S795.125,982.13,793.807,982.231Z" transform="translate(-793.108 -982.181)" fill="#eaa03d"/>
              <g id="Group_30" data-name="Group 30" clip-path="url(#clip-path-6)">
                <path id="Path_60" data-name="Path 60" d="M808.321,1024.308H790.16v-4.148a75.374,75.374,0,0,0,18.161,0Z" transform="translate(-790.94 -1010.107)" fill="#fff"/>
              </g>
            </g>
            <g id="Group_33" data-name="Group 33" transform="translate(25.417 19.636)">
              <path id="Path_62" data-name="Path 62" d="M760.671,451.523s-1.088,12.168-1.091,13.185c-.005,3.078,4.148,2.557,5.786.535s3.327-16.332,3.327-16.332S764.281,456.854,760.671,451.523Z" transform="translate(-759.58 -448.91)" fill="#e5886e"/>
              <g id="Group_32" data-name="Group 32" clip-path="url(#clip-path-7)">
                <path id="Path_63" data-name="Path 63" d="M754.278,453.08s-.331,14.355-14.148,13.113l.911-7.7,13.238-5.408" transform="translate(-745.278 -451.976)" fill="#a74c3a"/>
              </g>
            </g>
            <g id="Group_35" data-name="Group 35" transform="translate(16.969 1.614)">
              <path id="Path_65" data-name="Path 65" d="M736.6,380.878a10.019,10.019,0,0,0-8.852,10.869,82.654,82.654,0,0,0,3.026,11.316c.18.447,4.521,3.735,6.26,5.037a1.9,1.9,0,0,0,1.57.331h0a1.926,1.926,0,0,0,1.1-.733c1.956-2.639,4.105-4.78,5.238-7.666,0,0,5.6-1.271,4.675-5.8-.858-4.182-3.682-1.736-3.682-1.736s1.083-12.624-9.339-11.615Z" transform="translate(-727.663 -380.823)" fill="#e5886e"/>
              <g id="Group_34" data-name="Group 34" clip-path="url(#clip-path-8)">
                <path id="Path_66" data-name="Path 66" d="M741.064,382.288c-4.357,5.069-3.873-6.493-11.88-4.831-4.767.99-6.295,2.2-7.054,4.831-1.63,5.635-2.11-10.929-2.11-10.929l13.209-3.4,6.67,2.456,2.806,6.808-1.641,5.066" transform="translate(-722.043 -371.365)" fill="#2b1a21"/>
              </g>
            </g>
            <g id="Group_37" data-name="Group 37" transform="translate(7.79 66.661)">
              <path id="Path_68" data-name="Path 68" d="M721.786,630.324c6.557,5.22,13.325,49.674,12.732,52.58-.508,2.5-7.335,29.911-9.238,37.545a2.593,2.593,0,0,1-2.515,1.964h0a2.588,2.588,0,0,1-2.591-2.541c-.135-7.195-.461-27.354.05-29.908a20.911,20.911,0,0,1,2.906-6.437s-3.91-11.628-6.316-14.328-8.134-26.528-8.134-26.528l-.8.283s2.173,23.161.3,29.39c0,0,1.779,5.781,1.827,7.65s-1.988,36.121-2.34,36.78c-.866,1.62-3.094,1.228-2.978,0,0,0-7.226-35.981-9.511-49.9s-3.224-29.146-.6-35.862c0,0,16.115-9.532,27.209-.7Z" transform="translate(-692.989 -626.564)" fill="#2b1a21"/>
              <g id="Group_36" data-name="Group 36" clip-path="url(#clip-path-9)">
                <path id="Path_69" data-name="Path 69" d="M688.815,742.812c-.341-9.683,13.4-3.849,18.381,3.084l-1.988-6.144s-5.538-12.539-18.468-6l2.078,9.063Z" transform="translate(-688.394 -703.989)" fill="#eaa03d"/>
                <path id="Path_70" data-name="Path 70" d="M689.716,714.286c-.341-9.683,13.4-3.849,18.381,3.084l-1.395-3.592s-11.215-13.669-18.211-4.2l1.223,4.7Z" transform="translate(-689.681 -685.149)" fill="#eaa03d"/>
                <path id="Path_71" data-name="Path 71" d="M790.05,713.544c-3.5-9.037-15.546,2.557-17.992,11.178l-.368-6.541s.8-14.016,16.922-13.894l1.44,9.257Z" transform="translate(-750.858 -683.714)" fill="#eaa03d"/>
                <path id="Path_72" data-name="Path 72" d="M778.041,688.8c-3.023-6.768-16.07,3.4-18.518,12.02l-.183-3.319s7.009-16.935,17.581-12.727l1.12,4.029Z" transform="translate(-741.777 -668.871)" fill="#eaa03d"/>
              </g>
            </g>
            <g id="Group_39" data-name="Group 39" transform="translate(8.197 155.422)">
              <path id="Path_74" data-name="Path 74" d="M709.089,961.893a30.137,30.137,0,0,1,2.356,3.809c.124.619-1.215,10-2.7,10.239s-14.011.423-14.2-.447,1.543-4.092,2.658-4.59,8.153-5.019,8.351-9.013" transform="translate(-694.524 -961.89)" fill="#eaa03d"/>
              <g id="Group_38" data-name="Group 38" clip-path="url(#clip-path-10)">
                <path id="Path_75" data-name="Path 75" d="M703.969,976.29s-2.284,7.994-4.031,8.531-12.486-.275-12.486-.275l-3.092,1.535s11.213,5.318,12.825,5.185,5.238-1.948,5.44-2.081,2.552-6.445,2.552-6.445l-1.207-6.451" transform="translate(-687.05 -972.478)" fill="#fff"/>
              </g>
            </g>
            <path id="Path_77" data-name="Path 77" d="M767.555,420.766s-1.535-1.707-3.235-.932-1.66,1.591-2.666,1.186.418-2.5,1.967-2.523a3.829,3.829,0,0,1,3.931,2.271Z" transform="translate(-735.441 -406.911)" fill="#2b1a21"/>
            <path id="Path_78" data-name="Path 78" d="M733.03,426.433s.654-1.771,2.081-1.188,1.615,1.363,2.231.884-.961-2.343-2.083-2.223-2.091.659-2.226,2.528Z" transform="translate(-714.641 -410.884)" fill="#2b1a21"/>
            <path id="Path_79" data-name="Path 79" d="M745.8,441.077c0,.765-.323,1.387-.723,1.387s-.723-.622-.723-1.387.323-1.387.723-1.387S745.8,440.312,745.8,441.077Z" transform="translate(-722.964 -422.494)" fill="#2b1a21"/>
            <path id="Path_80" data-name="Path 80" d="M754.759,460.462h.029a4.909,4.909,0,0,0,4.325-2.536.145.145,0,0,0-.262-.124,4.626,4.626,0,0,1-4.068,2.369.147.147,0,0,0-.143.148.145.145,0,0,0,.119.14Z" transform="translate(-730.531 -435.751)" fill="#a74c3a"/>
            <path id="Path_81" data-name="Path 81" d="M735.83,438.446s2.475-.781,4.079.161h0a.571.571,0,0,1-.617.349Z" transform="translate(-716.699 -421.357)" fill="#2b1a21"/>
            <g id="Group_40" data-name="Group 40" transform="translate(25.931 14.721)">
              <path id="Path_82" data-name="Path 82" d="M766.851,430.34s-3.745.273-5.331,1.776h0a1.117,1.117,0,0,0,1.022.074Z" transform="translate(-761.52 -430.34)" fill="#2b1a21"/>
              <path id="Path_83" data-name="Path 83" d="M768.592,435.479c0,.961-.331,1.739-.741,1.739s-.741-.778-.741-1.739.331-1.739.741-1.739S768.592,434.518,768.592,435.479Z" transform="translate(-765.63 -432.84)" fill="#2b1a21"/>
            </g>
            <path id="Path_84" data-name="Path 84" d="M754.35,457.73a1.88,1.88,0,0,1-2.7,0s.582.04,1.329.04,1.369-.04,1.369-.04Z" transform="translate(-728.332 -435.759)" fill="#a74c3a"/>
            <path id="Path_85" data-name="Path 85" d="M773.51,446.276c0,.328.566.6,1.263.6s1.263-.267,1.263-.6-.566-.6-1.263-.6S773.51,445.947,773.51,446.276Z" transform="translate(-744.406 -426.899)" fill="#a74c3a"/>
            <path id="Path_86" data-name="Path 86" d="M736.857,451.557c.1.312.725.384,1.387.161s1.114-.654,1.009-.966-.725-.384-1.387-.161S736.751,451.245,736.857,451.557Z" transform="translate(-717.444 -430.415)" fill="#a74c3a"/>
            <g id="Group_41" data-name="Group 41" transform="translate(16.521)">
              <path id="Path_87" data-name="Path 87" d="M789.013,379.7a9.766,9.766,0,0,1,9.542-4.926c6.784.6-1.117,16.385,4.293,19.913s19.056-4.087,14.6-8.407c0,0,15.6,3.393,1.191,11.329-19.244,10.6-25.035.723-20.919-8.018,7.314-15.538-1.265-13.576-8.116-9l-.593-.892Z" transform="translate(-772.323 -374.727)" fill="#2b1a21"/>
              <path id="Path_88" data-name="Path 88" d="M726.658,396.367a4.821,4.821,0,0,1,2.1-6.827,5.342,5.342,0,0,0-1.943,2.975,3.975,3.975,0,0,0,.839,3.126l-1,.723h0Z" transform="translate(-725.97 -385.619)" fill="#2b1a21"/>
              <path id="Path_89" data-name="Path 89" d="M737.163,381.355c2.324-2.965,6.408-5.776,10.2-3.883a5.868,5.868,0,0,0-2.811-.408c-2.845.341-5.135,2.512-6.713,4.759l-.678-.469h0Z" transform="translate(-734.198 -376.293)" fill="#2b1a21"/>
              <path id="Path_90" data-name="Path 90" d="M900.99,434.591c3.431-1.109,7.3-3.888,6.821-7.941a6.036,6.036,0,0,1-.193,2.885c-.987,2.856-3.682,4.7-6.366,5.837l-.262-.781Z" transform="translate(-854.662 -412.906)" fill="#2b1a21"/>
              <path id="Path_91" data-name="Path 91" d="M818.473,447.065c-.461,3.576.4,8.259,4.27,9.561a5.977,5.977,0,0,1-2.525-1.408c-2.16-2.112-2.676-5.336-2.56-8.248l.818.1h0Z" transform="translate(-793.377 -427.847)" fill="#2b1a21"/>
            </g>
          </g>
          <g id="Group_64" data-name="Group 64" transform="translate(69.735 1.429)">
            <path id="Path_92" data-name="Path 92" d="M1047.443,555.329s9.2,2.094,8.968-5.429c0,0,7.4,7.335,7.7,20.938,6.173,7.131,3.489,16.366,3.82,17.06s2.35,6.231,2.35,6.231l-3.219.876-1.252.985a11.762,11.762,0,0,1-2.009,2.84,3.067,3.067,0,0,1-1.961.254l2.472-9.884s-3.735-7.645-7.687-16.523c-6.326-7.12-4.974-13.6-9.188-17.351Z" transform="translate(-1001.499 -504.96)" fill="#a74c3a"/>
            <circle id="Ellipse_4" data-name="Ellipse 4" cx="3.515" cy="3.515" r="3.515" transform="translate(40.184 15.531)" fill="#a74c3a"/>
            <path id="Path_93" data-name="Path 93" d="M1042.493,404.873c1.7.68,4.669,1.615,1.784,3.523a15,15,0,0,1-4.931,2.292l-.376-5.053,3.523-.765Z" transform="translate(-995.271 -398.32)" fill="#2b1a21"/>
            <g id="Group_44" data-name="Group 44" transform="translate(12.197 108.632)">
              <path id="Path_94" data-name="Path 94" d="M938.317,792.6s-3.846,9.246-3,10.326,1.106,4.338.048,7.112-10.456,31.878-10.456,31.878l-4.947-1.85s2.478-40.682,3.867-42.611,1.7-6.861,1.7-6.861,8.542-.654,12.793,2Z" transform="translate(-919.96 -790.521)" fill="#e5886e"/>
              <g id="Group_43" data-name="Group 43" clip-path="url(#clip-path-11)">
                <path id="Path_95" data-name="Path 95" d="M931.489,770.931s2.009,8.883,2.009,11.755-6.919,49.576-6.919,49.576l24.405-5.13V763.405l-29.114-3.7,3.359,15.091" transform="translate(-921.364 -767.866)" fill="#a74c3a"/>
                <path id="Path_96" data-name="Path 96" d="M931.84,814.882c0,.913,1.7,1.652,3.8,1.652s3.8-.739,3.8-1.652-1.7-1.652-3.8-1.652S931.84,813.969,931.84,814.882Z" transform="translate(-928.695 -807.219)" fill="#a74c3a"/>
                <path id="Path_97" data-name="Path 97" d="M873.88,927.757h28.773l-1.662-22.743c-5.98-4.3-16.094-4.023-27.111-2.748Z" transform="translate(-886.077 -872.08)" fill="#fff"/>
              </g>
            </g>
            <g id="Group_48" data-name="Group 48" transform="translate(48.658 106.236)">
              <path id="Path_99" data-name="Path 99" d="M1059.682,788.545s1.654,5.265,1.053,5.866-3.309,6.017-3.01,7.52,7.745,31.139,8.836,31.288a33.2,33.2,0,0,0,5.456-.752s-2.562-27.931-1.5-36.555a19.842,19.842,0,0,0-3.949-14.442l-6.88,7.07Z" transform="translate(-1057.703 -781.47)" fill="#e5886e"/>
              <g id="Group_47" data-name="Group 47" clip-path="url(#clip-path-12)">
                <path id="Path_100" data-name="Path 100" d="M1054.24,768.7s-11.964,3.96-13.915,6.641,5.479,45.137,5.479,45.137l-17.685,2.79-6.739-42.8,4.8-22.192,18.458-.977,9.6,11.406" transform="translate(-1030.995 -763.69)" fill="#a74c3a"/>
                <g id="Group_46" data-name="Group 46" transform="translate(-5.525 30.308)">
                  <path id="Path_101" data-name="Path 101" d="M1065.6,922.287H1036.83l1.662-22.743c5.979-4.3,16.094-4.023,27.111-2.748Z" transform="translate(-1036.83 -895.971)" fill="#fff"/>
                  <g id="Group_45" data-name="Group 45" clip-path="url(#clip-path-13)">
                    <path id="Path_102" data-name="Path 102" d="M952.742,914.928c7.716,70.418,50.325-32.008,35.075-32.008S950.288,892.523,952.742,914.928Z" transform="translate(-974.863 -886.375)" fill="#002a37" opacity="0.3"/>
                  </g>
                </g>
              </g>
            </g>
            <g id="Group_50" data-name="Group 50" transform="translate(12.197 76.671)">
              <path id="Path_105" data-name="Path 105" d="M965.282,672.321c2.838,17.69,8.37,27.878,8.37,37.579a32.217,32.217,0,0,1-21.806-.087l-1.62-14.172a1.586,1.586,0,0,0-1-1.3h0a1.587,1.587,0,0,0-2.049.876l-5.519,13.452s-1.676,1.718-12.523.717c-7.2-.664-9.177-2.74-9.177-2.74s5.646-10.209,6.975-30.168c0,0,12.658-11.734,38.347-4.159Z" transform="translate(-919.96 -669.776)" fill="#eaa03d"/>
              <g id="Group_49" data-name="Group 49" clip-path="url(#clip-path-14)">
                <path id="Path_106" data-name="Path 106" d="M977.3,756.878c7.716,70.418,50.325-32.008,35.075-32.008S974.848,734.473,977.3,756.878Z" transform="translate(-961.986 -710.287)" fill="#c46c23"/>
                <path id="Path_107" data-name="Path 107" d="M933.422,669.584s30.491,1.451,45.9,12.788l-1.906-19.13L923.76,661.99l9.662,7.592" transform="translate(-922.754 -664.051)" fill="#c46c23"/>
                <path id="Path_108" data-name="Path 108" d="M931.486,719.685l-.776-.275c.021-.058,2.049-5.826,3.965-13.489,1.766-7.06,3.8-17.213,3.446-25.506l.823-.034c.357,8.391-1.691,18.635-3.47,25.747-1.927,7.7-3.965,13.5-3.986,13.555Z" transform="translate(-927.865 -677.573)" fill="#2b1a21"/>
              </g>
            </g>
            <g id="Group_51" data-name="Group 51" transform="translate(0 158.004)">
              <path id="Path_110" data-name="Path 110" d="M891.841,977.04c.569,0,3.851,4.934,3.817,8.709-.005.556-19.895,1.946-19.119,0,.789-1.972,3-2.377,5.561-4.166a50.3,50.3,0,0,0,5.32-4.37Z" transform="translate(-875.819 -977.04)" fill="#2b1a21"/>
              <path id="Path_111" data-name="Path 111" d="M893.3,1012.316l.418-2.366H874.6l-.72,2.366Z" transform="translate(-873.88 -1001.239)" fill="#fff"/>
            </g>
            <g id="Group_53" data-name="Group 53" transform="translate(55.275 156.931)">
              <path id="Path_112" data-name="Path 112" d="M1084.373,973s-1.03,4.442-1.625,8.06a3.5,3.5,0,0,0,3.446,4.074h17.714a5.98,5.98,0,0,0,4.958-2.642c.008-.011.013-.021.021-.032a1.543,1.543,0,0,0-1.022-2.351c-12.121-2.337-17.465-6.821-17.465-6.821a56.185,56.185,0,0,0-6.025-.289Z" transform="translate(-1082.7 -972.987)" fill="#2b1a21"/>
              <g id="Group_52" data-name="Group 52" clip-path="url(#clip-path-15)">
                <rect id="Rectangle_6" data-name="Rectangle 6" width="29.043" height="4.148" transform="translate(-1.247 10.022)" fill="#fff"/>
              </g>
            </g>
            <g id="Group_55" data-name="Group 55" transform="translate(11.381 30.762)">
              <path id="Path_114" data-name="Path 114" d="M938.289,498.044s-8.124-1.726-12.147-1.7-8.912,2.666-9.257,8.447c-.193,3.237,2.761,9.6,5.231,13.254s6.379,9.49,6.244,11.97-3.693,15.991-3.693,18.942c13.9-2.695,27.669,8.33,38.935-.792-1.535-12.123-4.6-16.7-6.2-21.213-.326-.921,8.859-15.159,8.859-15.159s-2.358-5.927-11.543-8.857c-5.58-1.781-16.43-4.889-16.43-4.889Z" transform="translate(-916.876 -496.339)" fill="#fff"/>
              <g id="Group_54" data-name="Group 54" clip-path="url(#clip-path-16)">
                <path id="Path_115" data-name="Path 115" d="M993.707,497.216c1.361-1.71,4.823-1.22,7.737,1.093s4.172,5.58,2.811,7.29-4.823,1.22-7.737-1.093-4.172-5.58-2.811-7.29Z" transform="translate(-972.967 -496.234)" fill="#e5886e"/>
                <path id="Path_116" data-name="Path 116" d="M1007.84,424.379c0,16.213,9.876,29.355,22.06,29.355s22.06-13.142,22.06-29.355-10.67,5.069-22.854,5.069-21.266-21.279-21.266-5.069Z" transform="translate(-983.762 -438.948)" fill="#002a37" opacity="0.2"/>
                <path id="Path_117" data-name="Path 117" d="M978.883,555.243c.942.606,28.911,5.752,34.946,24.376S1025.9,529.67,1025.9,529.67l-38.924,14.638-8.1,10.937Z" transform="translate(-962.468 -520.847)" fill="#002a37" opacity="0.2"/>
              </g>
            </g>
            <g id="Group_57" data-name="Group 57" transform="translate(28.701 19.687)">
              <path id="Path_119" data-name="Path 119" d="M992.069,460.8s.966,9.3.969,10.223c.008,2.8-5.175,1.509-7.017-.333S982.31,454.5,982.31,454.5s5.7,11.152,9.757,6.3Z" transform="translate(-982.31 -454.5)" fill="#e5886e"/>
              <g id="Group_56" data-name="Group 56" clip-path="url(#clip-path-17)">
                <path id="Path_120" data-name="Path 120" d="M988.36,470.02s1.956,12,14.749,11.072l-2.493-7.017L988.36,470.02" transform="translate(-986.758 -465.912)" fill="#a74c3a"/>
              </g>
            </g>
            <path id="Path_122" data-name="Path 122" d="M975.049,386.461A10.019,10.019,0,0,1,983.9,397.33a82.674,82.674,0,0,1-3.026,11.316c-.169.421-3.391,4.214-4.968,6.059a2.171,2.171,0,0,1-2.139.7l-.1-.024a3.635,3.635,0,0,1-1.567-.8c-3.269-2.846-4.259-6.085-5.392-8.971,0,0-5.328-.678-6.3-5.2-1.143-5.331,4.555-3.086,4.555-3.086s-.336-11.877,10.085-10.869Z" transform="translate(-937.393 -384.739)" fill="#e5886e"/>
            <g id="Group_59" data-name="Group 59" transform="translate(13.375 38.239)">
              <path id="Path_123" data-name="Path 123" d="M934.789,525.394s-8.37-4.172-10.379,6.435c0,0,8.3,19.831,16.626,21.671,6,1.326,24.734-16.922,24.734-16.922s.754-3.428-2.568-3c-14.839,1.932-20.76,8.6-20.76,8.6-.733-7.017-1.408-10.014-7.65-16.787Z" transform="translate(-924.41 -524.585)" fill="#e5886e"/>
              <g id="Group_58" data-name="Group 58" clip-path="url(#clip-path-18)">
                <path id="Path_124" data-name="Path 124" d="M919.292,551.943s7.727,15.89,15.832,19.757c2.464,1.175,22.14-11.845,22.14-11.845l-18.508,19.8-14.164-4.688-7.142-13.558,1.842-9.468" transform="translate(-919.292 -544.699)" fill="#a74c3a"/>
              </g>
            </g>
            <path id="Path_126" data-name="Path 126" d="M991.34,428.4s1.535-1.707,3.235-.932,1.66,1.591,2.666,1.186-.418-2.5-1.967-2.523a3.829,3.829,0,0,0-3.931,2.271Z" transform="translate(-960.248 -413.95)" fill="#2b1a21"/>
            <path id="Path_127" data-name="Path 127" d="M1030.827,434.053s-.654-1.771-2.081-1.189-1.615,1.363-2.231.884.961-2.343,2.083-2.223,2.091.659,2.226,2.528Z" transform="translate(-986.011 -417.915)" fill="#2b1a21"/>
            <path id="Path_128" data-name="Path 128" d="M1026.41,448.707c0,.765.323,1.387.723,1.387s.723-.622.723-1.387-.323-1.387-.723-1.387S1026.41,447.942,1026.41,448.707Z" transform="translate(-986.035 -429.533)" fill="#2b1a21"/>
            <path id="Path_129" data-name="Path 129" d="M1009,468.092h-.029a4.909,4.909,0,0,1-4.325-2.536.145.145,0,0,1,.262-.124,4.626,4.626,0,0,0,4.068,2.369.147.147,0,0,1,.143.148.145.145,0,0,1-.119.14Z" transform="translate(-970.02 -442.79)" fill="#a74c3a"/>
            <path id="Path_130" data-name="Path 130" d="M1029.059,446.066s-2.475-.781-4.079.161h0a.571.571,0,0,0,.617.349Z" transform="translate(-984.984 -428.388)" fill="#2b1a21"/>
            <g id="Group_60" data-name="Group 60" transform="translate(31.944 15.312)">
              <path id="Path_131" data-name="Path 131" d="M994.56,437.97s3.746.273,5.331,1.776h0a1.117,1.117,0,0,1-1.022.074Z" transform="translate(-994.56 -437.97)" fill="#2b1a21"/>
              <path id="Path_132" data-name="Path 132" d="M1003.5,443.109c0,.961.331,1.739.741,1.739s.741-.778.741-1.739-.331-1.739-.741-1.739S1003.5,442.148,1003.5,443.109Z" transform="translate(-1001.134 -440.47)" fill="#2b1a21"/>
            </g>
            <path id="Path_133" data-name="Path 133" d="M978.679,398.451a12.881,12.881,0,0,1-1.014-8.317c-1.879-4.73,3.56-9.225,6.17-6.3,0,0,20.856-2.488,12.663,6.567-2.74,3.031-15.016-1.008-15.016-1.008l-2.806,9.061Z" transform="translate(-949.909 -382.168)" fill="#2b1a21"/>
            <path id="Path_134" data-name="Path 134" d="M1014.37,465.36a1.88,1.88,0,0,0,2.7,0s-.582.04-1.329.04-1.368-.04-1.368-.04Z" transform="translate(-977.182 -442.798)" fill="#a74c3a"/>
            <ellipse id="Ellipse_5" data-name="Ellipse 5" cx="1.263" cy="0.596" rx="1.263" ry="0.596" transform="translate(31.576 19.369)" fill="#a74c3a"/>
            <path id="Path_135" data-name="Path 135" d="M1032.613,459.187c-.1.312-.725.384-1.387.161s-1.114-.654-1.008-.966.725-.384,1.387-.161S1032.719,458.875,1032.613,459.187Z" transform="translate(-988.824 -437.454)" fill="#a74c3a"/>
            <path id="Path_136" data-name="Path 136" d="M998.96,381.863a9.588,9.588,0,0,1,7.989-1.355,7.72,7.72,0,0,0-3.994.185,10.875,10.875,0,0,0-3.5,1.826l-.5-.656Z" transform="translate(-965.851 -380.125)" fill="#2b1a21"/>
            <path id="Path_137" data-name="Path 137" d="M1052.788,403.19c3.1,1.26,5.643,3.92,1.445,5.921.826-.67,2.141-1.821,1.292-2.893a6.045,6.045,0,0,0-3.195-1.448l.458-1.58Z" transform="translate(-1005.094 -397.085)" fill="#2b1a21"/>
            <g id="Group_61" data-name="Group 61" transform="translate(53.3 33.057)">
              <ellipse id="Ellipse_6" data-name="Ellipse 6" cx="6.027" cy="8.264" rx="6.027" ry="8.264" transform="translate(5.418)" fill="#fff"/>
              <ellipse id="Ellipse_7" data-name="Ellipse 7" cx="6.027" cy="8.264" rx="6.027" ry="8.264" transform="translate(2.258)" fill="#2b1a21"/>
              <ellipse id="Ellipse_8" data-name="Ellipse 8" cx="6.027" cy="8.264" rx="6.027" ry="8.264" transform="translate(0.527)" fill="#efe5d8"/>
              <ellipse id="Ellipse_9" data-name="Ellipse 9" cx="5.723" cy="7.848" rx="5.723" ry="7.848" transform="translate(0 0.416)" fill="#2b1a21"/>
            </g>
            <path id="Path_138" data-name="Path 138" d="M1064.067,536.844s5.63-5.694,5.966-7.221c.776-3.534-4.868-6.083-4.868-6.083l-5.675,1v9.81" transform="translate(-1010.359 -485.578)" fill="#e5886e"/>
            <g id="Group_62" data-name="Group 62" transform="translate(37.855 33.057)">
              <ellipse id="Ellipse_10" data-name="Ellipse 10" cx="6.027" cy="8.264" rx="6.027" ry="8.264" transform="translate(5.418)" fill="#fff"/>
              <ellipse id="Ellipse_11" data-name="Ellipse 11" cx="6.027" cy="8.264" rx="6.027" ry="8.264" transform="translate(2.258)" fill="#2b1a21"/>
              <ellipse id="Ellipse_12" data-name="Ellipse 12" cx="6.027" cy="8.264" rx="6.027" ry="8.264" transform="translate(0.527)" fill="#efe5d8"/>
              <ellipse id="Ellipse_13" data-name="Ellipse 13" cx="5.723" cy="7.848" rx="5.723" ry="7.848" transform="translate(0 0.416)" fill="#2b1a21"/>
            </g>
            <g id="Group_63" data-name="Group 63" transform="translate(58.12 79.838)">
              <ellipse id="Ellipse_14" data-name="Ellipse 14" cx="6.027" cy="8.264" rx="6.027" ry="8.264" fill="#fff"/>
              <ellipse id="Ellipse_15" data-name="Ellipse 15" cx="6.027" cy="8.264" rx="6.027" ry="8.264" transform="translate(3.161)" fill="#2b1a21"/>
              <ellipse id="Ellipse_16" data-name="Ellipse 16" cx="6.027" cy="8.264" rx="6.027" ry="8.264" transform="translate(4.892)" fill="#efe5d8"/>
              <ellipse id="Ellipse_17" data-name="Ellipse 17" cx="5.723" cy="7.848" rx="5.723" ry="7.848" transform="translate(6.027 0.416)" fill="#2b1a21"/>
            </g>
          </g>
        </g>
      </g>
      <g id="Group_76" data-name="Group 76" transform="translate(50.38 120.497)">
        <g id="Group_72" data-name="Group 72" transform="translate(215.325 371.384)">
          <path id="Path_622" data-name="Path 622" d="M15.869-11.242a5.823,5.823,0,0,1-.915,3.234A5.611,5.611,0,0,1,12.41-5.885a9.552,9.552,0,0,1-3.83.708h-2.3L5.2,0H.348l3.4-16.1h6.5a6.19,6.19,0,0,1,4.167,1.252A4.513,4.513,0,0,1,15.869-11.242Zm-5.155.337a1.588,1.588,0,0,0-.517-1.275,2.212,2.212,0,0,0-1.482-.444H7.861l-.82,3.976H8.4a2.27,2.27,0,0,0,1.679-.635A2.2,2.2,0,0,0,10.714-10.9Zm17.576-1.4H23.112l-.483,2.347h4.852l-.8,3.8H21.832L21.327-3.8h5.537L26.055,0H15.667l3.4-16.1H29.1Zm15.453.371A4.339,4.339,0,0,1,42.479-8.8a5.985,5.985,0,0,1-3.364,1.673v.045a3.578,3.578,0,0,1,2.235,2.875L42.249,0H37.094l-.6-3.583a3.087,3.087,0,0,0-.657-1.544,1.779,1.779,0,0,0-1.4-.533H34.4L33.208,0H28.357l3.4-16.1h6.323a6.961,6.961,0,0,1,4.167,1.089A3.585,3.585,0,0,1,43.743-11.938Zm-5.177.9a1.713,1.713,0,0,0-.444-1.258,1.794,1.794,0,0,0-1.331-.449h-.865L35.1-9.063h1.078a2.541,2.541,0,0,0,1.741-.573A1.8,1.8,0,0,0,38.565-11.04Zm17.856-.528a10.338,10.338,0,0,0-2.134-.932,6.878,6.878,0,0,0-1.9-.27,2,2,0,0,0-1.207.326,1.011,1.011,0,0,0-.444.854,1.166,1.166,0,0,0,.359.854,7.766,7.766,0,0,0,1.55,1.011,7.536,7.536,0,0,1,2.667,2.083,4.607,4.607,0,0,1,.758,2.723,4.688,4.688,0,0,1-.87,2.785A5.15,5.15,0,0,1,52.8-.314a10.025,10.025,0,0,1-3.633.6,11.436,11.436,0,0,1-2.858-.343,10.324,10.324,0,0,1-2.33-.882l.842-3.976a7.268,7.268,0,0,0,4.346,1.583q1.752,0,1.752-1.247a1.193,1.193,0,0,0-.432-.938,6.674,6.674,0,0,0-1.522-.87,6.674,6.674,0,0,1-2.6-1.915,4.46,4.46,0,0,1-.781-2.712,4.933,4.933,0,0,1,.854-2.824,5.229,5.229,0,0,1,2.336-1.9,8.673,8.673,0,0,1,3.437-.635,12.533,12.533,0,0,1,2.78.281,19.318,19.318,0,0,1,2.229.64ZM74.076-9.31a10.7,10.7,0,0,1-1.162,4.93A8.185,8.185,0,0,1,69.691-.91a9.635,9.635,0,0,1-4.9,1.19A7.409,7.409,0,0,1,61.077-.6,5.859,5.859,0,0,1,58.7-3.088a7.964,7.964,0,0,1-.82-3.672A10.553,10.553,0,0,1,59.061-11.7a8.369,8.369,0,0,1,3.246-3.47,9.366,9.366,0,0,1,4.8-1.2,6.858,6.858,0,0,1,5.11,1.887A7.044,7.044,0,0,1,74.076-9.31Zm-5.155.157a3.535,3.535,0,0,0-.612-2.24,2.114,2.114,0,0,0-1.758-.769,2.665,2.665,0,0,0-1.842.708A4.673,4.673,0,0,0,63.48-9.5a7.8,7.8,0,0,0-.444,2.622,3.5,3.5,0,0,0,.618,2.252,2.081,2.081,0,0,0,1.707.758,2.842,2.842,0,0,0,1.808-.629,4.249,4.249,0,0,0,1.275-1.915A7.827,7.827,0,0,0,68.921-9.153ZM90.574,0H86.755L82.083-7.884a11.07,11.07,0,0,1-.831-1.662h-.045q-.2,1.359-.505,2.673L79.231,0H74.75l3.4-16.1h4.189l4.5,7.479a6.305,6.305,0,0,1,.387.7,5.281,5.281,0,0,1,.343.837h.056a6.572,6.572,0,0,1,.135-.876L89.484-16.1h4.492ZM104.2,0l-.236-2.965H99.131L97.683,0H92.348l8.939-16.1h6.031L109.138,0Zm-.708-11.32a7.525,7.525,0,0,1,.056-1.1h-.112l-.213.562-.427.977-1.954,4.122h2.875l-.213-4.032ZM121.39,0H111l3.4-16.1h4.852L116.662-3.8H122.2Z" transform="translate(0 25)" fill="#2b1a21"/>
          <path id="Path_623" data-name="Path 623" d="M9.522-7.492H6.747L5.168,0H2.2L3.78-7.492H1.039L1.524-9.8h8.483Zm11.759.226a2.641,2.641,0,0,1-.769,1.907,3.643,3.643,0,0,1-2.047,1.019v.027a2.178,2.178,0,0,1,1.36,1.75L20.372,0H17.234l-.362-2.181a1.879,1.879,0,0,0-.4-.94,1.083,1.083,0,0,0-.851-.325h-.027L14.869,0H11.916l2.071-9.8h3.849a4.237,4.237,0,0,1,2.536.663A2.182,2.182,0,0,1,21.281-7.267ZM18.13-6.72a1.043,1.043,0,0,0-.27-.766,1.092,1.092,0,0,0-.81-.273h-.526l-.506,2.242h.656a1.547,1.547,0,0,0,1.06-.349A1.1,1.1,0,0,0,18.13-6.72ZM30.62,0l-.144-1.8H27.537L26.655,0H23.408L28.85-9.8h3.671L33.628,0Zm-.431-6.891a4.58,4.58,0,0,1,.034-.67h-.068l-.13.342-.26.595L28.576-4.115h1.75L30.2-6.569ZM40.5,0H37.546l2.071-9.8H42.57Zm14.35,0H52.524L49.681-4.8a6.738,6.738,0,0,1-.506-1.012h-.027q-.123.827-.308,1.627L47.944,0H45.217l2.071-9.8h2.55L52.579-5.25a3.837,3.837,0,0,1,.236.427,3.215,3.215,0,0,1,.208.509h.034a4,4,0,0,1,.082-.533L54.186-9.8H56.92ZM67.264-7.492H64.112l-.294,1.429h2.953l-.485,2.311H63.333l-.308,1.442H66.4L65.9,0H59.58l2.071-9.8h6.1Zm12.2.226A2.641,2.641,0,0,1,78.7-5.359,3.643,3.643,0,0,1,76.65-4.341v.027a2.178,2.178,0,0,1,1.36,1.75L78.558,0H75.42l-.362-2.181a1.879,1.879,0,0,0-.4-.94,1.083,1.083,0,0,0-.851-.325h-.027L73.055,0H70.1l2.071-9.8h3.849a4.237,4.237,0,0,1,2.536.663A2.182,2.182,0,0,1,79.467-7.267Zm-3.151.547a1.043,1.043,0,0,0-.27-.766,1.092,1.092,0,0,0-.81-.273h-.526L74.2-5.517h.656a1.547,1.547,0,0,0,1.06-.349A1.1,1.1,0,0,0,76.316-6.72Z" transform="translate(0.953 42.722)" fill="#eaa03d"/>
        </g>
        <g id="Group_75" data-name="Group 75" transform="translate(143.12 359.31)">
          <g id="Group_74" data-name="Group 74">
            <path id="Path_160" data-name="Path 160" d="M176.005,359.31,143.12,371.765c0,46.651,32.885,60.33,32.885,60.33s32.885-13.678,32.885-60.33L176.005,359.31Z" transform="translate(-143.12 -359.31)" fill="#eaa03d"/>
            <g id="Group_73" data-name="Group 73" clip-path="url(#clip-path-19)">
              <path id="Path_161" data-name="Path 161" d="M180.693,444.934H134.51V338.39h46.183C166.466,375.279,166.649,410.778,180.693,444.934Z" transform="translate(-141.349 -355.007)" fill="#c46c23"/>
            </g>
          </g>
          <path id="Path_163" data-name="Path 163" d="M193.606,403.585a10.647,10.647,0,0,1,1.231-6.251,18.016,18.016,0,0,0,2-8.4,8.85,8.85,0,0,0-2.447-6.521c-3.018-3.042-8.134-3.535-12.527-3.622h0l-.826-.016h-2.351c-4.393.032-9.524.461-12.574,3.463a8.8,8.8,0,0,0-2.534,6.49,18.124,18.124,0,0,0,1.9,8.436,11.11,11.11,0,0,1,1.12,6.45,13.668,13.668,0,0,0,3.876,11.319,6.433,6.433,0,0,0,4.52,1.891l10.072.064a6.309,6.309,0,0,0,4.377-1.684,13.565,13.565,0,0,0,4.21-11.121c-.016-.159-.032-.326-.056-.485ZM181.746,391.8a13.57,13.57,0,0,0-10.31,3.026,1.647,1.647,0,0,1-2.6-.635,14.391,14.391,0,0,1-.969-5.449,4.648,4.648,0,0,1,1.255-3.463c2.057-2.026,6.514-2.24,10.287-2.24h.381c.413,0,.818,0,1.207.008h.167c3.757.048,8.174.334,10.183,2.367a4.615,4.615,0,0,1,1.207,3.479,14.371,14.371,0,0,1-1.049,5.441,1.647,1.647,0,0,1-2.605.6,13.44,13.44,0,0,0-7.165-3.146Z" transform="translate(-147.328 -363.312)" fill="#fff"/>
        </g>
      </g>
    </g>
  </g>
</svg>
